<?xml version="1.0" encoding="us-ascii" standalone="no"?><svg xmlns="http://www.w3.org/2000/svg" xmlns:xlink="http://www.w3.org/1999/xlink" contentStyleType="text/css" height="1092px" preserveAspectRatio="none" style="width:1694px;height:1092px;background:#FFFFFF;" version="1.1" viewBox="0 0 1694 1092" width="1694px" zoomAndPan="magnify"><defs/><g><text fill="#000000" font-family="sans-serif" font-size="14" font-weight="bold" lengthAdjust="spacing" textLength="155" x="762.5" y="25.1074">UC17 CLASS DIAGRAM</text><!--class Runnable--><g id="elem_Runnable"><rect codeLine="4" fill="#F1F1F1" height="66.6211" id="Runnable" rx="2.5" ry="2.5" style="stroke:#181818;stroke-width:0.5;" width="93" x="342" y="46.6211"/><ellipse cx="357" cy="62.6211" fill="#B4A7E5" rx="11" ry="11" style="stroke:#181818;stroke-width:1.0;"/><path d="M357.9531,59.2617 L357.9531,65.918 L359.6719,65.918 Q360.2813,65.918 360.5469,66.1523 Q360.8125,66.3867 360.8125,66.7773 Q360.8125,67.1523 360.5469,67.3867 Q360.2813,67.6211 359.6719,67.6211 L354.5313,67.6211 Q353.9219,67.6211 353.6563,67.3867 Q353.3906,67.1523 353.3906,66.7617 Q353.3906,66.3867 353.6563,66.1523 Q353.9219,65.918 354.5313,65.918 L356.25,65.918 L356.25,59.2617 L354.5313,59.2617 Q353.9219,59.2617 353.6563,59.0273 Q353.3906,58.793 353.3906,58.4023 Q353.3906,58.0273 353.6563,57.793 Q353.9219,57.5586 354.5313,57.5586 L359.6719,57.5586 Q360.2813,57.5586 360.5469,57.793 Q360.8125,58.0273 360.8125,58.4023 Q360.8125,58.793 360.5469,59.0273 Q360.2813,59.2617 359.6719,59.2617 L357.9531,59.2617 Z " fill="#000000"/><text fill="#000000" font-family="sans-serif" font-size="14" font-style="italic" lengthAdjust="spacing" textLength="61" x="371" y="68.418">Runnable</text><line style="stroke:#181818;stroke-width:0.5;" x1="343" x2="434" y1="78.6211" y2="78.6211"/><line style="stroke:#181818;stroke-width:0.5;" x1="343" x2="434" y1="86.6211" y2="86.6211"/><ellipse cx="353" cy="101.4316" fill="#84BE84" rx="3" ry="3" style="stroke:#038048;stroke-width:1.0;"/><text fill="#000000" font-family="sans-serif" font-size="14" lengthAdjust="spacing" textLength="31" x="362" y="105.7285">run()</text></g><!--class EditJobOpeningUI--><g id="elem_EditJobOpeningUI"><rect codeLine="8" fill="#F1F1F1" height="66.6211" id="EditJobOpeningUI" rx="2.5" ry="2.5" style="stroke:#181818;stroke-width:0.5;" width="144" x="470.5" y="46.6211"/><ellipse cx="485.5" cy="62.6211" fill="#ADD1B2" rx="11" ry="11" style="stroke:#181818;stroke-width:1.0;"/><path d="M488.2656,58.4961 Q488.4219,58.2773 488.6094,58.168 Q488.7969,58.0586 489.0156,58.0586 Q489.3906,58.0586 489.625,58.3242 Q489.8594,58.5742 489.8594,59.1836 L489.8594,60.6367 Q489.8594,61.2461 489.625,61.5117 Q489.3906,61.7773 489.0156,61.7773 Q488.6719,61.7773 488.4688,61.5742 Q488.2656,61.3867 488.1563,60.8711 Q488.1094,60.5117 487.9219,60.3242 Q487.5938,59.9492 486.9844,59.7305 Q486.375,59.5117 485.75,59.5117 Q484.9844,59.5117 484.3438,59.8398 Q483.7188,60.168 483.2188,60.918 Q482.7344,61.668 482.7344,62.6992 L482.7344,63.793 Q482.7344,65.0273 483.625,65.8555 Q484.5156,66.668 486.1094,66.668 Q487.0469,66.668 487.7031,66.418 Q488.0938,66.2617 488.5156,65.8242 Q488.7813,65.5586 488.9219,65.4805 Q489.0781,65.4023 489.2813,65.4023 Q489.6094,65.4023 489.8594,65.668 Q490.125,65.918 490.125,66.2617 Q490.125,66.6055 489.7813,67.0117 Q489.2813,67.5898 488.4844,67.918 Q487.4063,68.3711 486.1094,68.3711 Q484.5938,68.3711 483.3906,67.7461 Q482.4063,67.2461 481.7188,66.1836 Q481.0313,65.1055 481.0313,63.8242 L481.0313,62.668 Q481.0313,61.3398 481.6406,60.1992 Q482.2656,59.043 483.3594,58.4336 Q484.4531,57.8086 485.6875,57.8086 Q486.4219,57.8086 487.0625,57.9805 Q487.7188,58.1367 488.2656,58.4961 Z " fill="#000000"/><text fill="#000000" font-family="sans-serif" font-size="14" lengthAdjust="spacing" textLength="112" x="499.5" y="68.418">EditJobOpeningUI</text><line style="stroke:#181818;stroke-width:0.5;" x1="471.5" x2="613.5" y1="78.6211" y2="78.6211"/><line style="stroke:#181818;stroke-width:0.5;" x1="471.5" x2="613.5" y1="86.6211" y2="86.6211"/><ellipse cx="481.5" cy="101.4316" fill="#84BE84" rx="3" ry="3" style="stroke:#038048;stroke-width:1.0;"/><text fill="#000000" font-family="sans-serif" font-size="14" lengthAdjust="spacing" textLength="31" x="490.5" y="105.7285">run()</text></g><!--class EditJobOpeningController--><g id="elem_EditJobOpeningController"><rect codeLine="12" fill="#F1F1F1" height="103.8633" id="EditJobOpeningController" rx="2.5" ry="2.5" style="stroke:#181818;stroke-width:0.5;" width="252" x="416.5" y="210.6211"/><ellipse cx="457.6" cy="226.6211" fill="#ADD1B2" rx="11" ry="11" style="stroke:#181818;stroke-width:1.0;"/><path d="M460.3656,222.4961 Q460.5219,222.2773 460.7094,222.168 Q460.8969,222.0586 461.1156,222.0586 Q461.4906,222.0586 461.725,222.3242 Q461.9594,222.5742 461.9594,223.1836 L461.9594,224.6367 Q461.9594,225.2461 461.725,225.5117 Q461.4906,225.7773 461.1156,225.7773 Q460.7719,225.7773 460.5688,225.5742 Q460.3656,225.3867 460.2563,224.8711 Q460.2094,224.5117 460.0219,224.3242 Q459.6938,223.9492 459.0844,223.7305 Q458.475,223.5117 457.85,223.5117 Q457.0844,223.5117 456.4438,223.8398 Q455.8188,224.168 455.3188,224.918 Q454.8344,225.668 454.8344,226.6992 L454.8344,227.793 Q454.8344,229.0273 455.725,229.8555 Q456.6156,230.668 458.2094,230.668 Q459.1469,230.668 459.8031,230.418 Q460.1938,230.2617 460.6156,229.8242 Q460.8813,229.5586 461.0219,229.4805 Q461.1781,229.4023 461.3813,229.4023 Q461.7094,229.4023 461.9594,229.668 Q462.225,229.918 462.225,230.2617 Q462.225,230.6055 461.8813,231.0117 Q461.3813,231.5898 460.5844,231.918 Q459.5063,232.3711 458.2094,232.3711 Q456.6938,232.3711 455.4906,231.7461 Q454.5063,231.2461 453.8188,230.1836 Q453.1313,229.1055 453.1313,227.8242 L453.1313,226.668 Q453.1313,225.3398 453.7406,224.1992 Q454.3656,223.043 455.4594,222.4336 Q456.5531,221.8086 457.7875,221.8086 Q458.5219,221.8086 459.1625,221.9805 Q459.8188,222.1367 460.3656,222.4961 Z " fill="#000000"/><text fill="#000000" font-family="sans-serif" font-size="14" lengthAdjust="spacing" textLength="162" x="477.4" y="232.418">EditJobOpeningController</text><line style="stroke:#181818;stroke-width:0.5;" x1="417.5" x2="667.5" y1="242.6211" y2="242.6211"/><line style="stroke:#181818;stroke-width:0.5;" x1="417.5" x2="667.5" y1="250.6211" y2="250.6211"/><ellipse cx="427.5" cy="265.4316" fill="#84BE84" rx="3" ry="3" style="stroke:#038048;stroke-width:1.0;"/><text fill="#000000" font-family="sans-serif" font-size="14" lengthAdjust="spacing" textLength="226" x="436.5" y="269.7285">getJobOpeningsWithActivePhases()</text><ellipse cx="427.5" cy="284.0527" fill="#84BE84" rx="3" ry="3" style="stroke:#038048;stroke-width:1.0;"/><text fill="#000000" font-family="sans-serif" font-size="14" lengthAdjust="spacing" textLength="169" x="436.5" y="288.3496">jobOpeningExists(int input)</text><ellipse cx="427.5" cy="302.6738" fill="#84BE84" rx="3" ry="3" style="stroke:#038048;stroke-width:1.0;"/><text fill="#000000" font-family="sans-serif" font-size="14" lengthAdjust="spacing" textLength="133" x="436.5" y="306.9707">closePhase(int input)</text></g><!--class JobOpeningRepository--><g id="elem_JobOpeningRepository"><rect codeLine="18" fill="#F1F1F1" height="66.6211" id="JobOpeningRepository" rx="2.5" ry="2.5" style="stroke:#181818;stroke-width:0.5;" width="176" x="205.5" y="229.1211"/><ellipse cx="220.5" cy="245.1211" fill="#ADD1B2" rx="11" ry="11" style="stroke:#181818;stroke-width:1.0;"/><path d="M223.2656,240.9961 Q223.4219,240.7773 223.6094,240.668 Q223.7969,240.5586 224.0156,240.5586 Q224.3906,240.5586 224.625,240.8242 Q224.8594,241.0742 224.8594,241.6836 L224.8594,243.1367 Q224.8594,243.7461 224.625,244.0117 Q224.3906,244.2773 224.0156,244.2773 Q223.6719,244.2773 223.4688,244.0742 Q223.2656,243.8867 223.1563,243.3711 Q223.1094,243.0117 222.9219,242.8242 Q222.5938,242.4492 221.9844,242.2305 Q221.375,242.0117 220.75,242.0117 Q219.9844,242.0117 219.3438,242.3398 Q218.7188,242.668 218.2188,243.418 Q217.7344,244.168 217.7344,245.1992 L217.7344,246.293 Q217.7344,247.5273 218.625,248.3555 Q219.5156,249.168 221.1094,249.168 Q222.0469,249.168 222.7031,248.918 Q223.0938,248.7617 223.5156,248.3242 Q223.7813,248.0586 223.9219,247.9805 Q224.0781,247.9023 224.2813,247.9023 Q224.6094,247.9023 224.8594,248.168 Q225.125,248.418 225.125,248.7617 Q225.125,249.1055 224.7813,249.5117 Q224.2813,250.0898 223.4844,250.418 Q222.4063,250.8711 221.1094,250.8711 Q219.5938,250.8711 218.3906,250.2461 Q217.4063,249.7461 216.7188,248.6836 Q216.0313,247.6055 216.0313,246.3242 L216.0313,245.168 Q216.0313,243.8398 216.6406,242.6992 Q217.2656,241.543 218.3594,240.9336 Q219.4531,240.3086 220.6875,240.3086 Q221.4219,240.3086 222.0625,240.4805 Q222.7188,240.6367 223.2656,240.9961 Z " fill="#000000"/><text fill="#000000" font-family="sans-serif" font-size="14" lengthAdjust="spacing" textLength="144" x="234.5" y="250.918">JobOpeningRepository</text><line style="stroke:#181818;stroke-width:0.5;" x1="206.5" x2="380.5" y1="261.1211" y2="261.1211"/><line style="stroke:#181818;stroke-width:0.5;" x1="206.5" x2="380.5" y1="269.1211" y2="269.1211"/><ellipse cx="216.5" cy="283.9316" fill="#84BE84" rx="3" ry="3" style="stroke:#038048;stroke-width:1.0;"/><text fill="#000000" font-family="sans-serif" font-size="14" lengthAdjust="spacing" textLength="40" x="225.5" y="288.2285">save()</text></g><!--class JobOpening--><g id="elem_JobOpening"><rect codeLine="22" fill="#F1F1F1" height="308.6953" id="JobOpening" rx="2.5" ry="2.5" style="stroke:#181818;stroke-width:0.5;" width="173" x="331" y="649.6211"/><ellipse cx="375.25" cy="665.6211" fill="#ADD1B2" rx="11" ry="11" style="stroke:#181818;stroke-width:1.0;"/><path d="M378.0156,661.4961 Q378.1719,661.2773 378.3594,661.168 Q378.5469,661.0586 378.7656,661.0586 Q379.1406,661.0586 379.375,661.3242 Q379.6094,661.5742 379.6094,662.1836 L379.6094,663.6367 Q379.6094,664.2461 379.375,664.5117 Q379.1406,664.7773 378.7656,664.7773 Q378.4219,664.7773 378.2188,664.5742 Q378.0156,664.3867 377.9063,663.8711 Q377.8594,663.5117 377.6719,663.3242 Q377.3438,662.9492 376.7344,662.7305 Q376.125,662.5117 375.5,662.5117 Q374.7344,662.5117 374.0938,662.8398 Q373.4688,663.168 372.9688,663.918 Q372.4844,664.668 372.4844,665.6992 L372.4844,666.793 Q372.4844,668.0273 373.375,668.8555 Q374.2656,669.668 375.8594,669.668 Q376.7969,669.668 377.4531,669.418 Q377.8438,669.2617 378.2656,668.8242 Q378.5313,668.5586 378.6719,668.4805 Q378.8281,668.4023 379.0313,668.4023 Q379.3594,668.4023 379.6094,668.668 Q379.875,668.918 379.875,669.2617 Q379.875,669.6055 379.5313,670.0117 Q379.0313,670.5898 378.2344,670.918 Q377.1563,671.3711 375.8594,671.3711 Q374.3438,671.3711 373.1406,670.7461 Q372.1563,670.2461 371.4688,669.1836 Q370.7813,668.1055 370.7813,666.8242 L370.7813,665.668 Q370.7813,664.3398 371.3906,663.1992 Q372.0156,662.043 373.1094,661.4336 Q374.2031,660.8086 375.4375,660.8086 Q376.1719,660.8086 376.8125,660.9805 Q377.4688,661.1367 378.0156,661.4961 Z " fill="#000000"/><text fill="#000000" font-family="sans-serif" font-size="14" lengthAdjust="spacing" textLength="76" x="395.75" y="671.418">JobOpening</text><line style="stroke:#181818;stroke-width:0.5;" x1="332" x2="503" y1="681.6211" y2="681.6211"/><rect fill="none" height="6" style="stroke:#C82930;stroke-width:1.0;" width="6" x="339" y="693.4316"/><text fill="#000000" font-family="sans-serif" font-size="14" lengthAdjust="spacing" textLength="50" x="351" y="700.7285">jobTitle;</text><rect fill="none" height="6" style="stroke:#C82930;stroke-width:1.0;" width="6" x="339" y="712.0527"/><text fill="#000000" font-family="sans-serif" font-size="14" lengthAdjust="spacing" textLength="55" x="351" y="719.3496">jobType;</text><rect fill="none" height="6" style="stroke:#C82930;stroke-width:1.0;" width="6" x="339" y="730.6738"/><text fill="#000000" font-family="sans-serif" font-size="14" lengthAdjust="spacing" textLength="87" x="351" y="737.9707">workingMode;</text><rect fill="none" height="6" style="stroke:#C82930;stroke-width:1.0;" width="6" x="339" y="749.2949"/><text fill="#000000" font-family="sans-serif" font-size="14" lengthAdjust="spacing" textLength="97" x="351" y="756.5918">companyName;</text><rect fill="none" height="6" style="stroke:#C82930;stroke-width:1.0;" width="6" x="339" y="767.916"/><text fill="#000000" font-family="sans-serif" font-size="14" lengthAdjust="spacing" textLength="94" x="351" y="775.2129">jobDescription;</text><rect fill="none" height="6" style="stroke:#C82930;stroke-width:1.0;" width="6" x="339" y="786.5371"/><text fill="#000000" font-family="sans-serif" font-size="14" lengthAdjust="spacing" textLength="117" x="351" y="793.834">numberVacancies;</text><rect fill="none" height="6" style="stroke:#C82930;stroke-width:1.0;" width="6" x="339" y="805.1582"/><text fill="#000000" font-family="sans-serif" font-size="14" lengthAdjust="spacing" textLength="126" x="351" y="812.4551">recruitmentProcess;</text><line style="stroke:#181818;stroke-width:0.5;" x1="332" x2="503" y1="819.9688" y2="819.9688"/><ellipse cx="342" cy="834.7793" fill="#84BE84" rx="3" ry="3" style="stroke:#038048;stroke-width:1.0;"/><text fill="#000000" font-family="sans-serif" font-size="14" lengthAdjust="spacing" textLength="82" x="351" y="839.0762">editJobTitle()</text><ellipse cx="342" cy="853.4004" fill="#84BE84" rx="3" ry="3" style="stroke:#038048;stroke-width:1.0;"/><text fill="#000000" font-family="sans-serif" font-size="14" lengthAdjust="spacing" textLength="87" x="351" y="857.6973">editJobType()</text><ellipse cx="342" cy="872.0215" fill="#84BE84" rx="3" ry="3" style="stroke:#038048;stroke-width:1.0;"/><text fill="#000000" font-family="sans-serif" font-size="14" lengthAdjust="spacing" textLength="120" x="351" y="876.3184">editWorkingMode()</text><ellipse cx="342" cy="890.6426" fill="#84BE84" rx="3" ry="3" style="stroke:#038048;stroke-width:1.0;"/><text fill="#000000" font-family="sans-serif" font-size="14" lengthAdjust="spacing" textLength="129" x="351" y="894.9395">editCompanyName()</text><ellipse cx="342" cy="909.2637" fill="#84BE84" rx="3" ry="3" style="stroke:#038048;stroke-width:1.0;"/><text fill="#000000" font-family="sans-serif" font-size="14" lengthAdjust="spacing" textLength="126" x="351" y="913.5605">editJobDescription()</text><ellipse cx="342" cy="927.8848" fill="#84BE84" rx="3" ry="3" style="stroke:#038048;stroke-width:1.0;"/><text fill="#000000" font-family="sans-serif" font-size="14" lengthAdjust="spacing" textLength="143" x="351" y="932.1816">editJobRequirements()</text><ellipse cx="342" cy="946.5059" fill="#84BE84" rx="3" ry="3" style="stroke:#038048;stroke-width:1.0;"/><text fill="#000000" font-family="sans-serif" font-size="14" lengthAdjust="spacing" textLength="147" x="351" y="950.8027">editNumberVacancies()</text></g><!--class RecruitmentProcess--><g id="elem_RecruitmentProcess"><rect codeLine="41" fill="#F1F1F1" height="178.3477" id="RecruitmentProcess" rx="2.5" ry="2.5" style="stroke:#181818;stroke-width:0.5;" width="159" x="1528" y="173.6211"/><ellipse cx="1543" cy="189.6211" fill="#ADD1B2" rx="11" ry="11" style="stroke:#181818;stroke-width:1.0;"/><path d="M1545.7656,185.4961 Q1545.9219,185.2773 1546.1094,185.168 Q1546.2969,185.0586 1546.5156,185.0586 Q1546.8906,185.0586 1547.125,185.3242 Q1547.3594,185.5742 1547.3594,186.1836 L1547.3594,187.6367 Q1547.3594,188.2461 1547.125,188.5117 Q1546.8906,188.7773 1546.5156,188.7773 Q1546.1719,188.7773 1545.9688,188.5742 Q1545.7656,188.3867 1545.6563,187.8711 Q1545.6094,187.5117 1545.4219,187.3242 Q1545.0938,186.9492 1544.4844,186.7305 Q1543.875,186.5117 1543.25,186.5117 Q1542.4844,186.5117 1541.8438,186.8398 Q1541.2188,187.168 1540.7188,187.918 Q1540.2344,188.668 1540.2344,189.6992 L1540.2344,190.793 Q1540.2344,192.0273 1541.125,192.8555 Q1542.0156,193.668 1543.6094,193.668 Q1544.5469,193.668 1545.2031,193.418 Q1545.5938,193.2617 1546.0156,192.8242 Q1546.2813,192.5586 1546.4219,192.4805 Q1546.5781,192.4023 1546.7813,192.4023 Q1547.1094,192.4023 1547.3594,192.668 Q1547.625,192.918 1547.625,193.2617 Q1547.625,193.6055 1547.2813,194.0117 Q1546.7813,194.5898 1545.9844,194.918 Q1544.9063,195.3711 1543.6094,195.3711 Q1542.0938,195.3711 1540.8906,194.7461 Q1539.9063,194.2461 1539.2188,193.1836 Q1538.5313,192.1055 1538.5313,190.8242 L1538.5313,189.668 Q1538.5313,188.3398 1539.1406,187.1992 Q1539.7656,186.043 1540.8594,185.4336 Q1541.9531,184.8086 1543.1875,184.8086 Q1543.9219,184.8086 1544.5625,184.9805 Q1545.2188,185.1367 1545.7656,185.4961 Z " fill="#000000"/><text fill="#000000" font-family="sans-serif" font-size="14" lengthAdjust="spacing" textLength="127" x="1557" y="195.418">RecruitmentProcess</text><line style="stroke:#181818;stroke-width:0.5;" x1="1529" x2="1686" y1="205.6211" y2="205.6211"/><rect fill="none" height="6" style="stroke:#C82930;stroke-width:1.0;" width="6" x="1536" y="217.4316"/><text fill="#000000" font-family="sans-serif" font-size="14" lengthAdjust="spacing" textLength="112" x="1548" y="224.7285">applicationPhase;</text><rect fill="none" height="6" style="stroke:#C82930;stroke-width:1.0;" width="6" x="1536" y="236.0527"/><text fill="#000000" font-family="sans-serif" font-size="14" lengthAdjust="spacing" textLength="106" x="1548" y="243.3496">screeningPhase;</text><rect fill="none" height="6" style="stroke:#C82930;stroke-width:1.0;" width="6" x="1536" y="254.6738"/><text fill="#000000" font-family="sans-serif" font-size="14" lengthAdjust="spacing" textLength="99" x="1548" y="261.9707">interviewPhase;</text><rect fill="none" height="6" style="stroke:#C82930;stroke-width:1.0;" width="6" x="1536" y="273.2949"/><text fill="#000000" font-family="sans-serif" font-size="14" lengthAdjust="spacing" textLength="95" x="1548" y="280.5918">analysisPhase;</text><rect fill="none" height="6" style="stroke:#C82930;stroke-width:1.0;" width="6" x="1536" y="291.916"/><text fill="#000000" font-family="sans-serif" font-size="14" lengthAdjust="spacing" textLength="86" x="1548" y="299.2129">resultsPhase;</text><line style="stroke:#181818;stroke-width:0.5;" x1="1529" x2="1686" y1="306.7266" y2="306.7266"/><ellipse cx="1539" cy="321.5371" fill="#84BE84" rx="3" ry="3" style="stroke:#038048;stroke-width:1.0;"/><text fill="#000000" font-family="sans-serif" font-size="14" lengthAdjust="spacing" textLength="121" x="1548" y="325.834">closeActivePhase()</text><ellipse cx="1539" cy="340.1582" fill="#84BE84" rx="3" ry="3" style="stroke:#038048;stroke-width:1.0;"/><text fill="#000000" font-family="sans-serif" font-size="14" lengthAdjust="spacing" textLength="108" x="1548" y="344.4551">getActivePhase()</text></g><!--class EditJobOpeningService--><g id="elem_EditJobOpeningService"><rect codeLine="52" fill="#F1F1F1" height="178.3477" id="EditJobOpeningService" rx="2.5" ry="2.5" style="stroke:#181818;stroke-width:0.5;" width="179" x="328" y="411.6211"/><ellipse cx="343" cy="427.6211" fill="#ADD1B2" rx="11" ry="11" style="stroke:#181818;stroke-width:1.0;"/><path d="M345.7656,423.4961 Q345.9219,423.2773 346.1094,423.168 Q346.2969,423.0586 346.5156,423.0586 Q346.8906,423.0586 347.125,423.3242 Q347.3594,423.5742 347.3594,424.1836 L347.3594,425.6367 Q347.3594,426.2461 347.125,426.5117 Q346.8906,426.7773 346.5156,426.7773 Q346.1719,426.7773 345.9688,426.5742 Q345.7656,426.3867 345.6563,425.8711 Q345.6094,425.5117 345.4219,425.3242 Q345.0938,424.9492 344.4844,424.7305 Q343.875,424.5117 343.25,424.5117 Q342.4844,424.5117 341.8438,424.8398 Q341.2188,425.168 340.7188,425.918 Q340.2344,426.668 340.2344,427.6992 L340.2344,428.793 Q340.2344,430.0273 341.125,430.8555 Q342.0156,431.668 343.6094,431.668 Q344.5469,431.668 345.2031,431.418 Q345.5938,431.2617 346.0156,430.8242 Q346.2813,430.5586 346.4219,430.4805 Q346.5781,430.4023 346.7813,430.4023 Q347.1094,430.4023 347.3594,430.668 Q347.625,430.918 347.625,431.2617 Q347.625,431.6055 347.2813,432.0117 Q346.7813,432.5898 345.9844,432.918 Q344.9063,433.3711 343.6094,433.3711 Q342.0938,433.3711 340.8906,432.7461 Q339.9063,432.2461 339.2188,431.1836 Q338.5313,430.1055 338.5313,428.8242 L338.5313,427.668 Q338.5313,426.3398 339.1406,425.1992 Q339.7656,424.043 340.8594,423.4336 Q341.9531,422.8086 343.1875,422.8086 Q343.9219,422.8086 344.5625,422.9805 Q345.2188,423.1367 345.7656,423.4961 Z " fill="#000000"/><text fill="#000000" font-family="sans-serif" font-size="14" lengthAdjust="spacing" textLength="147" x="357" y="433.418">EditJobOpeningService</text><line style="stroke:#181818;stroke-width:0.5;" x1="329" x2="506" y1="443.6211" y2="443.6211"/><line style="stroke:#181818;stroke-width:0.5;" x1="329" x2="506" y1="451.6211" y2="451.6211"/><ellipse cx="339" cy="466.4316" fill="#84BE84" rx="3" ry="3" style="stroke:#038048;stroke-width:1.0;"/><text fill="#000000" font-family="sans-serif" font-size="14" lengthAdjust="spacing" textLength="82" x="348" y="470.7285">editJobTitle()</text><ellipse cx="339" cy="485.0527" fill="#84BE84" rx="3" ry="3" style="stroke:#038048;stroke-width:1.0;"/><text fill="#000000" font-family="sans-serif" font-size="14" lengthAdjust="spacing" textLength="87" x="348" y="489.3496">editJobType()</text><ellipse cx="339" cy="503.6738" fill="#84BE84" rx="3" ry="3" style="stroke:#038048;stroke-width:1.0;"/><text fill="#000000" font-family="sans-serif" font-size="14" lengthAdjust="spacing" textLength="120" x="348" y="507.9707">editWorkingMode()</text><ellipse cx="339" cy="522.2949" fill="#84BE84" rx="3" ry="3" style="stroke:#038048;stroke-width:1.0;"/><text fill="#000000" font-family="sans-serif" font-size="14" lengthAdjust="spacing" textLength="129" x="348" y="526.5918">editCompanyName()</text><ellipse cx="339" cy="540.916" fill="#84BE84" rx="3" ry="3" style="stroke:#038048;stroke-width:1.0;"/><text fill="#000000" font-family="sans-serif" font-size="14" lengthAdjust="spacing" textLength="126" x="348" y="545.2129">editJobDescription()</text><ellipse cx="339" cy="559.5371" fill="#84BE84" rx="3" ry="3" style="stroke:#038048;stroke-width:1.0;"/><text fill="#000000" font-family="sans-serif" font-size="14" lengthAdjust="spacing" textLength="143" x="348" y="563.834">editJobRequirements()</text><ellipse cx="339" cy="578.1582" fill="#84BE84" rx="3" ry="3" style="stroke:#038048;stroke-width:1.0;"/><text fill="#000000" font-family="sans-serif" font-size="14" lengthAdjust="spacing" textLength="147" x="348" y="582.4551">editNumberVacancies()</text></g><!--class SetupPhasesService--><g id="elem_SetupPhasesService"><rect codeLine="62" fill="#F1F1F1" height="66.6211" id="SetupPhasesService" rx="2.5" ry="2.5" style="stroke:#181818;stroke-width:0.5;" width="163" x="7" y="229.1211"/><ellipse cx="22" cy="245.1211" fill="#ADD1B2" rx="11" ry="11" style="stroke:#181818;stroke-width:1.0;"/><path d="M24.7656,240.9961 Q24.9219,240.7773 25.1094,240.668 Q25.2969,240.5586 25.5156,240.5586 Q25.8906,240.5586 26.125,240.8242 Q26.3594,241.0742 26.3594,241.6836 L26.3594,243.1367 Q26.3594,243.7461 26.125,244.0117 Q25.8906,244.2773 25.5156,244.2773 Q25.1719,244.2773 24.9688,244.0742 Q24.7656,243.8867 24.6563,243.3711 Q24.6094,243.0117 24.4219,242.8242 Q24.0938,242.4492 23.4844,242.2305 Q22.875,242.0117 22.25,242.0117 Q21.4844,242.0117 20.8438,242.3398 Q20.2188,242.668 19.7188,243.418 Q19.2344,244.168 19.2344,245.1992 L19.2344,246.293 Q19.2344,247.5273 20.125,248.3555 Q21.0156,249.168 22.6094,249.168 Q23.5469,249.168 24.2031,248.918 Q24.5938,248.7617 25.0156,248.3242 Q25.2813,248.0586 25.4219,247.9805 Q25.5781,247.9023 25.7813,247.9023 Q26.1094,247.9023 26.3594,248.168 Q26.625,248.418 26.625,248.7617 Q26.625,249.1055 26.2813,249.5117 Q25.7813,250.0898 24.9844,250.418 Q23.9063,250.8711 22.6094,250.8711 Q21.0938,250.8711 19.8906,250.2461 Q18.9063,249.7461 18.2188,248.6836 Q17.5313,247.6055 17.5313,246.3242 L17.5313,245.168 Q17.5313,243.8398 18.1406,242.6992 Q18.7656,241.543 19.8594,240.9336 Q20.9531,240.3086 22.1875,240.3086 Q22.9219,240.3086 23.5625,240.4805 Q24.2188,240.6367 24.7656,240.9961 Z " fill="#000000"/><text fill="#000000" font-family="sans-serif" font-size="14" lengthAdjust="spacing" textLength="131" x="36" y="250.918">SetupPhasesService</text><line style="stroke:#181818;stroke-width:0.5;" x1="8" x2="169" y1="261.1211" y2="261.1211"/><line style="stroke:#181818;stroke-width:0.5;" x1="8" x2="169" y1="269.1211" y2="269.1211"/><ellipse cx="18" cy="283.9316" fill="#84BE84" rx="3" ry="3" style="stroke:#038048;stroke-width:1.0;"/><text fill="#000000" font-family="sans-serif" font-size="14" lengthAdjust="spacing" textLength="92" x="27" y="288.2285">setupPhases()</text></g><!--class JobTitle--><g id="elem_JobTitle"><rect codeLine="71" fill="#F1F1F1" height="66.6211" id="JobTitle" rx="2.5" ry="2.5" style="stroke:#181818;stroke-width:0.5;" width="81" x="120" y="1018.6211"/><ellipse cx="135" cy="1034.6211" fill="#ADD1B2" rx="11" ry="11" style="stroke:#181818;stroke-width:1.0;"/><path d="M137.7656,1030.4961 Q137.9219,1030.2773 138.1094,1030.168 Q138.2969,1030.0586 138.5156,1030.0586 Q138.8906,1030.0586 139.125,1030.3242 Q139.3594,1030.5742 139.3594,1031.1836 L139.3594,1032.6367 Q139.3594,1033.2461 139.125,1033.5117 Q138.8906,1033.7773 138.5156,1033.7773 Q138.1719,1033.7773 137.9688,1033.5742 Q137.7656,1033.3867 137.6563,1032.8711 Q137.6094,1032.5117 137.4219,1032.3242 Q137.0938,1031.9492 136.4844,1031.7305 Q135.875,1031.5117 135.25,1031.5117 Q134.4844,1031.5117 133.8438,1031.8398 Q133.2188,1032.168 132.7188,1032.918 Q132.2344,1033.668 132.2344,1034.6992 L132.2344,1035.793 Q132.2344,1037.0273 133.125,1037.8555 Q134.0156,1038.668 135.6094,1038.668 Q136.5469,1038.668 137.2031,1038.418 Q137.5938,1038.2617 138.0156,1037.8242 Q138.2813,1037.5586 138.4219,1037.4805 Q138.5781,1037.4023 138.7813,1037.4023 Q139.1094,1037.4023 139.3594,1037.668 Q139.625,1037.918 139.625,1038.2617 Q139.625,1038.6055 139.2813,1039.0117 Q138.7813,1039.5898 137.9844,1039.918 Q136.9063,1040.3711 135.6094,1040.3711 Q134.0938,1040.3711 132.8906,1039.7461 Q131.9063,1039.2461 131.2188,1038.1836 Q130.5313,1037.1055 130.5313,1035.8242 L130.5313,1034.668 Q130.5313,1033.3398 131.1406,1032.1992 Q131.7656,1031.043 132.8594,1030.4336 Q133.9531,1029.8086 135.1875,1029.8086 Q135.9219,1029.8086 136.5625,1029.9805 Q137.2188,1030.1367 137.7656,1030.4961 Z " fill="#000000"/><text fill="#000000" font-family="sans-serif" font-size="14" lengthAdjust="spacing" textLength="49" x="149" y="1040.418">JobTitle</text><line style="stroke:#181818;stroke-width:0.5;" x1="121" x2="200" y1="1050.6211" y2="1050.6211"/><rect fill="none" height="6" style="stroke:#C82930;stroke-width:1.0;" width="6" x="128" y="1062.4316"/><text fill="#000000" font-family="sans-serif" font-size="14" lengthAdjust="spacing" textLength="26" x="140" y="1069.7285">title;</text><line style="stroke:#181818;stroke-width:0.5;" x1="121" x2="200" y1="1077.2422" y2="1077.2422"/></g><!--class JobType--><g id="elem_JobType"><rect codeLine="75" fill="#F1F1F1" height="66.6211" id="JobType" rx="2.5" ry="2.5" style="stroke:#181818;stroke-width:0.5;" width="86" x="236.5" y="1018.6211"/><ellipse cx="251.5" cy="1034.6211" fill="#ADD1B2" rx="11" ry="11" style="stroke:#181818;stroke-width:1.0;"/><path d="M254.2656,1030.4961 Q254.4219,1030.2773 254.6094,1030.168 Q254.7969,1030.0586 255.0156,1030.0586 Q255.3906,1030.0586 255.625,1030.3242 Q255.8594,1030.5742 255.8594,1031.1836 L255.8594,1032.6367 Q255.8594,1033.2461 255.625,1033.5117 Q255.3906,1033.7773 255.0156,1033.7773 Q254.6719,1033.7773 254.4688,1033.5742 Q254.2656,1033.3867 254.1563,1032.8711 Q254.1094,1032.5117 253.9219,1032.3242 Q253.5938,1031.9492 252.9844,1031.7305 Q252.375,1031.5117 251.75,1031.5117 Q250.9844,1031.5117 250.3438,1031.8398 Q249.7188,1032.168 249.2188,1032.918 Q248.7344,1033.668 248.7344,1034.6992 L248.7344,1035.793 Q248.7344,1037.0273 249.625,1037.8555 Q250.5156,1038.668 252.1094,1038.668 Q253.0469,1038.668 253.7031,1038.418 Q254.0938,1038.2617 254.5156,1037.8242 Q254.7813,1037.5586 254.9219,1037.4805 Q255.0781,1037.4023 255.2813,1037.4023 Q255.6094,1037.4023 255.8594,1037.668 Q256.125,1037.918 256.125,1038.2617 Q256.125,1038.6055 255.7813,1039.0117 Q255.2813,1039.5898 254.4844,1039.918 Q253.4063,1040.3711 252.1094,1040.3711 Q250.5938,1040.3711 249.3906,1039.7461 Q248.4063,1039.2461 247.7188,1038.1836 Q247.0313,1037.1055 247.0313,1035.8242 L247.0313,1034.668 Q247.0313,1033.3398 247.6406,1032.1992 Q248.2656,1031.043 249.3594,1030.4336 Q250.4531,1029.8086 251.6875,1029.8086 Q252.4219,1029.8086 253.0625,1029.9805 Q253.7188,1030.1367 254.2656,1030.4961 Z " fill="#000000"/><text fill="#000000" font-family="sans-serif" font-size="14" lengthAdjust="spacing" textLength="54" x="265.5" y="1040.418">JobType</text><line style="stroke:#181818;stroke-width:0.5;" x1="237.5" x2="321.5" y1="1050.6211" y2="1050.6211"/><rect fill="none" height="6" style="stroke:#C82930;stroke-width:1.0;" width="6" x="244.5" y="1062.4316"/><text fill="#000000" font-family="sans-serif" font-size="14" lengthAdjust="spacing" textLength="31" x="256.5" y="1069.7285">type;</text><line style="stroke:#181818;stroke-width:0.5;" x1="237.5" x2="321.5" y1="1077.2422" y2="1077.2422"/></g><!--class WorkingMode--><g id="elem_WorkingMode"><rect codeLine="79" fill="#F1F1F1" height="66.6211" id="WorkingMode" rx="2.5" ry="2.5" style="stroke:#181818;stroke-width:0.5;" width="119" x="358" y="1018.6211"/><ellipse cx="373" cy="1034.6211" fill="#ADD1B2" rx="11" ry="11" style="stroke:#181818;stroke-width:1.0;"/><path d="M375.7656,1030.4961 Q375.9219,1030.2773 376.1094,1030.168 Q376.2969,1030.0586 376.5156,1030.0586 Q376.8906,1030.0586 377.125,1030.3242 Q377.3594,1030.5742 377.3594,1031.1836 L377.3594,1032.6367 Q377.3594,1033.2461 377.125,1033.5117 Q376.8906,1033.7773 376.5156,1033.7773 Q376.1719,1033.7773 375.9688,1033.5742 Q375.7656,1033.3867 375.6563,1032.8711 Q375.6094,1032.5117 375.4219,1032.3242 Q375.0938,1031.9492 374.4844,1031.7305 Q373.875,1031.5117 373.25,1031.5117 Q372.4844,1031.5117 371.8438,1031.8398 Q371.2188,1032.168 370.7188,1032.918 Q370.2344,1033.668 370.2344,1034.6992 L370.2344,1035.793 Q370.2344,1037.0273 371.125,1037.8555 Q372.0156,1038.668 373.6094,1038.668 Q374.5469,1038.668 375.2031,1038.418 Q375.5938,1038.2617 376.0156,1037.8242 Q376.2813,1037.5586 376.4219,1037.4805 Q376.5781,1037.4023 376.7813,1037.4023 Q377.1094,1037.4023 377.3594,1037.668 Q377.625,1037.918 377.625,1038.2617 Q377.625,1038.6055 377.2813,1039.0117 Q376.7813,1039.5898 375.9844,1039.918 Q374.9063,1040.3711 373.6094,1040.3711 Q372.0938,1040.3711 370.8906,1039.7461 Q369.9063,1039.2461 369.2188,1038.1836 Q368.5313,1037.1055 368.5313,1035.8242 L368.5313,1034.668 Q368.5313,1033.3398 369.1406,1032.1992 Q369.7656,1031.043 370.8594,1030.4336 Q371.9531,1029.8086 373.1875,1029.8086 Q373.9219,1029.8086 374.5625,1029.9805 Q375.2188,1030.1367 375.7656,1030.4961 Z " fill="#000000"/><text fill="#000000" font-family="sans-serif" font-size="14" lengthAdjust="spacing" textLength="87" x="387" y="1040.418">WorkingMode</text><line style="stroke:#181818;stroke-width:0.5;" x1="359" x2="476" y1="1050.6211" y2="1050.6211"/><rect fill="none" height="6" style="stroke:#C82930;stroke-width:1.0;" width="6" x="366" y="1062.4316"/><text fill="#000000" font-family="sans-serif" font-size="14" lengthAdjust="spacing" textLength="39" x="378" y="1069.7285">mode;</text><line style="stroke:#181818;stroke-width:0.5;" x1="359" x2="476" y1="1077.2422" y2="1077.2422"/></g><!--class CompanyName--><g id="elem_CompanyName"><rect codeLine="83" fill="#F1F1F1" height="66.6211" id="CompanyName" rx="2.5" ry="2.5" style="stroke:#181818;stroke-width:0.5;" width="128" x="512.5" y="1018.6211"/><ellipse cx="527.5" cy="1034.6211" fill="#ADD1B2" rx="11" ry="11" style="stroke:#181818;stroke-width:1.0;"/><path d="M530.2656,1030.4961 Q530.4219,1030.2773 530.6094,1030.168 Q530.7969,1030.0586 531.0156,1030.0586 Q531.3906,1030.0586 531.625,1030.3242 Q531.8594,1030.5742 531.8594,1031.1836 L531.8594,1032.6367 Q531.8594,1033.2461 531.625,1033.5117 Q531.3906,1033.7773 531.0156,1033.7773 Q530.6719,1033.7773 530.4688,1033.5742 Q530.2656,1033.3867 530.1563,1032.8711 Q530.1094,1032.5117 529.9219,1032.3242 Q529.5938,1031.9492 528.9844,1031.7305 Q528.375,1031.5117 527.75,1031.5117 Q526.9844,1031.5117 526.3438,1031.8398 Q525.7188,1032.168 525.2188,1032.918 Q524.7344,1033.668 524.7344,1034.6992 L524.7344,1035.793 Q524.7344,1037.0273 525.625,1037.8555 Q526.5156,1038.668 528.1094,1038.668 Q529.0469,1038.668 529.7031,1038.418 Q530.0938,1038.2617 530.5156,1037.8242 Q530.7813,1037.5586 530.9219,1037.4805 Q531.0781,1037.4023 531.2813,1037.4023 Q531.6094,1037.4023 531.8594,1037.668 Q532.125,1037.918 532.125,1038.2617 Q532.125,1038.6055 531.7813,1039.0117 Q531.2813,1039.5898 530.4844,1039.918 Q529.4063,1040.3711 528.1094,1040.3711 Q526.5938,1040.3711 525.3906,1039.7461 Q524.4063,1039.2461 523.7188,1038.1836 Q523.0313,1037.1055 523.0313,1035.8242 L523.0313,1034.668 Q523.0313,1033.3398 523.6406,1032.1992 Q524.2656,1031.043 525.3594,1030.4336 Q526.4531,1029.8086 527.6875,1029.8086 Q528.4219,1029.8086 529.0625,1029.9805 Q529.7188,1030.1367 530.2656,1030.4961 Z " fill="#000000"/><text fill="#000000" font-family="sans-serif" font-size="14" lengthAdjust="spacing" textLength="96" x="541.5" y="1040.418">CompanyName</text><line style="stroke:#181818;stroke-width:0.5;" x1="513.5" x2="639.5" y1="1050.6211" y2="1050.6211"/><rect fill="none" height="6" style="stroke:#C82930;stroke-width:1.0;" width="6" x="520.5" y="1062.4316"/><text fill="#000000" font-family="sans-serif" font-size="14" lengthAdjust="spacing" textLength="39" x="532.5" y="1069.7285">name;</text><line style="stroke:#181818;stroke-width:0.5;" x1="513.5" x2="639.5" y1="1077.2422" y2="1077.2422"/></g><!--class JobDescription--><g id="elem_JobDescription"><rect codeLine="87" fill="#F1F1F1" height="66.6211" id="JobDescription" rx="2.5" ry="2.5" style="stroke:#181818;stroke-width:0.5;" width="125" x="676" y="1018.6211"/><ellipse cx="691" cy="1034.6211" fill="#ADD1B2" rx="11" ry="11" style="stroke:#181818;stroke-width:1.0;"/><path d="M693.7656,1030.4961 Q693.9219,1030.2773 694.1094,1030.168 Q694.2969,1030.0586 694.5156,1030.0586 Q694.8906,1030.0586 695.125,1030.3242 Q695.3594,1030.5742 695.3594,1031.1836 L695.3594,1032.6367 Q695.3594,1033.2461 695.125,1033.5117 Q694.8906,1033.7773 694.5156,1033.7773 Q694.1719,1033.7773 693.9688,1033.5742 Q693.7656,1033.3867 693.6563,1032.8711 Q693.6094,1032.5117 693.4219,1032.3242 Q693.0938,1031.9492 692.4844,1031.7305 Q691.875,1031.5117 691.25,1031.5117 Q690.4844,1031.5117 689.8438,1031.8398 Q689.2188,1032.168 688.7188,1032.918 Q688.2344,1033.668 688.2344,1034.6992 L688.2344,1035.793 Q688.2344,1037.0273 689.125,1037.8555 Q690.0156,1038.668 691.6094,1038.668 Q692.5469,1038.668 693.2031,1038.418 Q693.5938,1038.2617 694.0156,1037.8242 Q694.2813,1037.5586 694.4219,1037.4805 Q694.5781,1037.4023 694.7813,1037.4023 Q695.1094,1037.4023 695.3594,1037.668 Q695.625,1037.918 695.625,1038.2617 Q695.625,1038.6055 695.2813,1039.0117 Q694.7813,1039.5898 693.9844,1039.918 Q692.9063,1040.3711 691.6094,1040.3711 Q690.0938,1040.3711 688.8906,1039.7461 Q687.9063,1039.2461 687.2188,1038.1836 Q686.5313,1037.1055 686.5313,1035.8242 L686.5313,1034.668 Q686.5313,1033.3398 687.1406,1032.1992 Q687.7656,1031.043 688.8594,1030.4336 Q689.9531,1029.8086 691.1875,1029.8086 Q691.9219,1029.8086 692.5625,1029.9805 Q693.2188,1030.1367 693.7656,1030.4961 Z " fill="#000000"/><text fill="#000000" font-family="sans-serif" font-size="14" lengthAdjust="spacing" textLength="93" x="705" y="1040.418">JobDescription</text><line style="stroke:#181818;stroke-width:0.5;" x1="677" x2="800" y1="1050.6211" y2="1050.6211"/><rect fill="none" height="6" style="stroke:#C82930;stroke-width:1.0;" width="6" x="684" y="1062.4316"/><text fill="#000000" font-family="sans-serif" font-size="14" lengthAdjust="spacing" textLength="73" x="696" y="1069.7285">description;</text><line style="stroke:#181818;stroke-width:0.5;" x1="677" x2="800" y1="1077.2422" y2="1077.2422"/></g><!--class PositiveInteger--><g id="elem_PositiveInteger"><rect codeLine="91" fill="#F1F1F1" height="66.6211" id="PositiveInteger" rx="2.5" ry="2.5" style="stroke:#181818;stroke-width:0.5;" width="125" x="650" y="46.6211"/><ellipse cx="665" cy="62.6211" fill="#ADD1B2" rx="11" ry="11" style="stroke:#181818;stroke-width:1.0;"/><path d="M667.7656,58.4961 Q667.9219,58.2773 668.1094,58.168 Q668.2969,58.0586 668.5156,58.0586 Q668.8906,58.0586 669.125,58.3242 Q669.3594,58.5742 669.3594,59.1836 L669.3594,60.6367 Q669.3594,61.2461 669.125,61.5117 Q668.8906,61.7773 668.5156,61.7773 Q668.1719,61.7773 667.9688,61.5742 Q667.7656,61.3867 667.6563,60.8711 Q667.6094,60.5117 667.4219,60.3242 Q667.0938,59.9492 666.4844,59.7305 Q665.875,59.5117 665.25,59.5117 Q664.4844,59.5117 663.8438,59.8398 Q663.2188,60.168 662.7188,60.918 Q662.2344,61.668 662.2344,62.6992 L662.2344,63.793 Q662.2344,65.0273 663.125,65.8555 Q664.0156,66.668 665.6094,66.668 Q666.5469,66.668 667.2031,66.418 Q667.5938,66.2617 668.0156,65.8242 Q668.2813,65.5586 668.4219,65.4805 Q668.5781,65.4023 668.7813,65.4023 Q669.1094,65.4023 669.3594,65.668 Q669.625,65.918 669.625,66.2617 Q669.625,66.6055 669.2813,67.0117 Q668.7813,67.5898 667.9844,67.918 Q666.9063,68.3711 665.6094,68.3711 Q664.0938,68.3711 662.8906,67.7461 Q661.9063,67.2461 661.2188,66.1836 Q660.5313,65.1055 660.5313,63.8242 L660.5313,62.668 Q660.5313,61.3398 661.1406,60.1992 Q661.7656,59.043 662.8594,58.4336 Q663.9531,57.8086 665.1875,57.8086 Q665.9219,57.8086 666.5625,57.9805 Q667.2188,58.1367 667.7656,58.4961 Z " fill="#000000"/><text fill="#000000" font-family="sans-serif" font-size="14" lengthAdjust="spacing" textLength="93" x="679" y="68.418">PositiveInteger</text><line style="stroke:#181818;stroke-width:0.5;" x1="651" x2="774" y1="78.6211" y2="78.6211"/><rect fill="none" height="6" style="stroke:#C82930;stroke-width:1.0;" width="6" x="658" y="90.4316"/><text fill="#000000" font-family="sans-serif" font-size="14" lengthAdjust="spacing" textLength="52" x="670" y="97.7285">number;</text><line style="stroke:#181818;stroke-width:0.5;" x1="651" x2="774" y1="105.2422" y2="105.2422"/></g><!--class ApplicationPhase--><g id="elem_ApplicationPhase"><rect codeLine="95" fill="#F1F1F1" height="103.8633" id="ApplicationPhase" rx="2.5" ry="2.5" style="stroke:#181818;stroke-width:0.5;" width="141" x="704" y="210.6211"/><ellipse cx="719" cy="226.6211" fill="#ADD1B2" rx="11" ry="11" style="stroke:#181818;stroke-width:1.0;"/><path d="M721.7656,222.4961 Q721.9219,222.2773 722.1094,222.168 Q722.2969,222.0586 722.5156,222.0586 Q722.8906,222.0586 723.125,222.3242 Q723.3594,222.5742 723.3594,223.1836 L723.3594,224.6367 Q723.3594,225.2461 723.125,225.5117 Q722.8906,225.7773 722.5156,225.7773 Q722.1719,225.7773 721.9688,225.5742 Q721.7656,225.3867 721.6563,224.8711 Q721.6094,224.5117 721.4219,224.3242 Q721.0938,223.9492 720.4844,223.7305 Q719.875,223.5117 719.25,223.5117 Q718.4844,223.5117 717.8438,223.8398 Q717.2188,224.168 716.7188,224.918 Q716.2344,225.668 716.2344,226.6992 L716.2344,227.793 Q716.2344,229.0273 717.125,229.8555 Q718.0156,230.668 719.6094,230.668 Q720.5469,230.668 721.2031,230.418 Q721.5938,230.2617 722.0156,229.8242 Q722.2813,229.5586 722.4219,229.4805 Q722.5781,229.4023 722.7813,229.4023 Q723.1094,229.4023 723.3594,229.668 Q723.625,229.918 723.625,230.2617 Q723.625,230.6055 723.2813,231.0117 Q722.7813,231.5898 721.9844,231.918 Q720.9063,232.3711 719.6094,232.3711 Q718.0938,232.3711 716.8906,231.7461 Q715.9063,231.2461 715.2188,230.1836 Q714.5313,229.1055 714.5313,227.8242 L714.5313,226.668 Q714.5313,225.3398 715.1406,224.1992 Q715.7656,223.043 716.8594,222.4336 Q717.9531,221.8086 719.1875,221.8086 Q719.9219,221.8086 720.5625,221.9805 Q721.2188,222.1367 721.7656,222.4961 Z " fill="#000000"/><text fill="#000000" font-family="sans-serif" font-size="14" lengthAdjust="spacing" textLength="109" x="733" y="232.418">ApplicationPhase</text><line style="stroke:#181818;stroke-width:0.5;" x1="705" x2="844" y1="242.6211" y2="242.6211"/><rect fill="none" height="6" style="stroke:#C82930;stroke-width:1.0;" width="6" x="712" y="254.4316"/><text fill="#000000" font-family="sans-serif" font-size="14" lengthAdjust="spacing" textLength="62" x="724" y="261.7285">startDate;</text><rect fill="none" height="6" style="stroke:#C82930;stroke-width:1.0;" width="6" x="712" y="273.0527"/><text fill="#000000" font-family="sans-serif" font-size="14" lengthAdjust="spacing" textLength="58" x="724" y="280.3496">endDate;</text><line style="stroke:#181818;stroke-width:0.5;" x1="705" x2="844" y1="287.8633" y2="287.8633"/><ellipse cx="715" cy="302.6738" fill="#84BE84" rx="3" ry="3" style="stroke:#038048;stroke-width:1.0;"/><text fill="#000000" font-family="sans-serif" font-size="14" lengthAdjust="spacing" textLength="62" x="724" y="306.9707">isActive();</text></g><!--class ScreeningPhase--><g id="elem_ScreeningPhase"><rect codeLine="102" fill="#F1F1F1" height="103.8633" id="ScreeningPhase" rx="2.5" ry="2.5" style="stroke:#181818;stroke-width:0.5;" width="136" x="1356.5" y="210.6211"/><ellipse cx="1371.5" cy="226.6211" fill="#ADD1B2" rx="11" ry="11" style="stroke:#181818;stroke-width:1.0;"/><path d="M1374.2656,222.4961 Q1374.4219,222.2773 1374.6094,222.168 Q1374.7969,222.0586 1375.0156,222.0586 Q1375.3906,222.0586 1375.625,222.3242 Q1375.8594,222.5742 1375.8594,223.1836 L1375.8594,224.6367 Q1375.8594,225.2461 1375.625,225.5117 Q1375.3906,225.7773 1375.0156,225.7773 Q1374.6719,225.7773 1374.4688,225.5742 Q1374.2656,225.3867 1374.1563,224.8711 Q1374.1094,224.5117 1373.9219,224.3242 Q1373.5938,223.9492 1372.9844,223.7305 Q1372.375,223.5117 1371.75,223.5117 Q1370.9844,223.5117 1370.3438,223.8398 Q1369.7188,224.168 1369.2188,224.918 Q1368.7344,225.668 1368.7344,226.6992 L1368.7344,227.793 Q1368.7344,229.0273 1369.625,229.8555 Q1370.5156,230.668 1372.1094,230.668 Q1373.0469,230.668 1373.7031,230.418 Q1374.0938,230.2617 1374.5156,229.8242 Q1374.7813,229.5586 1374.9219,229.4805 Q1375.0781,229.4023 1375.2813,229.4023 Q1375.6094,229.4023 1375.8594,229.668 Q1376.125,229.918 1376.125,230.2617 Q1376.125,230.6055 1375.7813,231.0117 Q1375.2813,231.5898 1374.4844,231.918 Q1373.4063,232.3711 1372.1094,232.3711 Q1370.5938,232.3711 1369.3906,231.7461 Q1368.4063,231.2461 1367.7188,230.1836 Q1367.0313,229.1055 1367.0313,227.8242 L1367.0313,226.668 Q1367.0313,225.3398 1367.6406,224.1992 Q1368.2656,223.043 1369.3594,222.4336 Q1370.4531,221.8086 1371.6875,221.8086 Q1372.4219,221.8086 1373.0625,221.9805 Q1373.7188,222.1367 1374.2656,222.4961 Z " fill="#000000"/><text fill="#000000" font-family="sans-serif" font-size="14" lengthAdjust="spacing" textLength="104" x="1385.5" y="232.418">ScreeningPhase</text><line style="stroke:#181818;stroke-width:0.5;" x1="1357.5" x2="1491.5" y1="242.6211" y2="242.6211"/><rect fill="none" height="6" style="stroke:#C82930;stroke-width:1.0;" width="6" x="1364.5" y="254.4316"/><text fill="#000000" font-family="sans-serif" font-size="14" lengthAdjust="spacing" textLength="62" x="1376.5" y="261.7285">startDate;</text><rect fill="none" height="6" style="stroke:#C82930;stroke-width:1.0;" width="6" x="1364.5" y="273.0527"/><text fill="#000000" font-family="sans-serif" font-size="14" lengthAdjust="spacing" textLength="58" x="1376.5" y="280.3496">endDate;</text><line style="stroke:#181818;stroke-width:0.5;" x1="1357.5" x2="1491.5" y1="287.8633" y2="287.8633"/><ellipse cx="1367.5" cy="302.6738" fill="#84BE84" rx="3" ry="3" style="stroke:#038048;stroke-width:1.0;"/><text fill="#000000" font-family="sans-serif" font-size="14" lengthAdjust="spacing" textLength="62" x="1376.5" y="306.9707">isActive();</text></g><!--class InterviewPhase--><g id="elem_InterviewPhase"><rect codeLine="109" fill="#F1F1F1" height="103.8633" id="InterviewPhase" rx="2.5" ry="2.5" style="stroke:#181818;stroke-width:0.5;" width="127" x="1194" y="210.6211"/><ellipse cx="1209" cy="226.6211" fill="#ADD1B2" rx="11" ry="11" style="stroke:#181818;stroke-width:1.0;"/><path d="M1211.7656,222.4961 Q1211.9219,222.2773 1212.1094,222.168 Q1212.2969,222.0586 1212.5156,222.0586 Q1212.8906,222.0586 1213.125,222.3242 Q1213.3594,222.5742 1213.3594,223.1836 L1213.3594,224.6367 Q1213.3594,225.2461 1213.125,225.5117 Q1212.8906,225.7773 1212.5156,225.7773 Q1212.1719,225.7773 1211.9688,225.5742 Q1211.7656,225.3867 1211.6563,224.8711 Q1211.6094,224.5117 1211.4219,224.3242 Q1211.0938,223.9492 1210.4844,223.7305 Q1209.875,223.5117 1209.25,223.5117 Q1208.4844,223.5117 1207.8438,223.8398 Q1207.2188,224.168 1206.7188,224.918 Q1206.2344,225.668 1206.2344,226.6992 L1206.2344,227.793 Q1206.2344,229.0273 1207.125,229.8555 Q1208.0156,230.668 1209.6094,230.668 Q1210.5469,230.668 1211.2031,230.418 Q1211.5938,230.2617 1212.0156,229.8242 Q1212.2813,229.5586 1212.4219,229.4805 Q1212.5781,229.4023 1212.7813,229.4023 Q1213.1094,229.4023 1213.3594,229.668 Q1213.625,229.918 1213.625,230.2617 Q1213.625,230.6055 1213.2813,231.0117 Q1212.7813,231.5898 1211.9844,231.918 Q1210.9063,232.3711 1209.6094,232.3711 Q1208.0938,232.3711 1206.8906,231.7461 Q1205.9063,231.2461 1205.2188,230.1836 Q1204.5313,229.1055 1204.5313,227.8242 L1204.5313,226.668 Q1204.5313,225.3398 1205.1406,224.1992 Q1205.7656,223.043 1206.8594,222.4336 Q1207.9531,221.8086 1209.1875,221.8086 Q1209.9219,221.8086 1210.5625,221.9805 Q1211.2188,222.1367 1211.7656,222.4961 Z " fill="#000000"/><text fill="#000000" font-family="sans-serif" font-size="14" lengthAdjust="spacing" textLength="95" x="1223" y="232.418">InterviewPhase</text><line style="stroke:#181818;stroke-width:0.5;" x1="1195" x2="1320" y1="242.6211" y2="242.6211"/><rect fill="none" height="6" style="stroke:#C82930;stroke-width:1.0;" width="6" x="1202" y="254.4316"/><text fill="#000000" font-family="sans-serif" font-size="14" lengthAdjust="spacing" textLength="62" x="1214" y="261.7285">startDate;</text><rect fill="none" height="6" style="stroke:#C82930;stroke-width:1.0;" width="6" x="1202" y="273.0527"/><text fill="#000000" font-family="sans-serif" font-size="14" lengthAdjust="spacing" textLength="58" x="1214" y="280.3496">endDate;</text><line style="stroke:#181818;stroke-width:0.5;" x1="1195" x2="1320" y1="287.8633" y2="287.8633"/><ellipse cx="1205" cy="302.6738" fill="#84BE84" rx="3" ry="3" style="stroke:#038048;stroke-width:1.0;"/><text fill="#000000" font-family="sans-serif" font-size="14" lengthAdjust="spacing" textLength="62" x="1214" y="306.9707">isActive();</text></g><!--class AnalysisPhase--><g id="elem_AnalysisPhase"><rect codeLine="116" fill="#F1F1F1" height="103.8633" id="AnalysisPhase" rx="2.5" ry="2.5" style="stroke:#181818;stroke-width:0.5;" width="124" x="1034.5" y="210.6211"/><ellipse cx="1049.5" cy="226.6211" fill="#ADD1B2" rx="11" ry="11" style="stroke:#181818;stroke-width:1.0;"/><path d="M1052.2656,222.4961 Q1052.4219,222.2773 1052.6094,222.168 Q1052.7969,222.0586 1053.0156,222.0586 Q1053.3906,222.0586 1053.625,222.3242 Q1053.8594,222.5742 1053.8594,223.1836 L1053.8594,224.6367 Q1053.8594,225.2461 1053.625,225.5117 Q1053.3906,225.7773 1053.0156,225.7773 Q1052.6719,225.7773 1052.4688,225.5742 Q1052.2656,225.3867 1052.1563,224.8711 Q1052.1094,224.5117 1051.9219,224.3242 Q1051.5938,223.9492 1050.9844,223.7305 Q1050.375,223.5117 1049.75,223.5117 Q1048.9844,223.5117 1048.3438,223.8398 Q1047.7188,224.168 1047.2188,224.918 Q1046.7344,225.668 1046.7344,226.6992 L1046.7344,227.793 Q1046.7344,229.0273 1047.625,229.8555 Q1048.5156,230.668 1050.1094,230.668 Q1051.0469,230.668 1051.7031,230.418 Q1052.0938,230.2617 1052.5156,229.8242 Q1052.7813,229.5586 1052.9219,229.4805 Q1053.0781,229.4023 1053.2813,229.4023 Q1053.6094,229.4023 1053.8594,229.668 Q1054.125,229.918 1054.125,230.2617 Q1054.125,230.6055 1053.7813,231.0117 Q1053.2813,231.5898 1052.4844,231.918 Q1051.4063,232.3711 1050.1094,232.3711 Q1048.5938,232.3711 1047.3906,231.7461 Q1046.4063,231.2461 1045.7188,230.1836 Q1045.0313,229.1055 1045.0313,227.8242 L1045.0313,226.668 Q1045.0313,225.3398 1045.6406,224.1992 Q1046.2656,223.043 1047.3594,222.4336 Q1048.4531,221.8086 1049.6875,221.8086 Q1050.4219,221.8086 1051.0625,221.9805 Q1051.7188,222.1367 1052.2656,222.4961 Z " fill="#000000"/><text fill="#000000" font-family="sans-serif" font-size="14" lengthAdjust="spacing" textLength="92" x="1063.5" y="232.418">AnalysisPhase</text><line style="stroke:#181818;stroke-width:0.5;" x1="1035.5" x2="1157.5" y1="242.6211" y2="242.6211"/><rect fill="none" height="6" style="stroke:#C82930;stroke-width:1.0;" width="6" x="1042.5" y="254.4316"/><text fill="#000000" font-family="sans-serif" font-size="14" lengthAdjust="spacing" textLength="62" x="1054.5" y="261.7285">startDate;</text><rect fill="none" height="6" style="stroke:#C82930;stroke-width:1.0;" width="6" x="1042.5" y="273.0527"/><text fill="#000000" font-family="sans-serif" font-size="14" lengthAdjust="spacing" textLength="58" x="1054.5" y="280.3496">endDate;</text><line style="stroke:#181818;stroke-width:0.5;" x1="1035.5" x2="1157.5" y1="287.8633" y2="287.8633"/><ellipse cx="1045.5" cy="302.6738" fill="#84BE84" rx="3" ry="3" style="stroke:#038048;stroke-width:1.0;"/><text fill="#000000" font-family="sans-serif" font-size="14" lengthAdjust="spacing" textLength="62" x="1054.5" y="306.9707">isActive();</text></g><!--class ResultsPhase--><g id="elem_ResultsPhase"><rect codeLine="123" fill="#F1F1F1" height="103.8633" id="ResultsPhase" rx="2.5" ry="2.5" style="stroke:#181818;stroke-width:0.5;" width="119" x="880" y="210.6211"/><ellipse cx="895" cy="226.6211" fill="#ADD1B2" rx="11" ry="11" style="stroke:#181818;stroke-width:1.0;"/><path d="M897.7656,222.4961 Q897.9219,222.2773 898.1094,222.168 Q898.2969,222.0586 898.5156,222.0586 Q898.8906,222.0586 899.125,222.3242 Q899.3594,222.5742 899.3594,223.1836 L899.3594,224.6367 Q899.3594,225.2461 899.125,225.5117 Q898.8906,225.7773 898.5156,225.7773 Q898.1719,225.7773 897.9688,225.5742 Q897.7656,225.3867 897.6563,224.8711 Q897.6094,224.5117 897.4219,224.3242 Q897.0938,223.9492 896.4844,223.7305 Q895.875,223.5117 895.25,223.5117 Q894.4844,223.5117 893.8438,223.8398 Q893.2188,224.168 892.7188,224.918 Q892.2344,225.668 892.2344,226.6992 L892.2344,227.793 Q892.2344,229.0273 893.125,229.8555 Q894.0156,230.668 895.6094,230.668 Q896.5469,230.668 897.2031,230.418 Q897.5938,230.2617 898.0156,229.8242 Q898.2813,229.5586 898.4219,229.4805 Q898.5781,229.4023 898.7813,229.4023 Q899.1094,229.4023 899.3594,229.668 Q899.625,229.918 899.625,230.2617 Q899.625,230.6055 899.2813,231.0117 Q898.7813,231.5898 897.9844,231.918 Q896.9063,232.3711 895.6094,232.3711 Q894.0938,232.3711 892.8906,231.7461 Q891.9063,231.2461 891.2188,230.1836 Q890.5313,229.1055 890.5313,227.8242 L890.5313,226.668 Q890.5313,225.3398 891.1406,224.1992 Q891.7656,223.043 892.8594,222.4336 Q893.9531,221.8086 895.1875,221.8086 Q895.9219,221.8086 896.5625,221.9805 Q897.2188,222.1367 897.7656,222.4961 Z " fill="#000000"/><text fill="#000000" font-family="sans-serif" font-size="14" lengthAdjust="spacing" textLength="87" x="909" y="232.418">ResultsPhase</text><line style="stroke:#181818;stroke-width:0.5;" x1="881" x2="998" y1="242.6211" y2="242.6211"/><rect fill="none" height="6" style="stroke:#C82930;stroke-width:1.0;" width="6" x="888" y="254.4316"/><text fill="#000000" font-family="sans-serif" font-size="14" lengthAdjust="spacing" textLength="62" x="900" y="261.7285">startDate;</text><rect fill="none" height="6" style="stroke:#C82930;stroke-width:1.0;" width="6" x="888" y="273.0527"/><text fill="#000000" font-family="sans-serif" font-size="14" lengthAdjust="spacing" textLength="58" x="900" y="280.3496">endDate;</text><line style="stroke:#181818;stroke-width:0.5;" x1="881" x2="998" y1="287.8633" y2="287.8633"/><ellipse cx="891" cy="302.6738" fill="#84BE84" rx="3" ry="3" style="stroke:#038048;stroke-width:1.0;"/><text fill="#000000" font-family="sans-serif" font-size="14" lengthAdjust="spacing" textLength="62" x="900" y="306.9707">isActive();</text></g><!--link SetupPhasesService to EditJobOpeningController--><g id="link_SetupPhasesService_EditJobOpeningController"><path codeLine="66" d="M109.9,228.9411 C130.35,200.1811 164.09,160.8211 205,143.6211 C277.11,113.3011 306.69,119.2011 381,143.6211 C421.7,156.9911 456.0359,181.0615 485.4359,206.5415 " fill="none" id="SetupPhasesService-to-EditJobOpeningController" style="stroke:#181818;stroke-width:1.0;stroke-dasharray:7.0,7.0;"/><polygon fill="#181818" points="489.97,210.4711,485.7885,201.554,486.1916,207.1964,480.5491,207.5995,489.97,210.4711" style="stroke:#181818;stroke-width:1.0;"/></g><!--link SetupPhasesService to RecruitmentProcess--><g id="link_SetupPhasesService_RecruitmentProcess"><path codeLine="67" d="M109.9,228.9411 C130.35,200.1811 164.09,160.8211 205,143.6211 C270.96,115.8911 1427.16,115.6011 1493,143.6211 C1509.49,150.6411 1520.2666,157.3337 1533.9166,169.4737 " fill="none" id="SetupPhasesService-to-RecruitmentProcess" style="stroke:#181818;stroke-width:1.0;stroke-dasharray:7.0,7.0;"/><polygon fill="#181818" points="1538.4,173.4611,1534.3332,164.4911,1534.6639,170.1383,1529.0167,170.4689,1538.4,173.4611" style="stroke:#181818;stroke-width:1.0;"/></g><!--link SetupPhasesService to JobOpening--><g id="link_SetupPhasesService_JobOpening"><path codeLine="68" d="M107.33,296.2211 C141.46,355.1411 216.09,483.1411 281.5,589.6211 C297.26,615.2711 311.1083,637.4131 327.6483,663.5131 " fill="none" id="SetupPhasesService-to-JobOpening" style="stroke:#181818;stroke-width:1.0;stroke-dasharray:7.0,7.0;"/><polygon fill="#181818" points="330.86,668.5811,329.4211,658.8379,328.1836,664.3577,322.6638,663.1202,330.86,668.5811" style="stroke:#181818;stroke-width:1.0;"/></g><!--link Runnable to EditJobOpeningUI--><g id="link_Runnable_EditJobOpeningUI"><path codeLine="130" d="M435.12,80.1211 C446.87,80.1211 440.61,80.1211 452.35,80.1211 " fill="none" id="Runnable-to-EditJobOpeningUI" style="stroke:#181818;stroke-width:1.0;"/><polygon fill="none" points="470.35,80.1211,452.35,74.1211,452.35,86.1211,470.35,80.1211" style="stroke:#181818;stroke-width:1.0;"/></g><!--link EditJobOpeningUI to EditJobOpeningController--><g id="link_EditJobOpeningUI_EditJobOpeningController"><path codeLine="132" d="M542.5,113.8111 C542.5,140.7311 542.5,173.3811 542.5,204.4111 " fill="none" id="EditJobOpeningUI-to-EditJobOpeningController" style="stroke:#181818;stroke-width:1.0;stroke-dasharray:7.0,7.0;"/><polygon fill="#181818" points="542.5,210.4111,546.5,201.4111,542.5,205.4111,538.5,201.4111,542.5,210.4111" style="stroke:#181818;stroke-width:1.0;"/></g><!--reverse link JobOpeningRepository to EditJobOpeningController--><g id="link_JobOpeningRepository_EditJobOpeningController"><path codeLine="134" d="M387.53,262.6211 C399.16,262.6211 404.79,262.6211 416.42,262.6211 " fill="none" id="JobOpeningRepository-backto-EditJobOpeningController" style="stroke:#181818;stroke-width:1.0;stroke-dasharray:7.0,7.0;"/><polygon fill="#181818" points="381.53,262.6211,390.53,266.6211,386.53,262.6211,390.53,258.6211,381.53,262.6211" style="stroke:#181818;stroke-width:1.0;"/></g><!--link EditJobOpeningController to JobOpening--><g id="link_EditJobOpeningController_JobOpening"><path codeLine="135" d="M546.02,314.8811 C549.06,379.9611 549.62,495.1211 524.5,589.6211 C519.2,609.5511 514.2482,624.2712 505.9582,643.9612 " fill="none" id="EditJobOpeningController-to-JobOpening" style="stroke:#181818;stroke-width:1.0;stroke-dasharray:7.0,7.0;"/><polygon fill="#181818" points="503.63,649.4911,510.8089,642.7484,505.5702,644.8829,503.4357,639.6442,503.63,649.4911" style="stroke:#181818;stroke-width:1.0;"/></g><!--link EditJobOpeningController to EditJobOpeningService--><g id="link_EditJobOpeningController_EditJobOpeningService"><path codeLine="136" d="M515.38,314.8311 C500.44,343.0311 484.2983,373.5089 467.0583,406.0589 " fill="none" id="EditJobOpeningController-to-EditJobOpeningService" style="stroke:#181818;stroke-width:1.0;stroke-dasharray:7.0,7.0;"/><polygon fill="#181818" points="464.25,411.3611,471.9973,405.28,466.5902,406.9426,464.9276,401.5356,464.25,411.3611" style="stroke:#181818;stroke-width:1.0;"/></g><!--link EditJobOpeningService to JobOpening--><g id="link_EditJobOpeningService_JobOpening"><path codeLine="138" d="M417.5,589.6411 C417.5,608.5011 417.5,622.9511 417.5,643.4711 " fill="none" id="EditJobOpeningService-to-JobOpening" style="stroke:#181818;stroke-width:1.0;stroke-dasharray:7.0,7.0;"/><polygon fill="#181818" points="417.5,649.4711,421.5,640.4711,417.5,644.4711,413.5,640.4711,417.5,649.4711" style="stroke:#181818;stroke-width:1.0;"/></g><!--link EditJobOpeningService to JobOpeningRepository--><g id="link_EditJobOpeningService_JobOpeningRepository"><path codeLine="139" d="M371.16,411.4311 C350.05,371.2511 329.1415,331.4422 313.5315,301.7422 " fill="none" id="EditJobOpeningService-to-JobOpeningRepository" style="stroke:#181818;stroke-width:1.0;stroke-dasharray:7.0,7.0;"/><polygon fill="#181818" points="310.74,296.4311,311.3865,306.2587,313.0662,300.857,318.4679,302.5368,310.74,296.4311" style="stroke:#181818;stroke-width:1.0;"/></g><!--reverse link JobOpeningRepository to JobOpening--><g id="link_JobOpeningRepository_JobOpening"><path codeLine="141" d="M289.6781,314.1829 C285.7981,373.6529 282.92,485.2411 310.5,589.6211 C315.77,609.5611 323.03,629.8211 331.31,649.5111 " fill="none" id="JobOpeningRepository-backto-JobOpening" style="stroke:#181818;stroke-width:1.0;stroke-dasharray:7.0,7.0;"/><polygon fill="none" points="290.85,296.2211,283.6908,313.7923,295.6654,314.5735,290.85,296.2211" style="stroke:#181818;stroke-width:1.0;"/></g><!--reverse link JobOpening to JobTitle--><g id="link_JobOpening_JobTitle"><path codeLine="142" d="M317.8477,900.5085 C271.2177,945.1485 229.33,985.2311 194.73,1018.3611 " fill="none" id="JobOpening-backto-JobTitle" style="stroke:#181818;stroke-width:1.0;"/><polygon fill="none" points="330.85,888.0611,313.6985,896.1744,321.9968,904.8427,330.85,888.0611" style="stroke:#181818;stroke-width:1.0;"/></g><!--reverse link JobOpening to JobType--><g id="link_JobOpening_JobType"><path codeLine="143" d="M322.4747,974.5203 C309.9447,996.8603 307.03,1002.0511 297.92,1018.2911 " fill="none" id="JobOpening-backto-JobType" style="stroke:#181818;stroke-width:1.0;"/><polygon fill="none" points="331.28,958.8211,317.2416,971.5852,327.7077,977.4554,331.28,958.8211" style="stroke:#181818;stroke-width:1.0;"/></g><!--reverse link JobOpening to WorkingMode--><g id="link_JobOpening_WorkingMode"><path codeLine="144" d="M417.5,976.8211 C417.5,999.1611 417.5,1002.0511 417.5,1018.2911 " fill="none" id="JobOpening-backto-WorkingMode" style="stroke:#181818;stroke-width:1.0;"/><polygon fill="none" points="417.5,958.8211,411.5,976.8211,423.5,976.8211,417.5,958.8211" style="stroke:#181818;stroke-width:1.0;"/></g><!--reverse link JobOpening to CompanyName--><g id="link_JobOpening_CompanyName"><path codeLine="145" d="M513.9828,954.3971 C533.0228,983.8471 541.73,997.3311 555.24,1018.2311 " fill="none" id="JobOpening-backto-CompanyName" style="stroke:#181818;stroke-width:1.0;"/><polygon fill="none" points="504.21,939.2811,508.9441,957.6547,519.0214,951.1395,504.21,939.2811" style="stroke:#181818;stroke-width:1.0;"/></g><!--reverse link JobOpening to JobDescription--><g id="link_JobOpening_JobDescription"><path codeLine="146" d="M518.6561,882.6413 C580.6661,930.1713 647.12,981.0911 695.77,1018.3711 " fill="none" id="JobOpening-backto-JobDescription" style="stroke:#181818;stroke-width:1.0;"/><polygon fill="none" points="504.37,871.6911,515.0061,887.4033,522.3062,877.8792,504.37,871.6911" style="stroke:#181818;stroke-width:1.0;"/></g><!--link RecruitmentProcess to JobOpening--><g id="link_RecruitmentProcess_JobOpening"><path codeLine="147" d="M1527.94,339.5411 C1522.2,343.8411 1516.36,347.9111 1510.5,351.6211 C1165.05,570.2511 712.9818,716.8392 521.4818,773.4392 " fill="none" id="RecruitmentProcess-to-JobOpening" style="stroke:#181818;stroke-width:1.0;"/><polygon fill="none" points="504.22,778.5411,523.1825,779.1931,519.7812,767.6852,504.22,778.5411" style="stroke:#181818;stroke-width:1.0;"/></g><!--link ApplicationPhase to RecruitmentProcess--><g id="link_ApplicationPhase_RecruitmentProcess"><path codeLine="148" d="M805.48,210.6111 C823.67,185.3411 849.16,157.5011 880,143.6211 C942.12,115.6811 1430.33,116.9511 1493,143.6211 C1509.49,150.6411 1511.2999,149.3589 1524.9499,161.4989 " fill="none" id="ApplicationPhase-to-RecruitmentProcess" style="stroke:#181818;stroke-width:1.0;"/><polygon fill="none" points="1538.4,173.4611,1528.9373,157.0155,1520.9625,165.9822,1538.4,173.4611" style="stroke:#181818;stroke-width:1.0;"/></g><!--link ScreeningPhase to RecruitmentProcess--><g id="link_ScreeningPhase_RecruitmentProcess"><path codeLine="149" d="M1492.77,262.6211 C1504.42,262.6211 1498.07,262.6211 1509.73,262.6211 " fill="none" id="ScreeningPhase-to-RecruitmentProcess" style="stroke:#181818;stroke-width:1.0;"/><polygon fill="none" points="1527.73,262.6211,1509.73,256.6211,1509.73,268.6211,1527.73,262.6211" style="stroke:#181818;stroke-width:1.0;"/></g><!--link InterviewPhase to RecruitmentProcess--><g id="link_InterviewPhase_RecruitmentProcess"><path codeLine="150" d="M1286.28,210.3711 C1303.24,185.2111 1327.24,157.5311 1357,143.6211 C1411.76,118.0311 1437.38,119.9511 1493,143.6211 C1509.49,150.6411 1511.2999,149.3589 1524.9499,161.4989 " fill="none" id="InterviewPhase-to-RecruitmentProcess" style="stroke:#181818;stroke-width:1.0;"/><polygon fill="none" points="1538.4,173.4611,1528.9373,157.0155,1520.9625,165.9822,1538.4,173.4611" style="stroke:#181818;stroke-width:1.0;"/></g><!--link AnalysisPhase to RecruitmentProcess--><g id="link_AnalysisPhase_RecruitmentProcess"><path codeLine="151" d="M1124.47,210.4011 C1141.03,185.2411 1164.55,157.5611 1194,143.6211 C1254.05,115.1911 1431.86,117.6011 1493,143.6211 C1509.49,150.6411 1511.2999,149.3589 1524.9499,161.4989 " fill="none" id="AnalysisPhase-to-RecruitmentProcess" style="stroke:#181818;stroke-width:1.0;"/><polygon fill="none" points="1538.4,173.4611,1528.9373,157.0155,1520.9625,165.9822,1538.4,173.4611" style="stroke:#181818;stroke-width:1.0;"/></g><!--link ResultsPhase to RecruitmentProcess--><g id="link_ResultsPhase_RecruitmentProcess"><path codeLine="152" d="M966.65,210.4311 C982.81,185.2811 1005.86,157.6011 1035,143.6211 C1080.88,121.6111 1446.17,123.6911 1493,143.6211 C1509.49,150.6411 1511.2999,149.3589 1524.9499,161.4989 " fill="none" id="ResultsPhase-to-RecruitmentProcess" style="stroke:#181818;stroke-width:1.0;"/><polygon fill="none" points="1538.4,173.4611,1528.9373,157.0155,1520.9625,165.9822,1538.4,173.4611" style="stroke:#181818;stroke-width:1.0;"/></g><!--SRC=[rLKzRzim4DtvApGwA6oWKuS60GGx25mqgI4tpKpJLuUjJAeavTI8-zzBITRfgAyXdg9DTu_7n-DxF2TT2j7Z_EEdQFurNg-ZnJA-I-9xngHoO7vo0L6IAyKt7lRA8lzzCBcQNB5_Z8cKMnlTRgNxeZVVCb1IxHwNDImQnSsrSaQdAHZ4xu3axPDqpx5myW2hPsx1-b8Lx1TYRlzAw-p4Cusaod9N8qIgRRMAvf18iqa2cRRIQND44fOVOD8BFaEc1O7lHTi-a_zZXhylslpsy7kznP3G-uohumFVqqKBiCB8p4cjwgZAznimFxZWIaYmTTY0CBbqUr1kPRG0wpDdlb1rjII4BQg3dbKGUsge1V5vmwzTWv1ifnBuaqi31IiRv1x2K_XSqy-aSnJiAy-oL0fUR5LUNdrwJm3A6mYYfJuF4bw2A5SyFLffWw01cwUkZb6H487X2RmCm_20WjV5zW9UtzL5u5dMuFAiSbRh8BR9L0kwq6XsCsZd0NZttWU0JKr6F5Ys5PNYAljHanOjRlAb7J5DkesGVMbFX9368qILTgMRa3j0r9Qw6C6hubtn6bfwbUxmZQiDJe1nI_I8j8uRj-0ELGngM_sUxqdQIgQJAr9k7NZbmcBBm68N5ekfCo-ibH13lxaKZhNfwQOpn1ZhZBNPcEZPy7YRfO6gcvd3XfU4FXZ5zJvARVhehx72_I32b_LEpklJR4QBaebvVPfEqRsz2M_KJfpOjPCZFkshHmpQIgVJlYUePnfLsBOjXv6XuuPnePb6TgO-6OPH2p3s7m00]--></g></svg>