<?xml version="1.0" encoding="us-ascii" standalone="no"?><svg xmlns="http://www.w3.org/2000/svg" xmlns:xlink="http://www.w3.org/1999/xlink" contentStyleType="text/css" height="366px" preserveAspectRatio="none" style="width:573px;height:366px;background:#FFFFFF;" version="1.1" viewBox="0 0 573 366" width="573px" zoomAndPan="magnify"><defs/><g><!--entity op--><g id="elem_op"><ellipse cx="34.5" cy="124" fill="#F1F1F1" rx="8" ry="8" style="stroke:#181818;stroke-width:0.5;"/><path d="M34.5,132 L34.5,159 M21.5,140 L47.5,140 M34.5,159 L21.5,174 M34.5,159 L47.5,174 " fill="none" style="stroke:#181818;stroke-width:0.5;"/><text fill="#000000" font-family="sans-serif" font-size="14" lengthAdjust="spacing" textLength="57" x="6" y="190.6074">Operator</text></g><g id="elem_UC11 - Register a candidate"><ellipse cx="345.2422" cy="30.2484" fill="#F1F1F1" rx="109.2422" ry="24.2484" style="stroke:#181818;stroke-width:0.5;"/><text fill="#000000" font-family="sans-serif" font-size="14" lengthAdjust="spacing" textLength="179" x="255.7422" y="34.0453">UC11 - Register a candidate</text></g><g id="elem_UC12 - List candidates"><ellipse cx="345.1171" cy="110.1234" fill="#F1F1F1" rx="93.6171" ry="21.1234" style="stroke:#181818;stroke-width:0.5;"/><text fill="#000000" font-family="sans-serif" font-size="14" lengthAdjust="spacing" textLength="143" x="270.6171" y="114.9271">UC12 - List candidates</text></g><g id="elem_UC13 - Register application of a candidate"><ellipse cx="345.0626" cy="198.9125" fill="#F1F1F1" rx="150.0626" ry="32.4125" style="stroke:#181818;stroke-width:0.5;"/><text fill="#000000" font-family="sans-serif" font-size="14" lengthAdjust="spacing" textLength="267" x="211.5626" y="202.7094">UC13 - Register application of a candidate</text></g><g id="elem_UC14 - Generate template file to help collect data from candidates"><ellipse cx="345.0049" cy="313.801" fill="#F1F1F1" rx="222.0049" ry="46.801" style="stroke:#181818;stroke-width:0.5;"/><text fill="#000000" font-family="sans-serif" font-size="14" lengthAdjust="spacing" textLength="416" x="137.0049" y="317.5979">UC14 - Generate template file to help collect data from candidates</text></g><!--link op to UC11 - Register a candidate--><g id="link_op_UC11 - Register a candidate"><path d="M63.15,120.12 C78.86,102.68 99.96,82.83 123,71 C158.84,52.6 195.7939,43.2432 234.2039,37.5932 " fill="none" id="op-to-UC11 - Register a candidate" style="stroke:#181818;stroke-width:1.0;"/><polygon fill="#181818" points="240.14,36.72,230.6537,34.0724,235.1932,37.4477,231.8179,41.9872,240.14,36.72" style="stroke:#181818;stroke-width:1.0;"/></g><!--link op to UC12 - List candidates--><g id="link_op_UC12 - List candidates"><path d="M63.15,150.97 C108.4,144.37 193.9428,131.8861 260.2328,122.2161 " fill="none" id="op-to-UC12 - List candidates" style="stroke:#181818;stroke-width:1.0;"/><polygon fill="#181818" points="266.17,121.35,256.6869,118.691,261.2224,122.0717,257.8416,126.6072,266.17,121.35" style="stroke:#181818;stroke-width:1.0;"/></g><!--link op to UC13 - Register application of a candidate--><g id="link_op_UC13 - Register application of a candidate"><path d="M63.15,158.94 C98.42,163.97 155.8301,172.1626 213.4501,180.3826 " fill="none" id="op-to-UC13 - Register application of a candidate" style="stroke:#181818;stroke-width:1.0;"/><polygon fill="#181818" points="219.39,181.23,211.0451,175.999,214.4401,180.5239,209.9153,183.9188,219.39,181.23" style="stroke:#181818;stroke-width:1.0;"/></g><!--link op to UC14 - Generate template file to help collect data from candidates--><g id="link_op_UC14 - Generate template file to help collect data from candidates"><path d="M63.31,193.55 C78.91,212.68 99.86,234.7 123,249 C143.5,261.67 160.942,269.9452 184.262,278.3052 " fill="none" id="op-to-UC14 - Generate template file to help collect data from candidates" style="stroke:#181818;stroke-width:1.0;"/><polygon fill="#181818" points="189.91,280.33,182.7878,273.5275,185.2033,278.6427,180.0881,281.0582,189.91,280.33" style="stroke:#181818;stroke-width:1.0;"/></g><!--SRC=[TOwn3i8m44FtV8L7638Kc5aOM92GaFY0Ktff8rrxf_J-NoGJT62pP3_Rb5mhdiQLkg0DQY48PuShQfbcnrWg9o-wXg266Ayul6_3W8WNJsLpRXmIhMCPoVdu6pgrqAD5llQsyy-x4ZCfYVeIDF_jl3Jcpcj_p71UJBh8HRXVdbaCIKNQPJIMaAikk_qF]--></g></svg>