<?xml version="1.0" encoding="us-ascii" standalone="no"?><svg xmlns="http://www.w3.org/2000/svg" xmlns:xlink="http://www.w3.org/1999/xlink" contentStyleType="text/css" height="1533px" preserveAspectRatio="none" style="width:802px;height:1533px;background:#FFFFFF;" version="1.1" viewBox="0 0 802 1533" width="802px" zoomAndPan="magnify"><defs/><g><!--entity adm--><g id="elem_adm"><ellipse cx="66.5" cy="1327.5" fill="#F1F1F1" rx="8" ry="8" style="stroke:#181818;stroke-width:0.5;"/><path d="M66.5,1335.5 L66.5,1362.5 M53.5,1343.5 L79.5,1343.5 M66.5,1362.5 L53.5,1377.5 M66.5,1362.5 L79.5,1377.5 " fill="none" style="stroke:#181818;stroke-width:0.5;"/><text fill="#000000" font-family="sans-serif" font-size="14" lengthAdjust="spacing" textLength="83" x="25" y="1394.1074">Administrator</text></g><g id="elem_UC01 - Register users of the backoffice"><ellipse cx="491.5839" cy="1215.6168" fill="#F1F1F1" rx="141.0839" ry="30.6168" style="stroke:#181818;stroke-width:0.5;"/><text fill="#000000" font-family="sans-serif" font-size="14" lengthAdjust="spacing" textLength="248" x="367.5839" y="1219.4137">UC01 - Register users of the backoffice</text></g><g id="elem_UC02 - Enable users of the backoffice"><ellipse cx="491.3559" cy="1311.2712" fill="#F1F1F1" rx="136.8559" ry="29.7712" style="stroke:#181818;stroke-width:0.5;"/><text fill="#000000" font-family="sans-serif" font-size="14" lengthAdjust="spacing" textLength="239" x="371.8559" y="1315.0681">UC02 - Enable users of the backoffice</text></g><g id="elem_UC03 - Disable users of the backoffice"><ellipse cx="491.2633" cy="1406.5527" fill="#F1F1F1" rx="138.2633" ry="30.0527" style="stroke:#181818;stroke-width:0.5;"/><text fill="#000000" font-family="sans-serif" font-size="14" lengthAdjust="spacing" textLength="242" x="370.2633" y="1410.3495">UC03 - Disable users of the backoffice</text></g><g id="elem_UC04 - List users of the backoffice"><ellipse cx="491.6018" cy="1499.7204" fill="#F1F1F1" rx="126.6018" ry="27.7204" style="stroke:#181818;stroke-width:0.5;"/><text fill="#000000" font-family="sans-serif" font-size="14" lengthAdjust="spacing" textLength="217" x="383.1018" y="1503.5172">UC04 - List users of the backoffice</text></g><!--entity cm--><g id="elem_cm"><ellipse cx="66.5" cy="837.5" fill="#F1F1F1" rx="8" ry="8" style="stroke:#181818;stroke-width:0.5;"/><path d="M66.5,845.5 L66.5,872.5 M53.5,853.5 L79.5,853.5 M66.5,872.5 L53.5,887.5 M66.5,872.5 L79.5,887.5 " fill="none" style="stroke:#181818;stroke-width:0.5;"/><text fill="#000000" font-family="sans-serif" font-size="14" lengthAdjust="spacing" textLength="117" x="8" y="904.1074">CustomerManager</text></g><g id="elem_UC05 - Register customer"><ellipse cx="491.6188" cy="660.3238" fill="#F1F1F1" rx="102.1188" ry="22.8238" style="stroke:#181818;stroke-width:0.5;"/><text fill="#000000" font-family="sans-serif" font-size="14" lengthAdjust="spacing" textLength="163" x="409.6214" y="664.3076">UC05 - Register customer</text></g><g id="elem_UC06 - Register job opening"><ellipse cx="491.7422" cy="742.7484" fill="#F1F1F1" rx="109.2422" ry="24.2484" style="stroke:#181818;stroke-width:0.5;"/><text fill="#000000" font-family="sans-serif" font-size="14" lengthAdjust="spacing" textLength="179" x="402.2422" y="746.5453">UC06 - Register job opening</text></g><g id="elem_UC07 - List job openings"><ellipse cx="491.6507" cy="823.6301" fill="#F1F1F1" rx="98.6507" ry="22.1301" style="stroke:#181818;stroke-width:0.5;"/><text fill="#000000" font-family="sans-serif" font-size="14" lengthAdjust="spacing" textLength="155" x="412.638" y="827.9697">UC07 - List job openings</text></g><g id="elem_UC08 - List applications for a job opening"><ellipse cx="491.7469" cy="912.7494" fill="#F1F1F1" rx="146.7469" ry="31.7494" style="stroke:#181818;stroke-width:0.5;"/><text fill="#000000" font-family="sans-serif" font-size="14" lengthAdjust="spacing" textLength="260" x="361.7469" y="916.5462">UC08 - List applications for a job opening</text></g><g id="elem_UC09 - Display data of a candidate"><ellipse cx="491.4926" cy="1007.4985" fill="#F1F1F1" rx="127.9926" ry="27.9985" style="stroke:#181818;stroke-width:0.5;"/><text fill="#000000" font-family="sans-serif" font-size="14" lengthAdjust="spacing" textLength="220" x="381.4926" y="1011.2954">UC09 - Display data of a candidate</text></g><g id="elem_UC10 - Setup phases of the process for a job opening"><ellipse cx="491.5526" cy="1110.4105" fill="#F1F1F1" rx="185.0526" ry="39.4105" style="stroke:#181818;stroke-width:0.5;"/><text fill="#000000" font-family="sans-serif" font-size="14" lengthAdjust="spacing" textLength="340" x="321.5526" y="1114.2074">UC10 - Setup phases of the process for a job opening</text></g><!--entity le--><g id="elem_le"><ellipse cx="66.5" cy="549.5" fill="#F1F1F1" rx="8" ry="8" style="stroke:#181818;stroke-width:0.5;"/><path d="M66.5,557.5 L66.5,584.5 M53.5,565.5 L79.5,565.5 M66.5,584.5 L53.5,599.5 M66.5,584.5 L79.5,599.5 " fill="none" style="stroke:#181818;stroke-width:0.5;"/><text fill="#000000" font-family="sans-serif" font-size="14" lengthAdjust="spacing" textLength="121" x="6" y="616.1074">LanguageEngineer</text></g><g id="elem_UC15 - Develop a requirementsEvalutator"><ellipse cx="491.7232" cy="580.5446" fill="#F1F1F1" rx="98.2232" ry="22.0446" style="stroke:#181818;stroke-width:0.5;"/><text fill="#000000" font-family="sans-serif" font-size="14" lengthAdjust="spacing" textLength="154" x="413.0784" y="584.928">UC15 - Develop a requirementsEvalutator</text></g><!--entity op--><g id="elem_op"><ellipse cx="66.5" cy="286.5" fill="#F1F1F1" rx="8" ry="8" style="stroke:#181818;stroke-width:0.5;"/><path d="M66.5,294.5 L66.5,321.5 M53.5,302.5 L79.5,302.5 M66.5,321.5 L53.5,336.5 M66.5,321.5 L79.5,336.5 " fill="none" style="stroke:#181818;stroke-width:0.5;"/><text fill="#000000" font-family="sans-serif" font-size="14" lengthAdjust="spacing" textLength="57" x="38" y="353.1074">Operator</text></g><g id="elem_UC11 - Register a candidate"><ellipse cx="491.7422" cy="192.7484" fill="#F1F1F1" rx="109.2422" ry="24.2484" style="stroke:#181818;stroke-width:0.5;"/><text fill="#000000" font-family="sans-serif" font-size="14" lengthAdjust="spacing" textLength="179" x="402.2422" y="196.5453">UC11 - Register a candidate</text></g><g id="elem_UC12 - List candidates"><ellipse cx="491.6171" cy="272.6234" fill="#F1F1F1" rx="93.6171" ry="21.1234" style="stroke:#181818;stroke-width:0.5;"/><text fill="#000000" font-family="sans-serif" font-size="14" lengthAdjust="spacing" textLength="143" x="417.1171" y="277.4271">UC12 - List candidates</text></g><g id="elem_UC13 - Register application of a candidate"><ellipse cx="491.5626" cy="361.4125" fill="#F1F1F1" rx="150.0626" ry="32.4125" style="stroke:#181818;stroke-width:0.5;"/><text fill="#000000" font-family="sans-serif" font-size="14" lengthAdjust="spacing" textLength="267" x="358.0626" y="365.2094">UC13 - Register application of a candidate</text></g><g id="elem_UC14 - Generate template file to help collect data from candidates"><ellipse cx="491.5049" cy="476.301" fill="#F1F1F1" rx="222.0049" ry="46.801" style="stroke:#181818;stroke-width:0.5;"/><text fill="#000000" font-family="sans-serif" font-size="14" lengthAdjust="spacing" textLength="416" x="283.5049" y="480.0979">UC14 - Generate template file to help collect data from candidates</text></g><!--entity pm--><g id="elem_pm"><ellipse cx="66.5" cy="38.5" fill="#F1F1F1" rx="8" ry="8" style="stroke:#181818;stroke-width:0.5;"/><path d="M66.5,46.5 L66.5,73.5 M53.5,54.5 L79.5,54.5 M66.5,73.5 L53.5,88.5 M66.5,73.5 L79.5,88.5 " fill="none" style="stroke:#181818;stroke-width:0.5;"/><text fill="#000000" font-family="sans-serif" font-size="14" lengthAdjust="spacing" textLength="100" x="16.5" y="105.1074">ProjectManager</text></g><g id="elem_UC15 - Support and apply authentication and authorization for all its users and functionalities"><ellipse cx="491.6143" cy="69.3229" fill="#F1F1F1" rx="304.6143" ry="63.3229" style="stroke:#181818;stroke-width:0.5;"/><text fill="#000000" font-family="sans-serif" font-size="14" lengthAdjust="spacing" textLength="584" x="199.6143" y="73.1197">UC15 - Support and apply authentication and authorization for all its users and functionalities</text></g><!--link adm to UC01 - Register users of the backoffice--><g id="link_adm_UC01 - Register users of the backoffice"><path d="M107.21,1318.83 C128.99,1299.39 157.51,1277.43 187,1264.5 C239.06,1241.67 294.3746,1230.0904 348.1846,1223.4904 " fill="none" id="adm-to-UC01 - Register users of the backoffice" style="stroke:#181818;stroke-width:1.0;"/><polygon fill="#181818" points="354.14,1222.76,344.72,1219.8854,349.1772,1223.3687,345.6939,1227.8259,354.14,1222.76" style="stroke:#181818;stroke-width:1.0;"/></g><!--link adm to UC02 - Enable users of the backoffice--><g id="link_adm_UC02 - Enable users of the backoffice"><path d="M108.06,1353.99 C167.51,1347.39 274.8167,1335.4627 362.7267,1325.6927 " fill="none" id="adm-to-UC02 - Enable users of the backoffice" style="stroke:#181818;stroke-width:1.0;"/><polygon fill="#181818" points="368.69,1325.03,359.3032,1322.0486,363.7206,1325.5823,360.1869,1329.9996,368.69,1325.03" style="stroke:#181818;stroke-width:1.0;"/></g><!--link adm to UC03 - Disable users of the backoffice--><g id="link_adm_UC03 - Disable users of the backoffice"><path d="M108.06,1363.1 C167.41,1369.84 274.4282,1381.984 362.2682,1391.944 " fill="none" id="adm-to-UC03 - Disable users of the backoffice" style="stroke:#181818;stroke-width:1.0;"/><polygon fill="#181818" points="368.23,1392.62,359.738,1387.6315,363.2618,1392.0567,358.8366,1395.5805,368.23,1392.62" style="stroke:#181818;stroke-width:1.0;"/></g><!--link adm to UC04 - List users of the backoffice--><g id="link_adm_UC04 - List users of the backoffice"><path d="M105.93,1398.21 C127.78,1418.35 156.76,1441.29 187,1454.5 C242.89,1478.92 303.5266,1489.936 360.0866,1495.276 " fill="none" id="adm-to-UC04 - List users of the backoffice" style="stroke:#181818;stroke-width:1.0;"/><polygon fill="#181818" points="366.06,1495.84,357.4758,1491.0118,361.0821,1495.37,356.7239,1498.9763,366.06,1495.84" style="stroke:#181818;stroke-width:1.0;"/></g><!--link cm to UC05 - Register customer--><g id="link_cm_UC05 - Register customer"><path d="M84.34,828.81 C103.24,789.53 137.83,731.11 187,701.5 C248.61,664.4 323.8302,655.1134 386.7502,654.5534 " fill="none" id="cm-to-UC05 - Register customer" style="stroke:#181818;stroke-width:1.0;"/><polygon fill="#181818" points="392.75,654.5,383.7148,650.5803,387.7502,654.5445,383.786,658.5799,392.75,654.5" style="stroke:#181818;stroke-width:1.0;"/></g><!--link cm to UC06 - Register job opening--><g id="link_cm_UC06 - Register job opening"><path d="M112.75,828.98 C133.93,812.6 160.34,795 187,784.5 C249.24,759.99 317.5764,749.8733 377.0964,745.4633 " fill="none" id="cm-to-UC06 - Register job opening" style="stroke:#181818;stroke-width:1.0;"/><polygon fill="#181818" points="383.08,745.02,373.809,741.6959,378.0937,745.3895,374.4002,749.6741,383.08,745.02" style="stroke:#181818;stroke-width:1.0;"/></g><!--link cm to UC07 - List job openings--><g id="link_cm_UC07 - List job openings"><path d="M125.43,862.34 C196.82,854.74 312.8837,842.395 396.0337,833.545 " fill="none" id="cm-to-UC07 - List job openings" style="stroke:#181818;stroke-width:1.0;"/><polygon fill="#181818" points="402,832.91,392.6272,829.885,397.0281,833.4392,393.4739,837.8401,402,832.91" style="stroke:#181818;stroke-width:1.0;"/></g><!--link cm to UC08 - List applications for a job opening--><g id="link_cm_UC08 - List applications for a job opening"><path d="M125.43,874.53 C185.28,880.75 274.7522,890.0595 353.0422,898.1995 " fill="none" id="cm-to-UC08 - List applications for a job opening" style="stroke:#181818;stroke-width:1.0;"/><polygon fill="#181818" points="359.01,898.82,350.4719,893.9107,354.0368,898.3029,349.6446,901.8678,359.01,898.82" style="stroke:#181818;stroke-width:1.0;"/></g><!--link cm to UC09 - Display data of a candidate--><g id="link_cm_UC09 - Display data of a candidate"><path d="M107.5,908.1 C129.25,927.3 157.65,948.89 187,961.5 C242.7,985.43 302.8502,996.5786 359.1302,1002.2486 " fill="none" id="cm-to-UC09 - Display data of a candidate" style="stroke:#181818;stroke-width:1.0;"/><polygon fill="#181818" points="365.1,1002.85,356.5463,997.968,360.1252,1002.3488,355.7444,1005.9277,365.1,1002.85" style="stroke:#181818;stroke-width:1.0;"/></g><!--link cm to UC10 - Setup phases of the process for a job opening--><g id="link_cm_UC10 - Setup phases of the process for a job opening"><path d="M82.05,908.29 C99.91,951.23 134.47,1018.22 187,1053.5 C223.61,1078.09 262.1341,1091.5956 305.5541,1100.1856 " fill="none" id="cm-to-UC10 - Setup phases of the process for a job opening" style="stroke:#181818;stroke-width:1.0;"/><polygon fill="#181818" points="311.44,1101.35,303.3874,1095.6794,306.5351,1100.3796,301.8348,1103.5273,311.44,1101.35" style="stroke:#181818;stroke-width:1.0;"/></g><!--link le to UC15 - Develop a requirementsEvalutator--><g id="link_le_UC15 - Develop a requirementsEvalutator"><path d="M127.21,580.5 C196.33,580.5 305.15,580.5 387.22,580.5 " fill="none" id="le-to-UC15 - Develop a requirementsEvalutator" style="stroke:#181818;stroke-width:1.0;"/><polygon fill="#181818" points="393.22,580.5,384.22,576.5,388.22,580.5,384.22,584.5,393.22,580.5" style="stroke:#181818;stroke-width:1.0;"/></g><!--link op to UC11 - Register a candidate--><g id="link_op_UC11 - Register a candidate"><path d="M95.23,292.52 C118.14,273.37 152.41,248.01 187,234.5 C249.31,210.17 317.6467,200.0574 377.1567,195.6074 " fill="none" id="op-to-UC11 - Register a candidate" style="stroke:#181818;stroke-width:1.0;"/><polygon fill="#181818" points="383.14,195.16,373.8668,191.8423,378.1539,195.5328,374.4633,199.82,383.14,195.16" style="stroke:#181818;stroke-width:1.0;"/></g><!--link op to UC12 - List candidates--><g id="link_op_UC12 - List candidates"><path d="M95.25,314.55 C157.47,307.93 304.2137,292.3147 400.5637,282.0647 " fill="none" id="op-to-UC12 - List candidates" style="stroke:#181818;stroke-width:1.0;"/><polygon fill="#181818" points="406.53,281.43,397.1574,278.4045,401.5581,281.9589,398.0036,286.3596,406.53,281.43" style="stroke:#181818;stroke-width:1.0;"/></g><!--link op to UC13 - Register application of a candidate--><g id="link_op_UC13 - Register application of a candidate"><path d="M95.25,320.39 C147.36,325.81 256.9822,337.2093 349.7622,346.8593 " fill="none" id="op-to-UC13 - Register application of a candidate" style="stroke:#181818;stroke-width:1.0;"/><polygon fill="#181818" points="355.73,347.48,347.1921,342.5704,350.7568,346.9627,346.3645,350.5275,355.73,347.48" style="stroke:#181818;stroke-width:1.0;"/></g><!--link op to UC14 - Generate template file to help collect data from candidates--><g id="link_op_UC14 - Generate template file to help collect data from candidates"><path d="M95.41,345.58 C118.15,366.86 152.11,395.13 187,411.5 C223.71,428.73 259.2175,440.0745 299.3075,449.4445 " fill="none" id="op-to-UC14 - Generate template file to help collect data from candidates" style="stroke:#181818;stroke-width:1.0;"/><polygon fill="#181818" points="305.15,450.81,297.2965,444.8667,300.2812,449.672,295.4758,452.6567,305.15,450.81" style="stroke:#181818;stroke-width:1.0;"/></g><!--link pm to UC15 - Support and apply authentication and authorization for all its users and functionalities--><g id="link_pm_UC15 - Support and apply authentication and authorization for all its users and functionalities"><path d="M116.85,69.5 C136.36,69.5 154.46,69.5 180.96,69.5 " fill="none" id="pm-to-UC15 - Support and apply authentication and authorization for all its users and functionalities" style="stroke:#181818;stroke-width:1.0;"/><polygon fill="#181818" points="186.96,69.5,177.96,65.5,181.96,69.5,177.96,73.5,186.96,69.5" style="stroke:#181818;stroke-width:1.0;"/></g><!--SRC=[ZPFBJiCm44Nt-OfPqaMbFdXka51RiIa2KV41KsUIk3YsPJj8vUiPfqaQ2v2wY-rpnpFNDoY2SV2Krr9B7np65Nh0lCuoHKM0OC39iWgGIqSYIAEpZ4zXEds4gu_LR0vJUAUInUIWyUGyc092HR17yMcAGWgQ98e5ApOQzuekuvVChwM_N73DWYqtz3-TOJlsgl71rEHUK6D9xU22vnRdKZVZwKI7JyR4xPWuc3qOIrhgCe7k-ev6W4-8-vv0QvKK68tsKCJN-BVgmyaOg_08EGQCao88rBda9OtP-OpP7ON6WgtGq-2ATKQG__EcpgGjwh9XUpQwb9fEBYcAwHYAHvVMz4NAM2vYLSFae7-rDCJAs2nZfjSbsKaw7q6BtfdXs2VdowJ8sRrVRemqCI7Ff6DZ185gjf0_2iapSTuhKXQ4KOhpVZAsSAPExkzcUtFcmD0eFvRpO-l4cLrZhN7yiZfl-pi2Dcoz3dsZxG5l6IU_JpljQoW5ClWkn94f6jt-WAXaaB6B7m00]--></g></svg>