<?xml version="1.0" encoding="us-ascii" standalone="no"?><svg xmlns="http://www.w3.org/2000/svg" xmlns:xlink="http://www.w3.org/1999/xlink" contentStyleType="text/css" height="374px" preserveAspectRatio="none" style="width:426px;height:374px;background:#FFFFFF;" version="1.1" viewBox="0 0 426 374" width="426px" zoomAndPan="magnify"><defs/><g><text fill="#000000" font-family="sans-serif" font-size="14" font-weight="bold" lengthAdjust="spacing" textLength="155" x="128.5" y="25.1074">UC04 CLASS DIAGRAM</text><!--class Runnable--><g id="elem_Runnable"><rect codeLine="4" fill="#F1F1F1" height="66.6211" id="Runnable" rx="2.5" ry="2.5" style="stroke:#181818;stroke-width:0.5;" width="93" x="7" y="46.6211"/><ellipse cx="22" cy="62.6211" fill="#B4A7E5" rx="11" ry="11" style="stroke:#181818;stroke-width:1.0;"/><path d="M22.9531,59.2617 L22.9531,65.918 L24.6719,65.918 Q25.2813,65.918 25.5469,66.1523 Q25.8125,66.3867 25.8125,66.7773 Q25.8125,67.1523 25.5469,67.3867 Q25.2813,67.6211 24.6719,67.6211 L19.5313,67.6211 Q18.9219,67.6211 18.6563,67.3867 Q18.3906,67.1523 18.3906,66.7617 Q18.3906,66.3867 18.6563,66.1523 Q18.9219,65.918 19.5313,65.918 L21.25,65.918 L21.25,59.2617 L19.5313,59.2617 Q18.9219,59.2617 18.6563,59.0273 Q18.3906,58.793 18.3906,58.4023 Q18.3906,58.0273 18.6563,57.793 Q18.9219,57.5586 19.5313,57.5586 L24.6719,57.5586 Q25.2813,57.5586 25.5469,57.793 Q25.8125,58.0273 25.8125,58.4023 Q25.8125,58.793 25.5469,59.0273 Q25.2813,59.2617 24.6719,59.2617 L22.9531,59.2617 Z " fill="#000000"/><text fill="#000000" font-family="sans-serif" font-size="14" font-style="italic" lengthAdjust="spacing" textLength="61" x="36" y="68.418">Runnable</text><line style="stroke:#181818;stroke-width:0.5;" x1="8" x2="99" y1="78.6211" y2="78.6211"/><line style="stroke:#181818;stroke-width:0.5;" x1="8" x2="99" y1="86.6211" y2="86.6211"/><ellipse cx="18" cy="101.4316" fill="#84BE84" rx="3" ry="3" style="stroke:#038048;stroke-width:1.0;"/><text fill="#000000" font-family="sans-serif" font-size="14" lengthAdjust="spacing" textLength="31" x="27" y="105.7285">run()</text></g><!--class ListUsersUI--><g id="elem_ListUsersUI"><rect codeLine="8" fill="#F1F1F1" height="66.6211" id="ListUsersUI" rx="2.5" ry="2.5" style="stroke:#181818;stroke-width:0.5;" width="102" x="135.5" y="46.6211"/><ellipse cx="150.5" cy="62.6211" fill="#ADD1B2" rx="11" ry="11" style="stroke:#181818;stroke-width:1.0;"/><path d="M153.2656,58.4961 Q153.4219,58.2773 153.6094,58.168 Q153.7969,58.0586 154.0156,58.0586 Q154.3906,58.0586 154.625,58.3242 Q154.8594,58.5742 154.8594,59.1836 L154.8594,60.6367 Q154.8594,61.2461 154.625,61.5117 Q154.3906,61.7773 154.0156,61.7773 Q153.6719,61.7773 153.4688,61.5742 Q153.2656,61.3867 153.1563,60.8711 Q153.1094,60.5117 152.9219,60.3242 Q152.5938,59.9492 151.9844,59.7305 Q151.375,59.5117 150.75,59.5117 Q149.9844,59.5117 149.3438,59.8398 Q148.7188,60.168 148.2188,60.918 Q147.7344,61.668 147.7344,62.6992 L147.7344,63.793 Q147.7344,65.0273 148.625,65.8555 Q149.5156,66.668 151.1094,66.668 Q152.0469,66.668 152.7031,66.418 Q153.0938,66.2617 153.5156,65.8242 Q153.7813,65.5586 153.9219,65.4805 Q154.0781,65.4023 154.2813,65.4023 Q154.6094,65.4023 154.8594,65.668 Q155.125,65.918 155.125,66.2617 Q155.125,66.6055 154.7813,67.0117 Q154.2813,67.5898 153.4844,67.918 Q152.4063,68.3711 151.1094,68.3711 Q149.5938,68.3711 148.3906,67.7461 Q147.4063,67.2461 146.7188,66.1836 Q146.0313,65.1055 146.0313,63.8242 L146.0313,62.668 Q146.0313,61.3398 146.6406,60.1992 Q147.2656,59.043 148.3594,58.4336 Q149.4531,57.8086 150.6875,57.8086 Q151.4219,57.8086 152.0625,57.9805 Q152.7188,58.1367 153.2656,58.4961 Z " fill="#000000"/><text fill="#000000" font-family="sans-serif" font-size="14" lengthAdjust="spacing" textLength="70" x="164.5" y="68.418">ListUsersUI</text><line style="stroke:#181818;stroke-width:0.5;" x1="136.5" x2="236.5" y1="78.6211" y2="78.6211"/><line style="stroke:#181818;stroke-width:0.5;" x1="136.5" x2="236.5" y1="86.6211" y2="86.6211"/><ellipse cx="146.5" cy="101.4316" fill="#84BE84" rx="3" ry="3" style="stroke:#038048;stroke-width:1.0;"/><text fill="#000000" font-family="sans-serif" font-size="14" lengthAdjust="spacing" textLength="31" x="155.5" y="105.7285">run()</text></g><!--class UserRepository--><g id="elem_UserRepository"><rect codeLine="12" fill="#F1F1F1" height="66.6211" id="UserRepository" rx="2.5" ry="2.5" style="stroke:#181818;stroke-width:0.5;" width="129" x="290" y="300.6211"/><ellipse cx="305" cy="316.6211" fill="#ADD1B2" rx="11" ry="11" style="stroke:#181818;stroke-width:1.0;"/><path d="M307.7656,312.4961 Q307.9219,312.2773 308.1094,312.168 Q308.2969,312.0586 308.5156,312.0586 Q308.8906,312.0586 309.125,312.3242 Q309.3594,312.5742 309.3594,313.1836 L309.3594,314.6367 Q309.3594,315.2461 309.125,315.5117 Q308.8906,315.7773 308.5156,315.7773 Q308.1719,315.7773 307.9688,315.5742 Q307.7656,315.3867 307.6563,314.8711 Q307.6094,314.5117 307.4219,314.3242 Q307.0938,313.9492 306.4844,313.7305 Q305.875,313.5117 305.25,313.5117 Q304.4844,313.5117 303.8438,313.8398 Q303.2188,314.168 302.7188,314.918 Q302.2344,315.668 302.2344,316.6992 L302.2344,317.793 Q302.2344,319.0273 303.125,319.8555 Q304.0156,320.668 305.6094,320.668 Q306.5469,320.668 307.2031,320.418 Q307.5938,320.2617 308.0156,319.8242 Q308.2813,319.5586 308.4219,319.4805 Q308.5781,319.4023 308.7813,319.4023 Q309.1094,319.4023 309.3594,319.668 Q309.625,319.918 309.625,320.2617 Q309.625,320.6055 309.2813,321.0117 Q308.7813,321.5898 307.9844,321.918 Q306.9063,322.3711 305.6094,322.3711 Q304.0938,322.3711 302.8906,321.7461 Q301.9063,321.2461 301.2188,320.1836 Q300.5313,319.1055 300.5313,317.8242 L300.5313,316.668 Q300.5313,315.3398 301.1406,314.1992 Q301.7656,313.043 302.8594,312.4336 Q303.9531,311.8086 305.1875,311.8086 Q305.9219,311.8086 306.5625,311.9805 Q307.2188,312.1367 307.7656,312.4961 Z " fill="#000000"/><text fill="#000000" font-family="sans-serif" font-size="14" lengthAdjust="spacing" textLength="97" x="319" y="322.418">UserRepository</text><line style="stroke:#181818;stroke-width:0.5;" x1="291" x2="418" y1="332.6211" y2="332.6211"/><line style="stroke:#181818;stroke-width:0.5;" x1="291" x2="418" y1="340.6211" y2="340.6211"/><ellipse cx="301" cy="355.4316" fill="#84BE84" rx="3" ry="3" style="stroke:#038048;stroke-width:1.0;"/><text fill="#000000" font-family="sans-serif" font-size="14" lengthAdjust="spacing" textLength="48" x="310" y="359.7285">findAll()</text></g><!--class ListUsersController--><g id="elem_ListUsersController"><rect codeLine="16" fill="#F1F1F1" height="66.6211" id="ListUsersController" rx="2.5" ry="2.5" style="stroke:#181818;stroke-width:0.5;" width="152" x="110.5" y="173.6211"/><ellipse cx="125.5" cy="189.6211" fill="#ADD1B2" rx="11" ry="11" style="stroke:#181818;stroke-width:1.0;"/><path d="M128.2656,185.4961 Q128.4219,185.2773 128.6094,185.168 Q128.7969,185.0586 129.0156,185.0586 Q129.3906,185.0586 129.625,185.3242 Q129.8594,185.5742 129.8594,186.1836 L129.8594,187.6367 Q129.8594,188.2461 129.625,188.5117 Q129.3906,188.7773 129.0156,188.7773 Q128.6719,188.7773 128.4688,188.5742 Q128.2656,188.3867 128.1563,187.8711 Q128.1094,187.5117 127.9219,187.3242 Q127.5938,186.9492 126.9844,186.7305 Q126.375,186.5117 125.75,186.5117 Q124.9844,186.5117 124.3438,186.8398 Q123.7188,187.168 123.2188,187.918 Q122.7344,188.668 122.7344,189.6992 L122.7344,190.793 Q122.7344,192.0273 123.625,192.8555 Q124.5156,193.668 126.1094,193.668 Q127.0469,193.668 127.7031,193.418 Q128.0938,193.2617 128.5156,192.8242 Q128.7813,192.5586 128.9219,192.4805 Q129.0781,192.4023 129.2813,192.4023 Q129.6094,192.4023 129.8594,192.668 Q130.125,192.918 130.125,193.2617 Q130.125,193.6055 129.7813,194.0117 Q129.2813,194.5898 128.4844,194.918 Q127.4063,195.3711 126.1094,195.3711 Q124.5938,195.3711 123.3906,194.7461 Q122.4063,194.2461 121.7188,193.1836 Q121.0313,192.1055 121.0313,190.8242 L121.0313,189.668 Q121.0313,188.3398 121.6406,187.1992 Q122.2656,186.043 123.3594,185.4336 Q124.4531,184.8086 125.6875,184.8086 Q126.4219,184.8086 127.0625,184.9805 Q127.7188,185.1367 128.2656,185.4961 Z " fill="#000000"/><text fill="#000000" font-family="sans-serif" font-size="14" lengthAdjust="spacing" textLength="120" x="139.5" y="195.418">ListUsersController</text><line style="stroke:#181818;stroke-width:0.5;" x1="111.5" x2="261.5" y1="205.6211" y2="205.6211"/><line style="stroke:#181818;stroke-width:0.5;" x1="111.5" x2="261.5" y1="213.6211" y2="213.6211"/><ellipse cx="121.5" cy="228.4316" fill="#84BE84" rx="3" ry="3" style="stroke:#038048;stroke-width:1.0;"/><text fill="#000000" font-family="sans-serif" font-size="14" lengthAdjust="spacing" textLength="63" x="130.5" y="232.7285">listUsers()</text></g><!--class ListUsersService--><g id="elem_ListUsersService"><rect codeLine="20" fill="#F1F1F1" height="66.6211" id="ListUsersService" rx="2.5" ry="2.5" style="stroke:#181818;stroke-width:0.5;" width="137" x="118" y="300.6211"/><ellipse cx="133" cy="316.6211" fill="#ADD1B2" rx="11" ry="11" style="stroke:#181818;stroke-width:1.0;"/><path d="M135.7656,312.4961 Q135.9219,312.2773 136.1094,312.168 Q136.2969,312.0586 136.5156,312.0586 Q136.8906,312.0586 137.125,312.3242 Q137.3594,312.5742 137.3594,313.1836 L137.3594,314.6367 Q137.3594,315.2461 137.125,315.5117 Q136.8906,315.7773 136.5156,315.7773 Q136.1719,315.7773 135.9688,315.5742 Q135.7656,315.3867 135.6563,314.8711 Q135.6094,314.5117 135.4219,314.3242 Q135.0938,313.9492 134.4844,313.7305 Q133.875,313.5117 133.25,313.5117 Q132.4844,313.5117 131.8438,313.8398 Q131.2188,314.168 130.7188,314.918 Q130.2344,315.668 130.2344,316.6992 L130.2344,317.793 Q130.2344,319.0273 131.125,319.8555 Q132.0156,320.668 133.6094,320.668 Q134.5469,320.668 135.2031,320.418 Q135.5938,320.2617 136.0156,319.8242 Q136.2813,319.5586 136.4219,319.4805 Q136.5781,319.4023 136.7813,319.4023 Q137.1094,319.4023 137.3594,319.668 Q137.625,319.918 137.625,320.2617 Q137.625,320.6055 137.2813,321.0117 Q136.7813,321.5898 135.9844,321.918 Q134.9063,322.3711 133.6094,322.3711 Q132.0938,322.3711 130.8906,321.7461 Q129.9063,321.2461 129.2188,320.1836 Q128.5313,319.1055 128.5313,317.8242 L128.5313,316.668 Q128.5313,315.3398 129.1406,314.1992 Q129.7656,313.043 130.8594,312.4336 Q131.9531,311.8086 133.1875,311.8086 Q133.9219,311.8086 134.5625,311.9805 Q135.2188,312.1367 135.7656,312.4961 Z " fill="#000000"/><text fill="#000000" font-family="sans-serif" font-size="14" lengthAdjust="spacing" textLength="105" x="147" y="322.418">ListUsersService</text><line style="stroke:#181818;stroke-width:0.5;" x1="119" x2="254" y1="332.6211" y2="332.6211"/><line style="stroke:#181818;stroke-width:0.5;" x1="119" x2="254" y1="340.6211" y2="340.6211"/><ellipse cx="129" cy="355.4316" fill="#84BE84" rx="3" ry="3" style="stroke:#038048;stroke-width:1.0;"/><text fill="#000000" font-family="sans-serif" font-size="14" lengthAdjust="spacing" textLength="63" x="138" y="359.7285">listUsers()</text></g><!--link Runnable to ListUsersUI--><g id="link_Runnable_ListUsersUI"><path codeLine="24" d="M100.26,80.1211 C111.94,80.1211 105.62,80.1211 117.29,80.1211 " fill="none" id="Runnable-to-ListUsersUI" style="stroke:#181818;stroke-width:1.0;"/><polygon fill="none" points="135.29,80.1211,117.29,74.1211,117.29,86.1211,135.29,80.1211" style="stroke:#181818;stroke-width:1.0;"/></g><!--link ListUsersUI to ListUsersController--><g id="link_ListUsersUI_ListUsersController"><path codeLine="25" d="M186.5,113.6411 C186.5,132.0111 186.5,148.9111 186.5,167.3311 " fill="none" id="ListUsersUI-to-ListUsersController" style="stroke:#181818;stroke-width:1.0;stroke-dasharray:7.0,7.0;"/><polygon fill="#181818" points="186.5,173.3311,190.5,164.3311,186.5,168.3311,182.5,164.3311,186.5,173.3311" style="stroke:#181818;stroke-width:1.0;"/></g><!--link ListUsersController to ListUsersService--><g id="link_ListUsersController_ListUsersService"><path codeLine="26" d="M186.5,240.6411 C186.5,259.0111 186.5,275.9111 186.5,294.3311 " fill="none" id="ListUsersController-to-ListUsersService" style="stroke:#181818;stroke-width:1.0;stroke-dasharray:7.0,7.0;"/><polygon fill="#181818" points="186.5,300.3311,190.5,291.3311,186.5,295.3311,182.5,291.3311,186.5,300.3311" style="stroke:#181818;stroke-width:1.0;"/></g><!--link ListUsersService to UserRepository--><g id="link_ListUsersService_UserRepository"><path codeLine="27" d="M255.08,334.1211 C266.6,334.1211 272.12,334.1211 283.64,334.1211 " fill="none" id="ListUsersService-to-UserRepository" style="stroke:#181818;stroke-width:1.0;stroke-dasharray:7.0,7.0;"/><polygon fill="#181818" points="289.64,334.1211,280.64,330.1211,284.64,334.1211,280.64,338.1211,289.64,334.1211" style="stroke:#181818;stroke-width:1.0;"/></g><!--SRC=[TO_12i8m38RlUOeS5N5uy3me4sGmBnjxW5apA8HMqauGzTsTe6N3BjV_I_BzmGGcR8lT7ejADGqUIdMirGd0s43ITvgm7gpjpYFs01ndWpBOrHfU09exxx4oFhIUnBVb4lA9QxewRuAJUwHwOo-AENciS3Q8OoQ9EF-ov493SZEQbkZOOllCfyemrS-oF6K0AQiP-tqEVpOZD2yFRm00]--></g></svg>