<?xml version="1.0" encoding="us-ascii" standalone="no"?><svg xmlns="http://www.w3.org/2000/svg" xmlns:xlink="http://www.w3.org/1999/xlink" contentStyleType="text/css" height="374px" preserveAspectRatio="none" style="width:340px;height:374px;background:#FFFFFF;" version="1.1" viewBox="0 0 340 374" width="340px" zoomAndPan="magnify"><defs/><g><text fill="#000000" font-family="sans-serif" font-size="14" font-weight="bold" lengthAdjust="spacing" textLength="155" x="85.5" y="25.1074">UC06 CLASS DIAGRAM</text><!--class Runnable--><g id="elem_Runnable"><rect codeLine="4" fill="#F1F1F1" height="66.6211" id="Runnable" rx="2.5" ry="2.5" style="stroke:#181818;stroke-width:0.5;" width="93" x="240" y="46.6211"/><ellipse cx="255" cy="62.6211" fill="#B4A7E5" rx="11" ry="11" style="stroke:#181818;stroke-width:1.0;"/><path d="M255.9531,59.2617 L255.9531,65.918 L257.6719,65.918 Q258.2813,65.918 258.5469,66.1523 Q258.8125,66.3867 258.8125,66.7773 Q258.8125,67.1523 258.5469,67.3867 Q258.2813,67.6211 257.6719,67.6211 L252.5313,67.6211 Q251.9219,67.6211 251.6563,67.3867 Q251.3906,67.1523 251.3906,66.7617 Q251.3906,66.3867 251.6563,66.1523 Q251.9219,65.918 252.5313,65.918 L254.25,65.918 L254.25,59.2617 L252.5313,59.2617 Q251.9219,59.2617 251.6563,59.0273 Q251.3906,58.793 251.3906,58.4023 Q251.3906,58.0273 251.6563,57.793 Q251.9219,57.5586 252.5313,57.5586 L257.6719,57.5586 Q258.2813,57.5586 258.5469,57.793 Q258.8125,58.0273 258.8125,58.4023 Q258.8125,58.793 258.5469,59.0273 Q258.2813,59.2617 257.6719,59.2617 L255.9531,59.2617 Z " fill="#000000"/><text fill="#000000" font-family="sans-serif" font-size="14" font-style="italic" lengthAdjust="spacing" textLength="61" x="269" y="68.418">Runnable</text><line style="stroke:#181818;stroke-width:0.5;" x1="241" x2="332" y1="78.6211" y2="78.6211"/><line style="stroke:#181818;stroke-width:0.5;" x1="241" x2="332" y1="86.6211" y2="86.6211"/><ellipse cx="251" cy="101.4316" fill="#84BE84" rx="3" ry="3" style="stroke:#038048;stroke-width:1.0;"/><text fill="#000000" font-family="sans-serif" font-size="14" lengthAdjust="spacing" textLength="31" x="260" y="105.7285">run()</text></g><!--class RegisterJobOpeningUI--><g id="elem_RegisterJobOpeningUI"><rect codeLine="8" fill="#F1F1F1" height="66.6211" id="RegisterJobOpeningUI" rx="2.5" ry="2.5" style="stroke:#181818;stroke-width:0.5;" width="173" x="32" y="46.6211"/><ellipse cx="47" cy="62.6211" fill="#ADD1B2" rx="11" ry="11" style="stroke:#181818;stroke-width:1.0;"/><path d="M49.7656,58.4961 Q49.9219,58.2773 50.1094,58.168 Q50.2969,58.0586 50.5156,58.0586 Q50.8906,58.0586 51.125,58.3242 Q51.3594,58.5742 51.3594,59.1836 L51.3594,60.6367 Q51.3594,61.2461 51.125,61.5117 Q50.8906,61.7773 50.5156,61.7773 Q50.1719,61.7773 49.9688,61.5742 Q49.7656,61.3867 49.6563,60.8711 Q49.6094,60.5117 49.4219,60.3242 Q49.0938,59.9492 48.4844,59.7305 Q47.875,59.5117 47.25,59.5117 Q46.4844,59.5117 45.8438,59.8398 Q45.2188,60.168 44.7188,60.918 Q44.2344,61.668 44.2344,62.6992 L44.2344,63.793 Q44.2344,65.0273 45.125,65.8555 Q46.0156,66.668 47.6094,66.668 Q48.5469,66.668 49.2031,66.418 Q49.5938,66.2617 50.0156,65.8242 Q50.2813,65.5586 50.4219,65.4805 Q50.5781,65.4023 50.7813,65.4023 Q51.1094,65.4023 51.3594,65.668 Q51.625,65.918 51.625,66.2617 Q51.625,66.6055 51.2813,67.0117 Q50.7813,67.5898 49.9844,67.918 Q48.9063,68.3711 47.6094,68.3711 Q46.0938,68.3711 44.8906,67.7461 Q43.9063,67.2461 43.2188,66.1836 Q42.5313,65.1055 42.5313,63.8242 L42.5313,62.668 Q42.5313,61.3398 43.1406,60.1992 Q43.7656,59.043 44.8594,58.4336 Q45.9531,57.8086 47.1875,57.8086 Q47.9219,57.8086 48.5625,57.9805 Q49.2188,58.1367 49.7656,58.4961 Z " fill="#000000"/><text fill="#000000" font-family="sans-serif" font-size="14" lengthAdjust="spacing" textLength="141" x="61" y="68.418">RegisterJobOpeningUI</text><line style="stroke:#181818;stroke-width:0.5;" x1="33" x2="204" y1="78.6211" y2="78.6211"/><line style="stroke:#181818;stroke-width:0.5;" x1="33" x2="204" y1="86.6211" y2="86.6211"/><ellipse cx="43" cy="101.4316" fill="#84BE84" rx="3" ry="3" style="stroke:#038048;stroke-width:1.0;"/><text fill="#000000" font-family="sans-serif" font-size="14" lengthAdjust="spacing" textLength="31" x="52" y="105.7285">run()</text></g><!--class RegisterJobOpeningController--><g id="elem_RegisterJobOpeningController"><rect codeLine="12" fill="#F1F1F1" height="66.6211" id="RegisterJobOpeningController" rx="2.5" ry="2.5" style="stroke:#181818;stroke-width:0.5;" width="223" x="7" y="173.6211"/><ellipse cx="22" cy="189.6211" fill="#ADD1B2" rx="11" ry="11" style="stroke:#181818;stroke-width:1.0;"/><path d="M24.7656,185.4961 Q24.9219,185.2773 25.1094,185.168 Q25.2969,185.0586 25.5156,185.0586 Q25.8906,185.0586 26.125,185.3242 Q26.3594,185.5742 26.3594,186.1836 L26.3594,187.6367 Q26.3594,188.2461 26.125,188.5117 Q25.8906,188.7773 25.5156,188.7773 Q25.1719,188.7773 24.9688,188.5742 Q24.7656,188.3867 24.6563,187.8711 Q24.6094,187.5117 24.4219,187.3242 Q24.0938,186.9492 23.4844,186.7305 Q22.875,186.5117 22.25,186.5117 Q21.4844,186.5117 20.8438,186.8398 Q20.2188,187.168 19.7188,187.918 Q19.2344,188.668 19.2344,189.6992 L19.2344,190.793 Q19.2344,192.0273 20.125,192.8555 Q21.0156,193.668 22.6094,193.668 Q23.5469,193.668 24.2031,193.418 Q24.5938,193.2617 25.0156,192.8242 Q25.2813,192.5586 25.4219,192.4805 Q25.5781,192.4023 25.7813,192.4023 Q26.1094,192.4023 26.3594,192.668 Q26.625,192.918 26.625,193.2617 Q26.625,193.6055 26.2813,194.0117 Q25.7813,194.5898 24.9844,194.918 Q23.9063,195.3711 22.6094,195.3711 Q21.0938,195.3711 19.8906,194.7461 Q18.9063,194.2461 18.2188,193.1836 Q17.5313,192.1055 17.5313,190.8242 L17.5313,189.668 Q17.5313,188.3398 18.1406,187.1992 Q18.7656,186.043 19.8594,185.4336 Q20.9531,184.8086 22.1875,184.8086 Q22.9219,184.8086 23.5625,184.9805 Q24.2188,185.1367 24.7656,185.4961 Z " fill="#000000"/><text fill="#000000" font-family="sans-serif" font-size="14" lengthAdjust="spacing" textLength="191" x="36" y="195.418">RegisterJobOpeningController</text><line style="stroke:#181818;stroke-width:0.5;" x1="8" x2="229" y1="205.6211" y2="205.6211"/><line style="stroke:#181818;stroke-width:0.5;" x1="8" x2="229" y1="213.6211" y2="213.6211"/><ellipse cx="18" cy="228.4316" fill="#84BE84" rx="3" ry="3" style="stroke:#038048;stroke-width:1.0;"/><text fill="#000000" font-family="sans-serif" font-size="14" lengthAdjust="spacing" textLength="134" x="27" y="232.7285">registerJobOpening()</text></g><!--class JobOpeningRepository--><g id="elem_JobOpeningRepository"><rect codeLine="16" fill="#F1F1F1" height="66.6211" id="JobOpeningRepository" rx="2.5" ry="2.5" style="stroke:#181818;stroke-width:0.5;" width="176" x="30.5" y="300.6211"/><ellipse cx="45.5" cy="316.6211" fill="#ADD1B2" rx="11" ry="11" style="stroke:#181818;stroke-width:1.0;"/><path d="M48.2656,312.4961 Q48.4219,312.2773 48.6094,312.168 Q48.7969,312.0586 49.0156,312.0586 Q49.3906,312.0586 49.625,312.3242 Q49.8594,312.5742 49.8594,313.1836 L49.8594,314.6367 Q49.8594,315.2461 49.625,315.5117 Q49.3906,315.7773 49.0156,315.7773 Q48.6719,315.7773 48.4688,315.5742 Q48.2656,315.3867 48.1563,314.8711 Q48.1094,314.5117 47.9219,314.3242 Q47.5938,313.9492 46.9844,313.7305 Q46.375,313.5117 45.75,313.5117 Q44.9844,313.5117 44.3438,313.8398 Q43.7188,314.168 43.2188,314.918 Q42.7344,315.668 42.7344,316.6992 L42.7344,317.793 Q42.7344,319.0273 43.625,319.8555 Q44.5156,320.668 46.1094,320.668 Q47.0469,320.668 47.7031,320.418 Q48.0938,320.2617 48.5156,319.8242 Q48.7813,319.5586 48.9219,319.4805 Q49.0781,319.4023 49.2813,319.4023 Q49.6094,319.4023 49.8594,319.668 Q50.125,319.918 50.125,320.2617 Q50.125,320.6055 49.7813,321.0117 Q49.2813,321.5898 48.4844,321.918 Q47.4063,322.3711 46.1094,322.3711 Q44.5938,322.3711 43.3906,321.7461 Q42.4063,321.2461 41.7188,320.1836 Q41.0313,319.1055 41.0313,317.8242 L41.0313,316.668 Q41.0313,315.3398 41.6406,314.1992 Q42.2656,313.043 43.3594,312.4336 Q44.4531,311.8086 45.6875,311.8086 Q46.4219,311.8086 47.0625,311.9805 Q47.7188,312.1367 48.2656,312.4961 Z " fill="#000000"/><text fill="#000000" font-family="sans-serif" font-size="14" lengthAdjust="spacing" textLength="144" x="59.5" y="322.418">JobOpeningRepository</text><line style="stroke:#181818;stroke-width:0.5;" x1="31.5" x2="205.5" y1="332.6211" y2="332.6211"/><line style="stroke:#181818;stroke-width:0.5;" x1="31.5" x2="205.5" y1="340.6211" y2="340.6211"/><ellipse cx="41.5" cy="355.4316" fill="#84BE84" rx="3" ry="3" style="stroke:#038048;stroke-width:1.0;"/><text fill="#000000" font-family="sans-serif" font-size="14" lengthAdjust="spacing" textLength="40" x="50.5" y="359.7285">save()</text></g><!--link RegisterJobOpeningUI to Runnable--><g id="link_RegisterJobOpeningUI_Runnable"><path codeLine="20" d="M205.12,80.1211 C216.67,80.1211 210.22,80.1211 221.77,80.1211 " fill="none" id="RegisterJobOpeningUI-to-Runnable" style="stroke:#181818;stroke-width:1.0;"/><polygon fill="none" points="239.77,80.1211,221.77,74.1211,221.77,86.1211,239.77,80.1211" style="stroke:#181818;stroke-width:1.0;"/></g><!--link RegisterJobOpeningUI to RegisterJobOpeningController--><g id="link_RegisterJobOpeningUI_RegisterJobOpeningController"><path codeLine="21" d="M118.5,113.6411 C118.5,132.0111 118.5,148.9111 118.5,167.3311 " fill="none" id="RegisterJobOpeningUI-to-RegisterJobOpeningController" style="stroke:#181818;stroke-width:1.0;stroke-dasharray:7.0,7.0;"/><polygon fill="#181818" points="118.5,173.3311,122.5,164.3311,118.5,168.3311,114.5,164.3311,118.5,173.3311" style="stroke:#181818;stroke-width:1.0;"/></g><!--link RegisterJobOpeningController to JobOpeningRepository--><g id="link_RegisterJobOpeningController_JobOpeningRepository"><path codeLine="22" d="M118.5,240.6411 C118.5,259.0111 118.5,275.9111 118.5,294.3311 " fill="none" id="RegisterJobOpeningController-to-JobOpeningRepository" style="stroke:#181818;stroke-width:1.0;stroke-dasharray:7.0,7.0;"/><polygon fill="#181818" points="118.5,300.3311,122.5,291.3311,118.5,295.3311,114.5,291.3311,118.5,300.3311" style="stroke:#181818;stroke-width:1.0;"/></g><!--SRC=[AyaioKbL27KsC5Dmzd4C3bPmyNHq3tBqvUBAp2j9BKfBJ4vL22hDoqjC0Yghvb800cs5ej8y3KskMYwkv9p4ucA5eDJqp6AWOg_y9F-2rBpClFHGJ-BLEkVdbHJbv-Ia5Y7qO2X2DW8X6fHQa5-SMP9VL0dNMfnObWfHZDLLkZLsSEzWLw6dPuVNaLnuVG3IZSrzN000]--></g></svg>