<?xml version="1.0" encoding="us-ascii" standalone="no"?><svg xmlns="http://www.w3.org/2000/svg" xmlns:xlink="http://www.w3.org/1999/xlink" contentStyleType="text/css" height="354px" preserveAspectRatio="none" style="width:437px;height:354px;background:#FFFFFF;" version="1.1" viewBox="0 0 437 354" width="437px" zoomAndPan="magnify"><defs/><g><!--entity adm--><g id="elem_adm"><ellipse cx="47.5" cy="149.5" fill="#F1F1F1" rx="8" ry="8" style="stroke:#181818;stroke-width:0.5;"/><path d="M47.5,157.5 L47.5,184.5 M34.5,165.5 L60.5,165.5 M47.5,184.5 L34.5,199.5 M47.5,184.5 L60.5,199.5 " fill="none" style="stroke:#181818;stroke-width:0.5;"/><text fill="#000000" font-family="sans-serif" font-size="14" lengthAdjust="spacing" textLength="83" x="6" y="216.1074">Administrator</text></g><g id="elem_UC01 - Register users of the backoffice"><ellipse cx="290.0839" cy="36.6168" fill="#F1F1F1" rx="141.0839" ry="30.6168" style="stroke:#181818;stroke-width:0.5;"/><text fill="#000000" font-family="sans-serif" font-size="14" lengthAdjust="spacing" textLength="248" x="166.0839" y="40.4137">UC01 - Register users of the backoffice</text></g><g id="elem_UC02 - Enable users of the backoffice"><ellipse cx="289.8559" cy="132.2712" fill="#F1F1F1" rx="136.8559" ry="29.7712" style="stroke:#181818;stroke-width:0.5;"/><text fill="#000000" font-family="sans-serif" font-size="14" lengthAdjust="spacing" textLength="239" x="170.3559" y="136.0681">UC02 - Enable users of the backoffice</text></g><g id="elem_UC03 - Disable users of the backoffice"><ellipse cx="289.7633" cy="227.5527" fill="#F1F1F1" rx="138.2633" ry="30.0527" style="stroke:#181818;stroke-width:0.5;"/><text fill="#000000" font-family="sans-serif" font-size="14" lengthAdjust="spacing" textLength="242" x="168.7633" y="231.3495">UC03 - Disable users of the backoffice</text></g><g id="elem_UC04 - List users of the backoffice"><ellipse cx="290.1018" cy="320.7204" fill="#F1F1F1" rx="126.6018" ry="27.7204" style="stroke:#181818;stroke-width:0.5;"/><text fill="#000000" font-family="sans-serif" font-size="14" lengthAdjust="spacing" textLength="217" x="181.6018" y="324.5172">UC04 - List users of the backoffice</text></g><!--link adm to UC01 - Register users of the backoffice--><g id="link_adm_UC01 - Register users of the backoffice"><path d="M82.51,140.74 C100.63,121.58 124.26,99.55 149,84.5 C164.92,74.82 177.4198,68.8438 195.2298,62.2838 " fill="none" id="adm-to-UC01 - Register users of the backoffice" style="stroke:#181818;stroke-width:1.0;"/><polygon fill="#181818" points="200.86,60.21,191.0321,59.5672,196.1681,61.9382,193.7972,67.0742,200.86,60.21" style="stroke:#181818;stroke-width:1.0;"/></g><!--link adm to UC02 - Enable users of the backoffice--><g id="link_adm_UC02 - Enable users of the backoffice"><path d="M89.03,172.41 C116.2,166.99 147.3759,160.7638 182.2159,153.8138 " fill="none" id="adm-to-UC02 - Enable users of the backoffice" style="stroke:#181818;stroke-width:1.0;"/><polygon fill="#181818" points="188.1,152.64,178.4914,150.4779,183.1966,153.6181,180.0564,158.3234,188.1,152.64" style="stroke:#181818;stroke-width:1.0;"/></g><!--link adm to UC03 - Disable users of the backoffice--><g id="link_adm_UC03 - Disable users of the backoffice"><path d="M89.03,188.42 C115.8,193.65 146.2814,199.609 180.6614,206.329 " fill="none" id="adm-to-UC03 - Disable users of the backoffice" style="stroke:#181818;stroke-width:1.0;"/><polygon fill="#181818" points="186.55,207.48,178.4845,201.8278,181.6429,206.5208,176.9498,209.6792,186.55,207.48" style="stroke:#181818;stroke-width:1.0;"/></g><!--link adm to UC04 - List users of the backoffice--><g id="link_adm_UC04 - List users of the backoffice"><path d="M83.02,220 C101.1,238.68 124.54,260.01 149,274.5 C166.5,284.86 180.9485,291.3011 200.3885,297.9011 " fill="none" id="adm-to-UC04 - List users of the backoffice" style="stroke:#181818;stroke-width:1.0;"/><polygon fill="#181818" points="206.07,299.83,198.8337,293.149,201.3354,298.2226,196.2618,300.7243,206.07,299.83" style="stroke:#181818;stroke-width:1.0;"/></g><!--SRC=[ZSwx3i8m38NXFKznHXWYSPkH4B1rGk81tCHfBTf6SipxOqO6f8xM-J_9bAmgBdcMHPefVIzge3o7C74nM8NAC1goA2UJkeJWAs8yO_EyxlQ8UF3Wc1NlnjfG2snaz9HUjHH9lFqH1nVtXVg9r_L7xs_IreEJWyuV-bz_0000]--></g></svg>