<?xml version="1.0" encoding="us-ascii" standalone="no"?><svg xmlns="http://www.w3.org/2000/svg" xmlns:xlink="http://www.w3.org/1999/xlink" contentStyleType="text/css" height="427px" preserveAspectRatio="none" style="width:1371px;height:427px;background:#FFFFFF;" version="1.1" viewBox="0 0 1371 427" width="1371px" zoomAndPan="magnify"><defs/><g><!--class AddRankingUI--><g id="elem_AddRankingUI"><rect codeLine="2" fill="#F1F1F1" height="66.6211" id="AddRankingUI" rx="2.5" ry="2.5" style="stroke:#181818;stroke-width:0.5;" width="121" x="776.5" y="7"/><ellipse cx="791.5" cy="23" fill="#ADD1B2" rx="11" ry="11" style="stroke:#181818;stroke-width:1.0;"/><path d="M795.0156,24.3594 Q794.7969,27.7344 793.6563,28.8594 Q792.6563,29.8594 791.2813,29.8594 Q789.9063,29.8594 788.9063,28.8594 Q787.1719,27.125 787.1719,23.4844 Q787.1719,19.2656 789.0313,17.3906 Q790.0469,16.3906 791.3438,16.3906 Q792.7188,16.3906 793.5313,17.1875 Q795,18.6719 794.9375,21.4375 L792.9375,21.4375 Q792.875,19.1563 792.2188,18.5 Q791.9063,18.1719 791.3438,18.1719 Q790.8594,18.1719 790.4688,18.5625 Q789.2188,19.8125 789.2188,23.3594 Q789.2188,26.4375 790.2813,27.4844 Q790.7344,27.9375 791.2813,27.9375 Q791.7656,27.9375 792.2188,27.4844 Q792.8125,26.9063 792.875,24.3594 L795.0156,24.3594 Z " fill="#000000"/><text fill="#000000" font-family="sans-serif" font-size="14" lengthAdjust="spacing" textLength="89" x="805.5" y="28.7969">AddRankingUI</text><line style="stroke:#181818;stroke-width:0.5;" x1="777.5" x2="896.5" y1="39" y2="39"/><line style="stroke:#181818;stroke-width:0.5;" x1="777.5" x2="896.5" y1="47" y2="47"/><ellipse cx="787.5" cy="61.8105" fill="#84BE84" rx="3" ry="3" style="stroke:#038048;stroke-width:1.0;"/><text fill="#000000" font-family="sans-serif" font-size="14" lengthAdjust="spacing" textLength="31" x="796.5" y="66.1074">run()</text></g><!--class AddRankingController--><g id="elem_AddRankingController"><rect codeLine="6" fill="#F1F1F1" height="141.1055" id="AddRankingController" rx="2.5" ry="2.5" style="stroke:#181818;stroke-width:0.5;" width="618" x="7" y="134"/><ellipse cx="242.25" cy="150" fill="#ADD1B2" rx="11" ry="11" style="stroke:#181818;stroke-width:1.0;"/><path d="M245.7656,151.3594 Q245.5469,154.7344 244.4063,155.8594 Q243.4063,156.8594 242.0313,156.8594 Q240.6563,156.8594 239.6563,155.8594 Q237.9219,154.125 237.9219,150.4844 Q237.9219,146.2656 239.7813,144.3906 Q240.7969,143.3906 242.0938,143.3906 Q243.4688,143.3906 244.2813,144.1875 Q245.75,145.6719 245.6875,148.4375 L243.6875,148.4375 Q243.625,146.1563 242.9688,145.5 Q242.6563,145.1719 242.0938,145.1719 Q241.6094,145.1719 241.2188,145.5625 Q239.9688,146.8125 239.9688,150.3594 Q239.9688,153.4375 241.0313,154.4844 Q241.4844,154.9375 242.0313,154.9375 Q242.5156,154.9375 242.9688,154.4844 Q243.5625,153.9063 243.625,151.3594 L245.7656,151.3594 Z " fill="#000000"/><text fill="#000000" font-family="sans-serif" font-size="14" lengthAdjust="spacing" textLength="139" x="262.75" y="155.7969">AddRankingController</text><line style="stroke:#181818;stroke-width:0.5;" x1="8" x2="624" y1="166" y2="166"/><line style="stroke:#181818;stroke-width:0.5;" x1="8" x2="624" y1="174" y2="174"/><ellipse cx="18" cy="188.8105" fill="#84BE84" rx="3" ry="3" style="stroke:#038048;stroke-width:1.0;"/><text fill="#000000" font-family="sans-serif" font-size="14" lengthAdjust="spacing" textLength="592" x="27" y="193.1074">addRanking(JobOpening jobOpening, Candidate candidate, String rank, int numToBeRanked)</text><ellipse cx="18" cy="207.4316" fill="#84BE84" rx="3" ry="3" style="stroke:#038048;stroke-width:1.0;"/><text fill="#000000" font-family="sans-serif" font-size="14" lengthAdjust="spacing" textLength="455" x="27" y="211.7285">addRanking(JobOpening jobOpening, Candidate candidate, String rank)</text><ellipse cx="18" cy="226.0527" fill="#84BE84" rx="3" ry="3" style="stroke:#038048;stroke-width:1.0;"/><text fill="#000000" font-family="sans-serif" font-size="14" lengthAdjust="spacing" textLength="269" x="27" y="230.3496">saveJobOpening(JobOpening jobOpening)</text><ellipse cx="18" cy="244.6738" fill="#84BE84" rx="3" ry="3" style="stroke:#038048;stroke-width:1.0;"/><text fill="#000000" font-family="sans-serif" font-size="14" lengthAdjust="spacing" textLength="371" x="27" y="248.9707">candidateHasAppToJob(Long candidateId,Long jobOfferId)</text><text fill="#000000" font-family="sans-serif" font-size="14" lengthAdjust="spacing" textLength="253" x="27" y="267.5918">getJobOpeningById(Long jobOpeningId)</text></g><!--class ListCandidateDataController--><g id="elem_ListCandidateDataController"><rect codeLine="14" fill="#F1F1F1" height="66.6211" id="ListCandidateDataController" rx="2.5" ry="2.5" style="stroke:#181818;stroke-width:0.5;" width="305" x="684.5" y="171"/><ellipse cx="743.25" cy="187" fill="#ADD1B2" rx="11" ry="11" style="stroke:#181818;stroke-width:1.0;"/><path d="M746.7656,188.3594 Q746.5469,191.7344 745.4063,192.8594 Q744.4063,193.8594 743.0313,193.8594 Q741.6563,193.8594 740.6563,192.8594 Q738.9219,191.125 738.9219,187.4844 Q738.9219,183.2656 740.7813,181.3906 Q741.7969,180.3906 743.0938,180.3906 Q744.4688,180.3906 745.2813,181.1875 Q746.75,182.6719 746.6875,185.4375 L744.6875,185.4375 Q744.625,183.1563 743.9688,182.5 Q743.6563,182.1719 743.0938,182.1719 Q742.6094,182.1719 742.2188,182.5625 Q740.9688,183.8125 740.9688,187.3594 Q740.9688,190.4375 742.0313,191.4844 Q742.4844,191.9375 743.0313,191.9375 Q743.5156,191.9375 743.9688,191.4844 Q744.5625,190.9063 744.625,188.3594 L746.7656,188.3594 Z " fill="#000000"/><text fill="#000000" font-family="sans-serif" font-size="14" lengthAdjust="spacing" textLength="179" x="763.75" y="192.7969">ListCandidateDataController</text><line style="stroke:#181818;stroke-width:0.5;" x1="685.5" x2="988.5" y1="203" y2="203"/><line style="stroke:#181818;stroke-width:0.5;" x1="685.5" x2="988.5" y1="211" y2="211"/><ellipse cx="695.5" cy="225.8105" fill="#84BE84" rx="3" ry="3" style="stroke:#038048;stroke-width:1.0;"/><text fill="#000000" font-family="sans-serif" font-size="14" lengthAdjust="spacing" textLength="279" x="704.5" y="230.1074">getCandidateIdByEmail(EmailAddress email)</text></g><!--class ListApplicationsForJobOfferController--><g id="elem_ListApplicationsForJobOfferController"><rect codeLine="18" fill="#F1F1F1" height="66.6211" id="ListApplicationsForJobOfferController" rx="2.5" ry="2.5" style="stroke:#181818;stroke-width:0.5;" width="302" x="1062" y="171"/><ellipse cx="1092.3" cy="187" fill="#ADD1B2" rx="11" ry="11" style="stroke:#181818;stroke-width:1.0;"/><path d="M1095.8156,188.3594 Q1095.5969,191.7344 1094.4563,192.8594 Q1093.4563,193.8594 1092.0813,193.8594 Q1090.7063,193.8594 1089.7063,192.8594 Q1087.9719,191.125 1087.9719,187.4844 Q1087.9719,183.2656 1089.8313,181.3906 Q1090.8469,180.3906 1092.1438,180.3906 Q1093.5188,180.3906 1094.3313,181.1875 Q1095.8,182.6719 1095.7375,185.4375 L1093.7375,185.4375 Q1093.675,183.1563 1093.0188,182.5 Q1092.7063,182.1719 1092.1438,182.1719 Q1091.6594,182.1719 1091.2688,182.5625 Q1090.0188,183.8125 1090.0188,187.3594 Q1090.0188,190.4375 1091.0813,191.4844 Q1091.5344,191.9375 1092.0813,191.9375 Q1092.5656,191.9375 1093.0188,191.4844 Q1093.6125,190.9063 1093.675,188.3594 L1095.8156,188.3594 Z " fill="#000000"/><text fill="#000000" font-family="sans-serif" font-size="14" lengthAdjust="spacing" textLength="236" x="1109.7" y="192.7969">ListApplicationsForJobOfferController</text><line style="stroke:#181818;stroke-width:0.5;" x1="1063" x2="1363" y1="203" y2="203"/><line style="stroke:#181818;stroke-width:0.5;" x1="1063" x2="1363" y1="211" y2="211"/><ellipse cx="1073" cy="225.8105" fill="#84BE84" rx="3" ry="3" style="stroke:#038048;stroke-width:1.0;"/><text fill="#000000" font-family="sans-serif" font-size="14" lengthAdjust="spacing" textLength="276" x="1082" y="230.1074">findApplicationsByJobOfferID(jobOpeningId)</text></g><!--class CandidateRepository--><g id="elem_CandidateRepository"><rect codeLine="22" fill="#F1F1F1" height="48" id="CandidateRepository" rx="2.5" ry="2.5" style="stroke:#181818;stroke-width:0.5;" width="165" x="391.5" y="353.5"/><ellipse cx="406.5" cy="369.5" fill="#ADD1B2" rx="11" ry="11" style="stroke:#181818;stroke-width:1.0;"/><path d="M410.0156,370.8594 Q409.7969,374.2344 408.6563,375.3594 Q407.6563,376.3594 406.2813,376.3594 Q404.9063,376.3594 403.9063,375.3594 Q402.1719,373.625 402.1719,369.9844 Q402.1719,365.7656 404.0313,363.8906 Q405.0469,362.8906 406.3438,362.8906 Q407.7188,362.8906 408.5313,363.6875 Q410,365.1719 409.9375,367.9375 L407.9375,367.9375 Q407.875,365.6563 407.2188,365 Q406.9063,364.6719 406.3438,364.6719 Q405.8594,364.6719 405.4688,365.0625 Q404.2188,366.3125 404.2188,369.8594 Q404.2188,372.9375 405.2813,373.9844 Q405.7344,374.4375 406.2813,374.4375 Q406.7656,374.4375 407.2188,373.9844 Q407.8125,373.4063 407.875,370.8594 L410.0156,370.8594 Z " fill="#000000"/><text fill="#000000" font-family="sans-serif" font-size="14" lengthAdjust="spacing" textLength="133" x="420.5" y="375.2969">CandidateRepository</text><line style="stroke:#181818;stroke-width:0.5;" x1="392.5" x2="555.5" y1="385.5" y2="385.5"/><line style="stroke:#181818;stroke-width:0.5;" x1="392.5" x2="555.5" y1="393.5" y2="393.5"/></g><!--class ApplicationRepository--><g id="elem_ApplicationRepository"><rect codeLine="26" fill="#F1F1F1" height="48" id="ApplicationRepository" rx="2.5" ry="2.5" style="stroke:#181818;stroke-width:0.5;" width="169" x="1165.5" y="353.5"/><ellipse cx="1180.5" cy="369.5" fill="#ADD1B2" rx="11" ry="11" style="stroke:#181818;stroke-width:1.0;"/><path d="M1184.0156,370.8594 Q1183.7969,374.2344 1182.6563,375.3594 Q1181.6563,376.3594 1180.2813,376.3594 Q1178.9063,376.3594 1177.9063,375.3594 Q1176.1719,373.625 1176.1719,369.9844 Q1176.1719,365.7656 1178.0313,363.8906 Q1179.0469,362.8906 1180.3438,362.8906 Q1181.7188,362.8906 1182.5313,363.6875 Q1184,365.1719 1183.9375,367.9375 L1181.9375,367.9375 Q1181.875,365.6563 1181.2188,365 Q1180.9063,364.6719 1180.3438,364.6719 Q1179.8594,364.6719 1179.4688,365.0625 Q1178.2188,366.3125 1178.2188,369.8594 Q1178.2188,372.9375 1179.2813,373.9844 Q1179.7344,374.4375 1180.2813,374.4375 Q1180.7656,374.4375 1181.2188,373.9844 Q1181.8125,373.4063 1181.875,370.8594 L1184.0156,370.8594 Z " fill="#000000"/><text fill="#000000" font-family="sans-serif" font-size="14" lengthAdjust="spacing" textLength="137" x="1194.5" y="375.2969">ApplicationRepository</text><line style="stroke:#181818;stroke-width:0.5;" x1="1166.5" x2="1333.5" y1="385.5" y2="385.5"/><line style="stroke:#181818;stroke-width:0.5;" x1="1166.5" x2="1333.5" y1="393.5" y2="393.5"/></g><!--class Ranking--><g id="elem_Ranking"><rect codeLine="30" fill="#F1F1F1" height="85.2422" id="Ranking" rx="2.5" ry="2.5" style="stroke:#181818;stroke-width:0.5;" width="539" x="591.5" y="335"/><ellipse cx="830.75" cy="351" fill="#ADD1B2" rx="11" ry="11" style="stroke:#181818;stroke-width:1.0;"/><path d="M834.2656,352.3594 Q834.0469,355.7344 832.9063,356.8594 Q831.9063,357.8594 830.5313,357.8594 Q829.1563,357.8594 828.1563,356.8594 Q826.4219,355.125 826.4219,351.4844 Q826.4219,347.2656 828.2813,345.3906 Q829.2969,344.3906 830.5938,344.3906 Q831.9688,344.3906 832.7813,345.1875 Q834.25,346.6719 834.1875,349.4375 L832.1875,349.4375 Q832.125,347.1563 831.4688,346.5 Q831.1563,346.1719 830.5938,346.1719 Q830.1094,346.1719 829.7188,346.5625 Q828.4688,347.8125 828.4688,351.3594 Q828.4688,354.4375 829.5313,355.4844 Q829.9844,355.9375 830.5313,355.9375 Q831.0156,355.9375 831.4688,355.4844 Q832.0625,354.9063 832.125,352.3594 L834.2656,352.3594 Z " fill="#000000"/><text fill="#000000" font-family="sans-serif" font-size="14" lengthAdjust="spacing" textLength="52" x="851.25" y="356.7969">Ranking</text><line style="stroke:#181818;stroke-width:0.5;" x1="592.5" x2="1129.5" y1="367" y2="367"/><line style="stroke:#181818;stroke-width:0.5;" x1="592.5" x2="1129.5" y1="375" y2="375"/><ellipse cx="602.5" cy="389.8105" fill="#84BE84" rx="3" ry="3" style="stroke:#038048;stroke-width:1.0;"/><text fill="#000000" font-family="sans-serif" font-size="14" lengthAdjust="spacing" textLength="513" x="611.5" y="394.1074">Ranking(Long candidateId, Long jobOpeningId, String rank, int numToBeRanked)</text><ellipse cx="602.5" cy="408.4316" fill="#84BE84" rx="3" ry="3" style="stroke:#038048;stroke-width:1.0;"/><text fill="#000000" font-family="sans-serif" font-size="14" lengthAdjust="spacing" textLength="376" x="611.5" y="412.7285">Ranking(Long candidateId, Long jobOpeningId, String rank)</text></g><!--class JobOpeningRepository--><g id="elem_JobOpeningRepository"><rect codeLine="37" fill="#F1F1F1" height="48" id="JobOpeningRepository" rx="2.5" ry="2.5" style="stroke:#181818;stroke-width:0.5;" width="176" x="180" y="353.5"/><ellipse cx="195" cy="369.5" fill="#ADD1B2" rx="11" ry="11" style="stroke:#181818;stroke-width:1.0;"/><path d="M198.5156,370.8594 Q198.2969,374.2344 197.1563,375.3594 Q196.1563,376.3594 194.7813,376.3594 Q193.4063,376.3594 192.4063,375.3594 Q190.6719,373.625 190.6719,369.9844 Q190.6719,365.7656 192.5313,363.8906 Q193.5469,362.8906 194.8438,362.8906 Q196.2188,362.8906 197.0313,363.6875 Q198.5,365.1719 198.4375,367.9375 L196.4375,367.9375 Q196.375,365.6563 195.7188,365 Q195.4063,364.6719 194.8438,364.6719 Q194.3594,364.6719 193.9688,365.0625 Q192.7188,366.3125 192.7188,369.8594 Q192.7188,372.9375 193.7813,373.9844 Q194.2344,374.4375 194.7813,374.4375 Q195.2656,374.4375 195.7188,373.9844 Q196.3125,373.4063 196.375,370.8594 L198.5156,370.8594 Z " fill="#000000"/><text fill="#000000" font-family="sans-serif" font-size="14" lengthAdjust="spacing" textLength="144" x="209" y="375.2969">JobOpeningRepository</text><line style="stroke:#181818;stroke-width:0.5;" x1="181" x2="355" y1="385.5" y2="385.5"/><line style="stroke:#181818;stroke-width:0.5;" x1="181" x2="355" y1="393.5" y2="393.5"/></g><!--link AddRankingUI to AddRankingController--><g id="link_AddRankingUI_AddRankingController"><path codeLine="39" d="M776.47,60.32 C718.08,78.48 631.7995,105.3089 545.3295,132.1889 " fill="none" id="AddRankingUI-to-AddRankingController" style="stroke:#181818;stroke-width:1.0;stroke-dasharray:7.0,7.0;"/><polygon fill="#181818" points="539.6,133.97,549.3817,135.1181,544.3746,132.4858,547.0069,127.4787,539.6,133.97" style="stroke:#181818;stroke-width:1.0;"/></g><!--link AddRankingUI to ListApplicationsForJobOfferController--><g id="link_AddRankingUI_ListApplicationsForJobOfferController"><path codeLine="40" d="M897.83,67.71 C963.09,95.83 1061.3398,138.1556 1131.8198,168.5256 " fill="none" id="AddRankingUI-to-ListApplicationsForJobOfferController" style="stroke:#181818;stroke-width:1.0;stroke-dasharray:7.0,7.0;"/><polygon fill="#181818" points="1137.33,170.9,1130.6476,163.665,1132.7382,168.9214,1127.4818,171.0119,1137.33,170.9" style="stroke:#181818;stroke-width:1.0;"/></g><!--link AddRankingUI to ListCandidateDataController--><g id="link_AddRankingUI_ListCandidateDataController"><path codeLine="41" d="M837,74.28 C837,102.39 837,136.67 837,164.77 " fill="none" id="AddRankingUI-to-ListCandidateDataController" style="stroke:#181818;stroke-width:1.0;stroke-dasharray:7.0,7.0;"/><polygon fill="#181818" points="837,170.77,841,161.77,837,165.77,833,161.77,837,170.77" style="stroke:#181818;stroke-width:1.0;"/></g><!--link ListApplicationsForJobOfferController to ApplicationRepository--><g id="link_ListApplicationsForJobOfferController_ApplicationRepository"><path codeLine="42" d="M1220.05,238.07 C1227.34,271.79 1237.2925,317.7554 1243.7225,347.5054 " fill="none" id="ListApplicationsForJobOfferController-to-ApplicationRepository" style="stroke:#181818;stroke-width:1.0;stroke-dasharray:7.0,7.0;"/><polygon fill="#181818" points="1244.99,353.37,1246.9984,343.7281,1243.9337,348.4828,1239.179,345.4181,1244.99,353.37" style="stroke:#181818;stroke-width:1.0;"/></g><!--link ListCandidateDataController to CandidateRepository--><g id="link_ListCandidateDataController_CandidateRepository"><path codeLine="43" d="M767.87,238.07 C696.18,271.84 591.3577,321.2127 528.2577,350.9427 " fill="none" id="ListCandidateDataController-to-CandidateRepository" style="stroke:#181818;stroke-width:1.0;stroke-dasharray:7.0,7.0;"/><polygon fill="#181818" points="522.83,353.5,532.6765,353.2825,527.3531,351.3689,529.2667,346.0456,522.83,353.5" style="stroke:#181818;stroke-width:1.0;"/></g><!--link ListCandidateDataController to Ranking--><g id="link_ListCandidateDataController_Ranking"><path codeLine="44" d="M841.57,238.07 C845.43,265.59 850.1565,299.2282 854.3365,329.0282 " fill="none" id="ListCandidateDataController-to-Ranking" style="stroke:#181818;stroke-width:1.0;stroke-dasharray:7.0,7.0;"/><polygon fill="#181818" points="855.17,334.97,857.881,325.5016,854.4755,330.0185,849.9586,326.6129,855.17,334.97" style="stroke:#181818;stroke-width:1.0;"/></g><!--link AddRankingController to JobOpeningRepository--><g id="link_AddRankingController_JobOpeningRepository"><path codeLine="45" d="M296.48,275.05 C288.64,302.98 281.7607,327.473 276.1107,347.613 " fill="none" id="AddRankingController-to-JobOpeningRepository" style="stroke:#181818;stroke-width:1.0;stroke-dasharray:7.0,7.0;"/><polygon fill="#181818" points="274.49,353.39,280.7723,345.805,275.8405,348.5759,273.0697,343.6441,274.49,353.39" style="stroke:#181818;stroke-width:1.0;"/></g><!--SRC=[hPJHQiCW58RlVOfpQMde8moQT6CfXK7NFO2BfjYb6jGEmjYxJpEZNMFMCfQBOFG_N_wSNrCrH6jOKhebuesB_Ki97mZiDGTr4dY6FX6gBZI554R9fc5gq9AmXjVozQbbmWxX48OP54HGJebXK0sZ39wDSZfbIpFWme0u7NSoPux5wEo_s1waoJkBX3JCImFdaUXbs-wa5UEDjDAmKjAidt2rTSrKwVtkcOdal2if3hBlEISCJTrmROBz5J4azjQtrlAA-CwykpyItk3-RXDHp4AOUxY0MjSDhuZXKkW7gTRUvJYwcWjwBiwxGLkky8JhO6ZBMgcvaQgpkBEj4daJ2f-ecviFwOxw2wFENTyoVwRrd-VTnG2ZVOH-79B5uYvv8iQgcz98bqti37HRmBt5L1Be5tPVbSZtQertZvA_2IT8D_KB]--></g></svg>