<?xml version="1.0" encoding="us-ascii" standalone="no"?><svg xmlns="http://www.w3.org/2000/svg" xmlns:xlink="http://www.w3.org/1999/xlink" contentStyleType="text/css" height="1341px" preserveAspectRatio="none" style="width:1999px;height:1341px;background:#FFFFFF;" version="1.1" viewBox="0 0 1999 1341" width="1999px" zoomAndPan="magnify"><defs/><g><rect fill="#FFFFFF" height="1147.1367" style="stroke:#181818;stroke-width:1.0;" width="10" x="32.5" y="93.6211"/><rect fill="#FFFFFF" height="31.291" style="stroke:#181818;stroke-width:1.0;" width="10" x="408.5" y="116.9121"/><rect fill="#FFFFFF" height="31.291" style="stroke:#181818;stroke-width:1.0;" width="10" x="408.5" y="179.4941"/><rect fill="#FFFFFF" height="31.291" style="stroke:#181818;stroke-width:1.0;" width="10" x="408.5" y="304.6582"/><rect fill="#FFFFFF" height="31.291" style="stroke:#181818;stroke-width:1.0;" width="10" x="408.5" y="367.2402"/><rect fill="#FFFFFF" height="31.291" style="stroke:#181818;stroke-width:1.0;" width="10" x="408.5" y="492.4043"/><rect fill="#FFFFFF" height="57.582" style="stroke:#181818;stroke-width:1.0;" width="10" x="408.5" y="554.9863"/><rect fill="#FFFFFF" height="31.291" style="stroke:#181818;stroke-width:1.0;" width="10" x="408.5" y="706.4414"/><rect fill="#FFFFFF" height="31.291" style="stroke:#181818;stroke-width:1.0;" width="10" x="408.5" y="769.0234"/><rect fill="#FFFFFF" height="64.582" style="stroke:#181818;stroke-width:1.0;" width="10" x="408.5" y="969.0996"/><rect fill="#FFFFFF" height="38.291" style="stroke:#181818;stroke-width:1.0;" width="10" x="408.5" y="1202.4668"/><rect fill="#FFFFFF" height="31.291" style="stroke:#181818;stroke-width:1.0;" width="10" x="898.5" y="210.7852"/><rect fill="#FFFFFF" height="31.291" style="stroke:#181818;stroke-width:1.0;" width="10" x="898.5" y="273.3672"/><rect fill="#FFFFFF" height="31.291" style="stroke:#181818;stroke-width:1.0;" width="10" x="898.5" y="800.3145"/><rect fill="#FFFFFF" height="31.291" style="stroke:#181818;stroke-width:1.0;" width="10" x="898.5" y="875.2266"/><rect fill="#FFFFFF" height="31.291" style="stroke:#181818;stroke-width:1.0;" width="10" x="898.5" y="1033.6816"/><rect fill="#FFFFFF" height="31.291" style="stroke:#181818;stroke-width:1.0;" width="10" x="898.5" y="1108.5938"/><rect fill="#FFFFFF" height="46.291" style="stroke:#181818;stroke-width:1.0;" width="10" x="898.5" y="1171.1758"/><rect fill="#FFFFFF" height="31.291" style="stroke:#181818;stroke-width:1.0;" width="10" x="1081.5" y="612.5684"/><rect fill="#FFFFFF" height="31.291" style="stroke:#181818;stroke-width:1.0;" width="10" x="1081.5" y="675.1504"/><rect fill="#FFFFFF" height="31.291" style="stroke:#181818;stroke-width:1.0;" width="10" x="1313" y="398.5313"/><rect fill="#FFFFFF" height="31.291" style="stroke:#181818;stroke-width:1.0;" width="10" x="1313" y="461.1133"/><rect fill="#FFFFFF" height="31.291" style="stroke:#181818;stroke-width:1.0;" width="10" x="1521.5" y="643.8594"/><rect fill="#FFFFFF" height="31.291" style="stroke:#181818;stroke-width:1.0;" width="10" x="1673" y="242.0762"/><rect fill="#FFFFFF" height="31.291" style="stroke:#181818;stroke-width:1.0;" width="10" x="1673" y="906.5176"/><rect fill="#FFFFFF" height="31.291" style="stroke:#181818;stroke-width:1.0;" width="10" x="1673" y="1139.8848"/><rect fill="#FFFFFF" height="31.291" style="stroke:#181818;stroke-width:1.0;" width="10" x="1826.5" y="429.8223"/><rect fill="#FFFFFF" height="33.6211" style="stroke:#181818;stroke-width:1.0;" width="10" x="1945" y="841.6055"/><rect fill="#FFFFFF" height="33.6211" style="stroke:#181818;stroke-width:1.0;" width="10" x="1945" y="1074.9727"/><rect fill="none" height="407.1133" style="stroke:#000000;stroke-width:1.5;" width="1983" x="10" y="569.9863"/><rect fill="none" height="219.3672" style="stroke:#000000;stroke-width:1.5;" width="1641" x="352" y="991.0996"/><line style="stroke:#181818;stroke-width:0.5;stroke-dasharray:5.0,5.0;" x1="37" x2="37" y1="83.6211" y2="1258.7578"/><line style="stroke:#181818;stroke-width:0.5;stroke-dasharray:5.0,5.0;" x1="413" x2="413" y1="83.6211" y2="1258.7578"/><line style="stroke:#181818;stroke-width:0.5;stroke-dasharray:5.0,5.0;" x1="903" x2="903" y1="83.6211" y2="1258.7578"/><line style="stroke:#181818;stroke-width:0.5;stroke-dasharray:5.0,5.0;" x1="1086" x2="1086" y1="83.6211" y2="1258.7578"/><line style="stroke:#181818;stroke-width:0.5;stroke-dasharray:5.0,5.0;" x1="1318" x2="1318" y1="83.6211" y2="1258.7578"/><line style="stroke:#181818;stroke-width:0.5;stroke-dasharray:5.0,5.0;" x1="1526" x2="1526" y1="83.6211" y2="1258.7578"/><line style="stroke:#181818;stroke-width:0.5;stroke-dasharray:5.0,5.0;" x1="1678" x2="1678" y1="83.6211" y2="1258.7578"/><line style="stroke:#181818;stroke-width:0.5;stroke-dasharray:5.0,5.0;" x1="1831" x2="1831" y1="83.6211" y2="1258.7578"/><line style="stroke:#181818;stroke-width:0.5;stroke-dasharray:5.0,5.0;" x1="1950" x2="1950" y1="1073.4922" y2="1258.7578"/><text fill="#000000" font-family="sans-serif" font-size="14" lengthAdjust="spacing" textLength="29" x="20" y="80.1074">User</text><ellipse cx="37.5" cy="13.5" fill="#E2E2F0" rx="8" ry="8" style="stroke:#181818;stroke-width:0.5;"/><path d="M37.5,21.5 L37.5,48.5 M24.5,29.5 L50.5,29.5 M37.5,48.5 L24.5,63.5 M37.5,48.5 L50.5,63.5 " fill="none" style="stroke:#181818;stroke-width:0.5;"/><text fill="#000000" font-family="sans-serif" font-size="14" lengthAdjust="spacing" textLength="29" x="20" y="1272.8652">User</text><ellipse cx="37.5" cy="1284.8789" fill="#E2E2F0" rx="8" ry="8" style="stroke:#181818;stroke-width:0.5;"/><path d="M37.5,1292.8789 L37.5,1319.8789 M24.5,1300.8789 L50.5,1300.8789 M37.5,1319.8789 L24.5,1334.8789 M37.5,1319.8789 L50.5,1334.8789 " fill="none" style="stroke:#181818;stroke-width:0.5;"/><rect fill="#E2E2F0" height="32.6211" rx="2.5" ry="2.5" style="stroke:#181818;stroke-width:0.5;" width="103" x="362" y="50"/><text fill="#000000" font-family="sans-serif" font-size="14" lengthAdjust="spacing" textLength="89" x="369" y="72.1074">AddRankingUI</text><rect fill="#E2E2F0" height="32.6211" rx="2.5" ry="2.5" style="stroke:#181818;stroke-width:0.5;" width="103" x="362" y="1257.7578"/><text fill="#000000" font-family="sans-serif" font-size="14" lengthAdjust="spacing" textLength="89" x="369" y="1279.8652">AddRankingUI</text><rect fill="#E2E2F0" height="32.6211" rx="2.5" ry="2.5" style="stroke:#181818;stroke-width:0.5;" width="153" x="827" y="50"/><text fill="#000000" font-family="sans-serif" font-size="14" lengthAdjust="spacing" textLength="139" x="834" y="72.1074">AddRankingController</text><rect fill="#E2E2F0" height="32.6211" rx="2.5" ry="2.5" style="stroke:#181818;stroke-width:0.5;" width="153" x="827" y="1257.7578"/><text fill="#000000" font-family="sans-serif" font-size="14" lengthAdjust="spacing" textLength="139" x="834" y="1279.8652">AddRankingController</text><rect fill="#E2E2F0" height="32.6211" rx="2.5" ry="2.5" style="stroke:#181818;stroke-width:0.5;" width="193" x="990" y="50"/><text fill="#000000" font-family="sans-serif" font-size="14" lengthAdjust="spacing" textLength="179" x="997" y="72.1074">ListCandidateDataController</text><rect fill="#E2E2F0" height="32.6211" rx="2.5" ry="2.5" style="stroke:#181818;stroke-width:0.5;" width="193" x="990" y="1257.7578"/><text fill="#000000" font-family="sans-serif" font-size="14" lengthAdjust="spacing" textLength="179" x="997" y="1279.8652">ListCandidateDataController</text><rect fill="#E2E2F0" height="32.6211" rx="2.5" ry="2.5" style="stroke:#181818;stroke-width:0.5;" width="250" x="1193" y="50"/><text fill="#000000" font-family="sans-serif" font-size="14" lengthAdjust="spacing" textLength="236" x="1200" y="72.1074">ListApplicationsForJobOfferController</text><rect fill="#E2E2F0" height="32.6211" rx="2.5" ry="2.5" style="stroke:#181818;stroke-width:0.5;" width="250" x="1193" y="1257.7578"/><text fill="#000000" font-family="sans-serif" font-size="14" lengthAdjust="spacing" textLength="236" x="1200" y="1279.8652">ListApplicationsForJobOfferController</text><rect fill="#E2E2F0" height="32.6211" rx="2.5" ry="2.5" style="stroke:#181818;stroke-width:0.5;" width="147" x="1453" y="50"/><text fill="#000000" font-family="sans-serif" font-size="14" lengthAdjust="spacing" textLength="133" x="1460" y="72.1074">CandidateRepository</text><rect fill="#E2E2F0" height="32.6211" rx="2.5" ry="2.5" style="stroke:#181818;stroke-width:0.5;" width="147" x="1453" y="1257.7578"/><text fill="#000000" font-family="sans-serif" font-size="14" lengthAdjust="spacing" textLength="133" x="1460" y="1279.8652">CandidateRepository</text><rect fill="#E2E2F0" height="32.6211" rx="2.5" ry="2.5" style="stroke:#181818;stroke-width:0.5;" width="136" x="1610" y="50"/><text fill="#000000" font-family="sans-serif" font-size="14" lengthAdjust="spacing" textLength="122" x="1617" y="72.1074">JobOfferRepository</text><rect fill="#E2E2F0" height="32.6211" rx="2.5" ry="2.5" style="stroke:#181818;stroke-width:0.5;" width="136" x="1610" y="1257.7578"/><text fill="#000000" font-family="sans-serif" font-size="14" lengthAdjust="spacing" textLength="122" x="1617" y="1279.8652">JobOfferRepository</text><rect fill="#E2E2F0" height="32.6211" rx="2.5" ry="2.5" style="stroke:#181818;stroke-width:0.5;" width="151" x="1756" y="50"/><text fill="#000000" font-family="sans-serif" font-size="14" lengthAdjust="spacing" textLength="137" x="1763" y="72.1074">ApplicationRepository</text><rect fill="#E2E2F0" height="32.6211" rx="2.5" ry="2.5" style="stroke:#181818;stroke-width:0.5;" width="151" x="1756" y="1257.7578"/><text fill="#000000" font-family="sans-serif" font-size="14" lengthAdjust="spacing" textLength="137" x="1763" y="1279.8652">ApplicationRepository</text><rect fill="#E2E2F0" height="32.6211" rx="2.5" ry="2.5" style="stroke:#181818;stroke-width:0.5;" width="66" x="1917" y="1257.7578"/><text fill="#000000" font-family="sans-serif" font-size="14" lengthAdjust="spacing" textLength="52" x="1924" y="1279.8652">Ranking</text><rect fill="#FFFFFF" height="1147.1367" style="stroke:#181818;stroke-width:1.0;" width="10" x="32.5" y="93.6211"/><rect fill="#FFFFFF" height="31.291" style="stroke:#181818;stroke-width:1.0;" width="10" x="408.5" y="116.9121"/><rect fill="#FFFFFF" height="31.291" style="stroke:#181818;stroke-width:1.0;" width="10" x="408.5" y="179.4941"/><rect fill="#FFFFFF" height="31.291" style="stroke:#181818;stroke-width:1.0;" width="10" x="408.5" y="304.6582"/><rect fill="#FFFFFF" height="31.291" style="stroke:#181818;stroke-width:1.0;" width="10" x="408.5" y="367.2402"/><rect fill="#FFFFFF" height="31.291" style="stroke:#181818;stroke-width:1.0;" width="10" x="408.5" y="492.4043"/><rect fill="#FFFFFF" height="57.582" style="stroke:#181818;stroke-width:1.0;" width="10" x="408.5" y="554.9863"/><rect fill="#FFFFFF" height="31.291" style="stroke:#181818;stroke-width:1.0;" width="10" x="408.5" y="706.4414"/><rect fill="#FFFFFF" height="31.291" style="stroke:#181818;stroke-width:1.0;" width="10" x="408.5" y="769.0234"/><rect fill="#FFFFFF" height="64.582" style="stroke:#181818;stroke-width:1.0;" width="10" x="408.5" y="969.0996"/><rect fill="#FFFFFF" height="38.291" style="stroke:#181818;stroke-width:1.0;" width="10" x="408.5" y="1202.4668"/><rect fill="#FFFFFF" height="31.291" style="stroke:#181818;stroke-width:1.0;" width="10" x="898.5" y="210.7852"/><rect fill="#FFFFFF" height="31.291" style="stroke:#181818;stroke-width:1.0;" width="10" x="898.5" y="273.3672"/><rect fill="#FFFFFF" height="31.291" style="stroke:#181818;stroke-width:1.0;" width="10" x="898.5" y="800.3145"/><rect fill="#FFFFFF" height="31.291" style="stroke:#181818;stroke-width:1.0;" width="10" x="898.5" y="875.2266"/><rect fill="#FFFFFF" height="31.291" style="stroke:#181818;stroke-width:1.0;" width="10" x="898.5" y="1033.6816"/><rect fill="#FFFFFF" height="31.291" style="stroke:#181818;stroke-width:1.0;" width="10" x="898.5" y="1108.5938"/><rect fill="#FFFFFF" height="46.291" style="stroke:#181818;stroke-width:1.0;" width="10" x="898.5" y="1171.1758"/><rect fill="#FFFFFF" height="31.291" style="stroke:#181818;stroke-width:1.0;" width="10" x="1081.5" y="612.5684"/><rect fill="#FFFFFF" height="31.291" style="stroke:#181818;stroke-width:1.0;" width="10" x="1081.5" y="675.1504"/><rect fill="#FFFFFF" height="31.291" style="stroke:#181818;stroke-width:1.0;" width="10" x="1313" y="398.5313"/><rect fill="#FFFFFF" height="31.291" style="stroke:#181818;stroke-width:1.0;" width="10" x="1313" y="461.1133"/><rect fill="#FFFFFF" height="31.291" style="stroke:#181818;stroke-width:1.0;" width="10" x="1521.5" y="643.8594"/><rect fill="#FFFFFF" height="31.291" style="stroke:#181818;stroke-width:1.0;" width="10" x="1673" y="242.0762"/><rect fill="#FFFFFF" height="31.291" style="stroke:#181818;stroke-width:1.0;" width="10" x="1673" y="906.5176"/><rect fill="#FFFFFF" height="31.291" style="stroke:#181818;stroke-width:1.0;" width="10" x="1673" y="1139.8848"/><rect fill="#FFFFFF" height="31.291" style="stroke:#181818;stroke-width:1.0;" width="10" x="1826.5" y="429.8223"/><rect fill="#FFFFFF" height="33.6211" style="stroke:#181818;stroke-width:1.0;" width="10" x="1945" y="841.6055"/><rect fill="#FFFFFF" height="33.6211" style="stroke:#181818;stroke-width:1.0;" width="10" x="1945" y="1074.9727"/><polygon fill="#181818" points="396.5,112.9121,406.5,116.9121,396.5,120.9121,400.5,116.9121" style="stroke:#181818;stroke-width:1.0;"/><line style="stroke:#181818;stroke-width:1.0;" x1="42.5" x2="402.5" y1="116.9121" y2="116.9121"/><text fill="#000000" font-family="sans-serif" font-size="13" font-weight="bold" lengthAdjust="spacing" textLength="7" x="49.5" y="111.6494">1</text><text fill="#000000" font-family="sans-serif" font-size="13" lengthAdjust="spacing" textLength="336" x="60.5" y="111.6494">Initiciates the process of adding a ranking to a job opening</text><polygon fill="#181818" points="53.5,144.2031,43.5,148.2031,53.5,152.2031,49.5,148.2031" style="stroke:#181818;stroke-width:1.0;"/><line style="stroke:#181818;stroke-width:1.0;stroke-dasharray:2.0,2.0;" x1="47.5" x2="412.5" y1="148.2031" y2="148.2031"/><text fill="#000000" font-family="sans-serif" font-size="13" font-weight="bold" lengthAdjust="spacing" textLength="7" x="59.5" y="142.9404">2</text><text fill="#000000" font-family="sans-serif" font-size="13" lengthAdjust="spacing" textLength="298" x="70.5" y="142.9404">Asks for the id of the job offer to rank candidates for</text><polygon fill="#181818" points="396.5,175.4941,406.5,179.4941,396.5,183.4941,400.5,179.4941" style="stroke:#181818;stroke-width:1.0;"/><line style="stroke:#181818;stroke-width:1.0;" x1="42.5" x2="402.5" y1="179.4941" y2="179.4941"/><text fill="#000000" font-family="sans-serif" font-size="13" font-weight="bold" lengthAdjust="spacing" textLength="7" x="49.5" y="174.2314">3</text><text fill="#000000" font-family="sans-serif" font-size="13" lengthAdjust="spacing" textLength="156" x="60.5" y="174.2314">Inputs the id of the job offer</text><polygon fill="#181818" points="886.5,206.7852,896.5,210.7852,886.5,214.7852,890.5,210.7852" style="stroke:#181818;stroke-width:1.0;"/><line style="stroke:#181818;stroke-width:1.0;" x1="413.5" x2="892.5" y1="210.7852" y2="210.7852"/><text fill="#000000" font-family="sans-serif" font-size="13" font-weight="bold" lengthAdjust="spacing" textLength="7" x="420.5" y="205.5225">4</text><text fill="#000000" font-family="sans-serif" font-size="13" lengthAdjust="spacing" textLength="195" x="431.5" y="205.5225">getJobOpeningById(jobOpeningId)</text><polygon fill="#181818" points="1661,238.0762,1671,242.0762,1661,246.0762,1665,242.0762" style="stroke:#181818;stroke-width:1.0;"/><line style="stroke:#181818;stroke-width:1.0;" x1="903.5" x2="1667" y1="242.0762" y2="242.0762"/><text fill="#000000" font-family="sans-serif" font-size="13" font-weight="bold" lengthAdjust="spacing" textLength="7" x="910.5" y="236.8135">5</text><text fill="#000000" font-family="sans-serif" font-size="13" lengthAdjust="spacing" textLength="195" x="921.5" y="236.8135">getJobOpeningById(jobOpeningId)</text><polygon fill="#181818" points="919.5,269.3672,909.5,273.3672,919.5,277.3672,915.5,273.3672" style="stroke:#181818;stroke-width:1.0;"/><line style="stroke:#181818;stroke-width:1.0;stroke-dasharray:2.0,2.0;" x1="913.5" x2="1677" y1="273.3672" y2="273.3672"/><text fill="#000000" font-family="sans-serif" font-size="13" font-weight="bold" lengthAdjust="spacing" textLength="7" x="925.5" y="268.1045">6</text><text fill="#000000" font-family="sans-serif" font-size="13" lengthAdjust="spacing" textLength="137" x="936.5" y="268.1045">Returns the job opening</text><polygon fill="#181818" points="429.5,300.6582,419.5,304.6582,429.5,308.6582,425.5,304.6582" style="stroke:#181818;stroke-width:1.0;"/><line style="stroke:#181818;stroke-width:1.0;stroke-dasharray:2.0,2.0;" x1="423.5" x2="902.5" y1="304.6582" y2="304.6582"/><text fill="#000000" font-family="sans-serif" font-size="13" font-weight="bold" lengthAdjust="spacing" textLength="7" x="435.5" y="299.3955">7</text><text fill="#000000" font-family="sans-serif" font-size="13" lengthAdjust="spacing" textLength="130" x="446.5" y="299.3955">Return the job opening</text><polygon fill="#181818" points="53.5,331.9492,43.5,335.9492,53.5,339.9492,49.5,335.9492" style="stroke:#181818;stroke-width:1.0;"/><line style="stroke:#181818;stroke-width:1.0;stroke-dasharray:2.0,2.0;" x1="47.5" x2="412.5" y1="335.9492" y2="335.9492"/><text fill="#000000" font-family="sans-serif" font-size="13" font-weight="bold" lengthAdjust="spacing" textLength="7" x="59.5" y="330.6865">8</text><text fill="#000000" font-family="sans-serif" font-size="13" lengthAdjust="spacing" textLength="271" x="70.5" y="330.6865">Asks for the number of extra candidates to add</text><polygon fill="#181818" points="396.5,363.2402,406.5,367.2402,396.5,371.2402,400.5,367.2402" style="stroke:#181818;stroke-width:1.0;"/><line style="stroke:#181818;stroke-width:1.0;" x1="42.5" x2="402.5" y1="367.2402" y2="367.2402"/><text fill="#000000" font-family="sans-serif" font-size="13" font-weight="bold" lengthAdjust="spacing" textLength="7" x="49.5" y="361.9775">9</text><text fill="#000000" font-family="sans-serif" font-size="13" lengthAdjust="spacing" textLength="258" x="60.5" y="361.9775">Inputs the number of extra candidates to add</text><polygon fill="#181818" points="1301,394.5313,1311,398.5313,1301,402.5313,1305,398.5313" style="stroke:#181818;stroke-width:1.0;"/><line style="stroke:#181818;stroke-width:1.0;" x1="413.5" x2="1307" y1="398.5313" y2="398.5313"/><text fill="#000000" font-family="sans-serif" font-size="13" font-weight="bold" lengthAdjust="spacing" textLength="14" x="420.5" y="393.2686">10</text><text fill="#000000" font-family="sans-serif" font-size="13" lengthAdjust="spacing" textLength="249" x="438.5" y="393.2686">findApplicationsByJobOfferID(jobOpeningId)</text><polygon fill="#181818" points="1814.5,425.8223,1824.5,429.8223,1814.5,433.8223,1818.5,429.8223" style="stroke:#181818;stroke-width:1.0;"/><line style="stroke:#181818;stroke-width:1.0;" x1="1318" x2="1820.5" y1="429.8223" y2="429.8223"/><text fill="#000000" font-family="sans-serif" font-size="13" font-weight="bold" lengthAdjust="spacing" textLength="14" x="1325" y="424.5596">11</text><text fill="#000000" font-family="sans-serif" font-size="13" lengthAdjust="spacing" textLength="249" x="1343" y="424.5596">findApplicationsByJobOfferID(jobOpeningId)</text><polygon fill="#181818" points="1334,457.1133,1324,461.1133,1334,465.1133,1330,461.1133" style="stroke:#181818;stroke-width:1.0;"/><line style="stroke:#181818;stroke-width:1.0;stroke-dasharray:2.0,2.0;" x1="1328" x2="1830.5" y1="461.1133" y2="461.1133"/><text fill="#000000" font-family="sans-serif" font-size="13" font-weight="bold" lengthAdjust="spacing" textLength="14" x="1340" y="455.8506">12</text><text fill="#000000" font-family="sans-serif" font-size="13" lengthAdjust="spacing" textLength="161" x="1358" y="455.8506">Returns the applications list</text><polygon fill="#181818" points="429.5,488.4043,419.5,492.4043,429.5,496.4043,425.5,492.4043" style="stroke:#181818;stroke-width:1.0;"/><line style="stroke:#181818;stroke-width:1.0;stroke-dasharray:2.0,2.0;" x1="423.5" x2="1317" y1="492.4043" y2="492.4043"/><text fill="#000000" font-family="sans-serif" font-size="13" font-weight="bold" lengthAdjust="spacing" textLength="14" x="435.5" y="487.1416">13</text><text fill="#000000" font-family="sans-serif" font-size="13" lengthAdjust="spacing" textLength="161" x="453.5" y="487.1416">Returns the applications list</text><polygon fill="#181818" points="53.5,519.6953,43.5,523.6953,53.5,527.6953,49.5,523.6953" style="stroke:#181818;stroke-width:1.0;"/><line style="stroke:#181818;stroke-width:1.0;stroke-dasharray:2.0,2.0;" x1="47.5" x2="412.5" y1="523.6953" y2="523.6953"/><text fill="#000000" font-family="sans-serif" font-size="13" font-weight="bold" lengthAdjust="spacing" textLength="14" x="59.5" y="518.4326">14</text><text fill="#000000" font-family="sans-serif" font-size="13" lengthAdjust="spacing" textLength="259" x="77.5" y="518.4326">Asks for the emails of the candidates to rank</text><polygon fill="#181818" points="396.5,550.9863,406.5,554.9863,396.5,558.9863,400.5,554.9863" style="stroke:#181818;stroke-width:1.0;"/><line style="stroke:#181818;stroke-width:1.0;" x1="42.5" x2="402.5" y1="554.9863" y2="554.9863"/><text fill="#000000" font-family="sans-serif" font-size="13" font-weight="bold" lengthAdjust="spacing" textLength="14" x="49.5" y="549.7236">15</text><text fill="#000000" font-family="sans-serif" font-size="13" lengthAdjust="spacing" textLength="246" x="67.5" y="549.7236">Inputs the emails of the candidates to rank</text><path d="M10,569.9863 L83,569.9863 L83,579.2773 L73,589.2773 L10,589.2773 L10,569.9863 " fill="#EEEEEE" style="stroke:#000000;stroke-width:1.5;"/><rect fill="none" height="407.1133" style="stroke:#000000;stroke-width:1.5;" width="1983" x="10" y="569.9863"/><text fill="#000000" font-family="sans-serif" font-size="13" font-weight="bold" lengthAdjust="spacing" textLength="28" x="25" y="585.0146">loop</text><text fill="#000000" font-family="sans-serif" font-size="11" font-weight="bold" lengthAdjust="spacing" textLength="262" x="98" y="583.8564">[for each candidate that the user wants to rank]</text><polygon fill="#181818" points="1069.5,608.5684,1079.5,612.5684,1069.5,616.5684,1073.5,612.5684" style="stroke:#181818;stroke-width:1.0;"/><line style="stroke:#181818;stroke-width:1.0;" x1="413.5" x2="1075.5" y1="612.5684" y2="612.5684"/><text fill="#000000" font-family="sans-serif" font-size="13" font-weight="bold" lengthAdjust="spacing" textLength="14" x="420.5" y="607.3057">16</text><text fill="#000000" font-family="sans-serif" font-size="13" lengthAdjust="spacing" textLength="187" x="438.5" y="607.3057">findCandidatesByEmails(emails)</text><polygon fill="#181818" points="1509.5,639.8594,1519.5,643.8594,1509.5,647.8594,1513.5,643.8594" style="stroke:#181818;stroke-width:1.0;"/><line style="stroke:#181818;stroke-width:1.0;" x1="1086.5" x2="1515.5" y1="643.8594" y2="643.8594"/><text fill="#000000" font-family="sans-serif" font-size="13" font-weight="bold" lengthAdjust="spacing" textLength="14" x="1093.5" y="638.5967">17</text><text fill="#000000" font-family="sans-serif" font-size="13" lengthAdjust="spacing" textLength="187" x="1111.5" y="638.5967">findCandidatesByEmails(emails)</text><polygon fill="#181818" points="1102.5,671.1504,1092.5,675.1504,1102.5,679.1504,1098.5,675.1504" style="stroke:#181818;stroke-width:1.0;"/><line style="stroke:#181818;stroke-width:1.0;stroke-dasharray:2.0,2.0;" x1="1096.5" x2="1525.5" y1="675.1504" y2="675.1504"/><text fill="#000000" font-family="sans-serif" font-size="13" font-weight="bold" lengthAdjust="spacing" textLength="14" x="1108.5" y="669.8877">18</text><text fill="#000000" font-family="sans-serif" font-size="13" lengthAdjust="spacing" textLength="127" x="1126.5" y="669.8877">Returns the candidate</text><polygon fill="#181818" points="429.5,702.4414,419.5,706.4414,429.5,710.4414,425.5,706.4414" style="stroke:#181818;stroke-width:1.0;"/><line style="stroke:#181818;stroke-width:1.0;stroke-dasharray:2.0,2.0;" x1="423.5" x2="1085.5" y1="706.4414" y2="706.4414"/><text fill="#000000" font-family="sans-serif" font-size="13" font-weight="bold" lengthAdjust="spacing" textLength="14" x="435.5" y="701.1787">19</text><text fill="#000000" font-family="sans-serif" font-size="13" lengthAdjust="spacing" textLength="127" x="453.5" y="701.1787">Returns the candidate</text><polygon fill="#181818" points="53.5,733.7324,43.5,737.7324,53.5,741.7324,49.5,737.7324" style="stroke:#181818;stroke-width:1.0;"/><line style="stroke:#181818;stroke-width:1.0;stroke-dasharray:2.0,2.0;" x1="47.5" x2="412.5" y1="737.7324" y2="737.7324"/><text fill="#000000" font-family="sans-serif" font-size="13" font-weight="bold" lengthAdjust="spacing" textLength="14" x="59.5" y="732.4697">20</text><text fill="#000000" font-family="sans-serif" font-size="13" lengthAdjust="spacing" textLength="212" x="77.5" y="732.4697">Asks for the ranking of the candidate</text><polygon fill="#181818" points="396.5,765.0234,406.5,769.0234,396.5,773.0234,400.5,769.0234" style="stroke:#181818;stroke-width:1.0;"/><line style="stroke:#181818;stroke-width:1.0;" x1="42.5" x2="402.5" y1="769.0234" y2="769.0234"/><text fill="#000000" font-family="sans-serif" font-size="13" font-weight="bold" lengthAdjust="spacing" textLength="14" x="49.5" y="763.7607">21</text><text fill="#000000" font-family="sans-serif" font-size="13" lengthAdjust="spacing" textLength="199" x="67.5" y="763.7607">Inputs the ranking of the candidate</text><polygon fill="#181818" points="886.5,796.3145,896.5,800.3145,886.5,804.3145,890.5,800.3145" style="stroke:#181818;stroke-width:1.0;"/><line style="stroke:#181818;stroke-width:1.0;" x1="413.5" x2="892.5" y1="800.3145" y2="800.3145"/><text fill="#000000" font-family="sans-serif" font-size="13" font-weight="bold" lengthAdjust="spacing" textLength="14" x="420.5" y="795.0518">22</text><text fill="#000000" font-family="sans-serif" font-size="13" lengthAdjust="spacing" textLength="443" x="438.5" y="795.0518">addRankingToJobOpening(jobOpeningId, candidateId, rank,numToBeRanked)</text><polygon fill="#181818" points="1905,827.6055,1915,831.6055,1905,835.6055,1909,831.6055" style="stroke:#181818;stroke-width:1.0;"/><line style="stroke:#181818;stroke-width:1.0;" x1="903.5" x2="1911" y1="831.6055" y2="831.6055"/><text fill="#000000" font-family="sans-serif" font-size="13" font-weight="bold" lengthAdjust="spacing" textLength="14" x="910.5" y="826.3428">23</text><text fill="#000000" font-family="sans-serif" font-size="13" lengthAdjust="spacing" textLength="200" x="928.5" y="826.3428">creates a ranking for the candidate</text><rect fill="#E2E2F0" height="32.6211" rx="2.5" ry="2.5" style="stroke:#181818;stroke-width:0.5;" width="66" x="1917" y="808.3145"/><text fill="#000000" font-family="sans-serif" font-size="14" lengthAdjust="spacing" textLength="52" x="1924" y="830.4219">Ranking</text><polygon fill="#181818" points="919.5,871.2266,909.5,875.2266,919.5,879.2266,915.5,875.2266" style="stroke:#181818;stroke-width:1.0;"/><line style="stroke:#181818;stroke-width:1.0;stroke-dasharray:2.0,2.0;" x1="913.5" x2="1949" y1="875.2266" y2="875.2266"/><text fill="#000000" font-family="sans-serif" font-size="13" font-weight="bold" lengthAdjust="spacing" textLength="14" x="925.5" y="869.9639">24</text><text fill="#000000" font-family="sans-serif" font-size="13" lengthAdjust="spacing" textLength="113" x="943.5" y="869.9639">Returns the ranking</text><polygon fill="#181818" points="1661,902.5176,1671,906.5176,1661,910.5176,1665,906.5176" style="stroke:#181818;stroke-width:1.0;"/><line style="stroke:#181818;stroke-width:1.0;" x1="903.5" x2="1667" y1="906.5176" y2="906.5176"/><text fill="#000000" font-family="sans-serif" font-size="13" font-weight="bold" lengthAdjust="spacing" textLength="14" x="910.5" y="901.2549">25</text><text fill="#000000" font-family="sans-serif" font-size="13" lengthAdjust="spacing" textLength="118" x="928.5" y="901.2549">addRanking(ranking)</text><polygon fill="#181818" points="914.5,933.8086,904.5,937.8086,914.5,941.8086,910.5,937.8086" style="stroke:#181818;stroke-width:1.0;"/><line style="stroke:#181818;stroke-width:1.0;stroke-dasharray:2.0,2.0;" x1="908.5" x2="1677" y1="937.8086" y2="937.8086"/><text fill="#000000" font-family="sans-serif" font-size="13" font-weight="bold" lengthAdjust="spacing" textLength="14" x="920.5" y="932.5459">26</text><text fill="#000000" font-family="sans-serif" font-size="13" lengthAdjust="spacing" textLength="88" x="938.5" y="932.5459">informs sucess</text><polygon fill="#181818" points="429.5,965.0996,419.5,969.0996,429.5,973.0996,425.5,969.0996" style="stroke:#181818;stroke-width:1.0;"/><line style="stroke:#181818;stroke-width:1.0;stroke-dasharray:2.0,2.0;" x1="423.5" x2="902.5" y1="969.0996" y2="969.0996"/><text fill="#000000" font-family="sans-serif" font-size="13" font-weight="bold" lengthAdjust="spacing" textLength="14" x="435.5" y="963.8369">27</text><text fill="#000000" font-family="sans-serif" font-size="13" lengthAdjust="spacing" textLength="88" x="453.5" y="963.8369">informs sucess</text><path d="M352,991.0996 L425,991.0996 L425,1000.3906 L415,1010.3906 L352,1010.3906 L352,991.0996 " fill="#EEEEEE" style="stroke:#000000;stroke-width:1.5;"/><rect fill="none" height="219.3672" style="stroke:#000000;stroke-width:1.5;" width="1641" x="352" y="991.0996"/><text fill="#000000" font-family="sans-serif" font-size="13" font-weight="bold" lengthAdjust="spacing" textLength="28" x="367" y="1006.1279">loop</text><text fill="#000000" font-family="sans-serif" font-size="11" font-weight="bold" lengthAdjust="spacing" textLength="395" x="440" y="1004.9697">[for all the candidates that didnt get ranked (rank = 'rank not recorded')]</text><polygon fill="#181818" points="886.5,1029.6816,896.5,1033.6816,886.5,1037.6816,890.5,1033.6816" style="stroke:#181818;stroke-width:1.0;"/><line style="stroke:#181818;stroke-width:1.0;" x1="413.5" x2="892.5" y1="1033.6816" y2="1033.6816"/><text fill="#000000" font-family="sans-serif" font-size="13" font-weight="bold" lengthAdjust="spacing" textLength="14" x="420.5" y="1028.4189">28</text><text fill="#000000" font-family="sans-serif" font-size="13" lengthAdjust="spacing" textLength="250" x="438.5" y="1028.4189">addRanking(jobOpeningId,candidateId,rank)</text><polygon fill="#181818" points="1905,1060.9727,1915,1064.9727,1905,1068.9727,1909,1064.9727" style="stroke:#181818;stroke-width:1.0;"/><line style="stroke:#181818;stroke-width:1.0;" x1="903.5" x2="1911" y1="1064.9727" y2="1064.9727"/><text fill="#000000" font-family="sans-serif" font-size="13" font-weight="bold" lengthAdjust="spacing" textLength="14" x="910.5" y="1059.71">29</text><text fill="#000000" font-family="sans-serif" font-size="13" lengthAdjust="spacing" textLength="200" x="928.5" y="1059.71">creates a ranking for the candidate</text><rect fill="#E2E2F0" height="32.6211" rx="2.5" ry="2.5" style="stroke:#181818;stroke-width:0.5;" width="66" x="1917" y="1041.6816"/><text fill="#000000" font-family="sans-serif" font-size="14" lengthAdjust="spacing" textLength="52" x="1924" y="1063.7891">Ranking</text><polygon fill="#181818" points="919.5,1104.5938,909.5,1108.5938,919.5,1112.5938,915.5,1108.5938" style="stroke:#181818;stroke-width:1.0;"/><line style="stroke:#181818;stroke-width:1.0;stroke-dasharray:2.0,2.0;" x1="913.5" x2="1949" y1="1108.5938" y2="1108.5938"/><text fill="#000000" font-family="sans-serif" font-size="13" font-weight="bold" lengthAdjust="spacing" textLength="14" x="925.5" y="1103.3311">30</text><text fill="#000000" font-family="sans-serif" font-size="13" lengthAdjust="spacing" textLength="113" x="943.5" y="1103.3311">Returns the ranking</text><polygon fill="#181818" points="1661,1135.8848,1671,1139.8848,1661,1143.8848,1665,1139.8848" style="stroke:#181818;stroke-width:1.0;"/><line style="stroke:#181818;stroke-width:1.0;" x1="903.5" x2="1667" y1="1139.8848" y2="1139.8848"/><text fill="#000000" font-family="sans-serif" font-size="13" font-weight="bold" lengthAdjust="spacing" textLength="14" x="910.5" y="1134.6221">31</text><text fill="#000000" font-family="sans-serif" font-size="13" lengthAdjust="spacing" textLength="118" x="928.5" y="1134.6221">addRanking(ranking)</text><polygon fill="#181818" points="919.5,1167.1758,909.5,1171.1758,919.5,1175.1758,915.5,1171.1758" style="stroke:#181818;stroke-width:1.0;"/><line style="stroke:#181818;stroke-width:1.0;stroke-dasharray:2.0,2.0;" x1="913.5" x2="1677" y1="1171.1758" y2="1171.1758"/><text fill="#000000" font-family="sans-serif" font-size="13" font-weight="bold" lengthAdjust="spacing" textLength="14" x="925.5" y="1165.9131">32</text><text fill="#000000" font-family="sans-serif" font-size="13" lengthAdjust="spacing" textLength="88" x="943.5" y="1165.9131">informs sucess</text><polygon fill="#181818" points="429.5,1198.4668,419.5,1202.4668,429.5,1206.4668,425.5,1202.4668" style="stroke:#181818;stroke-width:1.0;"/><line style="stroke:#181818;stroke-width:1.0;stroke-dasharray:2.0,2.0;" x1="423.5" x2="897.5" y1="1202.4668" y2="1202.4668"/><text fill="#000000" font-family="sans-serif" font-size="13" font-weight="bold" lengthAdjust="spacing" textLength="14" x="435.5" y="1197.2041">33</text><text fill="#000000" font-family="sans-serif" font-size="13" lengthAdjust="spacing" textLength="88" x="453.5" y="1197.2041">informs sucess</text><polygon fill="#181818" points="48.5,1236.7578,38.5,1240.7578,48.5,1244.7578,44.5,1240.7578" style="stroke:#181818;stroke-width:1.0;"/><line style="stroke:#181818;stroke-width:1.0;stroke-dasharray:2.0,2.0;" x1="42.5" x2="412.5" y1="1240.7578" y2="1240.7578"/><text fill="#000000" font-family="sans-serif" font-size="13" font-weight="bold" lengthAdjust="spacing" textLength="14" x="54.5" y="1235.4951">34</text><text fill="#000000" font-family="sans-serif" font-size="13" lengthAdjust="spacing" textLength="264" x="72.5" y="1235.4951">informs the user that the rankings were added</text><!--SRC=[xPRFRXen4CRl-nI-XKJX0CTAHI99Ar5LgeII1p1havWizihsDkNjEpFxn_Ok2vkUouKrEz_Fu_diCRpoHbV7dRHPndDlB7jnqZBkM9MLt7gLgv9hpzP2RBb-L_hrPKDlrSZhHwEzDKLHGt9lYoJmftB-aMkX1FVoYNi-Z5yC1EkoB5JElJBQVJVsXzdzsk-b7KgNYRIRPojBunGixaI1LfP9NCjBmmxzi2YBD9Bt8vjIu3iBZrHPzHiIWQ9MRBw2wh4lRACLAk1dn_oRPAKrkNIEcJtZGf2UvFZa3GmEPiTCAJNy415L1hGvGe6vTk-ExS5512g1B7mY9IuHGSXaULiR2i-4J81HZcNbtHXjaCMAN03Tg_HOrJhPXzD6p0xTS2DkU_DrpxHT235VOVq_Ho9rDoB_238FUMsbhwnsOHbDEICAwSvbrDQaPbn2f8bSSAW-ULXN-STR7hk2ZWinnPZhaFCsBG6pLrh4f-lXr1w6pTDqovPPpGCmhrtxDsxDwePqhdZiuB9d8O-cO0LqYfZ61qPsUQPMJc3rChjWgJnoLRZsgAHUK3EOuEXLHameZ2bfTk2-XM2GSa_w2Xlw1_Ibe0-ROD6OrVLAiEeRJJ-hixXe_2Ah6GWBnazZrVemHBVosEn5pw1kQGbbO7ANqpcJppFIJ2wOsxRZlZDJJ1tLZZPHtbsgpoRqmEJut0SE3d2EU-W7p-P1ebHEQxMakxk3AQ6SjD72pTCkVRHo0KbRYswNaOxRC6D2kfsJf9eB85HXrkW_s_ILXaKS7NCLtg-3Nfzsz_7WGLUNMeJJnujYS5hn1C80_X70BKPBbOBHAjXNTaFVsi0BcHihfBYv7VC_zJos727_FRxgyQNxl2VjEzpF8suEhRHhirtJRPRXs8Uq4jSd-tTvFChWynS0]--></g></svg>