<?xml version="1.0" encoding="us-ascii" standalone="no"?><svg xmlns="http://www.w3.org/2000/svg" xmlns:xlink="http://www.w3.org/1999/xlink" contentStyleType="text/css" height="392px" preserveAspectRatio="none" style="width:360px;height:392px;background:#FFFFFF;" version="1.1" viewBox="0 0 360 392" width="360px" zoomAndPan="magnify"><defs/><g><text fill="#000000" font-family="sans-serif" font-size="14" font-weight="bold" lengthAdjust="spacing" textLength="155" x="95.5" y="25.1074">UC02 CLASS DIAGRAM</text><!--class Runnable--><g id="elem_Runnable"><rect codeLine="4" fill="#F1F1F1" height="66.6211" id="Runnable" rx="2.5" ry="2.5" style="stroke:#181818;stroke-width:0.5;" width="93" x="7" y="46.6211"/><ellipse cx="22" cy="62.6211" fill="#B4A7E5" rx="11" ry="11" style="stroke:#181818;stroke-width:1.0;"/><path d="M22.9531,59.2617 L22.9531,65.918 L24.6719,65.918 Q25.2813,65.918 25.5469,66.1523 Q25.8125,66.3867 25.8125,66.7773 Q25.8125,67.1523 25.5469,67.3867 Q25.2813,67.6211 24.6719,67.6211 L19.5313,67.6211 Q18.9219,67.6211 18.6563,67.3867 Q18.3906,67.1523 18.3906,66.7617 Q18.3906,66.3867 18.6563,66.1523 Q18.9219,65.918 19.5313,65.918 L21.25,65.918 L21.25,59.2617 L19.5313,59.2617 Q18.9219,59.2617 18.6563,59.0273 Q18.3906,58.793 18.3906,58.4023 Q18.3906,58.0273 18.6563,57.793 Q18.9219,57.5586 19.5313,57.5586 L24.6719,57.5586 Q25.2813,57.5586 25.5469,57.793 Q25.8125,58.0273 25.8125,58.4023 Q25.8125,58.793 25.5469,59.0273 Q25.2813,59.2617 24.6719,59.2617 L22.9531,59.2617 Z " fill="#000000"/><text fill="#000000" font-family="sans-serif" font-size="14" font-style="italic" lengthAdjust="spacing" textLength="61" x="36" y="68.418">Runnable</text><line style="stroke:#181818;stroke-width:0.5;" x1="8" x2="99" y1="78.6211" y2="78.6211"/><line style="stroke:#181818;stroke-width:0.5;" x1="8" x2="99" y1="86.6211" y2="86.6211"/><ellipse cx="18" cy="101.4316" fill="#84BE84" rx="3" ry="3" style="stroke:#038048;stroke-width:1.0;"/><text fill="#000000" font-family="sans-serif" font-size="14" lengthAdjust="spacing" textLength="31" x="27" y="105.7285">run()</text></g><!--class ActivateUserUI--><g id="elem_ActivateUserUI"><rect codeLine="8" fill="#F1F1F1" height="66.6211" id="ActivateUserUI" rx="2.5" ry="2.5" style="stroke:#181818;stroke-width:0.5;" width="123" x="135" y="46.6211"/><ellipse cx="150" cy="62.6211" fill="#ADD1B2" rx="11" ry="11" style="stroke:#181818;stroke-width:1.0;"/><path d="M152.7656,58.4961 Q152.9219,58.2773 153.1094,58.168 Q153.2969,58.0586 153.5156,58.0586 Q153.8906,58.0586 154.125,58.3242 Q154.3594,58.5742 154.3594,59.1836 L154.3594,60.6367 Q154.3594,61.2461 154.125,61.5117 Q153.8906,61.7773 153.5156,61.7773 Q153.1719,61.7773 152.9688,61.5742 Q152.7656,61.3867 152.6563,60.8711 Q152.6094,60.5117 152.4219,60.3242 Q152.0938,59.9492 151.4844,59.7305 Q150.875,59.5117 150.25,59.5117 Q149.4844,59.5117 148.8438,59.8398 Q148.2188,60.168 147.7188,60.918 Q147.2344,61.668 147.2344,62.6992 L147.2344,63.793 Q147.2344,65.0273 148.125,65.8555 Q149.0156,66.668 150.6094,66.668 Q151.5469,66.668 152.2031,66.418 Q152.5938,66.2617 153.0156,65.8242 Q153.2813,65.5586 153.4219,65.4805 Q153.5781,65.4023 153.7813,65.4023 Q154.1094,65.4023 154.3594,65.668 Q154.625,65.918 154.625,66.2617 Q154.625,66.6055 154.2813,67.0117 Q153.7813,67.5898 152.9844,67.918 Q151.9063,68.3711 150.6094,68.3711 Q149.0938,68.3711 147.8906,67.7461 Q146.9063,67.2461 146.2188,66.1836 Q145.5313,65.1055 145.5313,63.8242 L145.5313,62.668 Q145.5313,61.3398 146.1406,60.1992 Q146.7656,59.043 147.8594,58.4336 Q148.9531,57.8086 150.1875,57.8086 Q150.9219,57.8086 151.5625,57.9805 Q152.2188,58.1367 152.7656,58.4961 Z " fill="#000000"/><text fill="#000000" font-family="sans-serif" font-size="14" lengthAdjust="spacing" textLength="91" x="164" y="68.418">ActivateUserUI</text><line style="stroke:#181818;stroke-width:0.5;" x1="136" x2="257" y1="78.6211" y2="78.6211"/><line style="stroke:#181818;stroke-width:0.5;" x1="136" x2="257" y1="86.6211" y2="86.6211"/><ellipse cx="146" cy="101.4316" fill="#84BE84" rx="3" ry="3" style="stroke:#038048;stroke-width:1.0;"/><text fill="#000000" font-family="sans-serif" font-size="14" lengthAdjust="spacing" textLength="31" x="155" y="105.7285">run()</text></g><!--class ActivateUserController--><g id="elem_ActivateUserController"><rect codeLine="12" fill="#F1F1F1" height="85.2422" id="ActivateUserController" rx="2.5" ry="2.5" style="stroke:#181818;stroke-width:0.5;" width="173" x="110" y="173.6211"/><ellipse cx="125" cy="189.6211" fill="#ADD1B2" rx="11" ry="11" style="stroke:#181818;stroke-width:1.0;"/><path d="M127.7656,185.4961 Q127.9219,185.2773 128.1094,185.168 Q128.2969,185.0586 128.5156,185.0586 Q128.8906,185.0586 129.125,185.3242 Q129.3594,185.5742 129.3594,186.1836 L129.3594,187.6367 Q129.3594,188.2461 129.125,188.5117 Q128.8906,188.7773 128.5156,188.7773 Q128.1719,188.7773 127.9688,188.5742 Q127.7656,188.3867 127.6563,187.8711 Q127.6094,187.5117 127.4219,187.3242 Q127.0938,186.9492 126.4844,186.7305 Q125.875,186.5117 125.25,186.5117 Q124.4844,186.5117 123.8438,186.8398 Q123.2188,187.168 122.7188,187.918 Q122.2344,188.668 122.2344,189.6992 L122.2344,190.793 Q122.2344,192.0273 123.125,192.8555 Q124.0156,193.668 125.6094,193.668 Q126.5469,193.668 127.2031,193.418 Q127.5938,193.2617 128.0156,192.8242 Q128.2813,192.5586 128.4219,192.4805 Q128.5781,192.4023 128.7813,192.4023 Q129.1094,192.4023 129.3594,192.668 Q129.625,192.918 129.625,193.2617 Q129.625,193.6055 129.2813,194.0117 Q128.7813,194.5898 127.9844,194.918 Q126.9063,195.3711 125.6094,195.3711 Q124.0938,195.3711 122.8906,194.7461 Q121.9063,194.2461 121.2188,193.1836 Q120.5313,192.1055 120.5313,190.8242 L120.5313,189.668 Q120.5313,188.3398 121.1406,187.1992 Q121.7656,186.043 122.8594,185.4336 Q123.9531,184.8086 125.1875,184.8086 Q125.9219,184.8086 126.5625,184.9805 Q127.2188,185.1367 127.7656,185.4961 Z " fill="#000000"/><text fill="#000000" font-family="sans-serif" font-size="14" lengthAdjust="spacing" textLength="141" x="139" y="195.418">ActivateUserController</text><line style="stroke:#181818;stroke-width:0.5;" x1="111" x2="282" y1="205.6211" y2="205.6211"/><line style="stroke:#181818;stroke-width:0.5;" x1="111" x2="282" y1="213.6211" y2="213.6211"/><ellipse cx="121" cy="228.4316" fill="#84BE84" rx="3" ry="3" style="stroke:#038048;stroke-width:1.0;"/><text fill="#000000" font-family="sans-serif" font-size="14" lengthAdjust="spacing" textLength="138" x="130" y="232.7285">listDeactivatedUsers()</text><ellipse cx="121" cy="247.0527" fill="#84BE84" rx="3" ry="3" style="stroke:#038048;stroke-width:1.0;"/><text fill="#000000" font-family="sans-serif" font-size="14" lengthAdjust="spacing" textLength="88" x="130" y="251.3496">activateUser()</text></g><!--class UserActivationService--><g id="elem_UserActivationService"><rect codeLine="17" fill="#F1F1F1" height="66.6211" id="UserActivationService" rx="2.5" ry="2.5" style="stroke:#181818;stroke-width:0.5;" width="169" x="20" y="318.6211"/><ellipse cx="35" cy="334.6211" fill="#ADD1B2" rx="11" ry="11" style="stroke:#181818;stroke-width:1.0;"/><path d="M37.7656,330.4961 Q37.9219,330.2773 38.1094,330.168 Q38.2969,330.0586 38.5156,330.0586 Q38.8906,330.0586 39.125,330.3242 Q39.3594,330.5742 39.3594,331.1836 L39.3594,332.6367 Q39.3594,333.2461 39.125,333.5117 Q38.8906,333.7773 38.5156,333.7773 Q38.1719,333.7773 37.9688,333.5742 Q37.7656,333.3867 37.6563,332.8711 Q37.6094,332.5117 37.4219,332.3242 Q37.0938,331.9492 36.4844,331.7305 Q35.875,331.5117 35.25,331.5117 Q34.4844,331.5117 33.8438,331.8398 Q33.2188,332.168 32.7188,332.918 Q32.2344,333.668 32.2344,334.6992 L32.2344,335.793 Q32.2344,337.0273 33.125,337.8555 Q34.0156,338.668 35.6094,338.668 Q36.5469,338.668 37.2031,338.418 Q37.5938,338.2617 38.0156,337.8242 Q38.2813,337.5586 38.4219,337.4805 Q38.5781,337.4023 38.7813,337.4023 Q39.1094,337.4023 39.3594,337.668 Q39.625,337.918 39.625,338.2617 Q39.625,338.6055 39.2813,339.0117 Q38.7813,339.5898 37.9844,339.918 Q36.9063,340.3711 35.6094,340.3711 Q34.0938,340.3711 32.8906,339.7461 Q31.9063,339.2461 31.2188,338.1836 Q30.5313,337.1055 30.5313,335.8242 L30.5313,334.668 Q30.5313,333.3398 31.1406,332.1992 Q31.7656,331.043 32.8594,330.4336 Q33.9531,329.8086 35.1875,329.8086 Q35.9219,329.8086 36.5625,329.9805 Q37.2188,330.1367 37.7656,330.4961 Z " fill="#000000"/><text fill="#000000" font-family="sans-serif" font-size="14" lengthAdjust="spacing" textLength="137" x="49" y="340.418">UserActivationService</text><line style="stroke:#181818;stroke-width:0.5;" x1="21" x2="188" y1="350.6211" y2="350.6211"/><line style="stroke:#181818;stroke-width:0.5;" x1="21" x2="188" y1="358.6211" y2="358.6211"/><ellipse cx="31" cy="373.4316" fill="#84BE84" rx="3" ry="3" style="stroke:#038048;stroke-width:1.0;"/><text fill="#000000" font-family="sans-serif" font-size="14" lengthAdjust="spacing" textLength="88" x="40" y="377.7285">activateUser()</text></g><!--class UserRepository--><g id="elem_UserRepository"><rect codeLine="21" fill="#F1F1F1" height="66.6211" id="UserRepository" rx="2.5" ry="2.5" style="stroke:#181818;stroke-width:0.5;" width="129" x="224" y="318.6211"/><ellipse cx="239" cy="334.6211" fill="#ADD1B2" rx="11" ry="11" style="stroke:#181818;stroke-width:1.0;"/><path d="M241.7656,330.4961 Q241.9219,330.2773 242.1094,330.168 Q242.2969,330.0586 242.5156,330.0586 Q242.8906,330.0586 243.125,330.3242 Q243.3594,330.5742 243.3594,331.1836 L243.3594,332.6367 Q243.3594,333.2461 243.125,333.5117 Q242.8906,333.7773 242.5156,333.7773 Q242.1719,333.7773 241.9688,333.5742 Q241.7656,333.3867 241.6563,332.8711 Q241.6094,332.5117 241.4219,332.3242 Q241.0938,331.9492 240.4844,331.7305 Q239.875,331.5117 239.25,331.5117 Q238.4844,331.5117 237.8438,331.8398 Q237.2188,332.168 236.7188,332.918 Q236.2344,333.668 236.2344,334.6992 L236.2344,335.793 Q236.2344,337.0273 237.125,337.8555 Q238.0156,338.668 239.6094,338.668 Q240.5469,338.668 241.2031,338.418 Q241.5938,338.2617 242.0156,337.8242 Q242.2813,337.5586 242.4219,337.4805 Q242.5781,337.4023 242.7813,337.4023 Q243.1094,337.4023 243.3594,337.668 Q243.625,337.918 243.625,338.2617 Q243.625,338.6055 243.2813,339.0117 Q242.7813,339.5898 241.9844,339.918 Q240.9063,340.3711 239.6094,340.3711 Q238.0938,340.3711 236.8906,339.7461 Q235.9063,339.2461 235.2188,338.1836 Q234.5313,337.1055 234.5313,335.8242 L234.5313,334.668 Q234.5313,333.3398 235.1406,332.1992 Q235.7656,331.043 236.8594,330.4336 Q237.9531,329.8086 239.1875,329.8086 Q239.9219,329.8086 240.5625,329.9805 Q241.2188,330.1367 241.7656,330.4961 Z " fill="#000000"/><text fill="#000000" font-family="sans-serif" font-size="14" lengthAdjust="spacing" textLength="97" x="253" y="340.418">UserRepository</text><line style="stroke:#181818;stroke-width:0.5;" x1="225" x2="352" y1="350.6211" y2="350.6211"/><line style="stroke:#181818;stroke-width:0.5;" x1="225" x2="352" y1="358.6211" y2="358.6211"/><ellipse cx="235" cy="373.4316" fill="#84BE84" rx="3" ry="3" style="stroke:#038048;stroke-width:1.0;"/><text fill="#000000" font-family="sans-serif" font-size="14" lengthAdjust="spacing" textLength="89" x="244" y="377.7285">findByStatus()</text></g><!--link Runnable to ActivateUserUI--><g id="link_Runnable_ActivateUserUI"><path codeLine="25" d="M100.14,80.1211 C111.69,80.1211 105.23,80.1211 116.77,80.1211 " fill="none" id="Runnable-to-ActivateUserUI" style="stroke:#181818;stroke-width:1.0;"/><polygon fill="none" points="134.77,80.1211,116.77,74.1211,116.77,86.1211,134.77,80.1211" style="stroke:#181818;stroke-width:1.0;"/></g><!--link ActivateUserUI to ActivateUserController--><g id="link_ActivateUserUI_ActivateUserController"><path codeLine="26" d="M196.5,113.9011 C196.5,131.8811 196.5,148.3411 196.5,167.5411 " fill="none" id="ActivateUserUI-to-ActivateUserController" style="stroke:#181818;stroke-width:1.0;stroke-dasharray:7.0,7.0;"/><polygon fill="#181818" points="196.5,173.5411,200.5,164.5411,196.5,168.5411,192.5,164.5411,196.5,173.5411" style="stroke:#181818;stroke-width:1.0;"/></g><!--link ActivateUserController to UserRepository--><g id="link_ActivateUserController_UserRepository"><path codeLine="27" d="M225.11,258.7811 C238.29,277.9911 250.3241,295.5146 262.6541,313.4746 " fill="none" id="ActivateUserController-to-UserRepository" style="stroke:#181818;stroke-width:1.0;stroke-dasharray:7.0,7.0;"/><polygon fill="#181818" points="266.05,318.4211,264.2538,308.7374,263.2201,314.299,257.6585,313.2653,266.05,318.4211" style="stroke:#181818;stroke-width:1.0;"/></g><!--link ActivateUserController to UserActivationService--><g id="link_ActivateUserController_UserActivationService"><path codeLine="28" d="M167.89,258.7811 C154.71,277.9911 142.6759,295.5146 130.3459,313.4746 " fill="none" id="ActivateUserController-to-UserActivationService" style="stroke:#181818;stroke-width:1.0;stroke-dasharray:7.0,7.0;"/><polygon fill="#181818" points="126.95,318.4211,135.3415,313.2653,129.7799,314.299,128.7462,308.7374,126.95,318.4211" style="stroke:#181818;stroke-width:1.0;"/></g><!--link UserActivationService to UserRepository--><g id="link_UserActivationService_UserRepository"><path codeLine="29" d="M189.31,352.1211 C200.81,352.1211 206.3,352.1211 217.8,352.1211 " fill="none" id="UserActivationService-to-UserRepository" style="stroke:#181818;stroke-width:1.0;stroke-dasharray:7.0,7.0;"/><polygon fill="#181818" points="223.8,352.1211,214.8,348.1211,218.8,352.1211,214.8,356.1211,223.8,352.1211" style="stroke:#181818;stroke-width:1.0;"/></g><!--SRC=[XO_H2e9044NVvolsiOWa-W3154Ae5yKFs7I4XMKtTaT1gdzFqHRJj7aRvjpB718aaMNXuSZ2Iv2cB8g3Sn9S0OGYD2NFaIMLKlpMOWzWxUnCfJPRU07aablBWfn4pGapYoQBFn1ReKAjo6WfqJXQ2aiHyW4gEigsyVx8HzbnPxSFlKAh54qjSlVbQYh1kxQ2j6aSNWfLd9gKE5Msnvtt_kbFB64YxNd-WY4iY7U9xq_-aJDJ-Eq_Btu3]--></g></svg>