<?xml version="1.0" encoding="us-ascii" standalone="no"?><svg xmlns="http://www.w3.org/2000/svg" xmlns:xlink="http://www.w3.org/1999/xlink" contentStyleType="text/css" height="374px" preserveAspectRatio="none" style="width:399px;height:374px;background:#FFFFFF;" version="1.1" viewBox="0 0 399 374" width="399px" zoomAndPan="magnify"><defs/><g><text fill="#000000" font-family="sans-serif" font-size="14" font-weight="bold" lengthAdjust="spacing" textLength="155" x="115" y="25.1074">UC08 CLASS DIAGRAM</text><!--class Runnable--><g id="elem_Runnable"><rect codeLine="4" fill="#F1F1F1" height="66.6211" id="Runnable" rx="2.5" ry="2.5" style="stroke:#181818;stroke-width:0.5;" width="93" x="206" y="46.6211"/><ellipse cx="221" cy="62.6211" fill="#B4A7E5" rx="11" ry="11" style="stroke:#181818;stroke-width:1.0;"/><path d="M221.9531,59.2617 L221.9531,65.918 L223.6719,65.918 Q224.2813,65.918 224.5469,66.1523 Q224.8125,66.3867 224.8125,66.7773 Q224.8125,67.1523 224.5469,67.3867 Q224.2813,67.6211 223.6719,67.6211 L218.5313,67.6211 Q217.9219,67.6211 217.6563,67.3867 Q217.3906,67.1523 217.3906,66.7617 Q217.3906,66.3867 217.6563,66.1523 Q217.9219,65.918 218.5313,65.918 L220.25,65.918 L220.25,59.2617 L218.5313,59.2617 Q217.9219,59.2617 217.6563,59.0273 Q217.3906,58.793 217.3906,58.4023 Q217.3906,58.0273 217.6563,57.793 Q217.9219,57.5586 218.5313,57.5586 L223.6719,57.5586 Q224.2813,57.5586 224.5469,57.793 Q224.8125,58.0273 224.8125,58.4023 Q224.8125,58.793 224.5469,59.0273 Q224.2813,59.2617 223.6719,59.2617 L221.9531,59.2617 Z " fill="#000000"/><text fill="#000000" font-family="sans-serif" font-size="14" font-style="italic" lengthAdjust="spacing" textLength="61" x="235" y="68.418">Runnable</text><line style="stroke:#181818;stroke-width:0.5;" x1="207" x2="298" y1="78.6211" y2="78.6211"/><line style="stroke:#181818;stroke-width:0.5;" x1="207" x2="298" y1="86.6211" y2="86.6211"/><ellipse cx="217" cy="101.4316" fill="#84BE84" rx="3" ry="3" style="stroke:#038048;stroke-width:1.0;"/><text fill="#000000" font-family="sans-serif" font-size="14" lengthAdjust="spacing" textLength="31" x="226" y="105.7285">run()</text></g><!--class ListApplicationsUI--><g id="elem_ListApplicationsUI"><rect codeLine="8" fill="#F1F1F1" height="66.6211" id="ListApplicationsUI" rx="2.5" ry="2.5" style="stroke:#181818;stroke-width:0.5;" width="142" x="28.5" y="46.6211"/><ellipse cx="43.5" cy="62.6211" fill="#ADD1B2" rx="11" ry="11" style="stroke:#181818;stroke-width:1.0;"/><path d="M46.2656,58.4961 Q46.4219,58.2773 46.6094,58.168 Q46.7969,58.0586 47.0156,58.0586 Q47.3906,58.0586 47.625,58.3242 Q47.8594,58.5742 47.8594,59.1836 L47.8594,60.6367 Q47.8594,61.2461 47.625,61.5117 Q47.3906,61.7773 47.0156,61.7773 Q46.6719,61.7773 46.4688,61.5742 Q46.2656,61.3867 46.1563,60.8711 Q46.1094,60.5117 45.9219,60.3242 Q45.5938,59.9492 44.9844,59.7305 Q44.375,59.5117 43.75,59.5117 Q42.9844,59.5117 42.3438,59.8398 Q41.7188,60.168 41.2188,60.918 Q40.7344,61.668 40.7344,62.6992 L40.7344,63.793 Q40.7344,65.0273 41.625,65.8555 Q42.5156,66.668 44.1094,66.668 Q45.0469,66.668 45.7031,66.418 Q46.0938,66.2617 46.5156,65.8242 Q46.7813,65.5586 46.9219,65.4805 Q47.0781,65.4023 47.2813,65.4023 Q47.6094,65.4023 47.8594,65.668 Q48.125,65.918 48.125,66.2617 Q48.125,66.6055 47.7813,67.0117 Q47.2813,67.5898 46.4844,67.918 Q45.4063,68.3711 44.1094,68.3711 Q42.5938,68.3711 41.3906,67.7461 Q40.4063,67.2461 39.7188,66.1836 Q39.0313,65.1055 39.0313,63.8242 L39.0313,62.668 Q39.0313,61.3398 39.6406,60.1992 Q40.2656,59.043 41.3594,58.4336 Q42.4531,57.8086 43.6875,57.8086 Q44.4219,57.8086 45.0625,57.9805 Q45.7188,58.1367 46.2656,58.4961 Z " fill="#000000"/><text fill="#000000" font-family="sans-serif" font-size="14" lengthAdjust="spacing" textLength="110" x="57.5" y="68.418">ListApplicationsUI</text><line style="stroke:#181818;stroke-width:0.5;" x1="29.5" x2="169.5" y1="78.6211" y2="78.6211"/><line style="stroke:#181818;stroke-width:0.5;" x1="29.5" x2="169.5" y1="86.6211" y2="86.6211"/><ellipse cx="39.5" cy="101.4316" fill="#84BE84" rx="3" ry="3" style="stroke:#038048;stroke-width:1.0;"/><text fill="#000000" font-family="sans-serif" font-size="14" lengthAdjust="spacing" textLength="31" x="48.5" y="105.7285">run()</text></g><!--class ListApplicationController--><g id="elem_ListApplicationController"><rect codeLine="12" fill="#F1F1F1" height="66.6211" id="ListApplicationController" rx="2.5" ry="2.5" style="stroke:#181818;stroke-width:0.5;" width="185" x="7" y="173.6211"/><ellipse cx="22" cy="189.6211" fill="#ADD1B2" rx="11" ry="11" style="stroke:#181818;stroke-width:1.0;"/><path d="M24.7656,185.4961 Q24.9219,185.2773 25.1094,185.168 Q25.2969,185.0586 25.5156,185.0586 Q25.8906,185.0586 26.125,185.3242 Q26.3594,185.5742 26.3594,186.1836 L26.3594,187.6367 Q26.3594,188.2461 26.125,188.5117 Q25.8906,188.7773 25.5156,188.7773 Q25.1719,188.7773 24.9688,188.5742 Q24.7656,188.3867 24.6563,187.8711 Q24.6094,187.5117 24.4219,187.3242 Q24.0938,186.9492 23.4844,186.7305 Q22.875,186.5117 22.25,186.5117 Q21.4844,186.5117 20.8438,186.8398 Q20.2188,187.168 19.7188,187.918 Q19.2344,188.668 19.2344,189.6992 L19.2344,190.793 Q19.2344,192.0273 20.125,192.8555 Q21.0156,193.668 22.6094,193.668 Q23.5469,193.668 24.2031,193.418 Q24.5938,193.2617 25.0156,192.8242 Q25.2813,192.5586 25.4219,192.4805 Q25.5781,192.4023 25.7813,192.4023 Q26.1094,192.4023 26.3594,192.668 Q26.625,192.918 26.625,193.2617 Q26.625,193.6055 26.2813,194.0117 Q25.7813,194.5898 24.9844,194.918 Q23.9063,195.3711 22.6094,195.3711 Q21.0938,195.3711 19.8906,194.7461 Q18.9063,194.2461 18.2188,193.1836 Q17.5313,192.1055 17.5313,190.8242 L17.5313,189.668 Q17.5313,188.3398 18.1406,187.1992 Q18.7656,186.043 19.8594,185.4336 Q20.9531,184.8086 22.1875,184.8086 Q22.9219,184.8086 23.5625,184.9805 Q24.2188,185.1367 24.7656,185.4961 Z " fill="#000000"/><text fill="#000000" font-family="sans-serif" font-size="14" lengthAdjust="spacing" textLength="153" x="36" y="195.418">ListApplicationController</text><line style="stroke:#181818;stroke-width:0.5;" x1="8" x2="191" y1="205.6211" y2="205.6211"/><line style="stroke:#181818;stroke-width:0.5;" x1="8" x2="191" y1="213.6211" y2="213.6211"/><ellipse cx="18" cy="228.4316" fill="#84BE84" rx="3" ry="3" style="stroke:#038048;stroke-width:1.0;"/><text fill="#000000" font-family="sans-serif" font-size="14" lengthAdjust="spacing" textLength="103" x="27" y="232.7285">listApplications()</text></g><!--class ApplicationRepository--><g id="elem_ApplicationRepository"><rect codeLine="16" fill="#F1F1F1" height="66.6211" id="ApplicationRepository" rx="2.5" ry="2.5" style="stroke:#181818;stroke-width:0.5;" width="169" x="223" y="300.6211"/><ellipse cx="238" cy="316.6211" fill="#ADD1B2" rx="11" ry="11" style="stroke:#181818;stroke-width:1.0;"/><path d="M240.7656,312.4961 Q240.9219,312.2773 241.1094,312.168 Q241.2969,312.0586 241.5156,312.0586 Q241.8906,312.0586 242.125,312.3242 Q242.3594,312.5742 242.3594,313.1836 L242.3594,314.6367 Q242.3594,315.2461 242.125,315.5117 Q241.8906,315.7773 241.5156,315.7773 Q241.1719,315.7773 240.9688,315.5742 Q240.7656,315.3867 240.6563,314.8711 Q240.6094,314.5117 240.4219,314.3242 Q240.0938,313.9492 239.4844,313.7305 Q238.875,313.5117 238.25,313.5117 Q237.4844,313.5117 236.8438,313.8398 Q236.2188,314.168 235.7188,314.918 Q235.2344,315.668 235.2344,316.6992 L235.2344,317.793 Q235.2344,319.0273 236.125,319.8555 Q237.0156,320.668 238.6094,320.668 Q239.5469,320.668 240.2031,320.418 Q240.5938,320.2617 241.0156,319.8242 Q241.2813,319.5586 241.4219,319.4805 Q241.5781,319.4023 241.7813,319.4023 Q242.1094,319.4023 242.3594,319.668 Q242.625,319.918 242.625,320.2617 Q242.625,320.6055 242.2813,321.0117 Q241.7813,321.5898 240.9844,321.918 Q239.9063,322.3711 238.6094,322.3711 Q237.0938,322.3711 235.8906,321.7461 Q234.9063,321.2461 234.2188,320.1836 Q233.5313,319.1055 233.5313,317.8242 L233.5313,316.668 Q233.5313,315.3398 234.1406,314.1992 Q234.7656,313.043 235.8594,312.4336 Q236.9531,311.8086 238.1875,311.8086 Q238.9219,311.8086 239.5625,311.9805 Q240.2188,312.1367 240.7656,312.4961 Z " fill="#000000"/><text fill="#000000" font-family="sans-serif" font-size="14" lengthAdjust="spacing" textLength="137" x="252" y="322.418">ApplicationRepository</text><line style="stroke:#181818;stroke-width:0.5;" x1="224" x2="391" y1="332.6211" y2="332.6211"/><line style="stroke:#181818;stroke-width:0.5;" x1="224" x2="391" y1="340.6211" y2="340.6211"/><ellipse cx="234" cy="355.4316" fill="#84BE84" rx="3" ry="3" style="stroke:#038048;stroke-width:1.0;"/><text fill="#000000" font-family="sans-serif" font-size="14" lengthAdjust="spacing" textLength="103" x="243" y="359.7285">listApplications()</text></g><!--class ListApplicationsService--><g id="elem_ListApplicationsService"><rect codeLine="20" fill="#F1F1F1" height="66.6211" id="ListApplicationsService" rx="2.5" ry="2.5" style="stroke:#181818;stroke-width:0.5;" width="177" x="11" y="300.6211"/><ellipse cx="26" cy="316.6211" fill="#ADD1B2" rx="11" ry="11" style="stroke:#181818;stroke-width:1.0;"/><path d="M28.7656,312.4961 Q28.9219,312.2773 29.1094,312.168 Q29.2969,312.0586 29.5156,312.0586 Q29.8906,312.0586 30.125,312.3242 Q30.3594,312.5742 30.3594,313.1836 L30.3594,314.6367 Q30.3594,315.2461 30.125,315.5117 Q29.8906,315.7773 29.5156,315.7773 Q29.1719,315.7773 28.9688,315.5742 Q28.7656,315.3867 28.6563,314.8711 Q28.6094,314.5117 28.4219,314.3242 Q28.0938,313.9492 27.4844,313.7305 Q26.875,313.5117 26.25,313.5117 Q25.4844,313.5117 24.8438,313.8398 Q24.2188,314.168 23.7188,314.918 Q23.2344,315.668 23.2344,316.6992 L23.2344,317.793 Q23.2344,319.0273 24.125,319.8555 Q25.0156,320.668 26.6094,320.668 Q27.5469,320.668 28.2031,320.418 Q28.5938,320.2617 29.0156,319.8242 Q29.2813,319.5586 29.4219,319.4805 Q29.5781,319.4023 29.7813,319.4023 Q30.1094,319.4023 30.3594,319.668 Q30.625,319.918 30.625,320.2617 Q30.625,320.6055 30.2813,321.0117 Q29.7813,321.5898 28.9844,321.918 Q27.9063,322.3711 26.6094,322.3711 Q25.0938,322.3711 23.8906,321.7461 Q22.9063,321.2461 22.2188,320.1836 Q21.5313,319.1055 21.5313,317.8242 L21.5313,316.668 Q21.5313,315.3398 22.1406,314.1992 Q22.7656,313.043 23.8594,312.4336 Q24.9531,311.8086 26.1875,311.8086 Q26.9219,311.8086 27.5625,311.9805 Q28.2188,312.1367 28.7656,312.4961 Z " fill="#000000"/><text fill="#000000" font-family="sans-serif" font-size="14" lengthAdjust="spacing" textLength="145" x="40" y="322.418">ListApplicationsService</text><line style="stroke:#181818;stroke-width:0.5;" x1="12" x2="187" y1="332.6211" y2="332.6211"/><line style="stroke:#181818;stroke-width:0.5;" x1="12" x2="187" y1="340.6211" y2="340.6211"/><ellipse cx="22" cy="355.4316" fill="#84BE84" rx="3" ry="3" style="stroke:#038048;stroke-width:1.0;"/><text fill="#000000" font-family="sans-serif" font-size="14" lengthAdjust="spacing" textLength="114" x="31" y="359.7285">findByJobOfferId()</text></g><!--link ListApplicationsUI to Runnable--><g id="link_ListApplicationsUI_Runnable"><path codeLine="24" d="M170.62,80.1211 C182.35,80.1211 176.08,80.1211 187.8,80.1211 " fill="none" id="ListApplicationsUI-to-Runnable" style="stroke:#181818;stroke-width:1.0;"/><polygon fill="none" points="205.8,80.1211,187.8,74.1211,187.8,86.1211,205.8,80.1211" style="stroke:#181818;stroke-width:1.0;"/></g><!--link ListApplicationsUI to ListApplicationController--><g id="link_ListApplicationsUI_ListApplicationController"><path codeLine="25" d="M99.5,113.6411 C99.5,132.0111 99.5,148.9111 99.5,167.3311 " fill="none" id="ListApplicationsUI-to-ListApplicationController" style="stroke:#181818;stroke-width:1.0;stroke-dasharray:7.0,7.0;"/><polygon fill="#181818" points="99.5,173.3311,103.5,164.3311,99.5,168.3311,95.5,164.3311,99.5,173.3311" style="stroke:#181818;stroke-width:1.0;"/></g><!--link ListApplicationController to ListApplicationsService--><g id="link_ListApplicationController_ListApplicationsService"><path codeLine="26" d="M99.5,240.6411 C99.5,259.0111 99.5,275.9111 99.5,294.3311 " fill="none" id="ListApplicationController-to-ListApplicationsService" style="stroke:#181818;stroke-width:1.0;stroke-dasharray:7.0,7.0;"/><polygon fill="#181818" points="99.5,300.3311,103.5,291.3311,99.5,295.3311,95.5,291.3311,99.5,300.3311" style="stroke:#181818;stroke-width:1.0;"/></g><!--link ListApplicationsService to ApplicationRepository--><g id="link_ListApplicationsService_ApplicationRepository"><path codeLine="27" d="M188.06,334.1211 C199.57,334.1211 205.08,334.1211 216.59,334.1211 " fill="none" id="ListApplicationsService-to-ApplicationRepository" style="stroke:#181818;stroke-width:1.0;stroke-dasharray:7.0,7.0;"/><polygon fill="#181818" points="222.59,334.1211,213.59,330.1211,217.59,334.1211,213.59,338.1211,222.59,334.1211" style="stroke:#181818;stroke-width:1.0;"/></g><!--SRC=[ZP312i8m44Jl-nKvAcBnwAaGAqYa8hJq0z8qWOMGb2GLYlhl5iHQIWhTu-wyPMO21Yr9bHsE9CjfMP8pevU2tW3G1EaK5v8KdJ6y7cHF8CFiYElCPWjl0A6vzoH77sZRQXGye3M-OYkLcJN1MQsb6m4z-pMb9_j2jjPZiAvVHSuTbj8zKFm3AJJDgR_Q-gwKTApvif5S-rSwrX6x9qcw71AMuqUudqbOCZyWqKRW0m00]--></g></svg>