<?xml version="1.0" encoding="us-ascii" standalone="no"?><svg xmlns="http://www.w3.org/2000/svg" xmlns:xlink="http://www.w3.org/1999/xlink" contentStyleType="text/css" height="374px" preserveAspectRatio="none" style="width:363px;height:374px;background:#FFFFFF;" version="1.1" viewBox="0 0 363 374" width="363px" zoomAndPan="magnify"><defs/><g><text fill="#000000" font-family="sans-serif" font-size="14" font-weight="bold" lengthAdjust="spacing" textLength="155" x="97.25" y="25.1074">UC09 CLASS DIAGRAM</text><!--class Runnable--><g id="elem_Runnable"><rect codeLine="4" fill="#F1F1F1" height="66.6211" id="Runnable" rx="2.5" ry="2.5" style="stroke:#181818;stroke-width:0.5;" width="93" x="263.5" y="46.6211"/><ellipse cx="278.5" cy="62.6211" fill="#B4A7E5" rx="11" ry="11" style="stroke:#181818;stroke-width:1.0;"/><path d="M279.5156,67.4961 L280.25,67.4961 L280.25,69.4805 L276.7188,69.4805 L276.7188,67.4961 L277.4531,67.4961 L277.4531,57.9961 L276.7188,57.9961 L276.7188,56.0117 L280.25,56.0117 L280.25,57.9961 L279.5156,57.9961 L279.5156,67.4961 Z " fill="#000000"/><text fill="#000000" font-family="sans-serif" font-size="14" font-style="italic" lengthAdjust="spacing" textLength="61" x="292.5" y="68.418">Runnable</text><line style="stroke:#181818;stroke-width:0.5;" x1="264.5" x2="355.5" y1="78.6211" y2="78.6211"/><line style="stroke:#181818;stroke-width:0.5;" x1="264.5" x2="355.5" y1="86.6211" y2="86.6211"/><ellipse cx="274.5" cy="101.4316" fill="#84BE84" rx="3" ry="3" style="stroke:#038048;stroke-width:1.0;"/><text fill="#000000" font-family="sans-serif" font-size="14" lengthAdjust="spacing" textLength="31" x="283.5" y="105.7285">run()</text></g><!--class ShowCandidateDetailsUI--><g id="elem_ShowCandidateDetailsUI"><rect codeLine="8" fill="#F1F1F1" height="66.6211" id="ShowCandidateDetailsUI" rx="2.5" ry="2.5" style="stroke:#181818;stroke-width:0.5;" width="186" x="42" y="46.6211"/><ellipse cx="57" cy="62.6211" fill="#ADD1B2" rx="11" ry="11" style="stroke:#181818;stroke-width:1.0;"/><path d="M60.5156,63.9805 Q60.2969,67.3555 59.1563,68.4805 Q58.1563,69.4805 56.7813,69.4805 Q55.4063,69.4805 54.4063,68.4805 Q52.6719,66.7461 52.6719,63.1055 Q52.6719,58.8867 54.5313,57.0117 Q55.5469,56.0117 56.8438,56.0117 Q58.2188,56.0117 59.0313,56.8086 Q60.5,58.293 60.4375,61.0586 L58.4375,61.0586 Q58.375,58.7773 57.7188,58.1211 Q57.4063,57.793 56.8438,57.793 Q56.3594,57.793 55.9688,58.1836 Q54.7188,59.4336 54.7188,62.9805 Q54.7188,66.0586 55.7813,67.1055 Q56.2344,67.5586 56.7813,67.5586 Q57.2656,67.5586 57.7188,67.1055 Q58.3125,66.5273 58.375,63.9805 L60.5156,63.9805 Z " fill="#000000"/><text fill="#000000" font-family="sans-serif" font-size="14" lengthAdjust="spacing" textLength="154" x="71" y="68.418">ShowCandidateDetailsUI</text><line style="stroke:#181818;stroke-width:0.5;" x1="43" x2="227" y1="78.6211" y2="78.6211"/><line style="stroke:#181818;stroke-width:0.5;" x1="43" x2="227" y1="86.6211" y2="86.6211"/><ellipse cx="53" cy="101.4316" fill="#84BE84" rx="3" ry="3" style="stroke:#038048;stroke-width:1.0;"/><text fill="#000000" font-family="sans-serif" font-size="14" lengthAdjust="spacing" textLength="31" x="62" y="105.7285">run()</text></g><!--class ShowCandidateDetailsController--><g id="elem_ShowCandidateDetailsController"><rect codeLine="12" fill="#F1F1F1" height="66.6211" id="ShowCandidateDetailsController" rx="2.5" ry="2.5" style="stroke:#181818;stroke-width:0.5;" width="256" x="7" y="173.6211"/><ellipse cx="31" cy="189.6211" fill="#ADD1B2" rx="11" ry="11" style="stroke:#181818;stroke-width:1.0;"/><path d="M34.5156,190.9805 Q34.2969,194.3555 33.1563,195.4805 Q32.1563,196.4805 30.7813,196.4805 Q29.4063,196.4805 28.4063,195.4805 Q26.6719,193.7461 26.6719,190.1055 Q26.6719,185.8867 28.5313,184.0117 Q29.5469,183.0117 30.8438,183.0117 Q32.2188,183.0117 33.0313,183.8086 Q34.5,185.293 34.4375,188.0586 L32.4375,188.0586 Q32.375,185.7773 31.7188,185.1211 Q31.4063,184.793 30.8438,184.793 Q30.3594,184.793 29.9688,185.1836 Q28.7188,186.4336 28.7188,189.9805 Q28.7188,193.0586 29.7813,194.1055 Q30.2344,194.5586 30.7813,194.5586 Q31.2656,194.5586 31.7188,194.1055 Q32.3125,193.5273 32.375,190.9805 L34.5156,190.9805 Z " fill="#000000"/><text fill="#000000" font-family="sans-serif" font-size="14" lengthAdjust="spacing" textLength="204" x="47" y="195.418">ShowCandidateDetailsController</text><line style="stroke:#181818;stroke-width:0.5;" x1="8" x2="262" y1="205.6211" y2="205.6211"/><line style="stroke:#181818;stroke-width:0.5;" x1="8" x2="262" y1="213.6211" y2="213.6211"/><ellipse cx="18" cy="228.4316" fill="#84BE84" rx="3" ry="3" style="stroke:#038048;stroke-width:1.0;"/><text fill="#000000" font-family="sans-serif" font-size="14" lengthAdjust="spacing" textLength="230" x="27" y="232.7285">getCandidateDetails(int candidateId)</text></g><!--class CandidateRepository--><g id="elem_CandidateRepository"><rect codeLine="16" fill="#F1F1F1" height="66.6211" id="CandidateRepository" rx="2.5" ry="2.5" style="stroke:#181818;stroke-width:0.5;" width="256" x="7" y="300.6211"/><ellipse cx="64.25" cy="316.6211" fill="#ADD1B2" rx="11" ry="11" style="stroke:#181818;stroke-width:1.0;"/><path d="M67.7656,317.9805 Q67.5469,321.3555 66.4063,322.4805 Q65.4063,323.4805 64.0313,323.4805 Q62.6563,323.4805 61.6563,322.4805 Q59.9219,320.7461 59.9219,317.1055 Q59.9219,312.8867 61.7813,311.0117 Q62.7969,310.0117 64.0938,310.0117 Q65.4688,310.0117 66.2813,310.8086 Q67.75,312.293 67.6875,315.0586 L65.6875,315.0586 Q65.625,312.7773 64.9688,312.1211 Q64.6563,311.793 64.0938,311.793 Q63.6094,311.793 63.2188,312.1836 Q61.9688,313.4336 61.9688,316.9805 Q61.9688,320.0586 63.0313,321.1055 Q63.4844,321.5586 64.0313,321.5586 Q64.5156,321.5586 64.9688,321.1055 Q65.5625,320.5273 65.625,317.9805 L67.7656,317.9805 Z " fill="#000000"/><text fill="#000000" font-family="sans-serif" font-size="14" lengthAdjust="spacing" textLength="133" x="84.75" y="322.418">CandidateRepository</text><line style="stroke:#181818;stroke-width:0.5;" x1="8" x2="262" y1="332.6211" y2="332.6211"/><line style="stroke:#181818;stroke-width:0.5;" x1="8" x2="262" y1="340.6211" y2="340.6211"/><ellipse cx="18" cy="355.4316" fill="#84BE84" rx="3" ry="3" style="stroke:#038048;stroke-width:1.0;"/><text fill="#000000" font-family="sans-serif" font-size="14" lengthAdjust="spacing" textLength="230" x="27" y="359.7285">getCandidateDetails(int candidateId)</text></g><!--link ShowCandidateDetailsUI to Runnable--><g id="link_ShowCandidateDetailsUI_Runnable"><path codeLine="20" d="M228.31,80.1211 C240.01,80.1211 233.71,80.1211 245.41,80.1211 " fill="none" id="ShowCandidateDetailsUI-to-Runnable" style="stroke:#181818;stroke-width:1.0;"/><polygon fill="none" points="263.41,80.1211,245.41,74.1211,245.41,86.1211,263.41,80.1211" style="stroke:#181818;stroke-width:1.0;"/></g><!--link ShowCandidateDetailsUI to ShowCandidateDetailsController--><g id="link_ShowCandidateDetailsUI_ShowCandidateDetailsController"><path codeLine="21" d="M135,113.6411 C135,132.0111 135,148.9111 135,167.3311 " fill="none" id="ShowCandidateDetailsUI-to-ShowCandidateDetailsController" style="stroke:#181818;stroke-width:1.0;stroke-dasharray:7.0,7.0;"/><polygon fill="#181818" points="135,173.3311,139,164.3311,135,168.3311,131,164.3311,135,173.3311" style="stroke:#181818;stroke-width:1.0;"/></g><!--link ShowCandidateDetailsController to CandidateRepository--><g id="link_ShowCandidateDetailsController_CandidateRepository"><path codeLine="22" d="M135,240.6411 C135,259.0111 135,275.9111 135,294.3311 " fill="none" id="ShowCandidateDetailsController-to-CandidateRepository" style="stroke:#181818;stroke-width:1.0;stroke-dasharray:7.0,7.0;"/><polygon fill="#181818" points="135,300.3311,139,291.3311,135,295.3311,131,291.3311,135,300.3311" style="stroke:#181818;stroke-width:1.0;"/></g><!--SRC=[bP312i8m38RlUOeS9-BmwcKmEf21NZRs07MDMYYjj1aYwhjR3nOHnrYEuVj_yeKr6y9Eh3SeTcNRObMNswRS0sZBv8-o9sm6Q-KXOdV0E4lqWyqMy0JeZGm1sxEx2ccLLfAf8fRQXAwUGmjdsJjZoAVKYVYNok99s7-MjVegJMX35nSqEt-RtJIYiNeKwGDZJ9uN4rumeVrk-2C1Bm00]--></g></svg>