<?xml version="1.0" encoding="us-ascii" standalone="no"?><svg xmlns="http://www.w3.org/2000/svg" xmlns:xlink="http://www.w3.org/1999/xlink" contentStyleType="text/css" height="517px" preserveAspectRatio="none" style="width:402px;height:517px;background:#FFFFFF;" version="1.1" viewBox="0 0 402 517" width="402px" zoomAndPan="magnify"><defs/><g><!--class LoginUI--><g id="elem_LoginUI"><rect codeLine="2" fill="#F1F1F1" height="66.6211" id="LoginUI" rx="2.5" ry="2.5" style="stroke:#181818;stroke-width:0.5;" width="79" x="159.5" y="7"/><ellipse cx="174.5" cy="23" fill="#ADD1B2" rx="11" ry="11" style="stroke:#181818;stroke-width:1.0;"/><path d="M177.2656,18.875 Q177.4219,18.6563 177.6094,18.5469 Q177.7969,18.4375 178.0156,18.4375 Q178.3906,18.4375 178.625,18.7031 Q178.8594,18.9531 178.8594,19.5625 L178.8594,21.0156 Q178.8594,21.625 178.625,21.8906 Q178.3906,22.1563 178.0156,22.1563 Q177.6719,22.1563 177.4688,21.9531 Q177.2656,21.7656 177.1563,21.25 Q177.1094,20.8906 176.9219,20.7031 Q176.5938,20.3281 175.9844,20.1094 Q175.375,19.8906 174.75,19.8906 Q173.9844,19.8906 173.3438,20.2188 Q172.7188,20.5469 172.2188,21.2969 Q171.7344,22.0469 171.7344,23.0781 L171.7344,24.1719 Q171.7344,25.4063 172.625,26.2344 Q173.5156,27.0469 175.1094,27.0469 Q176.0469,27.0469 176.7031,26.7969 Q177.0938,26.6406 177.5156,26.2031 Q177.7813,25.9375 177.9219,25.8594 Q178.0781,25.7813 178.2813,25.7813 Q178.6094,25.7813 178.8594,26.0469 Q179.125,26.2969 179.125,26.6406 Q179.125,26.9844 178.7813,27.3906 Q178.2813,27.9688 177.4844,28.2969 Q176.4063,28.75 175.1094,28.75 Q173.5938,28.75 172.3906,28.125 Q171.4063,27.625 170.7188,26.5625 Q170.0313,25.4844 170.0313,24.2031 L170.0313,23.0469 Q170.0313,21.7188 170.6406,20.5781 Q171.2656,19.4219 172.3594,18.8125 Q173.4531,18.1875 174.6875,18.1875 Q175.4219,18.1875 176.0625,18.3594 Q176.7188,18.5156 177.2656,18.875 Z " fill="#000000"/><text fill="#000000" font-family="sans-serif" font-size="14" lengthAdjust="spacing" textLength="47" x="188.5" y="28.7969">LoginUI</text><line style="stroke:#181818;stroke-width:0.5;" x1="160.5" x2="237.5" y1="39" y2="39"/><line style="stroke:#181818;stroke-width:0.5;" x1="160.5" x2="237.5" y1="47" y2="47"/><ellipse cx="170.5" cy="61.8105" fill="#84BE84" rx="3" ry="3" style="stroke:#038048;stroke-width:1.0;"/><text fill="#000000" font-family="sans-serif" font-size="14" lengthAdjust="spacing" textLength="31" x="179.5" y="66.1074">run()</text></g><!--class AuthenticationController--><g id="elem_AuthenticationController"><rect codeLine="6" fill="#F1F1F1" height="103.8633" id="AuthenticationController" rx="2.5" ry="2.5" style="stroke:#181818;stroke-width:0.5;" width="184" x="107" y="134"/><ellipse cx="122" cy="150" fill="#ADD1B2" rx="11" ry="11" style="stroke:#181818;stroke-width:1.0;"/><path d="M124.7656,145.875 Q124.9219,145.6563 125.1094,145.5469 Q125.2969,145.4375 125.5156,145.4375 Q125.8906,145.4375 126.125,145.7031 Q126.3594,145.9531 126.3594,146.5625 L126.3594,148.0156 Q126.3594,148.625 126.125,148.8906 Q125.8906,149.1563 125.5156,149.1563 Q125.1719,149.1563 124.9688,148.9531 Q124.7656,148.7656 124.6563,148.25 Q124.6094,147.8906 124.4219,147.7031 Q124.0938,147.3281 123.4844,147.1094 Q122.875,146.8906 122.25,146.8906 Q121.4844,146.8906 120.8438,147.2188 Q120.2188,147.5469 119.7188,148.2969 Q119.2344,149.0469 119.2344,150.0781 L119.2344,151.1719 Q119.2344,152.4063 120.125,153.2344 Q121.0156,154.0469 122.6094,154.0469 Q123.5469,154.0469 124.2031,153.7969 Q124.5938,153.6406 125.0156,153.2031 Q125.2813,152.9375 125.4219,152.8594 Q125.5781,152.7813 125.7813,152.7813 Q126.1094,152.7813 126.3594,153.0469 Q126.625,153.2969 126.625,153.6406 Q126.625,153.9844 126.2813,154.3906 Q125.7813,154.9688 124.9844,155.2969 Q123.9063,155.75 122.6094,155.75 Q121.0938,155.75 119.8906,155.125 Q118.9063,154.625 118.2188,153.5625 Q117.5313,152.4844 117.5313,151.2031 L117.5313,150.0469 Q117.5313,148.7188 118.1406,147.5781 Q118.7656,146.4219 119.8594,145.8125 Q120.9531,145.1875 122.1875,145.1875 Q122.9219,145.1875 123.5625,145.3594 Q124.2188,145.5156 124.7656,145.875 Z " fill="#000000"/><text fill="#000000" font-family="sans-serif" font-size="14" lengthAdjust="spacing" textLength="152" x="136" y="155.7969">AuthenticationController</text><line style="stroke:#181818;stroke-width:0.5;" x1="108" x2="290" y1="166" y2="166"/><rect fill="none" height="6" style="stroke:#C82930;stroke-width:1.0;" width="6" x="115" y="177.8105"/><text fill="#000000" font-family="sans-serif" font-size="14" lengthAdjust="spacing" textLength="145" x="127" y="185.1074">authenticationManager</text><rect fill="none" height="6" style="stroke:#C82930;stroke-width:1.0;" width="6" x="115" y="196.4316"/><text fill="#000000" font-family="sans-serif" font-size="14" lengthAdjust="spacing" textLength="128" x="127" y="203.7285">authorizationService</text><line style="stroke:#181818;stroke-width:0.5;" x1="108" x2="290" y1="211.2422" y2="211.2422"/><ellipse cx="118" cy="226.0527" fill="#84BE84" rx="3" ry="3" style="stroke:#038048;stroke-width:1.0;"/><text fill="#000000" font-family="sans-serif" font-size="14" lengthAdjust="spacing" textLength="40" x="127" y="230.3496">login()</text></g><!--class AuthenticationService--><g id="elem_AuthenticationService"><rect codeLine="12" fill="#F1F1F1" height="66.6211" id="AuthenticationService" rx="2.5" ry="2.5" style="stroke:#181818;stroke-width:0.5;" width="172" x="7" y="316.5"/><ellipse cx="23.35" cy="332.5" fill="#ADD1B2" rx="11" ry="11" style="stroke:#181818;stroke-width:1.0;"/><path d="M26.1156,328.375 Q26.2719,328.1563 26.4594,328.0469 Q26.6469,327.9375 26.8656,327.9375 Q27.2406,327.9375 27.475,328.2031 Q27.7094,328.4531 27.7094,329.0625 L27.7094,330.5156 Q27.7094,331.125 27.475,331.3906 Q27.2406,331.6563 26.8656,331.6563 Q26.5219,331.6563 26.3188,331.4531 Q26.1156,331.2656 26.0063,330.75 Q25.9594,330.3906 25.7719,330.2031 Q25.4438,329.8281 24.8344,329.6094 Q24.225,329.3906 23.6,329.3906 Q22.8344,329.3906 22.1938,329.7188 Q21.5688,330.0469 21.0688,330.7969 Q20.5844,331.5469 20.5844,332.5781 L20.5844,333.6719 Q20.5844,334.9063 21.475,335.7344 Q22.3656,336.5469 23.9594,336.5469 Q24.8969,336.5469 25.5531,336.2969 Q25.9438,336.1406 26.3656,335.7031 Q26.6313,335.4375 26.7719,335.3594 Q26.9281,335.2813 27.1313,335.2813 Q27.4594,335.2813 27.7094,335.5469 Q27.975,335.7969 27.975,336.1406 Q27.975,336.4844 27.6313,336.8906 Q27.1313,337.4688 26.3344,337.7969 Q25.2563,338.25 23.9594,338.25 Q22.4438,338.25 21.2406,337.625 Q20.2563,337.125 19.5688,336.0625 Q18.8813,334.9844 18.8813,333.7031 L18.8813,332.5469 Q18.8813,331.2188 19.4906,330.0781 Q20.1156,328.9219 21.2094,328.3125 Q22.3031,327.6875 23.5375,327.6875 Q24.2719,327.6875 24.9125,327.8594 Q25.5688,328.0156 26.1156,328.375 Z " fill="#000000"/><text fill="#000000" font-family="sans-serif" font-size="14" lengthAdjust="spacing" textLength="137" x="37.65" y="338.2969">AuthenticationService</text><line style="stroke:#181818;stroke-width:0.5;" x1="8" x2="178" y1="348.5" y2="348.5"/><line style="stroke:#181818;stroke-width:0.5;" x1="8" x2="178" y1="356.5" y2="356.5"/><ellipse cx="18" cy="371.3105" fill="#84BE84" rx="3" ry="3" style="stroke:#038048;stroke-width:1.0;"/><text fill="#000000" font-family="sans-serif" font-size="14" lengthAdjust="spacing" textLength="146" x="27" y="375.6074">loadUserByUsername()</text></g><!--class SecurityConfig--><g id="elem_SecurityConfig"><rect codeLine="16" fill="#F1F1F1" height="103.8633" id="SecurityConfig" rx="2.5" ry="2.5" style="stroke:#181818;stroke-width:0.5;" width="181" x="214.5" y="298"/><ellipse cx="255.15" cy="314" fill="#ADD1B2" rx="11" ry="11" style="stroke:#181818;stroke-width:1.0;"/><path d="M257.9156,309.875 Q258.0719,309.6563 258.2594,309.5469 Q258.4469,309.4375 258.6656,309.4375 Q259.0406,309.4375 259.275,309.7031 Q259.5094,309.9531 259.5094,310.5625 L259.5094,312.0156 Q259.5094,312.625 259.275,312.8906 Q259.0406,313.1563 258.6656,313.1563 Q258.3219,313.1563 258.1188,312.9531 Q257.9156,312.7656 257.8063,312.25 Q257.7594,311.8906 257.5719,311.7031 Q257.2438,311.3281 256.6344,311.1094 Q256.025,310.8906 255.4,310.8906 Q254.6344,310.8906 253.9938,311.2188 Q253.3688,311.5469 252.8688,312.2969 Q252.3844,313.0469 252.3844,314.0781 L252.3844,315.1719 Q252.3844,316.4063 253.275,317.2344 Q254.1656,318.0469 255.7594,318.0469 Q256.6969,318.0469 257.3531,317.7969 Q257.7438,317.6406 258.1656,317.2031 Q258.4313,316.9375 258.5719,316.8594 Q258.7281,316.7813 258.9313,316.7813 Q259.2594,316.7813 259.5094,317.0469 Q259.775,317.2969 259.775,317.6406 Q259.775,317.9844 259.4313,318.3906 Q258.9313,318.9688 258.1344,319.2969 Q257.0563,319.75 255.7594,319.75 Q254.2438,319.75 253.0406,319.125 Q252.0563,318.625 251.3688,317.5625 Q250.6813,316.4844 250.6813,315.2031 L250.6813,314.0469 Q250.6813,312.7188 251.2906,311.5781 Q251.9156,310.4219 253.0094,309.8125 Q254.1031,309.1875 255.3375,309.1875 Q256.0719,309.1875 256.7125,309.3594 Q257.3688,309.5156 257.9156,309.875 Z " fill="#000000"/><text fill="#000000" font-family="sans-serif" font-size="14" lengthAdjust="spacing" textLength="92" x="274.85" y="319.7969">SecurityConfig</text><line style="stroke:#181818;stroke-width:0.5;" x1="215.5" x2="394.5" y1="330" y2="330"/><rect fill="none" height="6" style="stroke:#C82930;stroke-width:1.0;" width="6" x="222.5" y="341.8105"/><text fill="#000000" font-family="sans-serif" font-size="14" lengthAdjust="spacing" textLength="128" x="234.5" y="349.1074">authorizationService</text><line style="stroke:#181818;stroke-width:0.5;" x1="215.5" x2="394.5" y1="356.6211" y2="356.6211"/><rect fill="#F24D5C" height="6" style="stroke:#C82930;stroke-width:1.0;" width="6" x="222.5" y="368.4316"/><text fill="#000000" font-family="sans-serif" font-size="14" lengthAdjust="spacing" textLength="123" x="234.5" y="375.7285">passwordEncoder()</text><ellipse cx="225.5" cy="390.0527" fill="#84BE84" rx="3" ry="3" style="stroke:#038048;stroke-width:1.0;"/><text fill="#000000" font-family="sans-serif" font-size="14" lengthAdjust="spacing" textLength="155" x="234.5" y="394.3496">authenticationManager()</text></g><!--class UserRepository--><g id="elem_UserRepository"><rect codeLine="22" fill="#F1F1F1" height="48" id="UserRepository" rx="2.5" ry="2.5" style="stroke:#181818;stroke-width:0.5;" width="129" x="28.5" y="462"/><ellipse cx="43.5" cy="478" fill="#ADD1B2" rx="11" ry="11" style="stroke:#181818;stroke-width:1.0;"/><path d="M46.2656,473.875 Q46.4219,473.6563 46.6094,473.5469 Q46.7969,473.4375 47.0156,473.4375 Q47.3906,473.4375 47.625,473.7031 Q47.8594,473.9531 47.8594,474.5625 L47.8594,476.0156 Q47.8594,476.625 47.625,476.8906 Q47.3906,477.1563 47.0156,477.1563 Q46.6719,477.1563 46.4688,476.9531 Q46.2656,476.7656 46.1563,476.25 Q46.1094,475.8906 45.9219,475.7031 Q45.5938,475.3281 44.9844,475.1094 Q44.375,474.8906 43.75,474.8906 Q42.9844,474.8906 42.3438,475.2188 Q41.7188,475.5469 41.2188,476.2969 Q40.7344,477.0469 40.7344,478.0781 L40.7344,479.1719 Q40.7344,480.4063 41.625,481.2344 Q42.5156,482.0469 44.1094,482.0469 Q45.0469,482.0469 45.7031,481.7969 Q46.0938,481.6406 46.5156,481.2031 Q46.7813,480.9375 46.9219,480.8594 Q47.0781,480.7813 47.2813,480.7813 Q47.6094,480.7813 47.8594,481.0469 Q48.125,481.2969 48.125,481.6406 Q48.125,481.9844 47.7813,482.3906 Q47.2813,482.9688 46.4844,483.2969 Q45.4063,483.75 44.1094,483.75 Q42.5938,483.75 41.3906,483.125 Q40.4063,482.625 39.7188,481.5625 Q39.0313,480.4844 39.0313,479.2031 L39.0313,478.0469 Q39.0313,476.7188 39.6406,475.5781 Q40.2656,474.4219 41.3594,473.8125 Q42.4531,473.1875 43.6875,473.1875 Q44.4219,473.1875 45.0625,473.3594 Q45.7188,473.5156 46.2656,473.875 Z " fill="#000000"/><text fill="#000000" font-family="sans-serif" font-size="14" lengthAdjust="spacing" textLength="97" x="57.5" y="483.7969">UserRepository</text><line style="stroke:#181818;stroke-width:0.5;" x1="29.5" x2="156.5" y1="494" y2="494"/><line style="stroke:#181818;stroke-width:0.5;" x1="29.5" x2="156.5" y1="502" y2="502"/></g><!--link LoginUI to AuthenticationController--><g id="link_LoginUI_AuthenticationController"><path codeLine="26" d="M199,74.06 C199,91.76 199,108.04 199,127.99 " fill="none" id="LoginUI-to-AuthenticationController" style="stroke:#181818;stroke-width:1.0;stroke-dasharray:7.0,7.0;"/><polygon fill="#181818" points="199,133.99,203,124.99,199,128.99,195,124.99,199,133.99" style="stroke:#181818;stroke-width:1.0;"/></g><!--link AuthenticationController to SecurityConfig--><g id="link_AuthenticationController_SecurityConfig"><path codeLine="27" d="M232.54,238.26 C244.97,257.26 255.7852,273.779 268.2152,292.779 " fill="none" id="AuthenticationController-to-SecurityConfig" style="stroke:#181818;stroke-width:1.0;stroke-dasharray:7.0,7.0;"/><polygon fill="#181818" points="271.5,297.8,269.9202,288.0787,268.7627,293.6159,263.2255,292.4584,271.5,297.8" style="stroke:#181818;stroke-width:1.0;"/></g><!--link AuthenticationController to AuthenticationService--><g id="link_AuthenticationController_AuthenticationService"><path codeLine="28" d="M165.46,238.26 C148.72,263.84 132.2551,288.9992 117.6051,311.3892 " fill="none" id="AuthenticationController-to-AuthenticationService" style="stroke:#181818;stroke-width:1.0;stroke-dasharray:7.0,7.0;"/><polygon fill="#181818" points="114.32,316.41,122.5949,311.069,117.0576,312.226,115.9005,306.6888,114.32,316.41" style="stroke:#181818;stroke-width:1.0;"/></g><!--link AuthenticationService to UserRepository--><g id="link_AuthenticationService_UserRepository"><path codeLine="29" d="M93,383.78 C93,407.95 93,434.25 93,455.8 " fill="none" id="AuthenticationService-to-UserRepository" style="stroke:#181818;stroke-width:1.0;stroke-dasharray:7.0,7.0;"/><polygon fill="#181818" points="93,461.8,97,452.8,93,456.8,89,452.8,93,461.8" style="stroke:#181818;stroke-width:1.0;"/></g><!--SRC=[VP112i8m44NtEKMMYjGZ22ek1DrOUe2GZZKGPyeaLQfuTvDQfONKB6Rp_-Jz-Tegv-I1AeF5NZw536yXkS7PNBo4q9syRlm5q1kjl27S4decQu5xVoRLo71Kg2hWWKPi7fsK0z-CXXvZ8tOQr9j_gIofid30cpPEL5SOxkQW6pQ-3V7EfXf5I-8pMOUrEt6vGqqbSFZimqbUCqH5_0bgSiOJjm4LfM-7o-LgiZ0nsMJS6b_mtvjiIgJxY_vnPF46]--></g></svg>