<?xml version="1.0" encoding="us-ascii" standalone="no"?><svg xmlns="http://www.w3.org/2000/svg" xmlns:xlink="http://www.w3.org/1999/xlink" contentStyleType="text/css" height="408px" preserveAspectRatio="none" style="width:1400px;height:408px;background:#FFFFFF;" version="1.1" viewBox="0 0 1400 408" width="1400px" zoomAndPan="magnify"><defs/><g><!--class ScheduleInterviewUI--><g id="elem_ScheduleInterviewUI"><rect codeLine="2" fill="#F1F1F1" height="66.6211" id="ScheduleInterviewUI" rx="2.5" ry="2.5" style="stroke:#181818;stroke-width:0.5;" width="158" x="420.5" y="7"/><ellipse cx="435.5" cy="23" fill="#ADD1B2" rx="11" ry="11" style="stroke:#181818;stroke-width:1.0;"/><path d="M439.0156,24.3594 Q438.7969,27.7344 437.6563,28.8594 Q436.6563,29.8594 435.2813,29.8594 Q433.9063,29.8594 432.9063,28.8594 Q431.1719,27.125 431.1719,23.4844 Q431.1719,19.2656 433.0313,17.3906 Q434.0469,16.3906 435.3438,16.3906 Q436.7188,16.3906 437.5313,17.1875 Q439,18.6719 438.9375,21.4375 L436.9375,21.4375 Q436.875,19.1563 436.2188,18.5 Q435.9063,18.1719 435.3438,18.1719 Q434.8594,18.1719 434.4688,18.5625 Q433.2188,19.8125 433.2188,23.3594 Q433.2188,26.4375 434.2813,27.4844 Q434.7344,27.9375 435.2813,27.9375 Q435.7656,27.9375 436.2188,27.4844 Q436.8125,26.9063 436.875,24.3594 L439.0156,24.3594 Z " fill="#000000"/><text fill="#000000" font-family="sans-serif" font-size="14" lengthAdjust="spacing" textLength="126" x="449.5" y="28.7969">ScheduleInterviewUI</text><line style="stroke:#181818;stroke-width:0.5;" x1="421.5" x2="577.5" y1="39" y2="39"/><line style="stroke:#181818;stroke-width:0.5;" x1="421.5" x2="577.5" y1="47" y2="47"/><ellipse cx="431.5" cy="61.8105" fill="#84BE84" rx="3" ry="3" style="stroke:#038048;stroke-width:1.0;"/><text fill="#000000" font-family="sans-serif" font-size="14" lengthAdjust="spacing" textLength="31" x="440.5" y="66.1074">run()</text></g><!--class ScheduleInterviewController--><g id="elem_ScheduleInterviewController"><rect codeLine="6" fill="#F1F1F1" height="122.4844" id="ScheduleInterviewController" rx="2.5" ry="2.5" style="stroke:#181818;stroke-width:0.5;" width="394" x="302.5" y="134"/><ellipse cx="407.25" cy="150" fill="#ADD1B2" rx="11" ry="11" style="stroke:#181818;stroke-width:1.0;"/><path d="M410.7656,151.3594 Q410.5469,154.7344 409.4063,155.8594 Q408.4063,156.8594 407.0313,156.8594 Q405.6563,156.8594 404.6563,155.8594 Q402.9219,154.125 402.9219,150.4844 Q402.9219,146.2656 404.7813,144.3906 Q405.7969,143.3906 407.0938,143.3906 Q408.4688,143.3906 409.2813,144.1875 Q410.75,145.6719 410.6875,148.4375 L408.6875,148.4375 Q408.625,146.1563 407.9688,145.5 Q407.6563,145.1719 407.0938,145.1719 Q406.6094,145.1719 406.2188,145.5625 Q404.9688,146.8125 404.9688,150.3594 Q404.9688,153.4375 406.0313,154.4844 Q406.4844,154.9375 407.0313,154.9375 Q407.5156,154.9375 407.9688,154.4844 Q408.5625,153.9063 408.625,151.3594 L410.7656,151.3594 Z " fill="#000000"/><text fill="#000000" font-family="sans-serif" font-size="14" lengthAdjust="spacing" textLength="176" x="427.75" y="155.7969">ScheduleInterviewController</text><line style="stroke:#181818;stroke-width:0.5;" x1="303.5" x2="695.5" y1="166" y2="166"/><line style="stroke:#181818;stroke-width:0.5;" x1="303.5" x2="695.5" y1="174" y2="174"/><ellipse cx="313.5" cy="188.8105" fill="#84BE84" rx="3" ry="3" style="stroke:#038048;stroke-width:1.0;"/><text fill="#000000" font-family="sans-serif" font-size="14" lengthAdjust="spacing" textLength="245" x="322.5" y="193.1074">getApplicationsByCandidateId(Long id)</text><ellipse cx="313.5" cy="207.4316" fill="#84BE84" rx="3" ry="3" style="stroke:#038048;stroke-width:1.0;"/><text fill="#000000" font-family="sans-serif" font-size="14" lengthAdjust="spacing" textLength="279" x="322.5" y="211.7285">getCandidateIdByEmail(EmailAddress email)</text><ellipse cx="313.5" cy="226.0527" fill="#84BE84" rx="3" ry="3" style="stroke:#038048;stroke-width:1.0;"/><text fill="#000000" font-family="sans-serif" font-size="14" lengthAdjust="spacing" textLength="224" x="322.5" y="230.3496">getJobOpenings(List&lt;Long&gt; jobIds)</text><ellipse cx="313.5" cy="244.6738" fill="#84BE84" rx="3" ry="3" style="stroke:#038048;stroke-width:1.0;"/><text fill="#000000" font-family="sans-serif" font-size="14" lengthAdjust="spacing" textLength="368" x="322.5" y="248.9707">saveApplication(Application application,Interview interview)</text></g><!--class CandidateRepository--><g id="elem_CandidateRepository"><rect codeLine="14" fill="#F1F1F1" height="48" id="CandidateRepository" rx="2.5" ry="2.5" style="stroke:#181818;stroke-width:0.5;" width="165" x="7" y="334.5"/><ellipse cx="22" cy="350.5" fill="#ADD1B2" rx="11" ry="11" style="stroke:#181818;stroke-width:1.0;"/><path d="M25.5156,351.8594 Q25.2969,355.2344 24.1563,356.3594 Q23.1563,357.3594 21.7813,357.3594 Q20.4063,357.3594 19.4063,356.3594 Q17.6719,354.625 17.6719,350.9844 Q17.6719,346.7656 19.5313,344.8906 Q20.5469,343.8906 21.8438,343.8906 Q23.2188,343.8906 24.0313,344.6875 Q25.5,346.1719 25.4375,348.9375 L23.4375,348.9375 Q23.375,346.6563 22.7188,346 Q22.4063,345.6719 21.8438,345.6719 Q21.3594,345.6719 20.9688,346.0625 Q19.7188,347.3125 19.7188,350.8594 Q19.7188,353.9375 20.7813,354.9844 Q21.2344,355.4375 21.7813,355.4375 Q22.2656,355.4375 22.7188,354.9844 Q23.3125,354.4063 23.375,351.8594 L25.5156,351.8594 Z " fill="#000000"/><text fill="#000000" font-family="sans-serif" font-size="14" lengthAdjust="spacing" textLength="133" x="36" y="356.2969">CandidateRepository</text><line style="stroke:#181818;stroke-width:0.5;" x1="8" x2="171" y1="366.5" y2="366.5"/><line style="stroke:#181818;stroke-width:0.5;" x1="8" x2="171" y1="374.5" y2="374.5"/></g><!--class ApplicationRepository--><g id="elem_ApplicationRepository"><rect codeLine="18" fill="#F1F1F1" height="48" id="ApplicationRepository" rx="2.5" ry="2.5" style="stroke:#181818;stroke-width:0.5;" width="169" x="207" y="334.5"/><ellipse cx="222" cy="350.5" fill="#ADD1B2" rx="11" ry="11" style="stroke:#181818;stroke-width:1.0;"/><path d="M225.5156,351.8594 Q225.2969,355.2344 224.1563,356.3594 Q223.1563,357.3594 221.7813,357.3594 Q220.4063,357.3594 219.4063,356.3594 Q217.6719,354.625 217.6719,350.9844 Q217.6719,346.7656 219.5313,344.8906 Q220.5469,343.8906 221.8438,343.8906 Q223.2188,343.8906 224.0313,344.6875 Q225.5,346.1719 225.4375,348.9375 L223.4375,348.9375 Q223.375,346.6563 222.7188,346 Q222.4063,345.6719 221.8438,345.6719 Q221.3594,345.6719 220.9688,346.0625 Q219.7188,347.3125 219.7188,350.8594 Q219.7188,353.9375 220.7813,354.9844 Q221.2344,355.4375 221.7813,355.4375 Q222.2656,355.4375 222.7188,354.9844 Q223.3125,354.4063 223.375,351.8594 L225.5156,351.8594 Z " fill="#000000"/><text fill="#000000" font-family="sans-serif" font-size="14" lengthAdjust="spacing" textLength="137" x="236" y="356.2969">ApplicationRepository</text><line style="stroke:#181818;stroke-width:0.5;" x1="208" x2="375" y1="366.5" y2="366.5"/><line style="stroke:#181818;stroke-width:0.5;" x1="208" x2="375" y1="374.5" y2="374.5"/></g><!--class JobOpeningRepository--><g id="elem_JobOpeningRepository"><rect codeLine="22" fill="#F1F1F1" height="48" id="JobOpeningRepository" rx="2.5" ry="2.5" style="stroke:#181818;stroke-width:0.5;" width="176" x="411.5" y="334.5"/><ellipse cx="426.5" cy="350.5" fill="#ADD1B2" rx="11" ry="11" style="stroke:#181818;stroke-width:1.0;"/><path d="M430.0156,351.8594 Q429.7969,355.2344 428.6563,356.3594 Q427.6563,357.3594 426.2813,357.3594 Q424.9063,357.3594 423.9063,356.3594 Q422.1719,354.625 422.1719,350.9844 Q422.1719,346.7656 424.0313,344.8906 Q425.0469,343.8906 426.3438,343.8906 Q427.7188,343.8906 428.5313,344.6875 Q430,346.1719 429.9375,348.9375 L427.9375,348.9375 Q427.875,346.6563 427.2188,346 Q426.9063,345.6719 426.3438,345.6719 Q425.8594,345.6719 425.4688,346.0625 Q424.2188,347.3125 424.2188,350.8594 Q424.2188,353.9375 425.2813,354.9844 Q425.7344,355.4375 426.2813,355.4375 Q426.7656,355.4375 427.2188,354.9844 Q427.8125,354.4063 427.875,351.8594 L430.0156,351.8594 Z " fill="#000000"/><text fill="#000000" font-family="sans-serif" font-size="14" lengthAdjust="spacing" textLength="144" x="440.5" y="356.2969">JobOpeningRepository</text><line style="stroke:#181818;stroke-width:0.5;" x1="412.5" x2="586.5" y1="366.5" y2="366.5"/><line style="stroke:#181818;stroke-width:0.5;" x1="412.5" x2="586.5" y1="374.5" y2="374.5"/></g><!--class Application--><g id="elem_Application"><rect codeLine="26" fill="#F1F1F1" height="85.2422" id="Application" rx="2.5" ry="2.5" style="stroke:#181818;stroke-width:0.5;" width="165" x="623" y="316"/><ellipse cx="666.8" cy="332" fill="#ADD1B2" rx="11" ry="11" style="stroke:#181818;stroke-width:1.0;"/><path d="M670.3156,333.3594 Q670.0969,336.7344 668.9563,337.8594 Q667.9563,338.8594 666.5813,338.8594 Q665.2063,338.8594 664.2063,337.8594 Q662.4719,336.125 662.4719,332.4844 Q662.4719,328.2656 664.3313,326.3906 Q665.3469,325.3906 666.6438,325.3906 Q668.0188,325.3906 668.8313,326.1875 Q670.3,327.6719 670.2375,330.4375 L668.2375,330.4375 Q668.175,328.1563 667.5188,327.5 Q667.2063,327.1719 666.6438,327.1719 Q666.1594,327.1719 665.7688,327.5625 Q664.5188,328.8125 664.5188,332.3594 Q664.5188,335.4375 665.5813,336.4844 Q666.0344,336.9375 666.5813,336.9375 Q667.0656,336.9375 667.5188,336.4844 Q668.1125,335.9063 668.175,333.3594 L670.3156,333.3594 Z " fill="#000000"/><text fill="#000000" font-family="sans-serif" font-size="14" lengthAdjust="spacing" textLength="69" x="687.2" y="337.7969">Application</text><line style="stroke:#181818;stroke-width:0.5;" x1="624" x2="787" y1="348" y2="348"/><line style="stroke:#181818;stroke-width:0.5;" x1="624" x2="787" y1="356" y2="356"/><ellipse cx="634" cy="370.8105" fill="#84BE84" rx="3" ry="3" style="stroke:#038048;stroke-width:1.0;"/><text fill="#000000" font-family="sans-serif" font-size="14" lengthAdjust="spacing" textLength="81" x="643" y="375.1074">isApproved()</text><ellipse cx="634" cy="389.4316" fill="#84BE84" rx="3" ry="3" style="stroke:#038048;stroke-width:1.0;"/><text fill="#000000" font-family="sans-serif" font-size="14" lengthAdjust="spacing" textLength="139" x="643" y="393.7285">setInterview(interview)</text></g><!--class Interview--><g id="elem_Interview"><rect codeLine="31" fill="#F1F1F1" height="66.6211" id="Interview" rx="2.5" ry="2.5" style="stroke:#181818;stroke-width:0.5;" width="570" x="823.5" y="325"/><ellipse cx="1076.75" cy="341" fill="#ADD1B2" rx="11" ry="11" style="stroke:#181818;stroke-width:1.0;"/><path d="M1080.2656,342.3594 Q1080.0469,345.7344 1078.9063,346.8594 Q1077.9063,347.8594 1076.5313,347.8594 Q1075.1563,347.8594 1074.1563,346.8594 Q1072.4219,345.125 1072.4219,341.4844 Q1072.4219,337.2656 1074.2813,335.3906 Q1075.2969,334.3906 1076.5938,334.3906 Q1077.9688,334.3906 1078.7813,335.1875 Q1080.25,336.6719 1080.1875,339.4375 L1078.1875,339.4375 Q1078.125,337.1563 1077.4688,336.5 Q1077.1563,336.1719 1076.5938,336.1719 Q1076.1094,336.1719 1075.7188,336.5625 Q1074.4688,337.8125 1074.4688,341.3594 Q1074.4688,344.4375 1075.5313,345.4844 Q1075.9844,345.9375 1076.5313,345.9375 Q1077.0156,345.9375 1077.4688,345.4844 Q1078.0625,344.9063 1078.125,342.3594 L1080.2656,342.3594 Z " fill="#000000"/><text fill="#000000" font-family="sans-serif" font-size="14" lengthAdjust="spacing" textLength="55" x="1097.25" y="346.7969">Interview</text><line style="stroke:#181818;stroke-width:0.5;" x1="824.5" x2="1392.5" y1="357" y2="357"/><line style="stroke:#181818;stroke-width:0.5;" x1="824.5" x2="1392.5" y1="365" y2="365"/><ellipse cx="834.5" cy="379.8105" fill="#84BE84" rx="3" ry="3" style="stroke:#038048;stroke-width:1.0;"/><text fill="#000000" font-family="sans-serif" font-size="14" lengthAdjust="spacing" textLength="544" x="843.5" y="384.1074">Interview(LocalDateTime interviewDateTime, LocalDate endDate,InterviewStatus code)</text></g><!--link ScheduleInterviewUI to ScheduleInterviewController--><g id="link_ScheduleInterviewUI_ScheduleInterviewController"><path codeLine="35" d="M499.5,74.22 C499.5,91.63 499.5,107.6 499.5,127.96 " fill="none" id="ScheduleInterviewUI-to-ScheduleInterviewController" style="stroke:#181818;stroke-width:1.0;stroke-dasharray:7.0,7.0;"/><polygon fill="#181818" points="499.5,133.96,503.5,124.96,499.5,128.96,495.5,124.96,499.5,133.96" style="stroke:#181818;stroke-width:1.0;"/></g><!--link ScheduleInterviewController to ApplicationRepository--><g id="link_ScheduleInterviewController_ApplicationRepository"><path codeLine="36" d="M422.05,256.14 C386.94,283.4 352.2393,310.3405 325.9893,330.7205 " fill="none" id="ScheduleInterviewController-to-ApplicationRepository" style="stroke:#181818;stroke-width:1.0;stroke-dasharray:7.0,7.0;"/><polygon fill="#181818" points="321.25,334.4,330.812,332.0403,325.1994,331.3337,325.906,325.7212,321.25,334.4" style="stroke:#181818;stroke-width:1.0;"/></g><!--link ScheduleInterviewController to CandidateRepository--><g id="link_ScheduleInterviewController_CandidateRepository"><path codeLine="37" d="M342.3,256.01 C293.26,274.96 239.05,296.13 189.5,316 C174.84,321.88 164.5814,326.0593 149.9614,332.1293 " fill="none" id="ScheduleInterviewController-to-CandidateRepository" style="stroke:#181818;stroke-width:1.0;stroke-dasharray:7.0,7.0;"/><polygon fill="#181818" points="144.42,334.43,154.2659,334.6732,149.0378,332.5128,151.1983,327.2847,144.42,334.43" style="stroke:#181818;stroke-width:1.0;"/></g><!--link ScheduleInterviewController to JobOpeningRepository--><g id="link_ScheduleInterviewController_JobOpeningRepository"><path codeLine="38" d="M499.5,256.14 C499.5,283.4 499.5,308.02 499.5,328.4 " fill="none" id="ScheduleInterviewController-to-JobOpeningRepository" style="stroke:#181818;stroke-width:1.0;stroke-dasharray:7.0,7.0;"/><polygon fill="#181818" points="499.5,334.4,503.5,325.4,499.5,329.4,495.5,325.4,499.5,334.4" style="stroke:#181818;stroke-width:1.0;"/></g><!--link ScheduleInterviewController to Application--><g id="link_ScheduleInterviewController_Application"><path codeLine="39" d="M576.21,256.14 C601.6,276.05 624.5575,294.0489 647.7675,312.2389 " fill="none" id="ScheduleInterviewController-to-Application" style="stroke:#181818;stroke-width:1.0;stroke-dasharray:7.0,7.0;"/><polygon fill="#181818" points="652.49,315.94,647.8736,307.24,648.5546,312.8558,642.9389,313.5367,652.49,315.94" style="stroke:#181818;stroke-width:1.0;"/></g><!--link ScheduleInterviewController to Interview--><g id="link_ScheduleInterviewController_Interview"><path codeLine="40" d="M696.8,248.32 C791.82,273.52 897.0004,301.4122 979.7804,323.3622 " fill="none" id="ScheduleInterviewController-to-Interview" style="stroke:#181818;stroke-width:1.0;stroke-dasharray:7.0,7.0;"/><polygon fill="#181818" points="985.58,324.9,977.9058,318.7269,980.747,323.6185,975.8554,326.4597,985.58,324.9" style="stroke:#181818;stroke-width:1.0;"/></g><!--SRC=[bLBHQiCW57ttAtoqfFGBHg7jzf0H6ApR1rYzP7TO3MeoGjc_psIDPc0RbeVagkTSppcvGd7dw55yW6mLbDg3xH2-tajw8JGy1RMjPYloJOZ8Gmz6UskK0ZjHQl2xfb4ek4UZtRu_S2rHSW-bP9NHDKMvYj3PuRv_EdDKR7plfBGGBeHXaU3FvlJIW4PTErQXymz3motzDATIkYlCyGvc2jYifZpLw-Y1ubIDJgzMex9NQ8n3RsmVBAOePcrl89BO1BZHuK8AT65jJGSo15uuy54V-wllbnnF0pKXAoEuUWoYt_0CoTUqiwOHG47BuPjYE7hkMqU5aJ3UankBpMPxRmR8lVaOkDdG5bcPNx78oON_7tcBsBXFo0y0]--></g></svg>