<?xml version="1.0" encoding="us-ascii" standalone="no"?><svg xmlns="http://www.w3.org/2000/svg" xmlns:xlink="http://www.w3.org/1999/xlink" contentStyleType="text/css" height="374px" preserveAspectRatio="none" style="width:460px;height:374px;background:#FFFFFF;" version="1.1" viewBox="0 0 460 374" width="460px" zoomAndPan="magnify"><defs/><g><text fill="#000000" font-family="sans-serif" font-size="14" font-weight="bold" lengthAdjust="spacing" textLength="155" x="145.5" y="25.1074">UC02 CLASS DIAGRAM</text><!--class Runnable--><g id="elem_Runnable"><rect codeLine="4" fill="#F1F1F1" height="66.6211" id="Runnable" rx="2.5" ry="2.5" style="stroke:#181818;stroke-width:0.5;" width="93" x="7" y="46.6211"/><ellipse cx="22" cy="62.6211" fill="#B4A7E5" rx="11" ry="11" style="stroke:#181818;stroke-width:1.0;"/><path d="M22.9531,59.2617 L22.9531,65.918 L24.6719,65.918 Q25.2813,65.918 25.5469,66.1523 Q25.8125,66.3867 25.8125,66.7773 Q25.8125,67.1523 25.5469,67.3867 Q25.2813,67.6211 24.6719,67.6211 L19.5313,67.6211 Q18.9219,67.6211 18.6563,67.3867 Q18.3906,67.1523 18.3906,66.7617 Q18.3906,66.3867 18.6563,66.1523 Q18.9219,65.918 19.5313,65.918 L21.25,65.918 L21.25,59.2617 L19.5313,59.2617 Q18.9219,59.2617 18.6563,59.0273 Q18.3906,58.793 18.3906,58.4023 Q18.3906,58.0273 18.6563,57.793 Q18.9219,57.5586 19.5313,57.5586 L24.6719,57.5586 Q25.2813,57.5586 25.5469,57.793 Q25.8125,58.0273 25.8125,58.4023 Q25.8125,58.793 25.5469,59.0273 Q25.2813,59.2617 24.6719,59.2617 L22.9531,59.2617 Z " fill="#000000"/><text fill="#000000" font-family="sans-serif" font-size="14" font-style="italic" lengthAdjust="spacing" textLength="61" x="36" y="68.418">Runnable</text><line style="stroke:#181818;stroke-width:0.5;" x1="8" x2="99" y1="78.6211" y2="78.6211"/><line style="stroke:#181818;stroke-width:0.5;" x1="8" x2="99" y1="86.6211" y2="86.6211"/><ellipse cx="18" cy="101.4316" fill="#84BE84" rx="3" ry="3" style="stroke:#038048;stroke-width:1.0;"/><text fill="#000000" font-family="sans-serif" font-size="14" lengthAdjust="spacing" textLength="31" x="27" y="105.7285">run()</text></g><!--class DisableUserUI--><g id="elem_DisableUserUI"><rect codeLine="8" fill="#F1F1F1" height="66.6211" id="DisableUserUI" rx="2.5" ry="2.5" style="stroke:#181818;stroke-width:0.5;" width="120" x="135.5" y="46.6211"/><ellipse cx="150.5" cy="62.6211" fill="#ADD1B2" rx="11" ry="11" style="stroke:#181818;stroke-width:1.0;"/><path d="M153.2656,58.4961 Q153.4219,58.2773 153.6094,58.168 Q153.7969,58.0586 154.0156,58.0586 Q154.3906,58.0586 154.625,58.3242 Q154.8594,58.5742 154.8594,59.1836 L154.8594,60.6367 Q154.8594,61.2461 154.625,61.5117 Q154.3906,61.7773 154.0156,61.7773 Q153.6719,61.7773 153.4688,61.5742 Q153.2656,61.3867 153.1563,60.8711 Q153.1094,60.5117 152.9219,60.3242 Q152.5938,59.9492 151.9844,59.7305 Q151.375,59.5117 150.75,59.5117 Q149.9844,59.5117 149.3438,59.8398 Q148.7188,60.168 148.2188,60.918 Q147.7344,61.668 147.7344,62.6992 L147.7344,63.793 Q147.7344,65.0273 148.625,65.8555 Q149.5156,66.668 151.1094,66.668 Q152.0469,66.668 152.7031,66.418 Q153.0938,66.2617 153.5156,65.8242 Q153.7813,65.5586 153.9219,65.4805 Q154.0781,65.4023 154.2813,65.4023 Q154.6094,65.4023 154.8594,65.668 Q155.125,65.918 155.125,66.2617 Q155.125,66.6055 154.7813,67.0117 Q154.2813,67.5898 153.4844,67.918 Q152.4063,68.3711 151.1094,68.3711 Q149.5938,68.3711 148.3906,67.7461 Q147.4063,67.2461 146.7188,66.1836 Q146.0313,65.1055 146.0313,63.8242 L146.0313,62.668 Q146.0313,61.3398 146.6406,60.1992 Q147.2656,59.043 148.3594,58.4336 Q149.4531,57.8086 150.6875,57.8086 Q151.4219,57.8086 152.0625,57.9805 Q152.7188,58.1367 153.2656,58.4961 Z " fill="#000000"/><text fill="#000000" font-family="sans-serif" font-size="14" lengthAdjust="spacing" textLength="88" x="164.5" y="68.418">DisableUserUI</text><line style="stroke:#181818;stroke-width:0.5;" x1="136.5" x2="254.5" y1="78.6211" y2="78.6211"/><line style="stroke:#181818;stroke-width:0.5;" x1="136.5" x2="254.5" y1="86.6211" y2="86.6211"/><ellipse cx="146.5" cy="101.4316" fill="#84BE84" rx="3" ry="3" style="stroke:#038048;stroke-width:1.0;"/><text fill="#000000" font-family="sans-serif" font-size="14" lengthAdjust="spacing" textLength="31" x="155.5" y="105.7285">run()</text></g><!--class DisableUserController--><g id="elem_DisableUserController"><rect codeLine="12" fill="#F1F1F1" height="66.6211" id="DisableUserController" rx="2.5" ry="2.5" style="stroke:#181818;stroke-width:0.5;" width="170" x="110.5" y="173.6211"/><ellipse cx="125.5" cy="189.6211" fill="#ADD1B2" rx="11" ry="11" style="stroke:#181818;stroke-width:1.0;"/><path d="M128.2656,185.4961 Q128.4219,185.2773 128.6094,185.168 Q128.7969,185.0586 129.0156,185.0586 Q129.3906,185.0586 129.625,185.3242 Q129.8594,185.5742 129.8594,186.1836 L129.8594,187.6367 Q129.8594,188.2461 129.625,188.5117 Q129.3906,188.7773 129.0156,188.7773 Q128.6719,188.7773 128.4688,188.5742 Q128.2656,188.3867 128.1563,187.8711 Q128.1094,187.5117 127.9219,187.3242 Q127.5938,186.9492 126.9844,186.7305 Q126.375,186.5117 125.75,186.5117 Q124.9844,186.5117 124.3438,186.8398 Q123.7188,187.168 123.2188,187.918 Q122.7344,188.668 122.7344,189.6992 L122.7344,190.793 Q122.7344,192.0273 123.625,192.8555 Q124.5156,193.668 126.1094,193.668 Q127.0469,193.668 127.7031,193.418 Q128.0938,193.2617 128.5156,192.8242 Q128.7813,192.5586 128.9219,192.4805 Q129.0781,192.4023 129.2813,192.4023 Q129.6094,192.4023 129.8594,192.668 Q130.125,192.918 130.125,193.2617 Q130.125,193.6055 129.7813,194.0117 Q129.2813,194.5898 128.4844,194.918 Q127.4063,195.3711 126.1094,195.3711 Q124.5938,195.3711 123.3906,194.7461 Q122.4063,194.2461 121.7188,193.1836 Q121.0313,192.1055 121.0313,190.8242 L121.0313,189.668 Q121.0313,188.3398 121.6406,187.1992 Q122.2656,186.043 123.3594,185.4336 Q124.4531,184.8086 125.6875,184.8086 Q126.4219,184.8086 127.0625,184.9805 Q127.7188,185.1367 128.2656,185.4961 Z " fill="#000000"/><text fill="#000000" font-family="sans-serif" font-size="14" lengthAdjust="spacing" textLength="138" x="139.5" y="195.418">DisableUserController</text><line style="stroke:#181818;stroke-width:0.5;" x1="111.5" x2="279.5" y1="205.6211" y2="205.6211"/><line style="stroke:#181818;stroke-width:0.5;" x1="111.5" x2="279.5" y1="213.6211" y2="213.6211"/><ellipse cx="121.5" cy="228.4316" fill="#84BE84" rx="3" ry="3" style="stroke:#038048;stroke-width:1.0;"/><text fill="#000000" font-family="sans-serif" font-size="14" lengthAdjust="spacing" textLength="82" x="130.5" y="232.7285">enableUser()</text></g><!--class UserRepository--><g id="elem_UserRepository"><rect codeLine="16" fill="#F1F1F1" height="66.6211" id="UserRepository" rx="2.5" ry="2.5" style="stroke:#181818;stroke-width:0.5;" width="129" x="324" y="300.6211"/><ellipse cx="339" cy="316.6211" fill="#ADD1B2" rx="11" ry="11" style="stroke:#181818;stroke-width:1.0;"/><path d="M341.7656,312.4961 Q341.9219,312.2773 342.1094,312.168 Q342.2969,312.0586 342.5156,312.0586 Q342.8906,312.0586 343.125,312.3242 Q343.3594,312.5742 343.3594,313.1836 L343.3594,314.6367 Q343.3594,315.2461 343.125,315.5117 Q342.8906,315.7773 342.5156,315.7773 Q342.1719,315.7773 341.9688,315.5742 Q341.7656,315.3867 341.6563,314.8711 Q341.6094,314.5117 341.4219,314.3242 Q341.0938,313.9492 340.4844,313.7305 Q339.875,313.5117 339.25,313.5117 Q338.4844,313.5117 337.8438,313.8398 Q337.2188,314.168 336.7188,314.918 Q336.2344,315.668 336.2344,316.6992 L336.2344,317.793 Q336.2344,319.0273 337.125,319.8555 Q338.0156,320.668 339.6094,320.668 Q340.5469,320.668 341.2031,320.418 Q341.5938,320.2617 342.0156,319.8242 Q342.2813,319.5586 342.4219,319.4805 Q342.5781,319.4023 342.7813,319.4023 Q343.1094,319.4023 343.3594,319.668 Q343.625,319.918 343.625,320.2617 Q343.625,320.6055 343.2813,321.0117 Q342.7813,321.5898 341.9844,321.918 Q340.9063,322.3711 339.6094,322.3711 Q338.0938,322.3711 336.8906,321.7461 Q335.9063,321.2461 335.2188,320.1836 Q334.5313,319.1055 334.5313,317.8242 L334.5313,316.668 Q334.5313,315.3398 335.1406,314.1992 Q335.7656,313.043 336.8594,312.4336 Q337.9531,311.8086 339.1875,311.8086 Q339.9219,311.8086 340.5625,311.9805 Q341.2188,312.1367 341.7656,312.4961 Z " fill="#000000"/><text fill="#000000" font-family="sans-serif" font-size="14" lengthAdjust="spacing" textLength="97" x="353" y="322.418">UserRepository</text><line style="stroke:#181818;stroke-width:0.5;" x1="325" x2="452" y1="332.6211" y2="332.6211"/><line style="stroke:#181818;stroke-width:0.5;" x1="325" x2="452" y1="340.6211" y2="340.6211"/><ellipse cx="335" cy="355.4316" fill="#84BE84" rx="3" ry="3" style="stroke:#038048;stroke-width:1.0;"/><text fill="#000000" font-family="sans-serif" font-size="14" lengthAdjust="spacing" textLength="82" x="344" y="359.7285">enableUser()</text></g><!--class UserDeactivationService--><g id="elem_UserDeactivationService"><rect codeLine="20" fill="#F1F1F1" height="66.6211" id="UserDeactivationService" rx="2.5" ry="2.5" style="stroke:#181818;stroke-width:0.5;" width="186" x="102.5" y="300.6211"/><ellipse cx="117.5" cy="316.6211" fill="#ADD1B2" rx="11" ry="11" style="stroke:#181818;stroke-width:1.0;"/><path d="M120.2656,312.4961 Q120.4219,312.2773 120.6094,312.168 Q120.7969,312.0586 121.0156,312.0586 Q121.3906,312.0586 121.625,312.3242 Q121.8594,312.5742 121.8594,313.1836 L121.8594,314.6367 Q121.8594,315.2461 121.625,315.5117 Q121.3906,315.7773 121.0156,315.7773 Q120.6719,315.7773 120.4688,315.5742 Q120.2656,315.3867 120.1563,314.8711 Q120.1094,314.5117 119.9219,314.3242 Q119.5938,313.9492 118.9844,313.7305 Q118.375,313.5117 117.75,313.5117 Q116.9844,313.5117 116.3438,313.8398 Q115.7188,314.168 115.2188,314.918 Q114.7344,315.668 114.7344,316.6992 L114.7344,317.793 Q114.7344,319.0273 115.625,319.8555 Q116.5156,320.668 118.1094,320.668 Q119.0469,320.668 119.7031,320.418 Q120.0938,320.2617 120.5156,319.8242 Q120.7813,319.5586 120.9219,319.4805 Q121.0781,319.4023 121.2813,319.4023 Q121.6094,319.4023 121.8594,319.668 Q122.125,319.918 122.125,320.2617 Q122.125,320.6055 121.7813,321.0117 Q121.2813,321.5898 120.4844,321.918 Q119.4063,322.3711 118.1094,322.3711 Q116.5938,322.3711 115.3906,321.7461 Q114.4063,321.2461 113.7188,320.1836 Q113.0313,319.1055 113.0313,317.8242 L113.0313,316.668 Q113.0313,315.3398 113.6406,314.1992 Q114.2656,313.043 115.3594,312.4336 Q116.4531,311.8086 117.6875,311.8086 Q118.4219,311.8086 119.0625,311.9805 Q119.7188,312.1367 120.2656,312.4961 Z " fill="#000000"/><text fill="#000000" font-family="sans-serif" font-size="14" lengthAdjust="spacing" textLength="154" x="131.5" y="322.418">UserDeactivationService</text><line style="stroke:#181818;stroke-width:0.5;" x1="103.5" x2="287.5" y1="332.6211" y2="332.6211"/><line style="stroke:#181818;stroke-width:0.5;" x1="103.5" x2="287.5" y1="340.6211" y2="340.6211"/><ellipse cx="113.5" cy="355.4316" fill="#84BE84" rx="3" ry="3" style="stroke:#038048;stroke-width:1.0;"/><text fill="#000000" font-family="sans-serif" font-size="14" lengthAdjust="spacing" textLength="104" x="122.5" y="359.7285">deactivateUser()</text></g><!--link Runnable to DisableUserUI--><g id="link_Runnable_DisableUserUI"><path codeLine="24" d="M100.09,80.1211 C111.9,80.1211 105.7,80.1211 117.5,80.1211 " fill="none" id="Runnable-to-DisableUserUI" style="stroke:#181818;stroke-width:1.0;"/><polygon fill="none" points="135.5,80.1211,117.5,74.1211,117.5,86.1211,135.5,80.1211" style="stroke:#181818;stroke-width:1.0;"/></g><!--link DisableUserUI to DisableUserController--><g id="link_DisableUserUI_DisableUserController"><path codeLine="25" d="M195.5,113.6411 C195.5,132.0111 195.5,148.9111 195.5,167.3311 " fill="none" id="DisableUserUI-to-DisableUserController" style="stroke:#181818;stroke-width:1.0;stroke-dasharray:7.0,7.0;"/><polygon fill="#181818" points="195.5,173.3311,199.5,164.3311,195.5,168.3311,191.5,164.3311,195.5,173.3311" style="stroke:#181818;stroke-width:1.0;"/></g><!--link DisableUserController to UserDeactivationService--><g id="link_DisableUserController_UserDeactivationService"><path codeLine="26" d="M195.5,240.6411 C195.5,259.0111 195.5,275.9111 195.5,294.3311 " fill="none" id="DisableUserController-to-UserDeactivationService" style="stroke:#181818;stroke-width:1.0;stroke-dasharray:7.0,7.0;"/><polygon fill="#181818" points="195.5,300.3311,199.5,291.3311,195.5,295.3311,191.5,291.3311,195.5,300.3311" style="stroke:#181818;stroke-width:1.0;"/></g><!--link UserDeactivationService to UserRepository--><g id="link_UserDeactivationService_UserRepository"><path codeLine="27" d="M288.61,334.1211 C300.31,334.1211 306.02,334.1211 317.73,334.1211 " fill="none" id="UserDeactivationService-to-UserRepository" style="stroke:#181818;stroke-width:1.0;stroke-dasharray:7.0,7.0;"/><polygon fill="#181818" points="323.73,334.1211,314.73,330.1211,318.73,334.1211,314.73,338.1211,323.73,334.1211" style="stroke:#181818;stroke-width:1.0;"/></g><!--SRC=[ZO_H2e9044NVvolciOWa-W1154Am5yKFsBO95fRPs1s5gFuzXJG5XUPjkEV2FMB44jRfuOXfaLGLPdboAfCpW64XVrEQi6oOrQN3de3TxNp3cosy0RHL8M1cGf_MWNoT3mokGwbZySvQyYDCF8JJJl-NT7V1YFEFF-2Cb1RJAZ6EA_AjqUDcl0xPf3cAxL_nN0FcKb4KBnl0ibVFhmo2jQ7VoayOFW00]--></g></svg>