<?xml version="1.0" encoding="us-ascii" standalone="no"?><svg xmlns="http://www.w3.org/2000/svg" xmlns:xlink="http://www.w3.org/1999/xlink" contentStyleType="text/css" height="872px" preserveAspectRatio="none" style="width:459px;height:872px;background:#FFFFFF;" version="1.1" viewBox="0 0 459 872" width="459px" zoomAndPan="magnify"><defs/><g><text fill="#000000" font-family="sans-serif" font-size="14" font-weight="bold" lengthAdjust="spacing" textLength="155" x="145.25" y="25.1074">UC01 CLASS DIAGRAM</text><!--class Runnable--><g id="elem_Runnable"><rect codeLine="4" fill="#F1F1F1" height="48" id="Runnable" rx="2.5" ry="2.5" style="stroke:#181818;stroke-width:0.5;" width="93" x="271" y="56.1211"/><ellipse cx="286" cy="72.1211" fill="#B4A7E5" rx="11" ry="11" style="stroke:#181818;stroke-width:1.0;"/><path d="M286.9531,68.7617 L286.9531,75.418 L288.6719,75.418 Q289.2813,75.418 289.5469,75.6523 Q289.8125,75.8867 289.8125,76.2773 Q289.8125,76.6523 289.5469,76.8867 Q289.2813,77.1211 288.6719,77.1211 L283.5313,77.1211 Q282.9219,77.1211 282.6563,76.8867 Q282.3906,76.6523 282.3906,76.2617 Q282.3906,75.8867 282.6563,75.6523 Q282.9219,75.418 283.5313,75.418 L285.25,75.418 L285.25,68.7617 L283.5313,68.7617 Q282.9219,68.7617 282.6563,68.5273 Q282.3906,68.293 282.3906,67.9023 Q282.3906,67.5273 282.6563,67.293 Q282.9219,67.0586 283.5313,67.0586 L288.6719,67.0586 Q289.2813,67.0586 289.5469,67.293 Q289.8125,67.5273 289.8125,67.9023 Q289.8125,68.293 289.5469,68.5273 Q289.2813,68.7617 288.6719,68.7617 L286.9531,68.7617 Z " fill="#000000"/><text fill="#000000" font-family="sans-serif" font-size="14" font-style="italic" lengthAdjust="spacing" textLength="61" x="300" y="77.918">Runnable</text><line style="stroke:#181818;stroke-width:0.5;" x1="272" x2="363" y1="88.1211" y2="88.1211"/><line style="stroke:#181818;stroke-width:0.5;" x1="272" x2="363" y1="96.1211" y2="96.1211"/></g><!--class RegisterUserUI--><g id="elem_RegisterUserUI"><rect codeLine="6" fill="#F1F1F1" height="66.6211" id="RegisterUserUI" rx="2.5" ry="2.5" style="stroke:#181818;stroke-width:0.5;" width="126" x="109.5" y="46.6211"/><ellipse cx="124.5" cy="62.6211" fill="#ADD1B2" rx="11" ry="11" style="stroke:#181818;stroke-width:1.0;"/><path d="M127.2656,58.4961 Q127.4219,58.2773 127.6094,58.168 Q127.7969,58.0586 128.0156,58.0586 Q128.3906,58.0586 128.625,58.3242 Q128.8594,58.5742 128.8594,59.1836 L128.8594,60.6367 Q128.8594,61.2461 128.625,61.5117 Q128.3906,61.7773 128.0156,61.7773 Q127.6719,61.7773 127.4688,61.5742 Q127.2656,61.3867 127.1563,60.8711 Q127.1094,60.5117 126.9219,60.3242 Q126.5938,59.9492 125.9844,59.7305 Q125.375,59.5117 124.75,59.5117 Q123.9844,59.5117 123.3438,59.8398 Q122.7188,60.168 122.2188,60.918 Q121.7344,61.668 121.7344,62.6992 L121.7344,63.793 Q121.7344,65.0273 122.625,65.8555 Q123.5156,66.668 125.1094,66.668 Q126.0469,66.668 126.7031,66.418 Q127.0938,66.2617 127.5156,65.8242 Q127.7813,65.5586 127.9219,65.4805 Q128.0781,65.4023 128.2813,65.4023 Q128.6094,65.4023 128.8594,65.668 Q129.125,65.918 129.125,66.2617 Q129.125,66.6055 128.7813,67.0117 Q128.2813,67.5898 127.4844,67.918 Q126.4063,68.3711 125.1094,68.3711 Q123.5938,68.3711 122.3906,67.7461 Q121.4063,67.2461 120.7188,66.1836 Q120.0313,65.1055 120.0313,63.8242 L120.0313,62.668 Q120.0313,61.3398 120.6406,60.1992 Q121.2656,59.043 122.3594,58.4336 Q123.4531,57.8086 124.6875,57.8086 Q125.4219,57.8086 126.0625,57.9805 Q126.7188,58.1367 127.2656,58.4961 Z " fill="#000000"/><text fill="#000000" font-family="sans-serif" font-size="14" lengthAdjust="spacing" textLength="94" x="138.5" y="68.418">RegisterUserUI</text><line style="stroke:#181818;stroke-width:0.5;" x1="110.5" x2="234.5" y1="78.6211" y2="78.6211"/><line style="stroke:#181818;stroke-width:0.5;" x1="110.5" x2="234.5" y1="86.6211" y2="86.6211"/><ellipse cx="120.5" cy="101.4316" fill="#84BE84" rx="3" ry="3" style="stroke:#038048;stroke-width:1.0;"/><text fill="#000000" font-family="sans-serif" font-size="14" lengthAdjust="spacing" textLength="31" x="129.5" y="105.7285">run()</text></g><!--class RegisterUserController--><g id="elem_RegisterUserController"><rect codeLine="10" fill="#F1F1F1" height="85.2422" id="RegisterUserController" rx="2.5" ry="2.5" style="stroke:#181818;stroke-width:0.5;" width="176" x="84.5" y="173.6211"/><ellipse cx="99.5" cy="189.6211" fill="#ADD1B2" rx="11" ry="11" style="stroke:#181818;stroke-width:1.0;"/><path d="M102.2656,185.4961 Q102.4219,185.2773 102.6094,185.168 Q102.7969,185.0586 103.0156,185.0586 Q103.3906,185.0586 103.625,185.3242 Q103.8594,185.5742 103.8594,186.1836 L103.8594,187.6367 Q103.8594,188.2461 103.625,188.5117 Q103.3906,188.7773 103.0156,188.7773 Q102.6719,188.7773 102.4688,188.5742 Q102.2656,188.3867 102.1563,187.8711 Q102.1094,187.5117 101.9219,187.3242 Q101.5938,186.9492 100.9844,186.7305 Q100.375,186.5117 99.75,186.5117 Q98.9844,186.5117 98.3438,186.8398 Q97.7188,187.168 97.2188,187.918 Q96.7344,188.668 96.7344,189.6992 L96.7344,190.793 Q96.7344,192.0273 97.625,192.8555 Q98.5156,193.668 100.1094,193.668 Q101.0469,193.668 101.7031,193.418 Q102.0938,193.2617 102.5156,192.8242 Q102.7813,192.5586 102.9219,192.4805 Q103.0781,192.4023 103.2813,192.4023 Q103.6094,192.4023 103.8594,192.668 Q104.125,192.918 104.125,193.2617 Q104.125,193.6055 103.7813,194.0117 Q103.2813,194.5898 102.4844,194.918 Q101.4063,195.3711 100.1094,195.3711 Q98.5938,195.3711 97.3906,194.7461 Q96.4063,194.2461 95.7188,193.1836 Q95.0313,192.1055 95.0313,190.8242 L95.0313,189.668 Q95.0313,188.3398 95.6406,187.1992 Q96.2656,186.043 97.3594,185.4336 Q98.4531,184.8086 99.6875,184.8086 Q100.4219,184.8086 101.0625,184.9805 Q101.7188,185.1367 102.2656,185.4961 Z " fill="#000000"/><text fill="#000000" font-family="sans-serif" font-size="14" lengthAdjust="spacing" textLength="144" x="113.5" y="195.418">RegisterUserController</text><line style="stroke:#181818;stroke-width:0.5;" x1="85.5" x2="259.5" y1="205.6211" y2="205.6211"/><line style="stroke:#181818;stroke-width:0.5;" x1="85.5" x2="259.5" y1="213.6211" y2="213.6211"/><ellipse cx="95.5" cy="228.4316" fill="#84BE84" rx="3" ry="3" style="stroke:#038048;stroke-width:1.0;"/><text fill="#000000" font-family="sans-serif" font-size="14" lengthAdjust="spacing" textLength="87" x="104.5" y="232.7285">registerUser()</text><ellipse cx="95.5" cy="247.0527" fill="#84BE84" rx="3" ry="3" style="stroke:#038048;stroke-width:1.0;"/><text fill="#000000" font-family="sans-serif" font-size="14" lengthAdjust="spacing" textLength="104" x="104.5" y="251.3496">getRolesAsList()</text></g><!--class AppUser--><g id="elem_AppUser"><rect codeLine="15" fill="#F1F1F1" height="401.8008" id="AppUser" rx="2.5" ry="2.5" style="stroke:#181818;stroke-width:0.5;" width="190" x="262.5" y="318.6211"/><ellipse cx="326.25" cy="334.6211" fill="#ADD1B2" rx="11" ry="11" style="stroke:#181818;stroke-width:1.0;"/><path d="M329.0156,330.4961 Q329.1719,330.2773 329.3594,330.168 Q329.5469,330.0586 329.7656,330.0586 Q330.1406,330.0586 330.375,330.3242 Q330.6094,330.5742 330.6094,331.1836 L330.6094,332.6367 Q330.6094,333.2461 330.375,333.5117 Q330.1406,333.7773 329.7656,333.7773 Q329.4219,333.7773 329.2188,333.5742 Q329.0156,333.3867 328.9063,332.8711 Q328.8594,332.5117 328.6719,332.3242 Q328.3438,331.9492 327.7344,331.7305 Q327.125,331.5117 326.5,331.5117 Q325.7344,331.5117 325.0938,331.8398 Q324.4688,332.168 323.9688,332.918 Q323.4844,333.668 323.4844,334.6992 L323.4844,335.793 Q323.4844,337.0273 324.375,337.8555 Q325.2656,338.668 326.8594,338.668 Q327.7969,338.668 328.4531,338.418 Q328.8438,338.2617 329.2656,337.8242 Q329.5313,337.5586 329.6719,337.4805 Q329.8281,337.4023 330.0313,337.4023 Q330.3594,337.4023 330.6094,337.668 Q330.875,337.918 330.875,338.2617 Q330.875,338.6055 330.5313,339.0117 Q330.0313,339.5898 329.2344,339.918 Q328.1563,340.3711 326.8594,340.3711 Q325.3438,340.3711 324.1406,339.7461 Q323.1563,339.2461 322.4688,338.1836 Q321.7813,337.1055 321.7813,335.8242 L321.7813,334.668 Q321.7813,333.3398 322.3906,332.1992 Q323.0156,331.043 324.1094,330.4336 Q325.2031,329.8086 326.4375,329.8086 Q327.1719,329.8086 327.8125,329.9805 Q328.4688,330.1367 329.0156,330.4961 Z " fill="#000000"/><text fill="#000000" font-family="sans-serif" font-size="14" lengthAdjust="spacing" textLength="54" x="346.75" y="340.418">AppUser</text><line style="stroke:#181818;stroke-width:0.5;" x1="263.5" x2="451.5" y1="350.6211" y2="350.6211"/><rect fill="none" height="6" style="stroke:#C82930;stroke-width:1.0;" width="6" x="270.5" y="362.4316"/><text fill="#000000" font-family="sans-serif" font-size="14" lengthAdjust="spacing" textLength="47" x="282.5" y="369.7285">Long id</text><rect fill="none" height="6" style="stroke:#C82930;stroke-width:1.0;" width="6" x="270.5" y="381.0527"/><text fill="#000000" font-family="sans-serif" font-size="14" lengthAdjust="spacing" textLength="74" x="282.5" y="388.3496">String email</text><rect fill="none" height="6" style="stroke:#C82930;stroke-width:1.0;" width="6" x="270.5" y="399.6738"/><text fill="#000000" font-family="sans-serif" font-size="14" lengthAdjust="spacing" textLength="76" x="282.5" y="406.9707">String name</text><rect fill="none" height="6" style="stroke:#C82930;stroke-width:1.0;" width="6" x="270.5" y="418.2949"/><text fill="#000000" font-family="sans-serif" font-size="14" lengthAdjust="spacing" textLength="101" x="282.5" y="425.5918">String password</text><rect fill="none" height="6" style="stroke:#C82930;stroke-width:1.0;" width="6" x="270.5" y="436.916"/><text fill="#000000" font-family="sans-serif" font-size="14" lengthAdjust="spacing" textLength="82" x="282.5" y="444.2129">Status status</text><rect fill="none" height="6" style="stroke:#C82930;stroke-width:1.0;" width="6" x="270.5" y="455.5371"/><text fill="#000000" font-family="sans-serif" font-size="14" lengthAdjust="spacing" textLength="86" x="282.5" y="462.834">UserRole role</text><line style="stroke:#181818;stroke-width:0.5;" x1="263.5" x2="451.5" y1="470.3477" y2="470.3477"/><rect fill="#F24D5C" height="6" style="stroke:#C82930;stroke-width:1.0;" width="6" x="270.5" y="482.1582"/><text fill="#000000" font-family="sans-serif" font-size="14" lengthAdjust="spacing" textLength="63" x="282.5" y="489.4551">setEmail()</text><rect fill="#F24D5C" height="6" style="stroke:#C82930;stroke-width:1.0;" width="6" x="270.5" y="500.7793"/><text fill="#000000" font-family="sans-serif" font-size="14" lengthAdjust="spacing" textLength="65" x="282.5" y="508.0762">setName()</text><rect fill="#F24D5C" height="6" style="stroke:#C82930;stroke-width:1.0;" width="6" x="270.5" y="519.4004"/><text fill="#000000" font-family="sans-serif" font-size="14" lengthAdjust="spacing" textLength="90" x="282.5" y="526.6973">setPassword()</text><text fill="#000000" font-family="sans-serif" font-size="14" lengthAdjust="spacing" textLength="4" x="282.5" y="545.3184">&#160;</text><ellipse cx="273.5" cy="559.6426" fill="#84BE84" rx="3" ry="3" style="stroke:#038048;stroke-width:1.0;"/><text fill="#000000" font-family="sans-serif" font-size="14" lengthAdjust="spacing" textLength="91" x="282.5" y="563.9395">getPassword()</text><ellipse cx="273.5" cy="578.2637" fill="#84BE84" rx="3" ry="3" style="stroke:#038048;stroke-width:1.0;"/><text fill="#000000" font-family="sans-serif" font-size="14" lengthAdjust="spacing" textLength="94" x="282.5" y="582.5605">getUsername()</text><ellipse cx="273.5" cy="596.8848" fill="#84BE84" rx="3" ry="3" style="stroke:#038048;stroke-width:1.0;"/><text fill="#000000" font-family="sans-serif" font-size="14" lengthAdjust="spacing" textLength="143" x="282.5" y="601.1816">isAccountNonExpired()</text><ellipse cx="273.5" cy="615.5059" fill="#84BE84" rx="3" ry="3" style="stroke:#038048;stroke-width:1.0;"/><text fill="#000000" font-family="sans-serif" font-size="14" lengthAdjust="spacing" textLength="142" x="282.5" y="619.8027">isAccountNonLocked()</text><ellipse cx="273.5" cy="634.127" fill="#84BE84" rx="3" ry="3" style="stroke:#038048;stroke-width:1.0;"/><text fill="#000000" font-family="sans-serif" font-size="14" lengthAdjust="spacing" textLength="164" x="282.5" y="638.4238">isCredentialsNonExpired()</text><ellipse cx="273.5" cy="652.748" fill="#84BE84" rx="3" ry="3" style="stroke:#038048;stroke-width:1.0;"/><text fill="#000000" font-family="sans-serif" font-size="14" lengthAdjust="spacing" textLength="72" x="282.5" y="657.0449">isEnabled()</text><text fill="#000000" font-family="sans-serif" font-size="14" lengthAdjust="spacing" textLength="4" x="282.5" y="675.666">&#160;</text><ellipse cx="273.5" cy="689.9902" fill="#84BE84" rx="3" ry="3" style="stroke:#038048;stroke-width:1.0;"/><text fill="#000000" font-family="sans-serif" font-size="14" lengthAdjust="spacing" textLength="88" x="282.5" y="694.2871">activateUser()</text><ellipse cx="273.5" cy="708.6113" fill="#84BE84" rx="3" ry="3" style="stroke:#038048;stroke-width:1.0;"/><text fill="#000000" font-family="sans-serif" font-size="14" lengthAdjust="spacing" textLength="104" x="282.5" y="712.9082">deactivateUser()</text></g><!--class UserRepository--><g id="elem_UserRepository"><rect codeLine="38" fill="#F1F1F1" height="85.2422" id="UserRepository" rx="2.5" ry="2.5" style="stroke:#181818;stroke-width:0.5;" width="129" x="7" y="780.6211"/><ellipse cx="22" cy="796.6211" fill="#ADD1B2" rx="11" ry="11" style="stroke:#181818;stroke-width:1.0;"/><path d="M24.7656,792.4961 Q24.9219,792.2773 25.1094,792.168 Q25.2969,792.0586 25.5156,792.0586 Q25.8906,792.0586 26.125,792.3242 Q26.3594,792.5742 26.3594,793.1836 L26.3594,794.6367 Q26.3594,795.2461 26.125,795.5117 Q25.8906,795.7773 25.5156,795.7773 Q25.1719,795.7773 24.9688,795.5742 Q24.7656,795.3867 24.6563,794.8711 Q24.6094,794.5117 24.4219,794.3242 Q24.0938,793.9492 23.4844,793.7305 Q22.875,793.5117 22.25,793.5117 Q21.4844,793.5117 20.8438,793.8398 Q20.2188,794.168 19.7188,794.918 Q19.2344,795.668 19.2344,796.6992 L19.2344,797.793 Q19.2344,799.0273 20.125,799.8555 Q21.0156,800.668 22.6094,800.668 Q23.5469,800.668 24.2031,800.418 Q24.5938,800.2617 25.0156,799.8242 Q25.2813,799.5586 25.4219,799.4805 Q25.5781,799.4023 25.7813,799.4023 Q26.1094,799.4023 26.3594,799.668 Q26.625,799.918 26.625,800.2617 Q26.625,800.6055 26.2813,801.0117 Q25.7813,801.5898 24.9844,801.918 Q23.9063,802.3711 22.6094,802.3711 Q21.0938,802.3711 19.8906,801.7461 Q18.9063,801.2461 18.2188,800.1836 Q17.5313,799.1055 17.5313,797.8242 L17.5313,796.668 Q17.5313,795.3398 18.1406,794.1992 Q18.7656,793.043 19.8594,792.4336 Q20.9531,791.8086 22.1875,791.8086 Q22.9219,791.8086 23.5625,791.9805 Q24.2188,792.1367 24.7656,792.4961 Z " fill="#000000"/><text fill="#000000" font-family="sans-serif" font-size="14" lengthAdjust="spacing" textLength="97" x="36" y="802.418">UserRepository</text><line style="stroke:#181818;stroke-width:0.5;" x1="8" x2="135" y1="812.6211" y2="812.6211"/><line style="stroke:#181818;stroke-width:0.5;" x1="8" x2="135" y1="820.6211" y2="820.6211"/><ellipse cx="18" cy="835.4316" fill="#84BE84" rx="3" ry="3" style="stroke:#038048;stroke-width:1.0;"/><text fill="#000000" font-family="sans-serif" font-size="14" lengthAdjust="spacing" textLength="83" x="27" y="839.7285">findByEmail()</text><ellipse cx="18" cy="854.0527" fill="#84BE84" rx="3" ry="3" style="stroke:#038048;stroke-width:1.0;"/><text fill="#000000" font-family="sans-serif" font-size="14" lengthAdjust="spacing" textLength="60" x="27" y="858.3496">findById()</text></g><!--class UserFactory--><g id="elem_UserFactory"><rect codeLine="43" fill="#F1F1F1" height="66.6211" id="UserFactory" rx="2.5" ry="2.5" style="stroke:#181818;stroke-width:0.5;" width="109" x="118" y="486.1211"/><ellipse cx="133" cy="502.1211" fill="#ADD1B2" rx="11" ry="11" style="stroke:#181818;stroke-width:1.0;"/><path d="M135.7656,497.9961 Q135.9219,497.7773 136.1094,497.668 Q136.2969,497.5586 136.5156,497.5586 Q136.8906,497.5586 137.125,497.8242 Q137.3594,498.0742 137.3594,498.6836 L137.3594,500.1367 Q137.3594,500.7461 137.125,501.0117 Q136.8906,501.2773 136.5156,501.2773 Q136.1719,501.2773 135.9688,501.0742 Q135.7656,500.8867 135.6563,500.3711 Q135.6094,500.0117 135.4219,499.8242 Q135.0938,499.4492 134.4844,499.2305 Q133.875,499.0117 133.25,499.0117 Q132.4844,499.0117 131.8438,499.3398 Q131.2188,499.668 130.7188,500.418 Q130.2344,501.168 130.2344,502.1992 L130.2344,503.293 Q130.2344,504.5273 131.125,505.3555 Q132.0156,506.168 133.6094,506.168 Q134.5469,506.168 135.2031,505.918 Q135.5938,505.7617 136.0156,505.3242 Q136.2813,505.0586 136.4219,504.9805 Q136.5781,504.9023 136.7813,504.9023 Q137.1094,504.9023 137.3594,505.168 Q137.625,505.418 137.625,505.7617 Q137.625,506.1055 137.2813,506.5117 Q136.7813,507.0898 135.9844,507.418 Q134.9063,507.8711 133.6094,507.8711 Q132.0938,507.8711 130.8906,507.2461 Q129.9063,506.7461 129.2188,505.6836 Q128.5313,504.6055 128.5313,503.3242 L128.5313,502.168 Q128.5313,500.8398 129.1406,499.6992 Q129.7656,498.543 130.8594,497.9336 Q131.9531,497.3086 133.1875,497.3086 Q133.9219,497.3086 134.5625,497.4805 Q135.2188,497.6367 135.7656,497.9961 Z " fill="#000000"/><text fill="#000000" font-family="sans-serif" font-size="14" lengthAdjust="spacing" textLength="77" x="147" y="507.918">UserFactory</text><line style="stroke:#181818;stroke-width:0.5;" x1="119" x2="226" y1="518.1211" y2="518.1211"/><line style="stroke:#181818;stroke-width:0.5;" x1="119" x2="226" y1="526.1211" y2="526.1211"/><ellipse cx="129" cy="540.9316" fill="#84BE84" rx="3" ry="3" style="stroke:#038048;stroke-width:1.0;"/><text fill="#000000" font-family="sans-serif" font-size="14" lengthAdjust="spacing" textLength="79" x="138" y="545.2285">createUser()</text></g><!--class PasswordGeneratorService--><g id="elem_PasswordGeneratorService"><rect codeLine="47" fill="#F1F1F1" height="66.6211" id="PasswordGeneratorService" rx="2.5" ry="2.5" style="stroke:#181818;stroke-width:0.5;" width="205" x="171" y="789.6211"/><ellipse cx="186" cy="805.6211" fill="#ADD1B2" rx="11" ry="11" style="stroke:#181818;stroke-width:1.0;"/><path d="M188.7656,801.4961 Q188.9219,801.2773 189.1094,801.168 Q189.2969,801.0586 189.5156,801.0586 Q189.8906,801.0586 190.125,801.3242 Q190.3594,801.5742 190.3594,802.1836 L190.3594,803.6367 Q190.3594,804.2461 190.125,804.5117 Q189.8906,804.7773 189.5156,804.7773 Q189.1719,804.7773 188.9688,804.5742 Q188.7656,804.3867 188.6563,803.8711 Q188.6094,803.5117 188.4219,803.3242 Q188.0938,802.9492 187.4844,802.7305 Q186.875,802.5117 186.25,802.5117 Q185.4844,802.5117 184.8438,802.8398 Q184.2188,803.168 183.7188,803.918 Q183.2344,804.668 183.2344,805.6992 L183.2344,806.793 Q183.2344,808.0273 184.125,808.8555 Q185.0156,809.668 186.6094,809.668 Q187.5469,809.668 188.2031,809.418 Q188.5938,809.2617 189.0156,808.8242 Q189.2813,808.5586 189.4219,808.4805 Q189.5781,808.4023 189.7813,808.4023 Q190.1094,808.4023 190.3594,808.668 Q190.625,808.918 190.625,809.2617 Q190.625,809.6055 190.2813,810.0117 Q189.7813,810.5898 188.9844,810.918 Q187.9063,811.3711 186.6094,811.3711 Q185.0938,811.3711 183.8906,810.7461 Q182.9063,810.2461 182.2188,809.1836 Q181.5313,808.1055 181.5313,806.8242 L181.5313,805.668 Q181.5313,804.3398 182.1406,803.1992 Q182.7656,802.043 183.8594,801.4336 Q184.9531,800.8086 186.1875,800.8086 Q186.9219,800.8086 187.5625,800.9805 Q188.2188,801.1367 188.7656,801.4961 Z " fill="#000000"/><text fill="#000000" font-family="sans-serif" font-size="14" lengthAdjust="spacing" textLength="173" x="200" y="811.418">PasswordGeneratorService</text><line style="stroke:#181818;stroke-width:0.5;" x1="172" x2="375" y1="821.6211" y2="821.6211"/><line style="stroke:#181818;stroke-width:0.5;" x1="172" x2="375" y1="829.6211" y2="829.6211"/><ellipse cx="182" cy="844.4316" fill="#84BE84" rx="3" ry="3" style="stroke:#038048;stroke-width:1.0;"/><text fill="#000000" font-family="sans-serif" font-size="14" lengthAdjust="spacing" textLength="128" x="191" y="848.7285">generatePassword()</text></g><!--link RegisterUserUI to RegisterUserController--><g id="link_RegisterUserUI_RegisterUserController"><path codeLine="52" d="M172.5,113.9011 C172.5,131.8811 172.5,148.3411 172.5,167.5411 " fill="none" id="RegisterUserUI-to-RegisterUserController" style="stroke:#181818;stroke-width:1.0;stroke-dasharray:7.0,7.0;"/><polygon fill="#181818" points="172.5,173.5411,176.5,164.5411,172.5,168.5411,168.5,164.5411,172.5,173.5411" style="stroke:#181818;stroke-width:1.0;"/></g><!--link RegisterUserController to UserFactory--><g id="link_RegisterUserController_UserFactory"><path codeLine="53" d="M172.5,258.7311 C172.5,319.3011 172.5,424.5611 172.5,479.7711 " fill="none" id="RegisterUserController-to-UserFactory" style="stroke:#181818;stroke-width:1.0;stroke-dasharray:7.0,7.0;"/><polygon fill="#181818" points="172.5,485.7711,176.5,476.7711,172.5,480.7711,168.5,476.7711,172.5,485.7711" style="stroke:#181818;stroke-width:1.0;"/></g><!--link RegisterUserUI to Runnable--><g id="link_RegisterUserUI_Runnable"><path codeLine="54" d="M235.65,80.1211 C247.38,80.1211 241.1,80.1211 252.82,80.1211 " fill="none" id="RegisterUserUI-to-Runnable" style="stroke:#181818;stroke-width:1.0;"/><polygon fill="none" points="270.82,80.1211,252.82,74.1211,252.82,86.1211,270.82,80.1211" style="stroke:#181818;stroke-width:1.0;"/></g><!--link UserFactory to AppUser--><g id="link_UserFactory_AppUser"><path codeLine="55" d="M227.06,519.6211 C238.86,519.6211 244.67,519.6211 256.47,519.6211 " fill="none" id="UserFactory-to-AppUser" style="stroke:#181818;stroke-width:1.0;"/><polygon fill="#181818" points="262.47,519.6211,253.47,515.6211,257.47,519.6211,253.47,523.6211,262.47,519.6211" style="stroke:#181818;stroke-width:1.0;"/></g><!--link UserFactory to PasswordGeneratorService--><g id="link_UserFactory_PasswordGeneratorService"><path codeLine="56" d="M183.4,553.1711 C202.79,611.0311 241.1241,725.4718 260.5841,783.5618 " fill="none" id="UserFactory-to-PasswordGeneratorService" style="stroke:#181818;stroke-width:1.0;"/><polygon fill="#181818" points="262.49,789.2511,263.424,779.4466,260.9018,784.51,255.8383,781.9878,262.49,789.2511" style="stroke:#181818;stroke-width:1.0;"/></g><!--link UserFactory to UserRepository--><g id="link_UserFactory_UserRepository"><path codeLine="57" d="M161.6,553.1711 C143.13,608.2911 107.6461,714.2219 87.3161,774.9019 " fill="none" id="UserFactory-to-UserRepository" style="stroke:#181818;stroke-width:1.0;stroke-dasharray:7.0,7.0;"/><polygon fill="#181818" points="85.41,780.5911,92.0619,773.328,86.9984,775.8501,84.4763,770.7866,85.41,780.5911" style="stroke:#181818;stroke-width:1.0;"/></g><!--SRC=[TLFjQiCm3Fplfz3FZTAolK0XoxeIoCf8w0DuZXhCN3lOJhVIxTsdX7mu8Gs4e9Fk99yLBxr2ECPFpn2dKPx3QnBji-YTCQazsXCN25cjDV-aijiVOq9nvo33KZhA7nsz2TmOqBC2M-k7HxPO5HljhL4AxLWTf8dMWYNwp2XqaKif5uf5LTKKTkmrf4QN88ikohsL5EEPIpM5D3_Z5Ab8xjlOaSfzxS2rdmvhEZLp08sCh0CT-bsZtytQ0WTI3-EFJfkmxfJb11omfeCUoIkGBXB2rDeVZDxzLD9YiPXBZVYQf6AgHEqbLswHkcilBvY82oylt6FeEnGuWmVZMo-mCavwOw_3xPsaBbwkeI4zbXHp-XjfXrnXSQ5HRzCUDLfEX1pjHT82tWRRsWG6VXAPpPPnizdUsJnsPo4RHZ3cN73zknt-0HOUPxtjjt8A4txlB9F2lk_eBli7]--></g></svg>