<?xml version="1.0" encoding="us-ascii" standalone="no"?><svg xmlns="http://www.w3.org/2000/svg" xmlns:xlink="http://www.w3.org/1999/xlink" contentStyleType="text/css" height="649px" preserveAspectRatio="none" style="width:829px;height:649px;background:#FFFFFF;" version="1.1" viewBox="0 0 829 649" width="829px" zoomAndPan="magnify"><defs/><g><text fill="#000000" font-family="sans-serif" font-size="14" font-weight="bold" lengthAdjust="spacing" textLength="155" x="330" y="25.1074">UC21 CLASS DIAGRAM</text><!--class Runnable--><g id="elem_Runnable"><rect codeLine="4" fill="#F1F1F1" height="66.6211" id="Runnable" rx="2.5" ry="2.5" style="stroke:#181818;stroke-width:0.5;" width="93" x="244.5" y="46.6211"/><ellipse cx="259.5" cy="62.6211" fill="#B4A7E5" rx="11" ry="11" style="stroke:#181818;stroke-width:1.0;"/><path d="M260.4531,59.2617 L260.4531,65.918 L262.1719,65.918 Q262.7813,65.918 263.0469,66.1523 Q263.3125,66.3867 263.3125,66.7773 Q263.3125,67.1523 263.0469,67.3867 Q262.7813,67.6211 262.1719,67.6211 L257.0313,67.6211 Q256.4219,67.6211 256.1563,67.3867 Q255.8906,67.1523 255.8906,66.7617 Q255.8906,66.3867 256.1563,66.1523 Q256.4219,65.918 257.0313,65.918 L258.75,65.918 L258.75,59.2617 L257.0313,59.2617 Q256.4219,59.2617 256.1563,59.0273 Q255.8906,58.793 255.8906,58.4023 Q255.8906,58.0273 256.1563,57.793 Q256.4219,57.5586 257.0313,57.5586 L262.1719,57.5586 Q262.7813,57.5586 263.0469,57.793 Q263.3125,58.0273 263.3125,58.4023 Q263.3125,58.793 263.0469,59.0273 Q262.7813,59.2617 262.1719,59.2617 L260.4531,59.2617 Z " fill="#000000"/><text fill="#000000" font-family="sans-serif" font-size="14" font-style="italic" lengthAdjust="spacing" textLength="61" x="273.5" y="68.418">Runnable</text><line style="stroke:#181818;stroke-width:0.5;" x1="245.5" x2="336.5" y1="78.6211" y2="78.6211"/><line style="stroke:#181818;stroke-width:0.5;" x1="245.5" x2="336.5" y1="86.6211" y2="86.6211"/><ellipse cx="255.5" cy="101.4316" fill="#84BE84" rx="3" ry="3" style="stroke:#038048;stroke-width:1.0;"/><text fill="#000000" font-family="sans-serif" font-size="14" lengthAdjust="spacing" textLength="31" x="264.5" y="105.7285">run()</text></g><!--class ClosePhaseUI--><g id="elem_ClosePhaseUI"><rect codeLine="8" fill="#F1F1F1" height="66.6211" id="ClosePhaseUI" rx="2.5" ry="2.5" style="stroke:#181818;stroke-width:0.5;" width="120" x="373" y="46.6211"/><ellipse cx="388" cy="62.6211" fill="#ADD1B2" rx="11" ry="11" style="stroke:#181818;stroke-width:1.0;"/><path d="M390.7656,58.4961 Q390.9219,58.2773 391.1094,58.168 Q391.2969,58.0586 391.5156,58.0586 Q391.8906,58.0586 392.125,58.3242 Q392.3594,58.5742 392.3594,59.1836 L392.3594,60.6367 Q392.3594,61.2461 392.125,61.5117 Q391.8906,61.7773 391.5156,61.7773 Q391.1719,61.7773 390.9688,61.5742 Q390.7656,61.3867 390.6563,60.8711 Q390.6094,60.5117 390.4219,60.3242 Q390.0938,59.9492 389.4844,59.7305 Q388.875,59.5117 388.25,59.5117 Q387.4844,59.5117 386.8438,59.8398 Q386.2188,60.168 385.7188,60.918 Q385.2344,61.668 385.2344,62.6992 L385.2344,63.793 Q385.2344,65.0273 386.125,65.8555 Q387.0156,66.668 388.6094,66.668 Q389.5469,66.668 390.2031,66.418 Q390.5938,66.2617 391.0156,65.8242 Q391.2813,65.5586 391.4219,65.4805 Q391.5781,65.4023 391.7813,65.4023 Q392.1094,65.4023 392.3594,65.668 Q392.625,65.918 392.625,66.2617 Q392.625,66.6055 392.2813,67.0117 Q391.7813,67.5898 390.9844,67.918 Q389.9063,68.3711 388.6094,68.3711 Q387.0938,68.3711 385.8906,67.7461 Q384.9063,67.2461 384.2188,66.1836 Q383.5313,65.1055 383.5313,63.8242 L383.5313,62.668 Q383.5313,61.3398 384.1406,60.1992 Q384.7656,59.043 385.8594,58.4336 Q386.9531,57.8086 388.1875,57.8086 Q388.9219,57.8086 389.5625,57.9805 Q390.2188,58.1367 390.7656,58.4961 Z " fill="#000000"/><text fill="#000000" font-family="sans-serif" font-size="14" lengthAdjust="spacing" textLength="88" x="402" y="68.418">ClosePhaseUI</text><line style="stroke:#181818;stroke-width:0.5;" x1="374" x2="492" y1="78.6211" y2="78.6211"/><line style="stroke:#181818;stroke-width:0.5;" x1="374" x2="492" y1="86.6211" y2="86.6211"/><ellipse cx="384" cy="101.4316" fill="#84BE84" rx="3" ry="3" style="stroke:#038048;stroke-width:1.0;"/><text fill="#000000" font-family="sans-serif" font-size="14" lengthAdjust="spacing" textLength="31" x="393" y="105.7285">run()</text></g><!--class ClosePhaseController--><g id="elem_ClosePhaseController"><rect codeLine="12" fill="#F1F1F1" height="103.8633" id="ClosePhaseController" rx="2.5" ry="2.5" style="stroke:#181818;stroke-width:0.5;" width="252" x="307" y="173.6211"/><ellipse cx="359.75" cy="189.6211" fill="#ADD1B2" rx="11" ry="11" style="stroke:#181818;stroke-width:1.0;"/><path d="M362.5156,185.4961 Q362.6719,185.2773 362.8594,185.168 Q363.0469,185.0586 363.2656,185.0586 Q363.6406,185.0586 363.875,185.3242 Q364.1094,185.5742 364.1094,186.1836 L364.1094,187.6367 Q364.1094,188.2461 363.875,188.5117 Q363.6406,188.7773 363.2656,188.7773 Q362.9219,188.7773 362.7188,188.5742 Q362.5156,188.3867 362.4063,187.8711 Q362.3594,187.5117 362.1719,187.3242 Q361.8438,186.9492 361.2344,186.7305 Q360.625,186.5117 360,186.5117 Q359.2344,186.5117 358.5938,186.8398 Q357.9688,187.168 357.4688,187.918 Q356.9844,188.668 356.9844,189.6992 L356.9844,190.793 Q356.9844,192.0273 357.875,192.8555 Q358.7656,193.668 360.3594,193.668 Q361.2969,193.668 361.9531,193.418 Q362.3438,193.2617 362.7656,192.8242 Q363.0313,192.5586 363.1719,192.4805 Q363.3281,192.4023 363.5313,192.4023 Q363.8594,192.4023 364.1094,192.668 Q364.375,192.918 364.375,193.2617 Q364.375,193.6055 364.0313,194.0117 Q363.5313,194.5898 362.7344,194.918 Q361.6563,195.3711 360.3594,195.3711 Q358.8438,195.3711 357.6406,194.7461 Q356.6563,194.2461 355.9688,193.1836 Q355.2813,192.1055 355.2813,190.8242 L355.2813,189.668 Q355.2813,188.3398 355.8906,187.1992 Q356.5156,186.043 357.6094,185.4336 Q358.7031,184.8086 359.9375,184.8086 Q360.6719,184.8086 361.3125,184.9805 Q361.9688,185.1367 362.5156,185.4961 Z " fill="#000000"/><text fill="#000000" font-family="sans-serif" font-size="14" lengthAdjust="spacing" textLength="138" x="380.25" y="195.418">ClosePhaseController</text><line style="stroke:#181818;stroke-width:0.5;" x1="308" x2="558" y1="205.6211" y2="205.6211"/><line style="stroke:#181818;stroke-width:0.5;" x1="308" x2="558" y1="213.6211" y2="213.6211"/><ellipse cx="318" cy="228.4316" fill="#84BE84" rx="3" ry="3" style="stroke:#038048;stroke-width:1.0;"/><text fill="#000000" font-family="sans-serif" font-size="14" lengthAdjust="spacing" textLength="226" x="327" y="232.7285">getJobOpeningsWithActivePhases()</text><ellipse cx="318" cy="247.0527" fill="#84BE84" rx="3" ry="3" style="stroke:#038048;stroke-width:1.0;"/><text fill="#000000" font-family="sans-serif" font-size="14" lengthAdjust="spacing" textLength="169" x="327" y="251.3496">jobOpeningExists(int input)</text><ellipse cx="318" cy="265.6738" fill="#84BE84" rx="3" ry="3" style="stroke:#038048;stroke-width:1.0;"/><text fill="#000000" font-family="sans-serif" font-size="14" lengthAdjust="spacing" textLength="133" x="327" y="269.9707">closePhase(int input)</text></g><!--class JobOpeningRepository--><g id="elem_JobOpeningRepository"><rect codeLine="18" fill="#F1F1F1" height="66.6211" id="JobOpeningRepository" rx="2.5" ry="2.5" style="stroke:#181818;stroke-width:0.5;" width="176" x="7" y="337.6211"/><ellipse cx="22" cy="353.6211" fill="#ADD1B2" rx="11" ry="11" style="stroke:#181818;stroke-width:1.0;"/><path d="M24.7656,349.4961 Q24.9219,349.2773 25.1094,349.168 Q25.2969,349.0586 25.5156,349.0586 Q25.8906,349.0586 26.125,349.3242 Q26.3594,349.5742 26.3594,350.1836 L26.3594,351.6367 Q26.3594,352.2461 26.125,352.5117 Q25.8906,352.7773 25.5156,352.7773 Q25.1719,352.7773 24.9688,352.5742 Q24.7656,352.3867 24.6563,351.8711 Q24.6094,351.5117 24.4219,351.3242 Q24.0938,350.9492 23.4844,350.7305 Q22.875,350.5117 22.25,350.5117 Q21.4844,350.5117 20.8438,350.8398 Q20.2188,351.168 19.7188,351.918 Q19.2344,352.668 19.2344,353.6992 L19.2344,354.793 Q19.2344,356.0273 20.125,356.8555 Q21.0156,357.668 22.6094,357.668 Q23.5469,357.668 24.2031,357.418 Q24.5938,357.2617 25.0156,356.8242 Q25.2813,356.5586 25.4219,356.4805 Q25.5781,356.4023 25.7813,356.4023 Q26.1094,356.4023 26.3594,356.668 Q26.625,356.918 26.625,357.2617 Q26.625,357.6055 26.2813,358.0117 Q25.7813,358.5898 24.9844,358.918 Q23.9063,359.3711 22.6094,359.3711 Q21.0938,359.3711 19.8906,358.7461 Q18.9063,358.2461 18.2188,357.1836 Q17.5313,356.1055 17.5313,354.8242 L17.5313,353.668 Q17.5313,352.3398 18.1406,351.1992 Q18.7656,350.043 19.8594,349.4336 Q20.9531,348.8086 22.1875,348.8086 Q22.9219,348.8086 23.5625,348.9805 Q24.2188,349.1367 24.7656,349.4961 Z " fill="#000000"/><text fill="#000000" font-family="sans-serif" font-size="14" lengthAdjust="spacing" textLength="144" x="36" y="359.418">JobOpeningRepository</text><line style="stroke:#181818;stroke-width:0.5;" x1="8" x2="182" y1="369.6211" y2="369.6211"/><line style="stroke:#181818;stroke-width:0.5;" x1="8" x2="182" y1="377.6211" y2="377.6211"/><ellipse cx="18" cy="392.4316" fill="#84BE84" rx="3" ry="3" style="stroke:#038048;stroke-width:1.0;"/><text fill="#000000" font-family="sans-serif" font-size="14" lengthAdjust="spacing" textLength="40" x="27" y="396.7285">save()</text></g><!--class JobOpening--><g id="elem_JobOpening"><rect codeLine="22" fill="#F1F1F1" height="122.4844" id="JobOpening" rx="2.5" ry="2.5" style="stroke:#181818;stroke-width:0.5;" width="152" x="233" y="492.6211"/><ellipse cx="267.8" cy="508.6211" fill="#ADD1B2" rx="11" ry="11" style="stroke:#181818;stroke-width:1.0;"/><path d="M270.5656,504.4961 Q270.7219,504.2773 270.9094,504.168 Q271.0969,504.0586 271.3156,504.0586 Q271.6906,504.0586 271.925,504.3242 Q272.1594,504.5742 272.1594,505.1836 L272.1594,506.6367 Q272.1594,507.2461 271.925,507.5117 Q271.6906,507.7773 271.3156,507.7773 Q270.9719,507.7773 270.7688,507.5742 Q270.5656,507.3867 270.4563,506.8711 Q270.4094,506.5117 270.2219,506.3242 Q269.8938,505.9492 269.2844,505.7305 Q268.675,505.5117 268.05,505.5117 Q267.2844,505.5117 266.6438,505.8398 Q266.0188,506.168 265.5188,506.918 Q265.0344,507.668 265.0344,508.6992 L265.0344,509.793 Q265.0344,511.0273 265.925,511.8555 Q266.8156,512.668 268.4094,512.668 Q269.3469,512.668 270.0031,512.418 Q270.3938,512.2617 270.8156,511.8242 Q271.0813,511.5586 271.2219,511.4805 Q271.3781,511.4023 271.5813,511.4023 Q271.9094,511.4023 272.1594,511.668 Q272.425,511.918 272.425,512.2617 Q272.425,512.6055 272.0813,513.0117 Q271.5813,513.5898 270.7844,513.918 Q269.7063,514.3711 268.4094,514.3711 Q266.8938,514.3711 265.6906,513.7461 Q264.7063,513.2461 264.0188,512.1836 Q263.3313,511.1055 263.3313,509.8242 L263.3313,508.668 Q263.3313,507.3398 263.9406,506.1992 Q264.5656,505.043 265.6594,504.4336 Q266.7531,503.8086 267.9875,503.8086 Q268.7219,503.8086 269.3625,503.9805 Q270.0188,504.1367 270.5656,504.4961 Z " fill="#000000"/><text fill="#000000" font-family="sans-serif" font-size="14" lengthAdjust="spacing" textLength="76" x="286.2" y="514.418">JobOpening</text><line style="stroke:#181818;stroke-width:0.5;" x1="234" x2="384" y1="524.6211" y2="524.6211"/><rect fill="none" height="6" style="stroke:#C82930;stroke-width:1.0;" width="6" x="241" y="536.4316"/><text fill="#000000" font-family="sans-serif" font-size="14" lengthAdjust="spacing" textLength="15" x="253" y="543.7285">id;</text><rect fill="none" height="6" style="stroke:#C82930;stroke-width:1.0;" width="6" x="241" y="555.0527"/><text fill="#000000" font-family="sans-serif" font-size="14" lengthAdjust="spacing" textLength="126" x="253" y="562.3496">recruitmentProcess;</text><line style="stroke:#181818;stroke-width:0.5;" x1="234" x2="384" y1="569.8633" y2="569.8633"/><ellipse cx="244" cy="584.6738" fill="#84BE84" rx="3" ry="3" style="stroke:#038048;stroke-width:1.0;"/><text fill="#000000" font-family="sans-serif" font-size="14" lengthAdjust="spacing" textLength="58" x="253" y="588.9707">isActive()</text><ellipse cx="244" cy="603.2949" fill="#84BE84" rx="3" ry="3" style="stroke:#038048;stroke-width:1.0;"/><text fill="#000000" font-family="sans-serif" font-size="14" lengthAdjust="spacing" textLength="121" x="253" y="607.5918">closeActivePhase()</text></g><!--class RecruitmentProcess--><g id="elem_RecruitmentProcess"><rect codeLine="30" fill="#F1F1F1" height="178.3477" id="RecruitmentProcess" rx="2.5" ry="2.5" style="stroke:#181818;stroke-width:0.5;" width="159" x="420.5" y="464.6211"/><ellipse cx="435.5" cy="480.6211" fill="#ADD1B2" rx="11" ry="11" style="stroke:#181818;stroke-width:1.0;"/><path d="M438.2656,476.4961 Q438.4219,476.2773 438.6094,476.168 Q438.7969,476.0586 439.0156,476.0586 Q439.3906,476.0586 439.625,476.3242 Q439.8594,476.5742 439.8594,477.1836 L439.8594,478.6367 Q439.8594,479.2461 439.625,479.5117 Q439.3906,479.7773 439.0156,479.7773 Q438.6719,479.7773 438.4688,479.5742 Q438.2656,479.3867 438.1563,478.8711 Q438.1094,478.5117 437.9219,478.3242 Q437.5938,477.9492 436.9844,477.7305 Q436.375,477.5117 435.75,477.5117 Q434.9844,477.5117 434.3438,477.8398 Q433.7188,478.168 433.2188,478.918 Q432.7344,479.668 432.7344,480.6992 L432.7344,481.793 Q432.7344,483.0273 433.625,483.8555 Q434.5156,484.668 436.1094,484.668 Q437.0469,484.668 437.7031,484.418 Q438.0938,484.2617 438.5156,483.8242 Q438.7813,483.5586 438.9219,483.4805 Q439.0781,483.4023 439.2813,483.4023 Q439.6094,483.4023 439.8594,483.668 Q440.125,483.918 440.125,484.2617 Q440.125,484.6055 439.7813,485.0117 Q439.2813,485.5898 438.4844,485.918 Q437.4063,486.3711 436.1094,486.3711 Q434.5938,486.3711 433.3906,485.7461 Q432.4063,485.2461 431.7188,484.1836 Q431.0313,483.1055 431.0313,481.8242 L431.0313,480.668 Q431.0313,479.3398 431.6406,478.1992 Q432.2656,477.043 433.3594,476.4336 Q434.4531,475.8086 435.6875,475.8086 Q436.4219,475.8086 437.0625,475.9805 Q437.7188,476.1367 438.2656,476.4961 Z " fill="#000000"/><text fill="#000000" font-family="sans-serif" font-size="14" lengthAdjust="spacing" textLength="127" x="449.5" y="486.418">RecruitmentProcess</text><line style="stroke:#181818;stroke-width:0.5;" x1="421.5" x2="578.5" y1="496.6211" y2="496.6211"/><rect fill="none" height="6" style="stroke:#C82930;stroke-width:1.0;" width="6" x="428.5" y="508.4316"/><text fill="#000000" font-family="sans-serif" font-size="14" lengthAdjust="spacing" textLength="112" x="440.5" y="515.7285">applicationPhase;</text><rect fill="none" height="6" style="stroke:#C82930;stroke-width:1.0;" width="6" x="428.5" y="527.0527"/><text fill="#000000" font-family="sans-serif" font-size="14" lengthAdjust="spacing" textLength="106" x="440.5" y="534.3496">screeningPhase;</text><rect fill="none" height="6" style="stroke:#C82930;stroke-width:1.0;" width="6" x="428.5" y="545.6738"/><text fill="#000000" font-family="sans-serif" font-size="14" lengthAdjust="spacing" textLength="99" x="440.5" y="552.9707">interviewPhase;</text><rect fill="none" height="6" style="stroke:#C82930;stroke-width:1.0;" width="6" x="428.5" y="564.2949"/><text fill="#000000" font-family="sans-serif" font-size="14" lengthAdjust="spacing" textLength="95" x="440.5" y="571.5918">analysisPhase;</text><rect fill="none" height="6" style="stroke:#C82930;stroke-width:1.0;" width="6" x="428.5" y="582.916"/><text fill="#000000" font-family="sans-serif" font-size="14" lengthAdjust="spacing" textLength="86" x="440.5" y="590.2129">resultsPhase;</text><line style="stroke:#181818;stroke-width:0.5;" x1="421.5" x2="578.5" y1="597.7266" y2="597.7266"/><ellipse cx="431.5" cy="612.5371" fill="#84BE84" rx="3" ry="3" style="stroke:#038048;stroke-width:1.0;"/><text fill="#000000" font-family="sans-serif" font-size="14" lengthAdjust="spacing" textLength="121" x="440.5" y="616.834">closeActivePhase()</text><ellipse cx="431.5" cy="631.1582" fill="#84BE84" rx="3" ry="3" style="stroke:#038048;stroke-width:1.0;"/><text fill="#000000" font-family="sans-serif" font-size="14" lengthAdjust="spacing" textLength="108" x="440.5" y="635.4551">getActivePhase()</text></g><!--class GetActiveJobOpeningsService--><g id="elem_GetActiveJobOpeningsService"><rect codeLine="41" fill="#F1F1F1" height="66.6211" id="GetActiveJobOpeningsService" rx="2.5" ry="2.5" style="stroke:#181818;stroke-width:0.5;" width="252" x="218" y="337.6211"/><ellipse cx="246.05" cy="353.6211" fill="#ADD1B2" rx="11" ry="11" style="stroke:#181818;stroke-width:1.0;"/><path d="M248.8156,349.4961 Q248.9719,349.2773 249.1594,349.168 Q249.3469,349.0586 249.5656,349.0586 Q249.9406,349.0586 250.175,349.3242 Q250.4094,349.5742 250.4094,350.1836 L250.4094,351.6367 Q250.4094,352.2461 250.175,352.5117 Q249.9406,352.7773 249.5656,352.7773 Q249.2219,352.7773 249.0188,352.5742 Q248.8156,352.3867 248.7063,351.8711 Q248.6594,351.5117 248.4719,351.3242 Q248.1438,350.9492 247.5344,350.7305 Q246.925,350.5117 246.3,350.5117 Q245.5344,350.5117 244.8938,350.8398 Q244.2688,351.168 243.7688,351.918 Q243.2844,352.668 243.2844,353.6992 L243.2844,354.793 Q243.2844,356.0273 244.175,356.8555 Q245.0656,357.668 246.6594,357.668 Q247.5969,357.668 248.2531,357.418 Q248.6438,357.2617 249.0656,356.8242 Q249.3313,356.5586 249.4719,356.4805 Q249.6281,356.4023 249.8313,356.4023 Q250.1594,356.4023 250.4094,356.668 Q250.675,356.918 250.675,357.2617 Q250.675,357.6055 250.3313,358.0117 Q249.8313,358.5898 249.0344,358.918 Q247.9563,359.3711 246.6594,359.3711 Q245.1438,359.3711 243.9406,358.7461 Q242.9563,358.2461 242.2688,357.1836 Q241.5813,356.1055 241.5813,354.8242 L241.5813,353.668 Q241.5813,352.3398 242.1906,351.1992 Q242.8156,350.043 243.9094,349.4336 Q245.0031,348.8086 246.2375,348.8086 Q246.9719,348.8086 247.6125,348.9805 Q248.2688,349.1367 248.8156,349.4961 Z " fill="#000000"/><text fill="#000000" font-family="sans-serif" font-size="14" lengthAdjust="spacing" textLength="191" x="262.95" y="359.418">GetActiveJobOpeningsService</text><line style="stroke:#181818;stroke-width:0.5;" x1="219" x2="469" y1="369.6211" y2="369.6211"/><line style="stroke:#181818;stroke-width:0.5;" x1="219" x2="469" y1="377.6211" y2="377.6211"/><ellipse cx="229" cy="392.4316" fill="#84BE84" rx="3" ry="3" style="stroke:#038048;stroke-width:1.0;"/><text fill="#000000" font-family="sans-serif" font-size="14" lengthAdjust="spacing" textLength="226" x="238" y="396.7285">getJobOpeningsWithActivePhases()</text></g><!--class ClosePhaseService--><g id="elem_ClosePhaseService"><rect codeLine="45" fill="#F1F1F1" height="66.6211" id="ClosePhaseService" rx="2.5" ry="2.5" style="stroke:#181818;stroke-width:0.5;" width="246" x="576" y="337.6211"/><ellipse cx="633.25" cy="353.6211" fill="#ADD1B2" rx="11" ry="11" style="stroke:#181818;stroke-width:1.0;"/><path d="M636.0156,349.4961 Q636.1719,349.2773 636.3594,349.168 Q636.5469,349.0586 636.7656,349.0586 Q637.1406,349.0586 637.375,349.3242 Q637.6094,349.5742 637.6094,350.1836 L637.6094,351.6367 Q637.6094,352.2461 637.375,352.5117 Q637.1406,352.7773 636.7656,352.7773 Q636.4219,352.7773 636.2188,352.5742 Q636.0156,352.3867 635.9063,351.8711 Q635.8594,351.5117 635.6719,351.3242 Q635.3438,350.9492 634.7344,350.7305 Q634.125,350.5117 633.5,350.5117 Q632.7344,350.5117 632.0938,350.8398 Q631.4688,351.168 630.9688,351.918 Q630.4844,352.668 630.4844,353.6992 L630.4844,354.793 Q630.4844,356.0273 631.375,356.8555 Q632.2656,357.668 633.8594,357.668 Q634.7969,357.668 635.4531,357.418 Q635.8438,357.2617 636.2656,356.8242 Q636.5313,356.5586 636.6719,356.4805 Q636.8281,356.4023 637.0313,356.4023 Q637.3594,356.4023 637.6094,356.668 Q637.875,356.918 637.875,357.2617 Q637.875,357.6055 637.5313,358.0117 Q637.0313,358.5898 636.2344,358.918 Q635.1563,359.3711 633.8594,359.3711 Q632.3438,359.3711 631.1406,358.7461 Q630.1563,358.2461 629.4688,357.1836 Q628.7813,356.1055 628.7813,354.8242 L628.7813,353.668 Q628.7813,352.3398 629.3906,351.1992 Q630.0156,350.043 631.1094,349.4336 Q632.2031,348.8086 633.4375,348.8086 Q634.1719,348.8086 634.8125,348.9805 Q635.4688,349.1367 636.0156,349.4961 Z " fill="#000000"/><text fill="#000000" font-family="sans-serif" font-size="14" lengthAdjust="spacing" textLength="123" x="653.75" y="359.418">ClosePhaseService</text><line style="stroke:#181818;stroke-width:0.5;" x1="577" x2="821" y1="369.6211" y2="369.6211"/><line style="stroke:#181818;stroke-width:0.5;" x1="577" x2="821" y1="377.6211" y2="377.6211"/><ellipse cx="587" cy="392.4316" fill="#84BE84" rx="3" ry="3" style="stroke:#038048;stroke-width:1.0;"/><text fill="#000000" font-family="sans-serif" font-size="14" lengthAdjust="spacing" textLength="220" x="596" y="396.7285">closePhase(long jobOpeningIndex)</text></g><!--class Phase--><g id="elem_Phase"><rect codeLine="49" fill="#F1F1F1" height="103.8633" id="Phase" rx="2.5" ry="2.5" style="stroke:#181818;stroke-width:0.5;" width="88" x="615" y="501.6211"/><ellipse cx="637.2" cy="517.6211" fill="#ADD1B2" rx="11" ry="11" style="stroke:#181818;stroke-width:1.0;"/><path d="M639.9656,513.4961 Q640.1219,513.2773 640.3094,513.168 Q640.4969,513.0586 640.7156,513.0586 Q641.0906,513.0586 641.325,513.3242 Q641.5594,513.5742 641.5594,514.1836 L641.5594,515.6367 Q641.5594,516.2461 641.325,516.5117 Q641.0906,516.7773 640.7156,516.7773 Q640.3719,516.7773 640.1688,516.5742 Q639.9656,516.3867 639.8563,515.8711 Q639.8094,515.5117 639.6219,515.3242 Q639.2938,514.9492 638.6844,514.7305 Q638.075,514.5117 637.45,514.5117 Q636.6844,514.5117 636.0438,514.8398 Q635.4188,515.168 634.9188,515.918 Q634.4344,516.668 634.4344,517.6992 L634.4344,518.793 Q634.4344,520.0273 635.325,520.8555 Q636.2156,521.668 637.8094,521.668 Q638.7469,521.668 639.4031,521.418 Q639.7938,521.2617 640.2156,520.8242 Q640.4813,520.5586 640.6219,520.4805 Q640.7781,520.4023 640.9813,520.4023 Q641.3094,520.4023 641.5594,520.668 Q641.825,520.918 641.825,521.2617 Q641.825,521.6055 641.4813,522.0117 Q640.9813,522.5898 640.1844,522.918 Q639.1063,523.3711 637.8094,523.3711 Q636.2938,523.3711 635.0906,522.7461 Q634.1063,522.2461 633.4188,521.1836 Q632.7313,520.1055 632.7313,518.8242 L632.7313,517.668 Q632.7313,516.3398 633.3406,515.1992 Q633.9656,514.043 635.0594,513.4336 Q636.1531,512.8086 637.3875,512.8086 Q638.1219,512.8086 638.7625,512.9805 Q639.4188,513.1367 639.9656,513.4961 Z " fill="#000000"/><text fill="#000000" font-family="sans-serif" font-size="14" lengthAdjust="spacing" textLength="40" x="652.8" y="523.418">Phase</text><line style="stroke:#181818;stroke-width:0.5;" x1="616" x2="702" y1="533.6211" y2="533.6211"/><rect fill="none" height="6" style="stroke:#C82930;stroke-width:1.0;" width="6" x="623" y="545.4316"/><text fill="#000000" font-family="sans-serif" font-size="14" lengthAdjust="spacing" textLength="62" x="635" y="552.7285">startDate;</text><rect fill="none" height="6" style="stroke:#C82930;stroke-width:1.0;" width="6" x="623" y="564.0527"/><text fill="#000000" font-family="sans-serif" font-size="14" lengthAdjust="spacing" textLength="58" x="635" y="571.3496">endDate;</text><line style="stroke:#181818;stroke-width:0.5;" x1="616" x2="702" y1="578.8633" y2="578.8633"/><ellipse cx="626" cy="593.6738" fill="#84BE84" rx="3" ry="3" style="stroke:#038048;stroke-width:1.0;"/><text fill="#000000" font-family="sans-serif" font-size="14" lengthAdjust="spacing" textLength="62" x="635" y="597.9707">isActive();</text></g><!--link Runnable to ClosePhaseUI--><g id="link_Runnable_ClosePhaseUI"><path codeLine="55" d="M337.59,80.1211 C349.4,80.1211 343.2,80.1211 355,80.1211 " fill="none" id="Runnable-to-ClosePhaseUI" style="stroke:#181818;stroke-width:1.0;"/><polygon fill="none" points="373,80.1211,355,74.1211,355,86.1211,373,80.1211" style="stroke:#181818;stroke-width:1.0;"/></g><!--link ClosePhaseUI to ClosePhaseController--><g id="link_ClosePhaseUI_ClosePhaseController"><path codeLine="57" d="M433,113.6811 C433,131.3811 433,147.6611 433,167.6111 " fill="none" id="ClosePhaseUI-to-ClosePhaseController" style="stroke:#181818;stroke-width:1.0;stroke-dasharray:7.0,7.0;"/><polygon fill="#181818" points="433,173.6111,437,164.6111,433,168.6111,429,164.6111,433,173.6111" style="stroke:#181818;stroke-width:1.0;"/></g><!--link ClosePhaseController to GetActiveJobOpeningsService--><g id="link_ClosePhaseController_GetActiveJobOpeningsService"><path codeLine="59" d="M401.12,278.0211 C388.85,297.8111 378.3414,314.7415 367.4614,332.2915 " fill="none" id="ClosePhaseController-to-GetActiveJobOpeningsService" style="stroke:#181818;stroke-width:1.0;stroke-dasharray:7.0,7.0;"/><polygon fill="#181818" points="364.3,337.3911,372.4418,331.8494,366.9345,333.1415,365.6424,327.6342,364.3,337.3911" style="stroke:#181818;stroke-width:1.0;"/></g><!--link ClosePhaseController to JobOpeningRepository--><g id="link_ClosePhaseController_JobOpeningRepository"><path codeLine="60" d="M312.41,277.8211 C265.58,297.7011 218.853,317.5365 177.323,335.1665 " fill="none" id="ClosePhaseController-to-JobOpeningRepository" style="stroke:#181818;stroke-width:1.0;stroke-dasharray:7.0,7.0;"/><polygon fill="#181818" points="171.8,337.5111,181.6475,337.6762,176.4025,335.5573,178.5214,330.3123,171.8,337.5111" style="stroke:#181818;stroke-width:1.0;"/></g><!--link ClosePhaseController to JobOpening--><g id="link_ClosePhaseController_JobOpening"><path codeLine="61" d="M469.25,277.9811 C490.3,314.6011 508.91,364.2711 488,404.6211 C466.73,445.6811 438.85,435.4211 403,464.6211 C392.34,473.3011 385.8185,478.8538 375.3085,488.4138 " fill="none" id="ClosePhaseController-to-JobOpening" style="stroke:#181818;stroke-width:1.0;stroke-dasharray:7.0,7.0;"/><polygon fill="#181818" points="370.87,492.4511,380.2193,489.3541,374.5687,489.0867,374.8362,483.4362,370.87,492.4511" style="stroke:#181818;stroke-width:1.0;"/></g><!--link ClosePhaseController to ClosePhaseService--><g id="link_ClosePhaseController_ClosePhaseService"><path codeLine="62" d="M527.91,277.8211 C564.76,297.7011 600.589,317.033 633.279,334.663 " fill="none" id="ClosePhaseController-to-ClosePhaseService" style="stroke:#181818;stroke-width:1.0;stroke-dasharray:7.0,7.0;"/><polygon fill="#181818" points="638.56,337.5111,632.5373,329.7184,634.1592,335.1377,628.7399,336.7596,638.56,337.5111" style="stroke:#181818;stroke-width:1.0;"/></g><!--link JobOpeningRepository to JobOpening--><g id="link_JobOpeningRepository_JobOpening"><path codeLine="64" d="M133.75,404.8111 C162.66,429.1911 198.3835,459.3227 233.0635,488.5727 " fill="none" id="JobOpeningRepository-to-JobOpening" style="stroke:#181818;stroke-width:1.0;stroke-dasharray:7.0,7.0;"/><polygon fill="#181818" points="237.65,492.4411,233.3492,483.5809,233.8279,489.2175,228.1914,489.6962,237.65,492.4411" style="stroke:#181818;stroke-width:1.0;"/></g><!--link JobOpening to RecruitmentProcess--><g id="link_JobOpening_RecruitmentProcess"><path codeLine="65" d="M385.1,553.6211 C396.77,553.6211 402.44,553.6211 414.11,553.6211 " fill="none" id="JobOpening-to-RecruitmentProcess" style="stroke:#181818;stroke-width:1.0;"/><polygon fill="#181818" points="420.11,553.6211,411.11,549.6211,415.11,553.6211,411.11,557.6211,420.11,553.6211" style="stroke:#181818;stroke-width:1.0;"/></g><!--link RecruitmentProcess to Phase--><g id="link_RecruitmentProcess_Phase"><path codeLine="66" d="M579.81,553.6211 C591.46,553.6211 597.11,553.6211 608.77,553.6211 " fill="none" id="RecruitmentProcess-to-Phase" style="stroke:#181818;stroke-width:1.0;"/><polygon fill="#181818" points="614.77,553.6211,605.77,549.6211,609.77,553.6211,605.77,557.6211,614.77,553.6211" style="stroke:#181818;stroke-width:1.0;"/></g><!--reverse link JobOpeningRepository to GetActiveJobOpeningsService--><g id="link_JobOpeningRepository_GetActiveJobOpeningsService"><path codeLine="68" d="M189.03,371.1211 C200.66,371.1211 206.29,371.1211 217.92,371.1211 " fill="none" id="JobOpeningRepository-backto-GetActiveJobOpeningsService" style="stroke:#181818;stroke-width:1.0;stroke-dasharray:7.0,7.0;"/><polygon fill="#181818" points="183.03,371.1211,192.03,375.1211,188.03,371.1211,192.03,367.1211,183.03,371.1211" style="stroke:#181818;stroke-width:1.0;"/></g><!--SRC=[ZPDHQy8m4CVVyodos34KjbT1A7M8OsDIaJt7UDECB2cvgrEsVVVLQcEggTYdzFBBtVzo_v0Y3NoUFJxmx2MTpVXeaexpz9KnPGZSXv30yz8OiQYm7yQhxzwL9hbZVun9BH1vfYt2T2qGvfC6uPrCPWqvgpKupww0dktYhG2Zp0hV5QrJIMfpuB5ASy0-FVEqLKYOL0gvCaL93I5zbN3FYpWLoQ6mgCYwdHU1OWD953uYFQwMW-FAWNIbeYymD7LM0kA07VCeF8XFMgA2Xi8Y-KKUNqmKXLPIaBAcFjQKHkcWbjMAriFQAFXkHOKHUeSAMq47M6fgOjqY_Mmwj8-RdM1sixq82JSFDkAFinJ1IBMjPd4omSGiOHkagA7czf24ev4WtpMOvUatdD9Wdy4xlFSxRFcPiPQx-_rXrCeX5XXyZr-vfkv3CQVUGdSp5nVCMFGvdEKBNa5l6B4hYpYu0kj2Z5tfdVTrLv__]--></g></svg>