<?xml version="1.0" encoding="us-ascii" standalone="no"?><svg xmlns="http://www.w3.org/2000/svg" xmlns:xlink="http://www.w3.org/1999/xlink" contentStyleType="text/css" height="594px" preserveAspectRatio="none" style="width:948px;height:594px;background:#FFFFFF;" version="1.1" viewBox="0 0 948 594" width="948px" zoomAndPan="magnify"><defs/><g><text fill="#000000" font-family="sans-serif" font-size="14" font-weight="bold" lengthAdjust="spacing" textLength="155" x="389.75" y="25.1074">UC20 CLASS DIAGRAM</text><!--class Runnable--><g id="elem_Runnable"><rect codeLine="4" fill="#F1F1F1" height="66.6211" id="Runnable" rx="2.5" ry="2.5" style="stroke:#181818;stroke-width:0.5;" width="93" x="248.5" y="46.6211"/><ellipse cx="263.5" cy="62.6211" fill="#B4A7E5" rx="11" ry="11" style="stroke:#181818;stroke-width:1.0;"/><path d="M264.4531,59.2617 L264.4531,65.918 L266.1719,65.918 Q266.7813,65.918 267.0469,66.1523 Q267.3125,66.3867 267.3125,66.7773 Q267.3125,67.1523 267.0469,67.3867 Q266.7813,67.6211 266.1719,67.6211 L261.0313,67.6211 Q260.4219,67.6211 260.1563,67.3867 Q259.8906,67.1523 259.8906,66.7617 Q259.8906,66.3867 260.1563,66.1523 Q260.4219,65.918 261.0313,65.918 L262.75,65.918 L262.75,59.2617 L261.0313,59.2617 Q260.4219,59.2617 260.1563,59.0273 Q259.8906,58.793 259.8906,58.4023 Q259.8906,58.0273 260.1563,57.793 Q260.4219,57.5586 261.0313,57.5586 L266.1719,57.5586 Q266.7813,57.5586 267.0469,57.793 Q267.3125,58.0273 267.3125,58.4023 Q267.3125,58.793 267.0469,59.0273 Q266.7813,59.2617 266.1719,59.2617 L264.4531,59.2617 Z " fill="#000000"/><text fill="#000000" font-family="sans-serif" font-size="14" font-style="italic" lengthAdjust="spacing" textLength="61" x="277.5" y="68.418">Runnable</text><line style="stroke:#181818;stroke-width:0.5;" x1="249.5" x2="340.5" y1="78.6211" y2="78.6211"/><line style="stroke:#181818;stroke-width:0.5;" x1="249.5" x2="340.5" y1="86.6211" y2="86.6211"/><ellipse cx="259.5" cy="101.4316" fill="#84BE84" rx="3" ry="3" style="stroke:#038048;stroke-width:1.0;"/><text fill="#000000" font-family="sans-serif" font-size="14" lengthAdjust="spacing" textLength="31" x="268.5" y="105.7285">run()</text></g><!--class VerificationRequirementsUI--><g id="elem_VerificationRequirementsUI"><rect codeLine="8" fill="#F1F1F1" height="66.6211" id="VerificationRequirementsUI" rx="2.5" ry="2.5" style="stroke:#181818;stroke-width:0.5;" width="202" x="377" y="46.6211"/><ellipse cx="392" cy="62.6211" fill="#ADD1B2" rx="11" ry="11" style="stroke:#181818;stroke-width:1.0;"/><path d="M394.7656,58.4961 Q394.9219,58.2773 395.1094,58.168 Q395.2969,58.0586 395.5156,58.0586 Q395.8906,58.0586 396.125,58.3242 Q396.3594,58.5742 396.3594,59.1836 L396.3594,60.6367 Q396.3594,61.2461 396.125,61.5117 Q395.8906,61.7773 395.5156,61.7773 Q395.1719,61.7773 394.9688,61.5742 Q394.7656,61.3867 394.6563,60.8711 Q394.6094,60.5117 394.4219,60.3242 Q394.0938,59.9492 393.4844,59.7305 Q392.875,59.5117 392.25,59.5117 Q391.4844,59.5117 390.8438,59.8398 Q390.2188,60.168 389.7188,60.918 Q389.2344,61.668 389.2344,62.6992 L389.2344,63.793 Q389.2344,65.0273 390.125,65.8555 Q391.0156,66.668 392.6094,66.668 Q393.5469,66.668 394.2031,66.418 Q394.5938,66.2617 395.0156,65.8242 Q395.2813,65.5586 395.4219,65.4805 Q395.5781,65.4023 395.7813,65.4023 Q396.1094,65.4023 396.3594,65.668 Q396.625,65.918 396.625,66.2617 Q396.625,66.6055 396.2813,67.0117 Q395.7813,67.5898 394.9844,67.918 Q393.9063,68.3711 392.6094,68.3711 Q391.0938,68.3711 389.8906,67.7461 Q388.9063,67.2461 388.2188,66.1836 Q387.5313,65.1055 387.5313,63.8242 L387.5313,62.668 Q387.5313,61.3398 388.1406,60.1992 Q388.7656,59.043 389.8594,58.4336 Q390.9531,57.8086 392.1875,57.8086 Q392.9219,57.8086 393.5625,57.9805 Q394.2188,58.1367 394.7656,58.4961 Z " fill="#000000"/><text fill="#000000" font-family="sans-serif" font-size="14" lengthAdjust="spacing" textLength="170" x="406" y="68.418">VerificationRequirementsUI</text><line style="stroke:#181818;stroke-width:0.5;" x1="378" x2="578" y1="78.6211" y2="78.6211"/><line style="stroke:#181818;stroke-width:0.5;" x1="378" x2="578" y1="86.6211" y2="86.6211"/><ellipse cx="388" cy="101.4316" fill="#84BE84" rx="3" ry="3" style="stroke:#038048;stroke-width:1.0;"/><text fill="#000000" font-family="sans-serif" font-size="14" lengthAdjust="spacing" textLength="31" x="397" y="105.7285">run()</text></g><!--class VerificationRequirementsController--><g id="elem_VerificationRequirementsController"><rect codeLine="12" fill="#F1F1F1" height="103.8633" id="VerificationRequirementsController" rx="2.5" ry="2.5" style="stroke:#181818;stroke-width:0.5;" width="312" x="322" y="173.6211"/><ellipse cx="364" cy="189.6211" fill="#ADD1B2" rx="11" ry="11" style="stroke:#181818;stroke-width:1.0;"/><path d="M366.7656,185.4961 Q366.9219,185.2773 367.1094,185.168 Q367.2969,185.0586 367.5156,185.0586 Q367.8906,185.0586 368.125,185.3242 Q368.3594,185.5742 368.3594,186.1836 L368.3594,187.6367 Q368.3594,188.2461 368.125,188.5117 Q367.8906,188.7773 367.5156,188.7773 Q367.1719,188.7773 366.9688,188.5742 Q366.7656,188.3867 366.6563,187.8711 Q366.6094,187.5117 366.4219,187.3242 Q366.0938,186.9492 365.4844,186.7305 Q364.875,186.5117 364.25,186.5117 Q363.4844,186.5117 362.8438,186.8398 Q362.2188,187.168 361.7188,187.918 Q361.2344,188.668 361.2344,189.6992 L361.2344,190.793 Q361.2344,192.0273 362.125,192.8555 Q363.0156,193.668 364.6094,193.668 Q365.5469,193.668 366.2031,193.418 Q366.5938,193.2617 367.0156,192.8242 Q367.2813,192.5586 367.4219,192.4805 Q367.5781,192.4023 367.7813,192.4023 Q368.1094,192.4023 368.3594,192.668 Q368.625,192.918 368.625,193.2617 Q368.625,193.6055 368.2813,194.0117 Q367.7813,194.5898 366.9844,194.918 Q365.9063,195.3711 364.6094,195.3711 Q363.0938,195.3711 361.8906,194.7461 Q360.9063,194.2461 360.2188,193.1836 Q359.5313,192.1055 359.5313,190.8242 L359.5313,189.668 Q359.5313,188.3398 360.1406,187.1992 Q360.7656,186.043 361.8594,185.4336 Q362.9531,184.8086 364.1875,184.8086 Q364.9219,184.8086 365.5625,184.9805 Q366.2188,185.1367 366.7656,185.4961 Z " fill="#000000"/><text fill="#000000" font-family="sans-serif" font-size="14" lengthAdjust="spacing" textLength="220" x="384" y="195.418">VerificationRequirementsController</text><line style="stroke:#181818;stroke-width:0.5;" x1="323" x2="633" y1="205.6211" y2="205.6211"/><line style="stroke:#181818;stroke-width:0.5;" x1="323" x2="633" y1="213.6211" y2="213.6211"/><ellipse cx="333" cy="228.4316" fill="#84BE84" rx="3" ry="3" style="stroke:#038048;stroke-width:1.0;"/><text fill="#000000" font-family="sans-serif" font-size="14" lengthAdjust="spacing" textLength="286" x="342" y="232.7285">GetJobOpeningsOnScreeningPhaseService()</text><ellipse cx="333" cy="247.0527" fill="#84BE84" rx="3" ry="3" style="stroke:#038048;stroke-width:1.0;"/><text fill="#000000" font-family="sans-serif" font-size="14" lengthAdjust="spacing" textLength="106" x="342" y="251.3496">getJobOpening()</text><ellipse cx="333" cy="265.6738" fill="#84BE84" rx="3" ry="3" style="stroke:#038048;stroke-width:1.0;"/><text fill="#000000" font-family="sans-serif" font-size="14" lengthAdjust="spacing" textLength="179" x="342" y="269.9707">verifyRequirements(Long id)</text></g><!--class JobOpeningRepository--><g id="elem_JobOpeningRepository"><rect codeLine="18" fill="#F1F1F1" height="66.6211" id="JobOpeningRepository" rx="2.5" ry="2.5" style="stroke:#181818;stroke-width:0.5;" width="176" x="7" y="337.6211"/><ellipse cx="22" cy="353.6211" fill="#ADD1B2" rx="11" ry="11" style="stroke:#181818;stroke-width:1.0;"/><path d="M24.7656,349.4961 Q24.9219,349.2773 25.1094,349.168 Q25.2969,349.0586 25.5156,349.0586 Q25.8906,349.0586 26.125,349.3242 Q26.3594,349.5742 26.3594,350.1836 L26.3594,351.6367 Q26.3594,352.2461 26.125,352.5117 Q25.8906,352.7773 25.5156,352.7773 Q25.1719,352.7773 24.9688,352.5742 Q24.7656,352.3867 24.6563,351.8711 Q24.6094,351.5117 24.4219,351.3242 Q24.0938,350.9492 23.4844,350.7305 Q22.875,350.5117 22.25,350.5117 Q21.4844,350.5117 20.8438,350.8398 Q20.2188,351.168 19.7188,351.918 Q19.2344,352.668 19.2344,353.6992 L19.2344,354.793 Q19.2344,356.0273 20.125,356.8555 Q21.0156,357.668 22.6094,357.668 Q23.5469,357.668 24.2031,357.418 Q24.5938,357.2617 25.0156,356.8242 Q25.2813,356.5586 25.4219,356.4805 Q25.5781,356.4023 25.7813,356.4023 Q26.1094,356.4023 26.3594,356.668 Q26.625,356.918 26.625,357.2617 Q26.625,357.6055 26.2813,358.0117 Q25.7813,358.5898 24.9844,358.918 Q23.9063,359.3711 22.6094,359.3711 Q21.0938,359.3711 19.8906,358.7461 Q18.9063,358.2461 18.2188,357.1836 Q17.5313,356.1055 17.5313,354.8242 L17.5313,353.668 Q17.5313,352.3398 18.1406,351.1992 Q18.7656,350.043 19.8594,349.4336 Q20.9531,348.8086 22.1875,348.8086 Q22.9219,348.8086 23.5625,348.9805 Q24.2188,349.1367 24.7656,349.4961 Z " fill="#000000"/><text fill="#000000" font-family="sans-serif" font-size="14" lengthAdjust="spacing" textLength="144" x="36" y="359.418">JobOpeningRepository</text><line style="stroke:#181818;stroke-width:0.5;" x1="8" x2="182" y1="369.6211" y2="369.6211"/><line style="stroke:#181818;stroke-width:0.5;" x1="8" x2="182" y1="377.6211" y2="377.6211"/><ellipse cx="18" cy="392.4316" fill="#84BE84" rx="3" ry="3" style="stroke:#038048;stroke-width:1.0;"/><text fill="#000000" font-family="sans-serif" font-size="14" lengthAdjust="spacing" textLength="48" x="27" y="396.7285">findAll()</text></g><!--class ApplicationRepository--><g id="elem_ApplicationRepository"><rect codeLine="22" fill="#F1F1F1" height="85.2422" id="ApplicationRepository" rx="2.5" ry="2.5" style="stroke:#181818;stroke-width:0.5;" width="177" x="562.5" y="483.1211"/><ellipse cx="581.1" cy="499.1211" fill="#ADD1B2" rx="11" ry="11" style="stroke:#181818;stroke-width:1.0;"/><path d="M583.8656,494.9961 Q584.0219,494.7773 584.2094,494.668 Q584.3969,494.5586 584.6156,494.5586 Q584.9906,494.5586 585.225,494.8242 Q585.4594,495.0742 585.4594,495.6836 L585.4594,497.1367 Q585.4594,497.7461 585.225,498.0117 Q584.9906,498.2773 584.6156,498.2773 Q584.2719,498.2773 584.0688,498.0742 Q583.8656,497.8867 583.7563,497.3711 Q583.7094,497.0117 583.5219,496.8242 Q583.1938,496.4492 582.5844,496.2305 Q581.975,496.0117 581.35,496.0117 Q580.5844,496.0117 579.9438,496.3398 Q579.3188,496.668 578.8188,497.418 Q578.3344,498.168 578.3344,499.1992 L578.3344,500.293 Q578.3344,501.5273 579.225,502.3555 Q580.1156,503.168 581.7094,503.168 Q582.6469,503.168 583.3031,502.918 Q583.6938,502.7617 584.1156,502.3242 Q584.3813,502.0586 584.5219,501.9805 Q584.6781,501.9023 584.8813,501.9023 Q585.2094,501.9023 585.4594,502.168 Q585.725,502.418 585.725,502.7617 Q585.725,503.1055 585.3813,503.5117 Q584.8813,504.0898 584.0844,504.418 Q583.0063,504.8711 581.7094,504.8711 Q580.1938,504.8711 578.9906,504.2461 Q578.0063,503.7461 577.3188,502.6836 Q576.6313,501.6055 576.6313,500.3242 L576.6313,499.168 Q576.6313,497.8398 577.2406,496.6992 Q577.8656,495.543 578.9594,494.9336 Q580.0531,494.3086 581.2875,494.3086 Q582.0219,494.3086 582.6625,494.4805 Q583.3188,494.6367 583.8656,494.9961 Z " fill="#000000"/><text fill="#000000" font-family="sans-serif" font-size="14" lengthAdjust="spacing" textLength="137" x="595.9" y="504.918">ApplicationRepository</text><line style="stroke:#181818;stroke-width:0.5;" x1="563.5" x2="738.5" y1="515.1211" y2="515.1211"/><line style="stroke:#181818;stroke-width:0.5;" x1="563.5" x2="738.5" y1="523.1211" y2="523.1211"/><ellipse cx="573.5" cy="537.9316" fill="#84BE84" rx="3" ry="3" style="stroke:#038048;stroke-width:1.0;"/><text fill="#000000" font-family="sans-serif" font-size="14" lengthAdjust="spacing" textLength="151" x="582.5" y="542.2285">findAllByJobOpeningId()</text><ellipse cx="573.5" cy="556.5527" fill="#84BE84" rx="3" ry="3" style="stroke:#038048;stroke-width:1.0;"/><text fill="#000000" font-family="sans-serif" font-size="14" lengthAdjust="spacing" textLength="40" x="582.5" y="560.8496">save()</text></g><!--class JobOpening--><g id="elem_JobOpening"><rect codeLine="27" fill="#F1F1F1" height="103.8633" id="JobOpening" rx="2.5" ry="2.5" style="stroke:#181818;stroke-width:0.5;" width="147" x="252.5" y="473.6211"/><ellipse cx="285.05" cy="489.6211" fill="#ADD1B2" rx="11" ry="11" style="stroke:#181818;stroke-width:1.0;"/><path d="M287.8156,485.4961 Q287.9719,485.2773 288.1594,485.168 Q288.3469,485.0586 288.5656,485.0586 Q288.9406,485.0586 289.175,485.3242 Q289.4094,485.5742 289.4094,486.1836 L289.4094,487.6367 Q289.4094,488.2461 289.175,488.5117 Q288.9406,488.7773 288.5656,488.7773 Q288.2219,488.7773 288.0188,488.5742 Q287.8156,488.3867 287.7063,487.8711 Q287.6594,487.5117 287.4719,487.3242 Q287.1438,486.9492 286.5344,486.7305 Q285.925,486.5117 285.3,486.5117 Q284.5344,486.5117 283.8938,486.8398 Q283.2688,487.168 282.7688,487.918 Q282.2844,488.668 282.2844,489.6992 L282.2844,490.793 Q282.2844,492.0273 283.175,492.8555 Q284.0656,493.668 285.6594,493.668 Q286.5969,493.668 287.2531,493.418 Q287.6438,493.2617 288.0656,492.8242 Q288.3313,492.5586 288.4719,492.4805 Q288.6281,492.4023 288.8313,492.4023 Q289.1594,492.4023 289.4094,492.668 Q289.675,492.918 289.675,493.2617 Q289.675,493.6055 289.3313,494.0117 Q288.8313,494.5898 288.0344,494.918 Q286.9563,495.3711 285.6594,495.3711 Q284.1438,495.3711 282.9406,494.7461 Q281.9563,494.2461 281.2688,493.1836 Q280.5813,492.1055 280.5813,490.8242 L280.5813,489.668 Q280.5813,488.3398 281.1906,487.1992 Q281.8156,486.043 282.9094,485.4336 Q284.0031,484.8086 285.2375,484.8086 Q285.9719,484.8086 286.6125,484.9805 Q287.2688,485.1367 287.8156,485.4961 Z " fill="#000000"/><text fill="#000000" font-family="sans-serif" font-size="14" lengthAdjust="spacing" textLength="76" x="302.95" y="495.418">JobOpening</text><line style="stroke:#181818;stroke-width:0.5;" x1="253.5" x2="398.5" y1="505.6211" y2="505.6211"/><rect fill="none" height="6" style="stroke:#C82930;stroke-width:1.0;" width="6" x="260.5" y="517.4316"/><text fill="#000000" font-family="sans-serif" font-size="14" lengthAdjust="spacing" textLength="15" x="272.5" y="524.7285">id;</text><line style="stroke:#181818;stroke-width:0.5;" x1="253.5" x2="398.5" y1="532.2422" y2="532.2422"/><ellipse cx="263.5" cy="547.0527" fill="#84BE84" rx="3" ry="3" style="stroke:#038048;stroke-width:1.0;"/><text fill="#000000" font-family="sans-serif" font-size="14" lengthAdjust="spacing" textLength="58" x="272.5" y="551.3496">isActive()</text><ellipse cx="263.5" cy="565.6738" fill="#84BE84" rx="3" ry="3" style="stroke:#038048;stroke-width:1.0;"/><text fill="#000000" font-family="sans-serif" font-size="14" lengthAdjust="spacing" textLength="121" x="272.5" y="569.9707">closeActivePhase()</text></g><!--class Application--><g id="elem_Application"><rect codeLine="34" fill="#F1F1F1" height="122.4844" id="Application" rx="2.5" ry="2.5" style="stroke:#181818;stroke-width:0.5;" width="167" x="774.5" y="464.6211"/><ellipse cx="819.25" cy="480.6211" fill="#ADD1B2" rx="11" ry="11" style="stroke:#181818;stroke-width:1.0;"/><path d="M822.0156,476.4961 Q822.1719,476.2773 822.3594,476.168 Q822.5469,476.0586 822.7656,476.0586 Q823.1406,476.0586 823.375,476.3242 Q823.6094,476.5742 823.6094,477.1836 L823.6094,478.6367 Q823.6094,479.2461 823.375,479.5117 Q823.1406,479.7773 822.7656,479.7773 Q822.4219,479.7773 822.2188,479.5742 Q822.0156,479.3867 821.9063,478.8711 Q821.8594,478.5117 821.6719,478.3242 Q821.3438,477.9492 820.7344,477.7305 Q820.125,477.5117 819.5,477.5117 Q818.7344,477.5117 818.0938,477.8398 Q817.4688,478.168 816.9688,478.918 Q816.4844,479.668 816.4844,480.6992 L816.4844,481.793 Q816.4844,483.0273 817.375,483.8555 Q818.2656,484.668 819.8594,484.668 Q820.7969,484.668 821.4531,484.418 Q821.8438,484.2617 822.2656,483.8242 Q822.5313,483.5586 822.6719,483.4805 Q822.8281,483.4023 823.0313,483.4023 Q823.3594,483.4023 823.6094,483.668 Q823.875,483.918 823.875,484.2617 Q823.875,484.6055 823.5313,485.0117 Q823.0313,485.5898 822.2344,485.918 Q821.1563,486.3711 819.8594,486.3711 Q818.3438,486.3711 817.1406,485.7461 Q816.1563,485.2461 815.4688,484.1836 Q814.7813,483.1055 814.7813,481.8242 L814.7813,480.668 Q814.7813,479.3398 815.3906,478.1992 Q816.0156,477.043 817.1094,476.4336 Q818.2031,475.8086 819.4375,475.8086 Q820.1719,475.8086 820.8125,475.9805 Q821.4688,476.1367 822.0156,476.4961 Z " fill="#000000"/><text fill="#000000" font-family="sans-serif" font-size="14" lengthAdjust="spacing" textLength="69" x="839.75" y="486.418">Application</text><line style="stroke:#181818;stroke-width:0.5;" x1="775.5" x2="940.5" y1="496.6211" y2="496.6211"/><rect fill="none" height="6" style="stroke:#C82930;stroke-width:1.0;" width="6" x="782.5" y="508.4316"/><text fill="#000000" font-family="sans-serif" font-size="14" lengthAdjust="spacing" textLength="106" x="794.5" y="515.7285">requirementsFile</text><rect fill="none" height="6" style="stroke:#C82930;stroke-width:1.0;" width="6" x="782.5" y="527.0527"/><text fill="#000000" font-family="sans-serif" font-size="14" lengthAdjust="spacing" textLength="84" x="794.5" y="534.3496">jobOpeningId</text><line style="stroke:#181818;stroke-width:0.5;" x1="775.5" x2="940.5" y1="541.8633" y2="541.8633"/><ellipse cx="785.5" cy="556.6738" fill="#84BE84" rx="3" ry="3" style="stroke:#038048;stroke-width:1.0;"/><text fill="#000000" font-family="sans-serif" font-size="14" lengthAdjust="spacing" textLength="141" x="794.5" y="560.9707">getRequirementsFile()</text><ellipse cx="785.5" cy="575.2949" fill="#84BE84" rx="3" ry="3" style="stroke:#038048;stroke-width:1.0;"/><text fill="#000000" font-family="sans-serif" font-size="14" lengthAdjust="spacing" textLength="117" x="794.5" y="579.5918">getJobOpeningId()</text></g><!--class GetJobOpeningsOnScreeningPhaseService--><g id="elem_GetJobOpeningsOnScreeningPhaseService"><rect codeLine="42" fill="#F1F1F1" height="66.6211" id="GetJobOpeningsOnScreeningPhaseService" rx="2.5" ry="2.5" style="stroke:#181818;stroke-width:0.5;" width="312" x="218" y="337.6211"/><ellipse cx="234.8" cy="353.6211" fill="#ADD1B2" rx="11" ry="11" style="stroke:#181818;stroke-width:1.0;"/><path d="M237.5656,349.4961 Q237.7219,349.2773 237.9094,349.168 Q238.0969,349.0586 238.3156,349.0586 Q238.6906,349.0586 238.925,349.3242 Q239.1594,349.5742 239.1594,350.1836 L239.1594,351.6367 Q239.1594,352.2461 238.925,352.5117 Q238.6906,352.7773 238.3156,352.7773 Q237.9719,352.7773 237.7688,352.5742 Q237.5656,352.3867 237.4563,351.8711 Q237.4094,351.5117 237.2219,351.3242 Q236.8938,350.9492 236.2844,350.7305 Q235.675,350.5117 235.05,350.5117 Q234.2844,350.5117 233.6438,350.8398 Q233.0188,351.168 232.5188,351.918 Q232.0344,352.668 232.0344,353.6992 L232.0344,354.793 Q232.0344,356.0273 232.925,356.8555 Q233.8156,357.668 235.4094,357.668 Q236.3469,357.668 237.0031,357.418 Q237.3938,357.2617 237.8156,356.8242 Q238.0813,356.5586 238.2219,356.4805 Q238.3781,356.4023 238.5813,356.4023 Q238.9094,356.4023 239.1594,356.668 Q239.425,356.918 239.425,357.2617 Q239.425,357.6055 239.0813,358.0117 Q238.5813,358.5898 237.7844,358.918 Q236.7063,359.3711 235.4094,359.3711 Q233.8938,359.3711 232.6906,358.7461 Q231.7063,358.2461 231.0188,357.1836 Q230.3313,356.1055 230.3313,354.8242 L230.3313,353.668 Q230.3313,352.3398 230.9406,351.1992 Q231.5656,350.043 232.6594,349.4336 Q233.7531,348.8086 234.9875,348.8086 Q235.7219,348.8086 236.3625,348.9805 Q237.0188,349.1367 237.5656,349.4961 Z " fill="#000000"/><text fill="#000000" font-family="sans-serif" font-size="14" lengthAdjust="spacing" textLength="276" x="249.2" y="359.418">GetJobOpeningsOnScreeningPhaseService</text><line style="stroke:#181818;stroke-width:0.5;" x1="219" x2="529" y1="369.6211" y2="369.6211"/><line style="stroke:#181818;stroke-width:0.5;" x1="219" x2="529" y1="377.6211" y2="377.6211"/><ellipse cx="229" cy="392.4316" fill="#84BE84" rx="3" ry="3" style="stroke:#038048;stroke-width:1.0;"/><text fill="#000000" font-family="sans-serif" font-size="14" lengthAdjust="spacing" textLength="286" x="238" y="396.7285">GetJobOpeningsOnScreeningPhaseService()</text></g><!--class VerificationRequirementsService--><g id="elem_VerificationRequirementsService"><rect codeLine="46" fill="#F1F1F1" height="66.6211" id="VerificationRequirementsService" rx="2.5" ry="2.5" style="stroke:#181818;stroke-width:0.5;" width="237" x="636.5" y="337.6211"/><ellipse cx="651.5" cy="353.6211" fill="#ADD1B2" rx="11" ry="11" style="stroke:#181818;stroke-width:1.0;"/><path d="M654.2656,349.4961 Q654.4219,349.2773 654.6094,349.168 Q654.7969,349.0586 655.0156,349.0586 Q655.3906,349.0586 655.625,349.3242 Q655.8594,349.5742 655.8594,350.1836 L655.8594,351.6367 Q655.8594,352.2461 655.625,352.5117 Q655.3906,352.7773 655.0156,352.7773 Q654.6719,352.7773 654.4688,352.5742 Q654.2656,352.3867 654.1563,351.8711 Q654.1094,351.5117 653.9219,351.3242 Q653.5938,350.9492 652.9844,350.7305 Q652.375,350.5117 651.75,350.5117 Q650.9844,350.5117 650.3438,350.8398 Q649.7188,351.168 649.2188,351.918 Q648.7344,352.668 648.7344,353.6992 L648.7344,354.793 Q648.7344,356.0273 649.625,356.8555 Q650.5156,357.668 652.1094,357.668 Q653.0469,357.668 653.7031,357.418 Q654.0938,357.2617 654.5156,356.8242 Q654.7813,356.5586 654.9219,356.4805 Q655.0781,356.4023 655.2813,356.4023 Q655.6094,356.4023 655.8594,356.668 Q656.125,356.918 656.125,357.2617 Q656.125,357.6055 655.7813,358.0117 Q655.2813,358.5898 654.4844,358.918 Q653.4063,359.3711 652.1094,359.3711 Q650.5938,359.3711 649.3906,358.7461 Q648.4063,358.2461 647.7188,357.1836 Q647.0313,356.1055 647.0313,354.8242 L647.0313,353.668 Q647.0313,352.3398 647.6406,351.1992 Q648.2656,350.043 649.3594,349.4336 Q650.4531,348.8086 651.6875,348.8086 Q652.4219,348.8086 653.0625,348.9805 Q653.7188,349.1367 654.2656,349.4961 Z " fill="#000000"/><text fill="#000000" font-family="sans-serif" font-size="14" lengthAdjust="spacing" textLength="205" x="665.5" y="359.418">VerificationRequirementsService</text><line style="stroke:#181818;stroke-width:0.5;" x1="637.5" x2="872.5" y1="369.6211" y2="369.6211"/><line style="stroke:#181818;stroke-width:0.5;" x1="637.5" x2="872.5" y1="377.6211" y2="377.6211"/><ellipse cx="647.5" cy="392.4316" fill="#84BE84" rx="3" ry="3" style="stroke:#038048;stroke-width:1.0;"/><text fill="#000000" font-family="sans-serif" font-size="14" lengthAdjust="spacing" textLength="179" x="656.5" y="396.7285">verifyRequirements(Long id)</text></g><!--link Runnable to VerificationRequirementsUI--><g id="link_Runnable_VerificationRequirementsUI"><path codeLine="51" d="M341.82,80.1211 C353.53,80.1211 347.23,80.1211 358.93,80.1211 " fill="none" id="Runnable-to-VerificationRequirementsUI" style="stroke:#181818;stroke-width:1.0;"/><polygon fill="none" points="376.93,80.1211,358.93,74.1211,358.93,86.1211,376.93,80.1211" style="stroke:#181818;stroke-width:1.0;"/></g><!--link VerificationRequirementsUI to VerificationRequirementsController--><g id="link_VerificationRequirementsUI_VerificationRequirementsController"><path codeLine="53" d="M478,113.6811 C478,131.3811 478,147.6611 478,167.6111 " fill="none" id="VerificationRequirementsUI-to-VerificationRequirementsController" style="stroke:#181818;stroke-width:1.0;stroke-dasharray:7.0,7.0;"/><polygon fill="#181818" points="478,173.6111,482,164.6111,478,168.6111,474,164.6111,478,173.6111" style="stroke:#181818;stroke-width:1.0;"/></g><!--link VerificationRequirementsController to GetJobOpeningsOnScreeningPhaseService--><g id="link_VerificationRequirementsController_GetJobOpeningsOnScreeningPhaseService"><path codeLine="55" d="M440.75,278.0211 C426.41,297.8111 413.9611,314.9829 401.2411,332.5329 " fill="none" id="VerificationRequirementsController-to-GetJobOpeningsOnScreeningPhaseService" style="stroke:#181818;stroke-width:1.0;stroke-dasharray:7.0,7.0;"/><polygon fill="#181818" points="397.72,337.3911,406.2405,332.4513,400.6543,333.3426,399.7629,327.7564,397.72,337.3911" style="stroke:#181818;stroke-width:1.0;"/></g><!--link VerificationRequirementsController to JobOpeningRepository--><g id="link_VerificationRequirementsController_JobOpeningRepository"><path codeLine="56" d="M341.62,277.7211 C288.43,297.6511 234.6483,317.7953 187.4783,335.4753 " fill="none" id="VerificationRequirementsController-to-JobOpeningRepository" style="stroke:#181818;stroke-width:1.0;stroke-dasharray:7.0,7.0;"/><polygon fill="#181818" points="181.86,337.5811,191.6914,338.1679,186.5419,335.8262,188.8836,330.6768,181.86,337.5811" style="stroke:#181818;stroke-width:1.0;"/></g><!--link VerificationRequirementsController to JobOpening--><g id="link_VerificationRequirementsController_JobOpening"><path codeLine="57" d="M521.73,277.7911 C547.53,314.5411 570.89,364.4611 547,404.6211 C515.3,457.9011 456.4598,487.0867 405.2798,504.2167 " fill="none" id="VerificationRequirementsController-to-JobOpening" style="stroke:#181818;stroke-width:1.0;stroke-dasharray:7.0,7.0;"/><polygon fill="#181818" points="399.59,506.1211,409.3942,507.0577,404.3315,504.5341,406.8551,499.4714,399.59,506.1211" style="stroke:#181818;stroke-width:1.0;"/></g><!--link VerificationRequirementsController to VerificationRequirementsService--><g id="link_VerificationRequirementsController_VerificationRequirementsService"><path codeLine="58" d="M576.83,277.8211 C615.21,297.7011 652.6922,317.1217 686.7322,334.7517 " fill="none" id="VerificationRequirementsController-to-VerificationRequirementsService" style="stroke:#181818;stroke-width:1.0;stroke-dasharray:7.0,7.0;"/><polygon fill="#181818" points="692.06,337.5111,685.9078,329.8201,687.6201,335.2116,682.2287,336.9239,692.06,337.5111" style="stroke:#181818;stroke-width:1.0;"/></g><!--link VerificationRequirementsService to ApplicationRepository--><g id="link_VerificationRequirementsService_ApplicationRepository"><path codeLine="59" d="M732.69,404.8411 C717.11,427.6811 699.5706,453.4041 682.8006,477.9941 " fill="none" id="VerificationRequirementsService-to-ApplicationRepository" style="stroke:#181818;stroke-width:1.0;stroke-dasharray:7.0,7.0;"/><polygon fill="#181818" points="679.42,482.9511,687.7955,477.7693,682.2372,478.8203,681.1862,473.2619,679.42,482.9511" style="stroke:#181818;stroke-width:1.0;"/></g><!--link VerificationRequirementsService to Application--><g id="link_VerificationRequirementsService_Application"><path codeLine="60" d="M777.1,404.8411 C788.86,422.2511 800.342,439.2488 814.092,459.6088 " fill="none" id="VerificationRequirementsService-to-Application" style="stroke:#181818;stroke-width:1.0;stroke-dasharray:7.0,7.0;"/><polygon fill="#181818" points="817.45,464.5811,815.7278,454.884,814.6517,460.4375,809.0981,459.3613,817.45,464.5811" style="stroke:#181818;stroke-width:1.0;"/></g><!--link JobOpeningRepository to JobOpening--><g id="link_JobOpeningRepository_JobOpening"><path codeLine="63" d="M144.27,404.6511 C175.68,425.3811 211.9327,449.3155 247.2127,472.6055 " fill="none" id="JobOpeningRepository-to-JobOpening" style="stroke:#181818;stroke-width:1.0;stroke-dasharray:7.0,7.0;"/><polygon fill="#181818" points="252.22,475.9111,246.9127,467.6145,248.0472,473.1565,242.5053,474.291,252.22,475.9111" style="stroke:#181818;stroke-width:1.0;"/></g><!--reverse link JobOpeningRepository to GetJobOpeningsOnScreeningPhaseService--><g id="link_JobOpeningRepository_GetJobOpeningsOnScreeningPhaseService"><path codeLine="65" d="M189,371.1211 C200.57,371.1211 206.13,371.1211 217.7,371.1211 " fill="none" id="JobOpeningRepository-backto-GetJobOpeningsOnScreeningPhaseService" style="stroke:#181818;stroke-width:1.0;stroke-dasharray:7.0,7.0;"/><polygon fill="#181818" points="183,371.1211,192,375.1211,188,371.1211,192,367.1211,183,371.1211" style="stroke:#181818;stroke-width:1.0;"/></g><!--SRC=[bLFHQi8m57s_Nv57nr36NWT2vr0S3aUBUw_nsjsH9LsI5igsVr-jBWtIsjYdajnpxZtddbYo0jbcTd_7PgieITZJCbh4qGi0IOjwdt9aSI5bkgtBle7LtwqkvEW6VW6uI8rXRwXfJporf6ICNmLf_4HfpMRv3s21Y9cILYiXK3la0kspsgvpb2GpivO9rzZylxwd1XFK9N6ikO_LcL_jJij3kyflD5efcJ7QUJErk1XpPSWgNRafzYHtaH2-XYZFXPFG1tYiMjhbpWraqX97dRrF1EDwjWSuLPE9kAMoLSc5CdWyQrpe6SjnQK_vd0IUZZ-yqQ0rC3whxZQtKUEw1ctfsfKEnkMCTs3Du68y_fbU22t0XK1F9jE0zFPJU0a_K0LP4KhMbU3hiQ68WQN0m7t3qVc6haNMc-ryksUo8CXhDX5zJlu1]--></g></svg>