<?xml version="1.0" encoding="us-ascii" standalone="no"?><svg xmlns="http://www.w3.org/2000/svg" xmlns:xlink="http://www.w3.org/1999/xlink" contentStyleType="text/css" height="386px" preserveAspectRatio="none" style="width:499px;height:386px;background:#FFFFFF;" version="1.1" viewBox="0 0 499 386" width="499px" zoomAndPan="magnify"><defs/><g><text fill="#000000" font-family="sans-serif" font-size="14" font-weight="bold" lengthAdjust="spacing" textLength="159" x="163.25" y="25.1074">Domain Model Level III</text><g id="elem_Client"><rect fill="#F1F1F1" height="49.2422" style="stroke:#181818;stroke-width:0.5;" width="50" x="7" y="139.6211"/><text fill="#000000" font-family="sans-serif" font-size="14" lengthAdjust="spacing" textLength="36" x="14" y="156.7285">Client</text><line style="stroke:#181818;stroke-width:0.5;" x1="8" x2="56" y1="162.2422" y2="162.2422"/><text fill="#000000" font-family="sans-serif" font-size="14" lengthAdjust="spacing" textLength="33" x="13" y="181.3496">email</text></g><g id="elem_ClientId"><rect fill="#F1F1F1" height="38.6211" style="stroke:#181818;stroke-width:0.5;" width="61" x="23.5" y="341.6211"/><text fill="#000000" font-family="sans-serif" font-size="14" lengthAdjust="spacing" textLength="47" x="30.5" y="358.7285">ClientId</text><line style="stroke:#181818;stroke-width:0.5;" x1="24.5" x2="83.5" y1="364.2422" y2="364.2422"/></g><g id="elem_JobOffer"><rect fill="#F1F1F1" height="235.4531" style="stroke:#181818;stroke-width:0.5;" width="122" x="92" y="46.6211"/><text fill="#000000" font-family="sans-serif" font-size="14" lengthAdjust="spacing" textLength="54" x="126" y="63.7285">JobOffer</text><line style="stroke:#181818;stroke-width:0.5;" x1="93" x2="213" y1="69.2422" y2="69.2422"/><text fill="#000000" font-family="sans-serif" font-size="14" lengthAdjust="spacing" textLength="61" x="98" y="88.3496">reference</text><text fill="#000000" font-family="sans-serif" font-size="14" lengthAdjust="spacing" textLength="50" x="98" y="106.9707">function</text><text fill="#000000" font-family="sans-serif" font-size="14" lengthAdjust="spacing" textLength="83" x="98" y="125.5918">contractType</text><text fill="#000000" font-family="sans-serif" font-size="14" lengthAdjust="spacing" textLength="35" x="98" y="144.2129">mode</text><text fill="#000000" font-family="sans-serif" font-size="14" lengthAdjust="spacing" textLength="51" x="98" y="162.834">address</text><text fill="#000000" font-family="sans-serif" font-size="14" lengthAdjust="spacing" textLength="110" x="98" y="181.4551">numberVacances</text><text fill="#000000" font-family="sans-serif" font-size="14" lengthAdjust="spacing" textLength="69" x="98" y="200.0762">description</text><text fill="#000000" font-family="sans-serif" font-size="14" lengthAdjust="spacing" textLength="88" x="98" y="218.6973">requerements</text><text fill="#000000" font-family="sans-serif" font-size="14" lengthAdjust="spacing" textLength="93" x="98" y="237.3184">interviewModel</text><text fill="#000000" font-family="sans-serif" font-size="14" lengthAdjust="spacing" textLength="46" x="98" y="255.9395">phases</text><text fill="#000000" font-family="sans-serif" font-size="14" lengthAdjust="spacing" textLength="35" x="98" y="274.5605">result</text></g><g id="elem_JobOfferId"><rect fill="#F1F1F1" height="38.6211" style="stroke:#181818;stroke-width:0.5;" width="79" x="127.5" y="341.6211"/><text fill="#000000" font-family="sans-serif" font-size="14" lengthAdjust="spacing" textLength="65" x="134.5" y="358.7285">JobOfferId</text><line style="stroke:#181818;stroke-width:0.5;" x1="128.5" x2="205.5" y1="364.2422" y2="364.2422"/></g><g id="elem_Application"><rect fill="#F1F1F1" height="67.8633" style="stroke:#181818;stroke-width:0.5;" width="107" x="249.5" y="130.1211"/><text fill="#000000" font-family="sans-serif" font-size="14" lengthAdjust="spacing" textLength="69" x="268.5" y="147.2285">Application</text><line style="stroke:#181818;stroke-width:0.5;" x1="250.5" x2="355.5" y1="152.7422" y2="152.7422"/><text fill="#000000" font-family="sans-serif" font-size="14" lengthAdjust="spacing" textLength="95" x="255.5" y="171.8496">interviewResult</text><text fill="#000000" font-family="sans-serif" font-size="14" lengthAdjust="spacing" textLength="83" x="255.5" y="190.4707">emailContent</text></g><g id="elem_ApplicantId"><rect fill="#F1F1F1" height="38.6211" style="stroke:#181818;stroke-width:0.5;" width="83" x="392.5" y="341.6211"/><text fill="#000000" font-family="sans-serif" font-size="14" lengthAdjust="spacing" textLength="69" x="399.5" y="358.7285">ApplicantId</text><line style="stroke:#181818;stroke-width:0.5;" x1="393.5" x2="474.5" y1="364.2422" y2="364.2422"/></g><g id="elem_Applicant"><rect fill="#F1F1F1" height="86.4844" style="stroke:#181818;stroke-width:0.5;" width="101" x="391.5" y="121.1211"/><text fill="#000000" font-family="sans-serif" font-size="14" lengthAdjust="spacing" textLength="58" x="413" y="138.2285">Applicant</text><line style="stroke:#181818;stroke-width:0.5;" x1="392.5" x2="491.5" y1="143.7422" y2="143.7422"/><text fill="#000000" font-family="sans-serif" font-size="14" lengthAdjust="spacing" textLength="33" x="397.5" y="162.8496">email</text><text fill="#000000" font-family="sans-serif" font-size="14" lengthAdjust="spacing" textLength="89" x="397.5" y="181.4707">phoneNumber</text><text fill="#000000" font-family="sans-serif" font-size="14" lengthAdjust="spacing" textLength="35" x="397.5" y="200.0918">name</text></g><g id="elem_ApplicationId"><rect fill="#F1F1F1" height="38.6211" style="stroke:#181818;stroke-width:0.5;" width="94" x="256" y="341.6211"/><text fill="#000000" font-family="sans-serif" font-size="14" lengthAdjust="spacing" textLength="80" x="263" y="358.7285">ApplicationId</text><line style="stroke:#181818;stroke-width:0.5;" x1="257" x2="349" y1="364.2422" y2="364.2422"/></g><!--link Client to ClientId--><g id="link_Client_ClientId"><path codeLine="49" d="M34.65,188.6411 C39.08,227.8411 47.1988,299.7888 51.2188,335.4988 " fill="none" id="Client-to-ClientId" style="stroke:#181818;stroke-width:1.0;"/><polygon fill="#181818" points="51.89,341.4611,54.8581,332.0701,51.3307,336.4925,46.9083,332.9651,51.89,341.4611" style="stroke:#181818;stroke-width:1.0;"/><text fill="#000000" font-family="sans-serif" font-size="13" lengthAdjust="spacing" textLength="7" x="27.4428" y="210.724">1</text><text fill="#000000" font-family="sans-serif" font-size="13" lengthAdjust="spacing" textLength="7" x="43.2421" y="330.3158">1</text></g><!--link JobOffer to ClientId--><g id="link_JobOffer_ClientId"><path codeLine="50" d="M93.84,281.6511 C82.03,304.9111 73.6953,321.3207 66.2453,336.0007 " fill="none" id="JobOffer-to-ClientId" style="stroke:#181818;stroke-width:1.0;"/><polygon fill="#181818" points="63.53,341.3511,71.1699,335.1357,65.7928,336.8924,64.036,331.5152,63.53,341.3511" style="stroke:#181818;stroke-width:1.0;"/><text fill="#000000" font-family="sans-serif" font-size="13" lengthAdjust="spacing" textLength="5" x="84.6972" y="304.1416">*</text><text fill="#000000" font-family="sans-serif" font-size="13" lengthAdjust="spacing" textLength="7" x="58.2259" y="330.5227">1</text></g><!--link JobOffer to JobOfferId--><g id="link_JobOffer_JobOfferId"><path codeLine="51" d="M161.37,281.6511 C163.04,304.9111 164.1719,320.6864 165.2219,335.3664 " fill="none" id="JobOffer-to-JobOfferId" style="stroke:#181818;stroke-width:1.0;"/><polygon fill="#181818" points="165.65,341.3511,168.9977,332.0887,165.2933,336.3638,161.0181,332.6594,165.65,341.3511" style="stroke:#181818;stroke-width:1.0;"/><text fill="#000000" font-family="sans-serif" font-size="13" lengthAdjust="spacing" textLength="7" x="154.6972" y="304.1416">1</text><text fill="#000000" font-family="sans-serif" font-size="13" lengthAdjust="spacing" textLength="7" x="157.2859" y="330.5227">1</text></g><!--link Application to JobOfferId--><g id="link_Application_JobOfferId"><path codeLine="52" d="M284.09,198.2511 C270.17,221.9711 250.38,254.4111 231,281.6211 C215.9,302.8211 200.7788,321.1891 187.4088,336.7591 " fill="none" id="Application-to-JobOfferId" style="stroke:#181818;stroke-width:1.0;"/><polygon fill="#181818" points="183.5,341.3111,192.3979,337.0889,186.7574,337.5177,186.3286,331.8772,183.5,341.3111" style="stroke:#181818;stroke-width:1.0;"/><text fill="#000000" font-family="sans-serif" font-size="13" lengthAdjust="spacing" textLength="5" x="275.2763" y="219.911">*</text><text fill="#000000" font-family="sans-serif" font-size="13" lengthAdjust="spacing" textLength="7" x="180.1563" y="330.4714">1</text></g><!--link Application to ApplicantId--><g id="link_Application_ApplicantId"><path codeLine="53" d="M321.99,198.3411 C335.8,221.9811 355.28,254.2511 374,281.6211 C388.43,302.7111 402.6473,321.1615 415.1373,336.8115 " fill="none" id="Application-to-ApplicantId" style="stroke:#181818;stroke-width:1.0;"/><polygon fill="#181818" points="418.88,341.5011,416.3924,331.9716,415.7611,337.5931,410.1396,336.9618,418.88,341.5011" style="stroke:#181818;stroke-width:1.0;"/><text fill="#000000" font-family="sans-serif" font-size="13" lengthAdjust="spacing" textLength="5" x="319.9273" y="220.017">*</text><text fill="#000000" font-family="sans-serif" font-size="13" lengthAdjust="spacing" textLength="7" x="406.4104" y="330.3676">1</text></g><!--link Applicant to ApplicantId--><g id="link_Applicant_ApplicantId"><path codeLine="54" d="M440.26,207.4311 C438.55,249.1011 436.2646,304.8261 435.0146,335.4661 " fill="none" id="Applicant-to-ApplicantId" style="stroke:#181818;stroke-width:1.0;"/><polygon fill="#181818" points="434.77,341.4611,439.1335,332.6316,434.9738,336.4652,431.1402,332.3055,434.77,341.4611" style="stroke:#181818;stroke-width:1.0;"/><text fill="#000000" font-family="sans-serif" font-size="13" lengthAdjust="spacing" textLength="7" x="432.4249" y="229.7012">1</text><text fill="#000000" font-family="sans-serif" font-size="13" lengthAdjust="spacing" textLength="7" x="426.9681" y="330.3158">1</text></g><!--link Application to ApplicationId--><g id="link_Application_ApplicationId"><path codeLine="55" d="M303,198.2011 C303,239.4911 303,302.6811 303,335.6211 " fill="none" id="Application-to-ApplicationId" style="stroke:#181818;stroke-width:1.0;"/><polygon fill="#181818" points="303,341.6211,307,332.6211,303,336.6211,299,332.6211,303,341.6211" style="stroke:#181818;stroke-width:1.0;"/><text fill="#000000" font-family="sans-serif" font-size="13" lengthAdjust="spacing" textLength="7" x="295.3547" y="220.1195">1</text><text fill="#000000" font-family="sans-serif" font-size="13" lengthAdjust="spacing" textLength="7" x="294.9719" y="330.5228">1</text></g><!--SRC=[XL71JiGW4Btp5QJ7JVRW3vYOzLAZRcBCtYbC8mO61Bh66F_T4ReiRXljWGxpthoPDoIT3F1RPuL6_k0K67uFHphxlcVC3QyW4zyP3PZu9-Fq0L4D-xe0UqLmaxrpmtuS8Sn50IW6b91luuGoQOVv8Xsc86Hw_l05jJH53eHI0MBCCKvsW70GKf18IIc8CcXVXGAyJTJ4qZI5e351E6fupxvooh-8E9SJFquchSnywUN6UwEb-6aqswdAJqMZxcL7PgZ_idYveGhysciPqY4yPiF5kx2mFaxLB8_GNNLykxtcz3-z2ZkPwZP_OEUwymvOqwSf_fVG66OrRZgiu5bXmIW6sJS0]--></g></svg>